# Blender 4.4.3
# www.blender.org
mtllib background_sky.mtl
o 球.001
v 257.693756 691.655457 0.000013
v 408.981201 540.368042 0.000020
v 490.857391 342.701416 0.000024
v 501.393646 235.725006 0.000024
v 490.857391 128.748611 0.000024
v 408.981201 -68.917999 0.000020
v 57.971607 773.531616 20.870062
v 158.860443 -270.877747 40.938107
v 57.971607 -302.081635 20.870062
v 146.919235 -270.877747 80.302971
v 51.884029 -302.081635 40.938091
v 127.527771 -270.877747 116.581841
v 41.998348 -302.081635 59.432899
v 101.431244 -270.877747 148.380524
v 28.694454 -302.081635 75.643723
v 69.632538 -270.877747 174.477036
v 12.483624 -302.081635 88.947609
v -46.949261 784.067871 0.000000
v 33.353680 -270.877747 193.868469
v -6.011185 -302.081635 98.833275
v -6.011189 -270.877747 205.809677
v -26.079216 -302.081635 104.920845
v -46.949284 -270.877747 209.841721
v -46.949272 -302.081635 106.976357
v -87.887375 -270.877747 205.809677
v -67.819321 -302.081635 104.920837
v -127.252228 -270.877747 193.868469
v -87.887344 -302.081635 98.833260
v -163.531097 -270.877747 174.477005
v -106.382141 -302.081635 88.947578
v -195.329773 -270.877747 148.380478
v -122.592957 -302.081635 75.643692
v -221.426285 -270.877747 116.581772
v -135.896835 -302.081635 59.432861
v -240.817719 -270.877747 80.302902
v -145.782501 -302.081635 40.938061
v -151.870071 773.531616 20.870039
v -252.758896 -270.877747 40.938046
v -151.870071 -302.081635 20.870039
v -153.925583 773.531616 -0.000009
v -256.790955 742.327759 -0.000038
v -351.592072 691.655457 -0.000066
v -434.686157 623.461975 -0.000025
v -502.879517 540.368042 -0.000077
v -553.551880 445.566772 -0.000006
v -584.755737 342.701416 -0.000097
v -595.291809 235.725006 -0.000204
v -584.755737 128.748611 -0.000097
v -553.551880 25.883255 -0.000006
v -502.879517 -68.917999 -0.000077
v -434.686157 -152.011963 -0.000025
v -351.592072 -220.205444 -0.000066
v -256.790955 -270.877747 -0.000038
v -153.925583 -302.081635 -0.000009
v -151.870056 773.531616 -20.870052
v -252.758896 742.327759 -40.938118
v -345.738464 691.655457 -59.432934
v -427.235901 623.461975 -75.643738
v -494.118927 540.368042 -88.947662
v -543.817627 445.566772 -98.833275
v -574.421936 342.701416 -104.920929
v -584.755493 235.725006 -106.976524
v -574.421936 128.748611 -104.920929
v -543.817627 25.883255 -98.833275
v -494.118927 -68.917999 -88.947662
v -427.235901 -152.011963 -75.643738
v -345.738464 -220.205444 -59.432934
v -252.758896 -270.877747 -40.938118
v -151.870056 -302.081635 -20.870052
v -145.782486 773.531616 -40.938068
v -240.817703 742.327759 -80.302971
v -328.402466 691.655457 -116.581825
v -405.171417 623.461975 -148.380508
v -468.173859 540.368042 -174.477036
v -514.989075 445.566772 -193.868423
v -543.817566 342.701416 -205.809708
v -553.551575 235.725006 -209.841782
v -543.817566 128.748611 -205.809708
v -514.989075 25.883255 -193.868423
v -468.173859 -68.917999 -174.477036
v -405.171417 -152.011963 -148.380508
v -328.402466 -220.205444 -116.581825
v -240.817703 -270.877747 -80.302971
v -145.782486 -302.081635 -40.938068
v -135.896820 773.531616 -59.432861
v -221.426239 742.327759 -116.581818
v -300.250427 691.655457 -169.250534
v -369.340698 623.461975 -215.415100
v -426.041351 540.368042 -253.301331
v -468.173920 445.566772 -281.453339
v -494.118896 342.701416 -298.789368
v -502.879242 235.725006 -304.642975
v -494.118896 128.748611 -298.789368
v -468.173920 25.883255 -281.453339
v -426.041351 -68.917999 -253.301331
v -369.340698 -152.011963 -215.415100
v -300.250427 -220.205444 -169.250534
v -221.426239 -270.877747 -116.581818
v -135.896820 -302.081635 -59.432861
v -122.592926 773.531616 -75.643677
v -195.329727 742.327759 -148.380493
v -262.364166 691.655457 -215.415039
v -321.120636 623.461975 -274.171387
v -369.340546 540.368042 -322.391388
v -405.171356 445.566772 -358.222137
v -427.235718 342.701416 -380.286682
v -434.685730 235.725006 -387.736847
v -427.235718 128.748611 -380.286682
v -405.171356 25.883255 -358.222137
v -369.340546 -68.917999 -322.391388
v -321.120636 -152.011963 -274.171387
v -262.364166 -220.205444 -215.415039
v -195.329727 -270.877747 -148.380493
v -122.592926 -302.081635 -75.643677
v -46.949261 -312.617889 0.000000
v -106.382103 773.531616 -88.947556
v -163.531021 742.327759 -174.476990
v -216.199646 691.655457 -253.301254
v -262.364288 623.461975 -322.391449
v -300.250458 540.368042 -379.092163
v -328.402557 445.566772 -421.224640
v -345.738342 342.701416 -447.169739
v -351.591766 235.725006 -455.930176
v -345.738342 128.748611 -447.169739
v -328.402557 25.883255 -421.224640
v -300.250458 -68.917999 -379.092163
v -262.364288 -152.011963 -322.391449
v -216.199646 -220.205444 -253.301254
v -163.531021 -270.877747 -174.476990
v -106.382103 -302.081635 -88.947556
v -87.887306 773.531616 -98.833221
v -127.252151 742.327759 -193.868423
v -163.530914 691.655457 -281.453217
v -195.329727 623.461975 -358.222168
v -221.426102 540.368042 -421.224609
v -240.817673 445.566772 -468.039764
v -252.758728 342.701416 -496.868378
v -256.790558 235.725006 -506.602417
v -252.758728 128.748611 -496.868378
v -240.817673 25.883255 -468.039764
v -221.426102 -68.917999 -421.224609
v -195.329727 -152.011963 -358.222168
v -163.530914 -220.205444 -281.453217
v -127.252151 -270.877747 -193.868423
v -87.887306 -302.081635 -98.833221
v -67.819290 773.531616 -104.920776
v -87.887299 742.327759 -205.809601
v -106.382027 691.655457 -298.789124
v -122.592941 623.461975 -380.286652
v -135.896729 540.368042 -447.169647
v -145.782501 445.566772 -496.868347
v -151.869934 342.701416 -527.472656
v -153.925293 235.725006 -537.806152
v -151.869934 128.748611 -527.472656
v -145.782501 25.883255 -496.868347
v -135.896729 -68.917999 -447.169647
v -122.592941 -152.011963 -380.286652
v -106.382027 -220.205444 -298.789124
v -87.887299 -270.877747 -205.809601
v -67.819290 -302.081635 -104.920776
v -46.949245 773.531616 -106.976295
v -46.949223 742.327759 -209.841644
v -46.949165 691.655457 -304.642731
v -46.949226 623.461975 -387.736877
v -46.949150 540.368042 -455.930206
v -46.949230 445.566772 -506.602570
v -46.949089 342.701416 -537.806396
v -46.948990 235.725006 -548.342346
v -46.949089 128.748611 -537.806396
v -46.949230 25.883255 -506.602570
v -46.949150 -68.917999 -455.930206
v -46.949226 -152.011963 -387.736877
v -46.949165 -220.205444 -304.642731
v -46.949223 -270.877747 -209.841644
v -46.949245 -302.081635 -106.976295
v -26.079206 773.531616 -104.920769
v -6.011150 742.327759 -205.809586
v 12.483681 691.655457 -298.789093
v 28.694485 623.461975 -380.286621
v 41.998432 540.368042 -447.169586
v 51.884029 445.566772 -496.868317
v 57.971729 342.701416 -527.472534
v 60.027294 235.725006 -537.806091
v 57.971729 128.748611 -527.472534
v 51.884029 25.883255 -496.868317
v 41.998432 -68.917999 -447.169586
v 28.694485 -152.011963 -380.286621
v 12.483681 -220.205444 -298.789093
v -6.011150 -270.877747 -205.809586
v -26.079206 -302.081635 -104.920769
v -6.011192 773.531616 -98.833206
v 33.353695 742.327759 -193.868393
v 69.632553 691.655457 -281.453125
v 101.431244 623.461975 -358.222137
v 127.527771 540.368042 -421.224518
v 146.919159 445.566772 -468.039734
v 158.860474 342.701416 -496.868225
v 162.892517 235.725006 -506.602173
v 158.860474 128.748611 -496.868225
v 146.919159 25.883255 -468.039734
v 127.527771 -68.917999 -421.224518
v 101.431244 -152.011963 -358.222137
v 69.632553 -220.205444 -281.453125
v 33.353695 -270.877747 -193.868393
v -6.011192 -302.081635 -98.833206
v 12.483597 773.531616 -88.947525
v 69.632538 742.327759 -174.476913
v 122.301254 691.655457 -253.301086
v 168.465820 623.461975 -322.391388
v 206.352066 540.368042 -379.092010
v 234.504074 445.566772 -421.224609
v 251.840103 342.701416 -447.169556
v 257.693695 235.725006 -455.929810
v 251.840103 128.748611 -447.169556
v 234.504074 25.883255 -421.224609
v 206.352066 -68.917999 -379.092010
v 168.465820 -152.011963 -322.391388
v 122.301254 -220.205444 -253.301086
v 69.632538 -270.877747 -174.476913
v 12.483597 -302.081635 -88.947525
v 28.694408 773.531616 -75.643654
v 101.431198 742.327759 -148.380417
v 168.465744 691.655457 -215.414810
v 227.222122 623.461975 -274.171356
v 275.442108 540.368042 -322.391205
v 311.272858 445.566772 -358.222046
v 333.337402 342.701416 -380.286377
v 340.787537 235.725006 -387.736359
v 333.337402 128.748611 -380.286377
v 311.272858 25.883255 -358.222046
v 275.442108 -68.917999 -322.391205
v 227.222122 -152.011963 -274.171356
v 168.465744 -220.205444 -215.414810
v 101.431198 -270.877747 -148.380417
v 28.694408 -302.081635 -75.643654
v 41.998272 773.531616 -59.432827
v 127.527695 742.327759 -116.581734
v 206.351944 691.655457 -169.250290
v 275.442200 623.461975 -215.415009
v 332.142853 540.368042 -253.301102
v 374.275360 445.566772 -281.453247
v 400.220428 342.701416 -298.789032
v 408.980835 235.725006 -304.642426
v 400.220428 128.748611 -298.789032
v 374.275360 25.883255 -281.453247
v 332.142853 -68.917999 -253.301102
v 275.442200 -152.011963 -215.415009
v 206.351944 -220.205444 -169.250290
v 127.527695 -270.877747 -116.581734
v 41.998272 -302.081635 -59.432827
v 51.883938 773.531616 -40.938038
v 146.919144 742.327759 -80.302879
v 234.503891 691.655457 -116.581581
v 311.272919 623.461975 -148.380417
v 374.275299 540.368042 -174.476776
v 421.090485 445.566772 -193.868362
v 449.919037 342.701416 -205.809402
v 459.653015 235.725006 -209.841248
v 449.919037 128.748611 -205.809402
v 421.090485 25.883255 -193.868362
v 374.275299 -68.917999 -174.476776
v 311.272919 -152.011963 -148.380417
v 234.503891 -220.205444 -116.581581
v 146.919144 -270.877747 -80.302879
v 51.883938 -302.081635 -40.938038
v 57.971493 773.531616 -20.870024
v 158.860321 742.327759 -40.938030
v 251.839767 691.655457 -59.432705
v 333.337402 623.461975 -75.643654
v 400.220306 540.368042 -88.947411
v 449.919037 445.566772 -98.833199
v 480.523285 342.701416 -104.920631
v 490.856781 235.725006 -106.975983
v 480.523285 128.748611 -104.920631
v 449.919037 25.883255 -98.833199
v 400.220306 -68.917999 -88.947411
v 333.337402 -152.011963 -75.643654
v 251.839767 -220.205444 -59.432705
v 158.860321 -270.877747 -40.938030
v 57.971493 -302.081635 -20.870024
v 60.027012 773.531616 0.000013
v 162.892365 742.327759 0.000046
v 340.787628 623.461975 0.000066
v 459.653259 445.566772 0.000055
v 459.653259 25.883255 0.000055
v 340.787628 -152.011963 0.000066
v 257.693359 -220.205444 0.000132
v 162.892365 -270.877747 0.000046
v 60.027012 -302.081635 0.000013
vn -0.5589 -0.8274 0.0551
vn -0.8305 -0.5509 0.0818
vn -0.9765 -0.1930 0.0962
vn -0.9952 -0.0000 0.0980
vn -0.9765 0.1930 0.0962
vn -0.8305 0.5509 0.0818
vn -0.0980 -0.9951 -0.0097
vn -0.2847 0.9569 -0.0566
vn -0.1971 0.9796 -0.0392
vn -0.2682 0.9569 -0.1111
vn -0.1857 0.9796 -0.0769
vn -0.2414 0.9569 -0.1613
vn -0.1671 0.9796 -0.1117
vn -0.2053 0.9569 -0.2053
vn -0.1421 0.9796 -0.1421
vn -0.1613 0.9569 -0.2414
vn -0.1117 0.9796 -0.1671
vn -0.0000 -0.9985 0.0549
vn -0.1111 0.9569 -0.2682
vn -0.0769 0.9796 -0.1857
vn -0.0566 0.9569 -0.2847
vn -0.0392 0.9796 -0.1971
vn -0.0000 0.9569 -0.2903
vn -0.0000 0.9796 -0.2010
vn 0.0566 0.9569 -0.2847
vn 0.0392 0.9796 -0.1971
vn 0.1111 0.9569 -0.2682
vn 0.0769 0.9796 -0.1857
vn 0.1613 0.9569 -0.2414
vn 0.1117 0.9796 -0.1671
vn 0.2053 0.9569 -0.2053
vn 0.1421 0.9796 -0.1421
vn 0.2414 0.9569 -0.1613
vn 0.1671 0.9796 -0.1117
vn 0.2682 0.9569 -0.1111
vn 0.1857 0.9796 -0.0769
vn 0.0980 -0.9951 -0.0097
vn 0.2847 0.9569 -0.0566
vn 0.1971 0.9796 -0.0392
vn 0.1682 -0.9857 0.0104
vn 0.3876 -0.9210 0.0382
vn 0.5589 -0.8274 0.0550
vn 0.7084 -0.7023 0.0698
vn 0.8305 -0.5509 0.0818
vn 0.9210 -0.3790 0.0907
vn 0.9765 -0.1930 0.0962
vn 0.9952 -0.0000 0.0980
vn 0.9765 0.1930 0.0962
vn 0.9210 0.3790 0.0907
vn 0.8305 0.5509 0.0818
vn 0.7084 0.7023 0.0698
vn 0.5589 0.8274 0.0550
vn 0.3569 0.9340 0.0168
vn 0.2010 0.9796 -0.0000
vn 0.1971 -0.9796 0.0392
vn 0.3804 -0.9217 0.0757
vn 0.5490 -0.8286 0.1092
vn 0.6965 -0.7041 0.1385
vn 0.8173 -0.5528 0.1626
vn 0.9070 -0.3805 0.1804
vn 0.9622 -0.1939 0.1914
vn 0.9808 -0.0000 0.1951
vn 0.9622 0.1939 0.1914
vn 0.9070 0.3805 0.1804
vn 0.8173 0.5528 0.1626
vn 0.6965 0.7041 0.1385
vn 0.5490 0.8286 0.1092
vn 0.3804 0.9217 0.0757
vn 0.1971 0.9796 0.0392
vn 0.1857 -0.9796 0.0769
vn 0.3584 -0.9217 0.1484
vn 0.5172 -0.8286 0.2142
vn 0.6561 -0.7041 0.2718
vn 0.7699 -0.5528 0.3189
vn 0.8544 -0.3805 0.3539
vn 0.9063 -0.1939 0.3754
vn 0.9239 -0.0000 0.3827
vn 0.9063 0.1939 0.3754
vn 0.8544 0.3805 0.3539
vn 0.7699 0.5528 0.3189
vn 0.6561 0.7041 0.2718
vn 0.5172 0.8286 0.2142
vn 0.3584 0.9217 0.1484
vn 0.1857 0.9796 0.0769
vn 0.1671 -0.9796 0.1117
vn 0.3225 -0.9217 0.2155
vn 0.4654 -0.8286 0.3110
vn 0.5905 -0.7041 0.3945
vn 0.6929 -0.5528 0.4630
vn 0.7689 -0.3805 0.5138
vn 0.8157 -0.1939 0.5450
vn 0.8315 -0.0000 0.5556
vn 0.8157 0.1939 0.5450
vn 0.7689 0.3805 0.5138
vn 0.6929 0.5528 0.4630
vn 0.5905 0.7041 0.3945
vn 0.4654 0.8286 0.3110
vn 0.3225 0.9217 0.2155
vn 0.1671 0.9796 0.1117
vn 0.1421 -0.9796 0.1421
vn 0.2743 -0.9217 0.2743
vn 0.3958 -0.8286 0.3958
vn 0.5021 -0.7041 0.5021
vn 0.5893 -0.5528 0.5893
vn 0.6539 -0.3805 0.6539
vn 0.6937 -0.1939 0.6937
vn 0.7071 -0.0000 0.7071
vn 0.6937 0.1939 0.6937
vn 0.6539 0.3805 0.6539
vn 0.5893 0.5528 0.5893
vn 0.5021 0.7041 0.5021
vn 0.3958 0.8286 0.3958
vn 0.2743 0.9217 0.2743
vn 0.1421 0.9796 0.1421
vn -0.0000 1.0000 -0.0000
vn 0.1117 -0.9796 0.1671
vn 0.2155 -0.9217 0.3225
vn 0.3110 -0.8286 0.4654
vn 0.3945 -0.7041 0.5905
vn 0.4630 -0.5528 0.6929
vn 0.5138 -0.3805 0.7689
vn 0.5450 -0.1939 0.8157
vn 0.5556 -0.0000 0.8315
vn 0.5450 0.1939 0.8157
vn 0.5138 0.3805 0.7689
vn 0.4630 0.5528 0.6929
vn 0.3945 0.7041 0.5905
vn 0.3110 0.8286 0.4654
vn 0.2155 0.9217 0.3225
vn 0.1117 0.9796 0.1671
vn 0.0769 -0.9796 0.1857
vn 0.1484 -0.9217 0.3584
vn 0.2142 -0.8286 0.5172
vn 0.2718 -0.7041 0.6561
vn 0.3189 -0.5528 0.7699
vn 0.3539 -0.3805 0.8544
vn 0.3754 -0.1939 0.9063
vn 0.3827 -0.0000 0.9239
vn 0.3754 0.1939 0.9063
vn 0.3539 0.3805 0.8544
vn 0.3189 0.5528 0.7699
vn 0.2718 0.7041 0.6561
vn 0.2142 0.8286 0.5172
vn 0.1484 0.9217 0.3584
vn 0.0769 0.9796 0.1857
vn 0.0392 -0.9796 0.1971
vn 0.0757 -0.9217 0.3804
vn 0.1092 -0.8286 0.5490
vn 0.1385 -0.7041 0.6965
vn 0.1626 -0.5528 0.8173
vn 0.1804 -0.3805 0.9070
vn 0.1914 -0.1939 0.9622
vn 0.1951 -0.0000 0.9808
vn 0.1914 0.1939 0.9622
vn 0.1804 0.3805 0.9070
vn 0.1626 0.5528 0.8173
vn 0.1385 0.7041 0.6965
vn 0.1092 0.8286 0.5490
vn 0.0757 0.9217 0.3804
vn 0.0392 0.9796 0.1971
vn -0.0000 -0.9796 0.2010
vn -0.0000 -0.9217 0.3879
vn -0.0000 -0.8286 0.5598
vn -0.0000 -0.7041 0.7101
vn -0.0000 -0.5528 0.8333
vn -0.0000 -0.3805 0.9248
vn -0.0000 -0.1939 0.9810
vn -0.0000 -0.0000 1.0000
vn -0.0000 0.1939 0.9810
vn -0.0000 0.3805 0.9248
vn -0.0000 0.5528 0.8333
vn -0.0000 0.7041 0.7101
vn -0.0000 0.8286 0.5598
vn -0.0000 0.9217 0.3879
vn -0.0000 0.9796 0.2010
vn -0.0392 -0.9796 0.1971
vn -0.0757 -0.9217 0.3804
vn -0.1092 -0.8286 0.5490
vn -0.1385 -0.7041 0.6965
vn -0.1626 -0.5528 0.8173
vn -0.1804 -0.3805 0.9070
vn -0.1914 -0.1939 0.9622
vn -0.1951 -0.0000 0.9808
vn -0.1914 0.1939 0.9622
vn -0.1804 0.3805 0.9070
vn -0.1626 0.5528 0.8173
vn -0.1385 0.7041 0.6965
vn -0.1092 0.8286 0.5490
vn -0.0757 0.9217 0.3804
vn -0.0392 0.9796 0.1971
vn -0.0769 -0.9796 0.1857
vn -0.1484 -0.9217 0.3584
vn -0.2142 -0.8286 0.5172
vn -0.2718 -0.7041 0.6561
vn -0.3189 -0.5528 0.7699
vn -0.3539 -0.3805 0.8544
vn -0.3754 -0.1939 0.9063
vn -0.3827 -0.0000 0.9239
vn -0.3754 0.1939 0.9063
vn -0.3539 0.3805 0.8544
vn -0.3189 0.5528 0.7699
vn -0.2718 0.7041 0.6561
vn -0.2142 0.8286 0.5172
vn -0.1484 0.9217 0.3584
vn -0.0769 0.9796 0.1857
vn -0.1117 -0.9796 0.1671
vn -0.2155 -0.9217 0.3225
vn -0.3110 -0.8286 0.4654
vn -0.3945 -0.7041 0.5905
vn -0.4630 -0.5528 0.6929
vn -0.5138 -0.3805 0.7689
vn -0.5450 -0.1939 0.8157
vn -0.5556 -0.0000 0.8315
vn -0.5450 0.1939 0.8157
vn -0.5138 0.3805 0.7689
vn -0.4630 0.5528 0.6929
vn -0.3945 0.7041 0.5905
vn -0.3110 0.8286 0.4654
vn -0.2155 0.9217 0.3225
vn -0.1117 0.9796 0.1671
vn -0.1421 -0.9796 0.1421
vn -0.2743 -0.9217 0.2743
vn -0.3958 -0.8286 0.3958
vn -0.5021 -0.7041 0.5021
vn -0.5893 -0.5528 0.5893
vn -0.6539 -0.3805 0.6539
vn -0.6937 -0.1939 0.6937
vn -0.7071 -0.0000 0.7071
vn -0.6937 0.1939 0.6937
vn -0.6539 0.3805 0.6539
vn -0.5893 0.5528 0.5893
vn -0.5021 0.7041 0.5021
vn -0.3958 0.8286 0.3958
vn -0.2743 0.9217 0.2743
vn -0.1421 0.9796 0.1421
vn -0.1671 -0.9796 0.1117
vn -0.3225 -0.9217 0.2155
vn -0.4654 -0.8286 0.3110
vn -0.5905 -0.7041 0.3945
vn -0.6929 -0.5528 0.4630
vn -0.7689 -0.3805 0.5138
vn -0.8157 -0.1939 0.5450
vn -0.8315 -0.0000 0.5556
vn -0.8157 0.1939 0.5450
vn -0.7689 0.3805 0.5138
vn -0.6929 0.5528 0.4630
vn -0.5905 0.7041 0.3945
vn -0.4654 0.8286 0.3110
vn -0.3225 0.9217 0.2155
vn -0.1671 0.9796 0.1117
vn -0.1857 -0.9796 0.0769
vn -0.3584 -0.9217 0.1484
vn -0.5172 -0.8286 0.2142
vn -0.6561 -0.7041 0.2718
vn -0.7699 -0.5528 0.3189
vn -0.8544 -0.3805 0.3539
vn -0.9063 -0.1939 0.3754
vn -0.9239 -0.0000 0.3827
vn -0.9063 0.1939 0.3754
vn -0.8544 0.3805 0.3539
vn -0.7699 0.5528 0.3189
vn -0.6561 0.7041 0.2718
vn -0.5172 0.8286 0.2142
vn -0.3584 0.9217 0.1484
vn -0.1857 0.9796 0.0769
vn -0.1971 -0.9796 0.0392
vn -0.3804 -0.9217 0.0757
vn -0.5490 -0.8286 0.1092
vn -0.6965 -0.7041 0.1385
vn -0.8173 -0.5528 0.1626
vn -0.9070 -0.3805 0.1804
vn -0.9622 -0.1939 0.1914
vn -0.9808 -0.0000 0.1951
vn -0.9622 0.1939 0.1914
vn -0.9070 0.3805 0.1804
vn -0.8173 0.5528 0.1626
vn -0.6965 0.7041 0.1385
vn -0.5490 0.8286 0.1092
vn -0.3804 0.9217 0.0757
vn -0.1971 0.9796 0.0392
vn -0.1682 -0.9857 0.0104
vn -0.3876 -0.9210 0.0382
vn -0.7084 -0.7023 0.0698
vn -0.9210 -0.3790 0.0907
vn -0.9210 0.3790 0.0907
vn -0.7084 0.7023 0.0698
vn -0.5589 0.8274 0.0550
vn -0.3569 0.9340 0.0168
vn -0.2010 0.9796 -0.0000
vt 0.167058 0.123388
vt 0.168058 0.125191
vt 0.166803 0.123656
vt 0.151847 0.139402
vt 0.151566 0.139681
vt 0.150283 0.138105
vt 0.165547 0.122322
vt 0.167248 0.123069
vt 0.168611 0.124610
vt 0.169290 0.123186
vt 0.169027 0.123932
vt 0.167369 0.122715
vt 0.167415 0.122343
vt 0.167387 0.121968
vt 0.169392 0.122403
vt 0.169111 0.120866
vt 0.169330 0.121619
vt 0.167279 0.121607
vt 0.167101 0.121275
vt 0.168241 0.119571
vt 0.168743 0.120173
vt 0.166861 0.120984
vt 0.166566 0.120748
vt 0.166230 0.120577
vt 0.167628 0.119084
vt 0.166173 0.118529
vt 0.166930 0.118732
vt 0.165866 0.120480
vt 0.165389 0.118485
vt 0.165491 0.120457
vt 0.165121 0.120510
vt 0.164770 0.120638
vt 0.164610 0.118603
vt 0.164455 0.120835
vt 0.163871 0.118881
vt 0.164190 0.121090
vt 0.163204 0.119309
vt 0.148639 0.136901
vt 0.148905 0.136604
vt 0.147937 0.130450
vt 0.146794 0.132750
vt 0.146404 0.130461
vt 0.158314 0.120013
vt 0.155970 0.118488
vt 0.158335 0.118485
vt 0.146415 0.128100
vt 0.160617 0.118904
vt 0.148892 0.126547
vt 0.147032 0.125795
vt 0.162289 0.120588
vt 0.162639 0.119873
vt 0.148022 0.123619
vt 0.149510 0.121625
vt 0.149864 0.124798
vt 0.149242 0.136387
vt 0.163987 0.121393
vt 0.152685 0.121954
vt 0.151493 0.120120
vt 0.148444 0.134515
vt 0.147693 0.134838
vt 0.154425 0.120971
vt 0.153664 0.119115
vt 0.148004 0.132501
vt 0.151144 0.123246
vt 0.151356 0.125852
vt 0.149603 0.136245
vt 0.163854 0.121723
vt 0.153750 0.123436
vt 0.155189 0.122511
vt 0.149088 0.132454
vt 0.156323 0.120313
vt 0.149283 0.130623
vt 0.158479 0.121350
vt 0.148240 0.128452
vt 0.160346 0.120095
vt 0.150441 0.127304
vt 0.160281 0.121170
vt 0.158771 0.122517
vt 0.156779 0.121814
vt 0.149749 0.128906
vt 0.150464 0.130919
vt 0.151751 0.128047
vt 0.162106 0.121299
vt 0.160372 0.122139
vt 0.163790 0.122064
vt 0.152469 0.124560
vt 0.152614 0.126804
vt 0.149972 0.136176
vt 0.154712 0.124681
vt 0.149906 0.134311
vt 0.149194 0.134347
vt 0.155940 0.123809
vt 0.150073 0.132555
vt 0.150338 0.136173
vt 0.163793 0.122402
vt 0.155599 0.125762
vt 0.153606 0.125686
vt 0.150572 0.134389
vt 0.156675 0.124927
vt 0.157298 0.123087
vt 0.151510 0.131304
vt 0.159155 0.123542
vt 0.151035 0.129423
vt 0.152885 0.128774
vt 0.162132 0.122626
vt 0.162062 0.121983
vt 0.153709 0.127680
vt 0.152155 0.129982
vt 0.152441 0.131756
vt 0.160580 0.123012
vt 0.159608 0.124450
vt 0.153892 0.129491
vt 0.162297 0.123221
vt 0.163855 0.122727
vt 0.154616 0.126682
vt 0.154690 0.128504
vt 0.150690 0.136232
vt 0.156435 0.126725
vt 0.157401 0.125915
vt 0.150977 0.132770
vt 0.151198 0.134556
vt 0.157861 0.124190
vt 0.157240 0.127606
vt 0.155538 0.127589
vt 0.151772 0.134808
vt 0.158127 0.126805
vt 0.151784 0.133076
vt 0.158457 0.125160
vt 0.153281 0.132266
vt 0.160120 0.125262
vt 0.153147 0.130573
vt 0.160884 0.123799
vt 0.154806 0.130205
vt 0.161266 0.124506
vt 0.163970 0.123032
vt 0.155592 0.129294
vt 0.151018 0.136352
vt 0.160686 0.125994
vt 0.155652 0.130926
vt 0.154042 0.131192
vt 0.162859 0.124248
vt 0.162542 0.123762
vt 0.156402 0.128435
vt 0.156439 0.130066
vt 0.151320 0.136519
vt 0.164133 0.123310
vt 0.158031 0.128430
vt 0.158861 0.127624
vt 0.153194 0.133912
vt 0.152524 0.133460
vt 0.159084 0.126030
vt 0.154045 0.132828
vt 0.159616 0.128392
vt 0.153795 0.134429
vt 0.152289 0.135132
vt 0.159744 0.126820
vt 0.154743 0.133443
vt 0.161307 0.126658
vt 0.154861 0.131842
vt 0.161717 0.125141
vt 0.156450 0.131665
vt 0.163241 0.124679
vt 0.164343 0.123551
vt 0.157231 0.129242
vt 0.157254 0.130838
vt 0.151588 0.136734
vt 0.158823 0.129216
vt 0.152756 0.135515
vt 0.163681 0.125048
vt 0.162233 0.125708
vt 0.157218 0.132434
vt 0.164591 0.123754
vt 0.158043 0.130029
vt 0.158053 0.131624
vt 0.151817 0.136989
vt 0.159633 0.129983
vt 0.160404 0.129124
vt 0.153160 0.135965
vt 0.160442 0.127548
vt 0.155386 0.134115
vt 0.161985 0.127261
vt 0.155622 0.132530
vt 0.154338 0.135008
vt 0.153507 0.136467
vt 0.161188 0.128226
vt 0.161241 0.129832
vt 0.155977 0.134853
vt 0.162730 0.127807
vt 0.156339 0.133263
vt 0.162812 0.126211
vt 0.157967 0.133250
vt 0.164172 0.125357
vt 0.164871 0.123911
vt 0.158856 0.130814
vt 0.158853 0.132441
vt 0.152001 0.137282
vt 0.160478 0.130745
vt 0.158712 0.134130
vt 0.165177 0.124019
vt 0.159688 0.131613
vt 0.159670 0.133309
vt 0.152132 0.137606
vt 0.161378 0.131518
vt 0.162146 0.130529
vt 0.155234 0.136377
vt 0.154818 0.135657
vt 0.161994 0.128863
vt 0.156519 0.135669
vt 0.163551 0.128298
vt 0.157020 0.134054
vt 0.163459 0.126648
vt 0.164173 0.127014
vt 0.162876 0.129465
vt 0.163145 0.131222
vt 0.157008 0.136576
vt 0.164465 0.128727
vt 0.157673 0.134920
vt 0.159463 0.135101
vt 0.165320 0.125740
vt 0.164720 0.125589
vt 0.160558 0.132444
vt 0.160522 0.134252
vt 0.152210 0.137954
vt 0.165503 0.124074
vt 0.162358 0.132319
vt 0.153977 0.137641
vt 0.153783 0.137023
vt 0.165839 0.124068
vt 0.161488 0.133329
vt 0.161429 0.135300
vt 0.152226 0.138318
vt 0.163450 0.133164
vt 0.154080 0.138309
vt 0.164270 0.131922
vt 0.155576 0.137172
vt 0.163856 0.130034
vt 0.157435 0.137599
vt 0.165492 0.129084
vt 0.158302 0.135883
vt 0.164964 0.127301
vt 0.160230 0.136194
vt 0.165960 0.125796
vt 0.157782 0.138766
vt 0.155830 0.138056
vt 0.166657 0.129348
vt 0.164964 0.130569
vt 0.158906 0.136972
vt 0.165839 0.127491
vt 0.161024 0.137455
vt 0.166639 0.125739
vt 0.166177 0.123997
vt 0.162505 0.134293
vt 0.162416 0.136496
vt 0.152174 0.138690
vt 0.164697 0.134077
vt 0.154076 0.139024
vt 0.165568 0.132636
vt 0.163645 0.135369
vt 0.163515 0.137896
vt 0.152049 0.139056
vt 0.166503 0.123861
vt 0.166157 0.135090
vt 0.153944 0.139768
vt 0.167113 0.133375
vt 0.155973 0.139035
vt 0.166237 0.131059
vt 0.158020 0.140121
vt 0.167998 0.129483
vt 0.159481 0.138225
vt 0.166804 0.127562
vt 0.161859 0.138957
vt 0.167345 0.125547
vt 0.169578 0.129427
vt 0.167724 0.131485
vt 0.160008 0.139692
vt 0.158094 0.141675
vt 0.167863 0.127477
vt 0.160462 0.141469
vt 0.162732 0.140757
vt 0.164951 0.136600
vt 0.164766 0.139570
vt 0.167904 0.136236
vt 0.168965 0.134133
vt 0.155970 0.140133
vt 0.153654 0.140540
vt 0.169532 0.131819
vt 0.155775 0.141335
vt 0.169001 0.127181
vt 0.166468 0.138027
s 1
usemtl マテリアル.001
f 9/1/9 288/2/288 289/3/289
f 281/4/281 7/5/7 18/6/18
f 115/7/115 9/1/9 289/3/289
f 11/8/11 8/9/8 9/1/9
f 115/7/115 11/8/11 9/1/9
f 11/8/11 12/10/12 10/11/10
f 115/7/115 13/12/13 11/8/11
f 15/13/15 12/10/12 13/12/13
f 115/7/115 15/13/15 13/12/13
f 17/14/17 14/15/14 15/13/15
f 115/7/115 17/14/17 15/13/15
f 17/14/17 19/16/19 16/17/16
f 115/7/115 20/18/20 17/14/17
f 115/7/115 22/19/22 20/18/20
f 22/19/22 19/16/19 20/18/20
f 22/19/22 23/20/23 21/21/21
f 115/7/115 24/22/24 22/19/22
f 26/23/26 23/20/23 24/22/24
f 115/7/115 26/23/26 24/22/24
f 28/24/28 25/25/25 26/23/26
f 115/7/115 28/24/28 26/23/26
f 28/24/28 29/26/29 27/27/27
f 115/7/115 30/28/30 28/24/28
f 30/28/30 31/29/31 29/26/29
f 115/7/115 32/30/32 30/28/30
f 34/31/34 31/29/31 32/30/32
f 115/7/115 34/31/34 32/30/32
f 36/32/36 33/33/33 34/31/34
f 115/7/115 36/32/36 34/31/34
f 39/34/39 35/35/35 36/32/36
f 115/7/115 39/34/39 36/32/36
f 54/36/54 38/37/38 39/34/39
f 37/38/37 40/39/40 18/6/18
f 115/7/115 54/36/54 39/34/39
f 58/40/58 42/41/42 43/42/43
f 66/43/66 50/44/50 51/45/51
f 44/46/44 58/40/58 43/42/43
f 52/47/52 66/43/66 51/45/51
f 60/48/60 44/46/44 45/49/45
f 68/50/68 52/47/52 53/51/53
f 46/52/46 60/48/60 45/49/45
f 54/36/54 68/50/68 53/51/53
f 47/53/47 61/54/61 46/52/46
f 40/39/40 55/55/55 18/6/18
f 115/7/115 69/56/69 54/36/54
f 63/57/63 47/53/47 48/58/48
f 56/59/56 40/39/40 41/60/41
f 64/61/64 48/58/48 49/62/49
f 57/63/57 41/60/41 42/41/42
f 50/44/50 64/61/64 49/62/49
f 62/64/62 76/65/76 61/54/61
f 55/55/55 70/66/70 18/6/18
f 115/7/115 84/67/84 69/56/69
f 78/68/78 62/64/62 63/57/63
f 56/59/56 70/66/70 55/55/55
f 79/69/79 63/57/63 64/61/64
f 72/70/72 56/59/56 57/63/57
f 65/71/65 79/69/79 64/61/64
f 73/72/73 57/63/57 58/40/58
f 81/73/81 65/71/65 66/43/66
f 59/74/59 73/72/73 58/40/58
f 67/75/67 81/73/81 66/43/66
f 75/76/75 59/74/59 60/48/60
f 68/50/68 82/77/82 67/75/67
f 61/54/61 75/76/75 60/48/60
f 84/67/84 68/50/68 69/56/69
f 96/78/96 80/79/80 81/73/81
f 74/80/74 88/81/88 73/72/73
f 82/77/82 96/78/96 81/73/81
f 90/82/90 74/80/74 75/76/75
f 83/83/83 97/84/97 82/77/82
f 76/65/76 90/82/90 75/76/75
f 99/85/99 83/83/83 84/67/84
f 77/86/77 91/87/91 76/65/76
f 70/66/70 85/88/85 18/6/18
f 115/7/115 99/85/99 84/67/84
f 93/89/93 77/86/77 78/68/78
f 86/90/86 70/66/70 71/91/71
f 94/92/94 78/68/78 79/69/79
f 87/93/87 71/91/71 72/70/72
f 80/79/80 94/92/94 79/69/79
f 88/81/88 72/70/72 73/72/73
f 85/88/85 100/94/100 18/6/18
f 115/7/115 114/95/114 99/85/99
f 108/96/108 92/97/92 93/89/93
f 101/98/101 85/88/85 86/90/86
f 109/99/109 93/89/93 94/92/94
f 87/93/87 101/98/101 86/90/86
f 95/100/95 109/99/109 94/92/94
f 103/101/103 87/93/87 88/81/88
f 111/102/111 95/100/95 96/78/96
f 89/103/89 103/101/103 88/81/88
f 97/84/97 111/102/111 96/78/96
f 105/104/105 89/103/89 90/82/90
f 113/105/113 97/84/97 98/106/98
f 91/87/91 105/104/105 90/82/90
f 114/95/114 98/106/98 99/85/99
f 92/97/92 106/107/106 91/87/91
f 104/108/104 119/109/119 103/101/103
f 112/110/112 127/111/127 111/102/111
f 121/112/121 104/108/104 105/104/105
f 129/113/129 112/110/112 113/105/113
f 106/107/106 121/112/121 105/104/105
f 130/114/130 113/105/113 114/95/114
f 107/115/107 122/116/122 106/107/106
f 100/94/100 116/117/116 18/6/18
f 115/7/115 130/114/130 114/95/114
f 124/118/124 107/115/107 108/96/108
f 101/98/101 116/117/116 100/94/100
f 125/119/125 108/96/108 109/99/109
f 102/120/102 117/121/117 101/98/101
f 110/122/110 125/119/125 109/99/109
f 119/109/119 102/120/102 103/101/103
f 127/111/127 110/122/110 111/102/111
f 139/123/139 123/124/123 124/118/124
f 132/125/132 116/117/116 117/121/117
f 140/126/140 124/118/124 125/119/125
f 118/127/118 132/125/132 117/121/117
f 126/128/126 140/126/140 125/119/125
f 134/129/134 118/127/118 119/109/119
f 142/130/142 126/128/126 127/111/127
f 120/131/120 134/129/134 119/109/119
f 128/132/128 142/130/142 127/111/127
f 136/133/136 120/131/120 121/112/121
f 129/113/129 143/134/143 128/132/128
f 122/116/122 136/133/136 121/112/121
f 145/135/145 129/113/129 130/114/130
f 123/124/123 137/136/137 122/116/122
f 116/117/116 131/137/131 18/6/18
f 115/7/115 145/135/145 130/114/130
f 143/134/143 157/138/157 142/130/142
f 151/139/151 135/140/135 136/133/136
f 159/141/159 143/134/143 144/142/144
f 137/136/137 151/139/151 136/133/136
f 145/135/145 159/141/159 144/142/144
f 138/143/138 152/144/152 137/136/137
f 131/137/131 146/145/146 18/6/18
f 115/7/115 160/146/160 145/135/145
f 154/147/154 138/143/138 139/123/139
f 132/125/132 146/145/146 131/137/131
f 155/148/155 139/123/139 140/126/140
f 148/149/148 132/125/132 133/150/133
f 141/151/141 155/148/155 140/126/140
f 149/152/149 133/150/133 134/129/134
f 157/138/157 141/151/141 142/130/142
f 135/140/135 149/152/149 134/129/134
f 170/153/170 154/147/154 155/148/155
f 163/154/163 147/155/147 148/149/148
f 156/156/156 170/153/170 155/148/155
f 164/157/164 148/149/148 149/152/149
f 172/158/172 156/156/156 157/138/157
f 150/159/150 164/157/164 149/152/149
f 158/160/158 172/158/172 157/138/157
f 166/161/166 150/159/150 151/139/151
f 174/162/174 158/160/158 159/141/159
f 152/144/152 166/161/166 151/139/151
f 175/163/175 159/141/159 160/146/160
f 153/164/153 167/165/167 152/144/152
f 146/145/146 161/166/161 18/6/18
f 115/7/115 175/163/175 160/146/160
f 169/167/169 153/164/153 154/147/154
f 162/168/162 146/145/146 147/155/147
f 189/169/189 173/170/173 174/162/174
f 167/165/167 181/171/181 166/161/166
f 190/172/190 174/162/174 175/163/175
f 168/173/168 182/174/182 167/165/167
f 161/166/161 176/175/176 18/6/18
f 115/7/115 190/172/190 175/163/175
f 184/176/184 168/173/168 169/167/169
f 162/168/162 176/175/176 161/166/161
f 185/177/185 169/167/169 170/153/170
f 163/154/163 177/178/177 162/168/162
f 171/179/171 185/177/185 170/153/170
f 179/180/179 163/154/163 164/157/164
f 187/181/187 171/179/171 172/158/172
f 165/182/165 179/180/179 164/157/164
f 173/170/173 187/181/187 172/158/172
f 181/171/181 165/182/165 166/161/166
f 178/183/178 192/184/192 177/178/177
f 186/185/186 200/186/200 185/177/185
f 194/187/194 178/183/178 179/180/179
f 202/188/202 186/185/186 187/181/187
f 180/189/180 194/187/194 179/180/179
f 188/190/188 202/188/202 187/181/187
f 196/191/196 180/189/180 181/171/181
f 204/192/204 188/190/188 189/169/189
f 182/174/182 196/191/196 181/171/181
f 205/193/205 189/169/189 190/172/190
f 183/194/183 197/195/197 182/174/182
f 176/175/176 191/196/191 18/6/18
f 115/7/115 205/193/205 190/172/190
f 199/197/199 183/194/183 184/176/184
f 192/184/192 176/175/176 177/178/177
f 200/186/200 184/176/184 185/177/185
f 197/195/197 211/198/211 196/191/196
f 220/199/220 204/192/204 205/193/205
f 198/200/198 212/201/212 197/195/197
f 191/196/191 206/202/206 18/6/18
f 115/7/115 220/199/220 205/193/205
f 214/203/214 198/200/198 199/197/199
f 192/184/192 206/202/206 191/196/191
f 215/204/215 199/197/199 200/186/200
f 208/205/208 192/184/192 193/206/193
f 201/207/201 215/204/215 200/186/200
f 209/208/209 193/206/193 194/187/194
f 217/209/217 201/207/201 202/188/202
f 195/210/195 209/208/209 194/187/194
f 203/211/203 217/209/217 202/188/202
f 211/198/211 195/210/195 196/191/196
f 204/192/204 218/212/218 203/211/203
f 216/213/216 230/214/230 215/204/215
f 224/215/224 208/205/208 209/208/209
f 232/216/232 216/213/216 217/209/217
f 210/217/210 224/215/224 209/208/209
f 218/212/218 232/216/232 217/209/217
f 226/218/226 210/217/210 211/198/211
f 234/219/234 218/212/218 219/220/219
f 212/201/212 226/218/226 211/198/211
f 220/199/220 234/219/234 219/220/219
f 213/221/213 227/222/227 212/201/212
f 206/202/206 221/223/221 18/6/18
f 115/7/115 235/224/235 220/199/220
f 229/225/229 213/221/213 214/203/214
f 222/226/222 206/202/206 207/227/207
f 230/214/230 214/203/214 215/204/215
f 208/205/208 222/226/222 207/227/207
f 250/228/250 234/219/234 235/224/235
f 228/229/228 242/230/242 227/222/227
f 221/223/221 236/231/236 18/6/18
f 115/7/115 250/228/250 235/224/235
f 244/232/244 228/229/228 229/225/229
f 237/233/237 221/223/221 222/226/222
f 245/234/245 229/225/229 230/214/230
f 223/235/223 237/233/237 222/226/222
f 231/236/231 245/234/245 230/214/230
f 239/237/239 223/235/223 224/215/224
f 247/238/247 231/236/231 232/216/232
f 225/239/225 239/237/239 224/215/224
f 233/240/233 247/238/247 232/216/232
f 241/241/241 225/239/225 226/218/226
f 249/242/249 233/240/233 234/219/234
f 227/222/227 241/241/241 226/218/226
f 254/243/254 238/244/238 239/237/239
f 262/245/262 246/246/246 247/238/247
f 240/247/240 254/243/254 239/237/239
f 248/248/248 262/245/262 247/238/247
f 256/249/256 240/247/240 241/241/241
f 264/250/264 248/248/248 249/242/249
f 242/230/242 256/249/256 241/241/241
f 265/251/265 249/242/249 250/228/250
f 243/252/243 257/253/257 242/230/242
f 236/231/236 251/254/251 18/6/18
f 115/7/115 265/251/265 250/228/250
f 259/255/259 243/252/243 244/232/244
f 252/256/252 236/231/236 237/233/237
f 260/257/260 244/232/244 245/234/245
f 238/244/238 252/256/252 237/233/237
f 246/246/246 260/257/260 245/234/245
f 258/258/258 272/259/272 257/253/257
f 251/254/251 266/260/266 18/6/18
f 115/7/115 280/261/280 265/251/265
f 274/262/274 258/258/258 259/255/259
f 267/263/267 251/254/251 252/256/252
f 275/264/275 259/255/259 260/257/260
f 253/265/253 267/263/267 252/256/252
f 261/266/261 275/264/275 260/257/260
f 269/267/269 253/265/253 254/243/254
f 277/268/277 261/266/261 262/245/262
f 255/269/255 269/267/269 254/243/254
f 263/270/263 277/268/277 262/245/262
f 271/271/271 255/269/255 256/249/256
f 279/272/279 263/270/263 264/250/264
f 257/253/257 271/271/271 256/249/256
f 280/261/280 264/250/264 265/251/265
f 286/273/286 276/274/276 277/268/277
f 270/275/270 283/276/283 269/267/269
f 278/277/278 286/273/286 277/268/277
f 271/271/271 2/278/2 270/275/270
f 288/2/288 278/277/278 279/272/279
f 272/259/272 284/279/284 271/271/271
f 289/3/289 279/272/279 280/261/280
f 273/280/273 3/281/3 272/259/272
f 266/260/266 281/4/281 18/6/18
f 115/7/115 289/3/289 280/261/280
f 5/282/5 273/280/273 274/262/274
f 267/263/267 281/4/281 266/260/266
f 285/283/285 274/262/274 275/264/275
f 268/284/268 282/285/282 267/263/267
f 6/286/6 275/264/275 276/274/276
f 269/267/269 1/287/1 268/284/268
f 9/1/9 8/9/8 288/2/288
f 11/8/11 10/11/10 8/9/8
f 11/8/11 13/12/13 12/10/12
f 15/13/15 14/15/14 12/10/12
f 17/14/17 16/17/16 14/15/14
f 17/14/17 20/18/20 19/16/19
f 22/19/22 21/21/21 19/16/19
f 22/19/22 24/22/24 23/20/23
f 26/23/26 25/25/25 23/20/23
f 28/24/28 27/27/27 25/25/25
f 28/24/28 30/28/30 29/26/29
f 30/28/30 32/30/32 31/29/31
f 34/31/34 33/33/33 31/29/31
f 36/32/36 35/35/35 33/33/33
f 39/34/39 38/37/38 35/35/35
f 54/36/54 53/51/53 38/37/38
f 58/40/58 57/63/57 42/41/42
f 66/43/66 65/71/65 50/44/50
f 44/46/44 59/74/59 58/40/58
f 52/47/52 67/75/67 66/43/66
f 60/48/60 59/74/59 44/46/44
f 68/50/68 67/75/67 52/47/52
f 46/52/46 61/54/61 60/48/60
f 54/36/54 69/56/69 68/50/68
f 47/53/47 62/64/62 61/54/61
f 63/57/63 62/64/62 47/53/47
f 56/59/56 55/55/55 40/39/40
f 64/61/64 63/57/63 48/58/48
f 57/63/57 56/59/56 41/60/41
f 50/44/50 65/71/65 64/61/64
f 62/64/62 77/86/77 76/65/76
f 78/68/78 77/86/77 62/64/62
f 56/59/56 71/91/71 70/66/70
f 79/69/79 78/68/78 63/57/63
f 72/70/72 71/91/71 56/59/56
f 65/71/65 80/79/80 79/69/79
f 73/72/73 72/70/72 57/63/57
f 81/73/81 80/79/80 65/71/65
f 59/74/59 74/80/74 73/72/73
f 67/75/67 82/77/82 81/73/81
f 75/76/75 74/80/74 59/74/59
f 68/50/68 83/83/83 82/77/82
f 61/54/61 76/65/76 75/76/75
f 84/67/84 83/83/83 68/50/68
f 96/78/96 95/100/95 80/79/80
f 74/80/74 89/103/89 88/81/88
f 82/77/82 97/84/97 96/78/96
f 90/82/90 89/103/89 74/80/74
f 83/83/83 98/106/98 97/84/97
f 76/65/76 91/87/91 90/82/90
f 99/85/99 98/106/98 83/83/83
f 77/86/77 92/97/92 91/87/91
f 93/89/93 92/97/92 77/86/77
f 86/90/86 85/88/85 70/66/70
f 94/92/94 93/89/93 78/68/78
f 87/93/87 86/90/86 71/91/71
f 80/79/80 95/100/95 94/92/94
f 88/81/88 87/93/87 72/70/72
f 108/96/108 107/115/107 92/97/92
f 101/98/101 100/94/100 85/88/85
f 109/99/109 108/96/108 93/89/93
f 87/93/87 102/120/102 101/98/101
f 95/100/95 110/122/110 109/99/109
f 103/101/103 102/120/102 87/93/87
f 111/102/111 110/122/110 95/100/95
f 89/103/89 104/108/104 103/101/103
f 97/84/97 112/110/112 111/102/111
f 105/104/105 104/108/104 89/103/89
f 113/105/113 112/110/112 97/84/97
f 91/87/91 106/107/106 105/104/105
f 114/95/114 113/105/113 98/106/98
f 92/97/92 107/115/107 106/107/106
f 104/108/104 120/131/120 119/109/119
f 112/110/112 128/132/128 127/111/127
f 121/112/121 120/131/120 104/108/104
f 129/113/129 128/132/128 112/110/112
f 106/107/106 122/116/122 121/112/121
f 130/114/130 129/113/129 113/105/113
f 107/115/107 123/124/123 122/116/122
f 124/118/124 123/124/123 107/115/107
f 101/98/101 117/121/117 116/117/116
f 125/119/125 124/118/124 108/96/108
f 102/120/102 118/127/118 117/121/117
f 110/122/110 126/128/126 125/119/125
f 119/109/119 118/127/118 102/120/102
f 127/111/127 126/128/126 110/122/110
f 139/123/139 138/143/138 123/124/123
f 132/125/132 131/137/131 116/117/116
f 140/126/140 139/123/139 124/118/124
f 118/127/118 133/150/133 132/125/132
f 126/128/126 141/151/141 140/126/140
f 134/129/134 133/150/133 118/127/118
f 142/130/142 141/151/141 126/128/126
f 120/131/120 135/140/135 134/129/134
f 128/132/128 143/134/143 142/130/142
f 136/133/136 135/140/135 120/131/120
f 129/113/129 144/142/144 143/134/143
f 122/116/122 137/136/137 136/133/136
f 145/135/145 144/142/144 129/113/129
f 123/124/123 138/143/138 137/136/137
f 143/134/143 158/160/158 157/138/157
f 151/139/151 150/159/150 135/140/135
f 159/141/159 158/160/158 143/134/143
f 137/136/137 152/144/152 151/139/151
f 145/135/145 160/146/160 159/141/159
f 138/143/138 153/164/153 152/144/152
f 154/147/154 153/164/153 138/143/138
f 132/125/132 147/155/147 146/145/146
f 155/148/155 154/147/154 139/123/139
f 148/149/148 147/155/147 132/125/132
f 141/151/141 156/156/156 155/148/155
f 149/152/149 148/149/148 133/150/133
f 157/138/157 156/156/156 141/151/141
f 135/140/135 150/159/150 149/152/149
f 170/153/170 169/167/169 154/147/154
f 163/154/163 162/168/162 147/155/147
f 156/156/156 171/179/171 170/153/170
f 164/157/164 163/154/163 148/149/148
f 172/158/172 171/179/171 156/156/156
f 150/159/150 165/182/165 164/157/164
f 158/160/158 173/170/173 172/158/172
f 166/161/166 165/182/165 150/159/150
f 174/162/174 173/170/173 158/160/158
f 152/144/152 167/165/167 166/161/166
f 175/163/175 174/162/174 159/141/159
f 153/164/153 168/173/168 167/165/167
f 169/167/169 168/173/168 153/164/153
f 162/168/162 161/166/161 146/145/146
f 189/169/189 188/190/188 173/170/173
f 167/165/167 182/174/182 181/171/181
f 190/172/190 189/169/189 174/162/174
f 168/173/168 183/194/183 182/174/182
f 184/176/184 183/194/183 168/173/168
f 162/168/162 177/178/177 176/175/176
f 185/177/185 184/176/184 169/167/169
f 163/154/163 178/183/178 177/178/177
f 171/179/171 186/185/186 185/177/185
f 179/180/179 178/183/178 163/154/163
f 187/181/187 186/185/186 171/179/171
f 165/182/165 180/189/180 179/180/179
f 173/170/173 188/190/188 187/181/187
f 181/171/181 180/189/180 165/182/165
f 178/183/178 193/206/193 192/184/192
f 186/185/186 201/207/201 200/186/200
f 194/187/194 193/206/193 178/183/178
f 202/188/202 201/207/201 186/185/186
f 180/189/180 195/210/195 194/187/194
f 188/190/188 203/211/203 202/188/202
f 196/191/196 195/210/195 180/189/180
f 204/192/204 203/211/203 188/190/188
f 182/174/182 197/195/197 196/191/196
f 205/193/205 204/192/204 189/169/189
f 183/194/183 198/200/198 197/195/197
f 199/197/199 198/200/198 183/194/183
f 192/184/192 191/196/191 176/175/176
f 200/186/200 199/197/199 184/176/184
f 197/195/197 212/201/212 211/198/211
f 220/199/220 219/220/219 204/192/204
f 198/200/198 213/221/213 212/201/212
f 214/203/214 213/221/213 198/200/198
f 192/184/192 207/227/207 206/202/206
f 215/204/215 214/203/214 199/197/199
f 208/205/208 207/227/207 192/184/192
f 201/207/201 216/213/216 215/204/215
f 209/208/209 208/205/208 193/206/193
f 217/209/217 216/213/216 201/207/201
f 195/210/195 210/217/210 209/208/209
f 203/211/203 218/212/218 217/209/217
f 211/198/211 210/217/210 195/210/195
f 204/192/204 219/220/219 218/212/218
f 216/213/216 231/236/231 230/214/230
f 224/215/224 223/235/223 208/205/208
f 232/216/232 231/236/231 216/213/216
f 210/217/210 225/239/225 224/215/224
f 218/212/218 233/240/233 232/216/232
f 226/218/226 225/239/225 210/217/210
f 234/219/234 233/240/233 218/212/218
f 212/201/212 227/222/227 226/218/226
f 220/199/220 235/224/235 234/219/234
f 213/221/213 228/229/228 227/222/227
f 229/225/229 228/229/228 213/221/213
f 222/226/222 221/223/221 206/202/206
f 230/214/230 229/225/229 214/203/214
f 208/205/208 223/235/223 222/226/222
f 250/228/250 249/242/249 234/219/234
f 228/229/228 243/252/243 242/230/242
f 244/232/244 243/252/243 228/229/228
f 237/233/237 236/231/236 221/223/221
f 245/234/245 244/232/244 229/225/229
f 223/235/223 238/244/238 237/233/237
f 231/236/231 246/246/246 245/234/245
f 239/237/239 238/244/238 223/235/223
f 247/238/247 246/246/246 231/236/231
f 225/239/225 240/247/240 239/237/239
f 233/240/233 248/248/248 247/238/247
f 241/241/241 240/247/240 225/239/225
f 249/242/249 248/248/248 233/240/233
f 227/222/227 242/230/242 241/241/241
f 254/243/254 253/265/253 238/244/238
f 262/245/262 261/266/261 246/246/246
f 240/247/240 255/269/255 254/243/254
f 248/248/248 263/270/263 262/245/262
f 256/249/256 255/269/255 240/247/240
f 264/250/264 263/270/263 248/248/248
f 242/230/242 257/253/257 256/249/256
f 265/251/265 264/250/264 249/242/249
f 243/252/243 258/258/258 257/253/257
f 259/255/259 258/258/258 243/252/243
f 252/256/252 251/254/251 236/231/236
f 260/257/260 259/255/259 244/232/244
f 238/244/238 253/265/253 252/256/252
f 246/246/246 261/266/261 260/257/260
f 258/258/258 273/280/273 272/259/272
f 274/262/274 273/280/273 258/258/258
f 267/263/267 266/260/266 251/254/251
f 275/264/275 274/262/274 259/255/259
f 253/265/253 268/284/268 267/263/267
f 261/266/261 276/274/276 275/264/275
f 269/267/269 268/284/268 253/265/253
f 277/268/277 276/274/276 261/266/261
f 255/269/255 270/275/270 269/267/269
f 263/270/263 278/277/278 277/268/277
f 271/271/271 270/275/270 255/269/255
f 279/272/279 278/277/278 263/270/263
f 257/253/257 272/259/272 271/271/271
f 280/261/280 279/272/279 264/250/264
f 286/273/286 6/286/6 276/274/276
f 270/275/270 2/278/2 283/276/283
f 278/277/278 287/288/287 286/273/286
f 271/271/271 284/279/284 2/278/2
f 288/2/288 287/288/287 278/277/278
f 272/259/272 3/281/3 284/279/284
f 289/3/289 288/2/288 279/272/279
f 273/280/273 4/289/4 3/281/3
f 5/282/5 4/289/4 273/280/273
f 267/263/267 282/285/282 281/4/281
f 285/283/285 5/282/5 274/262/274
f 268/284/268 1/287/1 282/285/282
f 6/286/6 285/283/285 275/264/275
f 269/267/269 283/276/283 1/287/1
