# Blender 5.2.1 LTS
# www.blender.org
mtllib FireJetPlane.mtl
o 平面
v -1.000000 -0.841372 -0.000000
v -1.000000 -0.000000 0.000000
v -0.666667 -1.256565 -0.000000
v -0.333333 -2.314983 -0.000000
v 0.000000 -2.739523 -0.000000
v -0.000000 -0.000000 0.000000
v -0.333333 -0.000000 0.000000
v -0.666667 -0.000000 0.000000
v 1.000000 -0.841372 -0.000000
v 1.000000 -0.000000 0.000000
v 0.333333 -2.314983 -0.000000
v 0.666667 -1.256565 -0.000000
v 0.666667 -0.000000 0.000000
v 0.333333 -0.000000 0.000000
vn -0.0000 -0.0000 1.0000
vt 1.003100 0.000000
vt 0.669767 1.000000
vt 1.003100 1.000000
vt 0.336434 0.000000
vt 0.003100 1.000000
vt 0.336434 1.000000
vt 0.669767 1.000000
vt 0.669767 0.000000
vt 0.336434 0.000000
vt 0.003100 0.000000
vt 0.669767 0.000000
s 0
usemtl 
f 1/1/1 8/2/1 2/3/1
f 4/4/1 6/5/1 7/6/1
f 9/1/1 13/7/1 12/8/1
f 11/9/1 6/5/1 5/10/1
f 12/8/1 14/6/1 11/9/1
f 3/11/1 7/6/1 8/2/1
f 1/1/1 3/11/1 8/2/1
f 4/4/1 5/10/1 6/5/1
f 9/1/1 10/3/1 13/7/1
f 11/9/1 14/6/1 6/5/1
f 12/8/1 13/7/1 14/6/1
f 3/11/1 4/4/1 7/6/1
