# AOENGINE ring mesh
# divisions=32 outerRadius=1.000 innerRadius=0.600
mtllib ring.mtl
o ring
v -0.000000 1.000000 0.000000
v -0.000000 0.600000 0.000000
v -0.195090 0.980785 0.000000
v -0.117054 0.588471 0.000000
v -0.382683 0.923880 0.000000
v -0.229610 0.554328 0.000000
v -0.555570 0.831470 0.000000
v -0.333342 0.498882 0.000000
v -0.707107 0.707107 0.000000
v -0.424264 0.424264 0.000000
v -0.831470 0.555570 0.000000
v -0.498882 0.333342 0.000000
v -0.923880 0.382683 0.000000
v -0.554328 0.229610 0.000000
v -0.980785 0.195090 0.000000
v -0.588471 0.117054 0.000000
v -1.000000 0.000000 0.000000
v -0.600000 0.000000 0.000000
v -0.980785 -0.195090 0.000000
v -0.588471 -0.117054 0.000000
v -0.923880 -0.382683 0.000000
v -0.554328 -0.229610 0.000000
v -0.831470 -0.555570 0.000000
v -0.498882 -0.333342 0.000000
v -0.707107 -0.707107 0.000000
v -0.424264 -0.424264 0.000000
v -0.555570 -0.831470 0.000000
v -0.333342 -0.498882 0.000000
v -0.382683 -0.923880 0.000000
v -0.229610 -0.554328 0.000000
v -0.195090 -0.980785 0.000000
v -0.117054 -0.588471 0.000000
v -0.000000 -1.000000 0.000000
v -0.000000 -0.600000 0.000000
v 0.195090 -0.980785 0.000000
v 0.117054 -0.588471 0.000000
v 0.382683 -0.923880 0.000000
v 0.229610 -0.554328 0.000000
v 0.555570 -0.831470 0.000000
v 0.333342 -0.498882 0.000000
v 0.707107 -0.707107 0.000000
v 0.424264 -0.424264 0.000000
v 0.831470 -0.555570 0.000000
v 0.498882 -0.333342 0.000000
v 0.923880 -0.382683 0.000000
v 0.554328 -0.229610 0.000000
v 0.980785 -0.195090 0.000000
v 0.588471 -0.117054 0.000000
v 1.000000 -0.000000 0.000000
v 0.600000 -0.000000 0.000000
v 0.980785 0.195090 0.000000
v 0.588471 0.117054 0.000000
v 0.923880 0.382683 0.000000
v 0.554328 0.229610 0.000000
v 0.831470 0.555570 0.000000
v 0.498882 0.333342 0.000000
v 0.707107 0.707107 0.000000
v 0.424264 0.424264 0.000000
v 0.555570 0.831470 0.000000
v 0.333342 0.498882 0.000000
v 0.382683 0.923880 0.000000
v 0.229610 0.554328 0.000000
v 0.195090 0.980785 0.000000
v 0.117054 0.588471 0.000000
v 0.000000 1.000000 0.000000
v 0.000000 0.600000 0.000000
vn 0.0000 0.0000 1.0000
vt 0.000000 0.000000
vt 0.000000 1.000000
vt 0.031250 0.000000
vt 0.031250 1.000000
vt 0.062500 0.000000
vt 0.062500 1.000000
vt 0.093750 0.000000
vt 0.093750 1.000000
vt 0.125000 0.000000
vt 0.125000 1.000000
vt 0.156250 0.000000
vt 0.156250 1.000000
vt 0.187500 0.000000
vt 0.187500 1.000000
vt 0.218750 0.000000
vt 0.218750 1.000000
vt 0.250000 0.000000
vt 0.250000 1.000000
vt 0.281250 0.000000
vt 0.281250 1.000000
vt 0.312500 0.000000
vt 0.312500 1.000000
vt 0.343750 0.000000
vt 0.343750 1.000000
vt 0.375000 0.000000
vt 0.375000 1.000000
vt 0.406250 0.000000
vt 0.406250 1.000000
vt 0.437500 0.000000
vt 0.437500 1.000000
vt 0.468750 0.000000
vt 0.468750 1.000000
vt 0.500000 0.000000
vt 0.500000 1.000000
vt 0.531250 0.000000
vt 0.531250 1.000000
vt 0.562500 0.000000
vt 0.562500 1.000000
vt 0.593750 0.000000
vt 0.593750 1.000000
vt 0.625000 0.000000
vt 0.625000 1.000000
vt 0.656250 0.000000
vt 0.656250 1.000000
vt 0.687500 0.000000
vt 0.687500 1.000000
vt 0.718750 0.000000
vt 0.718750 1.000000
vt 0.750000 0.000000
vt 0.750000 1.000000
vt 0.781250 0.000000
vt 0.781250 1.000000
vt 0.812500 0.000000
vt 0.812500 1.000000
vt 0.843750 0.000000
vt 0.843750 1.000000
vt 0.875000 0.000000
vt 0.875000 1.000000
vt 0.906250 0.000000
vt 0.906250 1.000000
vt 0.937500 0.000000
vt 0.937500 1.000000
vt 0.968750 0.000000
vt 0.968750 1.000000
vt 1.000000 0.000000
vt 1.000000 1.000000
usemtl ring
s 0
f 1/1/1 3/3/1 2/2/1
f 2/2/1 3/3/1 4/4/1
f 3/3/1 5/5/1 4/4/1
f 4/4/1 5/5/1 6/6/1
f 5/5/1 7/7/1 6/6/1
f 6/6/1 7/7/1 8/8/1
f 7/7/1 9/9/1 8/8/1
f 8/8/1 9/9/1 10/10/1
f 9/9/1 11/11/1 10/10/1
f 10/10/1 11/11/1 12/12/1
f 11/11/1 13/13/1 12/12/1
f 12/12/1 13/13/1 14/14/1
f 13/13/1 15/15/1 14/14/1
f 14/14/1 15/15/1 16/16/1
f 15/15/1 17/17/1 16/16/1
f 16/16/1 17/17/1 18/18/1
f 17/17/1 19/19/1 18/18/1
f 18/18/1 19/19/1 20/20/1
f 19/19/1 21/21/1 20/20/1
f 20/20/1 21/21/1 22/22/1
f 21/21/1 23/23/1 22/22/1
f 22/22/1 23/23/1 24/24/1
f 23/23/1 25/25/1 24/24/1
f 24/24/1 25/25/1 26/26/1
f 25/25/1 27/27/1 26/26/1
f 26/26/1 27/27/1 28/28/1
f 27/27/1 29/29/1 28/28/1
f 28/28/1 29/29/1 30/30/1
f 29/29/1 31/31/1 30/30/1
f 30/30/1 31/31/1 32/32/1
f 31/31/1 33/33/1 32/32/1
f 32/32/1 33/33/1 34/34/1
f 33/33/1 35/35/1 34/34/1
f 34/34/1 35/35/1 36/36/1
f 35/35/1 37/37/1 36/36/1
f 36/36/1 37/37/1 38/38/1
f 37/37/1 39/39/1 38/38/1
f 38/38/1 39/39/1 40/40/1
f 39/39/1 41/41/1 40/40/1
f 40/40/1 41/41/1 42/42/1
f 41/41/1 43/43/1 42/42/1
f 42/42/1 43/43/1 44/44/1
f 43/43/1 45/45/1 44/44/1
f 44/44/1 45/45/1 46/46/1
f 45/45/1 47/47/1 46/46/1
f 46/46/1 47/47/1 48/48/1
f 47/47/1 49/49/1 48/48/1
f 48/48/1 49/49/1 50/50/1
f 49/49/1 51/51/1 50/50/1
f 50/50/1 51/51/1 52/52/1
f 51/51/1 53/53/1 52/52/1
f 52/52/1 53/53/1 54/54/1
f 53/53/1 55/55/1 54/54/1
f 54/54/1 55/55/1 56/56/1
f 55/55/1 57/57/1 56/56/1
f 56/56/1 57/57/1 58/58/1
f 57/57/1 59/59/1 58/58/1
f 58/58/1 59/59/1 60/60/1
f 59/59/1 61/61/1 60/60/1
f 60/60/1 61/61/1 62/62/1
f 61/61/1 63/63/1 62/62/1
f 62/62/1 63/63/1 64/64/1
f 63/63/1 65/65/1 64/64/1
f 64/64/1 65/65/1 66/66/1
