# Blender 4.4.3
# www.blender.org
mtllib block2.mtl
o block2
v -0.889957 -0.905701 0.945544
v -0.922480 0.955102 0.827107
v 0.882374 0.952781 0.835066
v 0.966582 -0.915685 -0.962326
v -1.033335 -0.905004 -0.990909
v -1.086762 -1.002737 -0.054191
v -0.855726 -0.051487 0.855978
v 0.940521 0.025037 1.010102
v -1.072108 0.064849 -0.984699
v -1.075482 0.020906 0.057428
v 1.019219 0.041344 -0.093745
v 0.995472 -0.485880 0.856352
v -1.034303 -0.551955 -0.930837
v -1.086172 -0.547961 0.011811
v 0.940213 -0.570236 -0.043375
v -1.009943 -0.504523 0.952036
v -0.931754 0.416177 0.863868
v 0.951076 0.567079 0.981971
v 1.001308 0.570732 -0.938415
v -0.982957 0.417421 0.049017
v 0.934783 0.491429 -0.080065
v 1.079393 -0.950079 0.535662
v -1.095310 -0.967976 0.504228
v -1.048496 0.931067 0.551445
v -0.982224 -0.096136 0.518648
v 0.938436 -0.073316 0.526519
v 0.900643 -0.502225 0.508727
v -1.080067 -0.544318 0.457314
v -0.930985 0.446572 0.546438
v 1.015636 0.562645 0.573990
v -1.050569 -0.914584 -0.483341
v -0.937784 0.997036 -0.585349
v 0.927208 -0.930122 -0.519745
v 1.027994 0.916773 -0.554966
v 0.958422 0.071343 -0.563521
v -1.082334 -0.056412 -0.513342
v -1.078693 -0.456491 -0.463363
v 1.026894 -0.516685 -0.601975
v 1.064375 0.576482 -0.509646
v -0.937599 0.458698 -0.440781
v -0.062802 0.964892 0.930550
v -0.039301 -0.088260 0.974202
v 0.027936 -0.411611 1.037510
v 0.008426 0.415806 1.053295
v -0.410205 0.003480 1.043872
v -0.469760 -0.480839 0.906628
v -0.586072 0.513979 0.951049
v 0.504247 -0.898696 1.014723
v 0.402767 0.984589 0.982445
v 0.557554 -0.048994 1.065476
v 0.449048 -0.583419 0.978902
v 0.415887 0.485806 0.947812
v 0.978187 -1.000007 -0.257500
v 0.937645 0.999990 -0.970271
v 1.071814 0.999988 -0.140725
v -1.047305 0.999988 0.030996
v 1.075732 0.999988 -0.063062
v -1.051924 0.999988 0.302903
v 0.026561 -1.000003 1.029851
v 1.021110 -1.000006 0.027090
v 1.008370 0.554586 -1.000009
v -1.090698 0.504907 -1.000009
v 0.497929 -1.000003 1.004228
v 0.895403 0.999987 0.814287
v -0.887315 0.999987 0.849683
v -0.923535 0.999987 0.826360
v 0.405849 0.999987 0.981034
v 0.427570 -1.000003 1.006891
v -0.062491 0.999987 0.931984
v -0.040814 -1.000003 1.038862
v -0.918147 -1.000004 0.865431
v 1.077851 0.999988 -0.040469
v -1.081502 0.224639 -1.000010
v 0.981222 0.303682 -1.000010
v 1.033750 0.999989 -0.626693
v -0.601630 0.999987 1.026459
v 1.026491 -0.616044 -1.000013
v -0.451313 -1.000003 1.010493
v 1.066972 -1.000005 0.575485
v 1.029218 0.999987 0.574311
v -1.088284 0.537165 -1.000009
v -0.250633 0.999987 0.972343
v -1.032846 -1.000008 -0.561794
v 0.971714 0.015914 -1.000010
v 1.062644 -1.000005 0.344211
v 0.993546 0.614999 -1.000008
v 0.979247 -1.000010 -0.900480
v 0.945698 0.999990 -0.916201
v -1.041156 0.999988 -0.029186
v -1.023993 -0.619545 -1.000013
v 0.416888 0.999987 0.978412
v -1.091847 -1.000005 0.466496
v -1.067985 0.050655 -1.000010
v -1.024038 0.978476 -1.000007
v -1.021221 0.999990 -0.978856
v 0.931349 -1.000008 -0.453417
v -1.034399 -0.915016 -1.000014
v -1.022437 0.999990 -0.935928
v -1.075636 0.653511 -1.000008
v -1.093884 -1.000005 0.499898
v 1.040259 0.999987 0.504682
v 1.068978 -1.000005 0.536455
v 0.970654 0.999990 -0.797148
v -0.909743 -1.000003 0.938493
v 0.964031 0.082485 -1.000010
v 0.885771 0.999987 0.834910
v 0.933931 -1.000003 0.962025
v -1.016949 -0.997608 -1.000014
v -0.707900 -1.000003 0.976007
v -0.769823 0.999987 0.920095
v 1.037277 -0.569128 -1.000013
v 1.018129 -1.000004 0.710852
v 0.975747 -1.000010 -0.963866
v 0.938868 0.999987 0.715595
v -1.031084 0.999987 0.549328
v -1.034804 0.999987 0.583696
v -0.518645 -1.000003 0.991009
v 1.012728 0.999989 -0.554683
v 0.962529 -0.920120 -1.000014
v -0.570046 0.999987 1.032979
v 0.943424 -1.000008 -0.527968
v -0.028902 0.999987 0.930460
v 0.994539 -0.784632 -1.000013
v -1.048634 -1.000008 -0.500728
v 0.921625 -1.000003 0.915518
v -1.031811 -0.907740 -1.000014
v 0.186161 -1.000003 1.028686
v -1.071276 0.063071 -1.000010
v 0.971013 -0.884392 -1.000014
v 1.034749 -1.000007 -0.050411
v 0.744509 -1.000003 0.993546
v -1.021814 -0.537819 -1.000013
v -1.023113 0.999990 -1.000007
v 0.937035 0.999990 -1.000007
v 0.971388 -1.000010 -1.000014
vn 0.9778 -0.2032 0.0503
vn -0.9605 0.0719 0.2689
vn -0.9678 0.0290 -0.2502
vn -0.9975 -0.0362 -0.0608
vn -0.9651 -0.2353 0.1146
vn 0.9396 0.1419 0.3115
vn 0.9660 0.2057 0.1565
vn 0.9813 0.1037 0.1622
vn -0.9773 0.2117 0.0117
vn -0.9957 -0.0204 -0.0904
vn 0.9630 -0.0741 -0.2592
vn 0.0926 -0.2820 0.9549
vn -0.0779 0.1671 0.9829
vn 0.8436 0.3606 0.3978
vn -0.9976 -0.0597 -0.0350
vn -0.9993 0.0340 -0.0174
vn 0.9277 -0.2741 -0.2534
vn 0.9722 -0.1892 -0.1379
vn -0.9728 0.0807 0.2172
vn -0.9634 0.2641 0.0470
vn 0.9923 -0.1220 0.0205
vn -0.3918 0.0322 0.9195
vn 0.9712 0.1774 0.1593
vn -0.9180 -0.1554 0.3648
vn -0.8596 -0.2642 0.4373
vn 0.9782 0.1631 -0.1281
vn 0.9890 -0.1207 0.0858
vn -0.9344 0.3404 0.1051
vn -0.9999 0.0172 -0.0008
vn -0.9742 0.1960 0.1121
vn -0.9738 0.2268 -0.0190
vn 0.9969 -0.0775 0.0108
vn -0.9966 0.0131 -0.0814
vn -0.9997 0.0197 -0.0119
vn 0.9925 0.1089 -0.0548
vn -0.9846 0.0267 -0.1728
vn -0.9783 -0.0768 -0.1923
vn -0.0003 -0.0000 -1.0000
vn -0.1599 0.1715 0.9721
vn 0.0073 0.1141 0.9934
vn 0.0663 -0.1727 0.9827
vn 0.2598 -0.0601 0.9638
vn 0.0376 -0.1053 0.9937
vn 0.1421 -0.1666 0.9757
vn -0.0689 0.0103 0.9976
vn -0.2691 0.1309 0.9542
vn -0.1340 0.1996 0.9707
vn -0.1108 0.3364 0.9352
vn 0.2546 -0.2535 0.9333
vn 0.1615 0.1801 0.9703
vn 0.1337 0.0488 0.9898
vn 0.9400 0.0367 0.3392
vn -0.9847 -0.1706 -0.0367
vn -0.9953 -0.0967 -0.0092
vn -0.9938 -0.1103 -0.0169
vn 0.9630 -0.2653 -0.0486
vn 0.9599 -0.1609 -0.2295
vn 0.9811 -0.1379 -0.1358
vn -0.9800 0.0025 0.1988
vn -0.9972 -0.0645 -0.0382
vn 0.9930 0.1151 -0.0277
vn -0.4014 0.3187 0.8586
vn 0.0834 0.0088 0.9965
vn 0.9533 -0.1660 -0.2523
vn -0.9952 0.0138 -0.0973
vn -0.9999 -0.0007 0.0137
vn 0.9631 0.2091 0.1695
vn 0.9346 0.1658 0.3148
vn -0.9697 0.2281 0.0879
vn -0.9647 -0.0317 0.2615
vn 0.9876 -0.0111 0.1564
vn -0.2299 -0.0538 0.9717
vn 0.9876 -0.1117 -0.1099
vn -0.9956 0.0937 0.0066
vn -0.9894 0.0507 0.1362
vn 0.9281 0.3717 0.0207
vn 0.9895 -0.0918 0.1119
vn -0.9312 0.1584 0.3282
vn -0.8803 -0.2179 0.4214
vn -0.8969 -0.0982 0.4312
vn -0.9582 0.2784 -0.0653
vn 0.9719 -0.1889 -0.1404
vn -0.9978 -0.0601 -0.0273
vn -0.9999 -0.0075 0.0130
vn 0.9722 0.2146 0.0935
vn -0.9847 0.0263 -0.1724
vn -0.9664 -0.2561 -0.0228
vn 0.2747 -0.1744 0.9456
vn 0.1325 -0.0132 0.9911
vn -0.1594 0.1577 0.9745
vn -0.1169 0.2022 0.9723
vn 0.0890 -0.1435 0.9856
vn -0.1476 0.1275 0.9808
vn -0.2735 0.1793 0.9450
vn 0.1089 -0.2834 0.9528
vn 0.1838 -0.1693 0.9683
vn 0.2897 -0.0587 0.9553
vn 0.1767 -0.1923 0.9653
vn 0.1920 0.1439 0.9708
vn -0.0914 0.1908 0.9774
vn 0.9455 0.1725 0.2760
vn 0.9731 -0.2237 0.0549
vn 0.9933 0.1146 0.0157
vn 0.2096 -0.0418 0.9769
vn 0.9758 0.0771 -0.2046
vn -0.9964 -0.0052 -0.0851
vn -0.9820 -0.0493 -0.1823
vn 0.9700 -0.2303 -0.0772
vn -0.9951 0.0428 0.0890
vn 0.2926 -0.0179 0.9561
vn 0.9740 0.1791 -0.1390
vn -0.5138 -0.0287 0.8574
vn -0.9089 -0.0144 0.4168
vn -0.1826 -0.0352 0.9826
vn -0.5333 0.0667 0.8433
vn 0.7939 0.3348 0.5077
vn 0.9605 -0.2632 -0.0901
vn -0.9665 0.1051 0.2343
vn 0.9892 0.1452 -0.0203
vn 0.9868 0.1094 -0.1190
vn 0.8812 -0.3421 -0.3262
vn 0.9793 -0.1856 0.0811
vn 0.9937 0.1114 0.0112
vn 0.9801 0.1345 -0.1460
vn -0.9885 -0.1123 -0.1010
vn -0.9969 -0.0631 -0.0469
vn -0.9657 0.2465 0.0817
vn 0.0453 -0.0412 0.9981
vn -0.9872 0.1568 -0.0280
vn 0.9126 -0.0750 0.4019
vn -0.1997 -0.1565 0.9673
vn 0.9872 -0.0308 0.1566
vn 0.9700 0.2380 0.0488
vn 0.9705 -0.2289 -0.0759
vn 0.0430 -0.1056 0.9935
vn 0.9843 -0.1065 0.1408
vn 0.2309 0.0429 0.9720
vn 0.9042 -0.0637 0.4223
vn -0.1148 0.1134 0.9869
vn -0.5414 0.0013 0.8408
vn -0.9650 0.2406 -0.1044
vn 0.9966 -0.0452 0.0687
vn 0.9783 -0.2046 -0.0322
vn 0.0002 -1.0000 -0.0006
vn -0.9464 -0.1565 0.2826
vn -0.0003 1.0000 -0.0000
vt 0.458333 0.729068
vt 0.456612 0.730850
vt 0.456688 0.729068
vt 0.541667 0.062796
vt 0.522110 0.082446
vt 0.520833 0.082762
vt 0.520833 0.062796
vt 0.458333 0.062796
vt 0.455549 0.065680
vt 0.455313 0.062796
vt 0.458333 0.020932
vt 0.457061 0.022249
vt 0.457143 0.020932
vt 0.541667 0.020932
vt 0.520833 0.041864
vt 0.520833 0.020932
vt 0.541667 0.687204
vt 0.520833 0.708136
vt 0.520833 0.687204
vt 0.458333 0.687204
vt 0.456051 0.689568
vt 0.455550 0.687204
vt 0.500000 0.687204
vt 0.479167 0.708136
vt 0.479167 0.687204
vt 0.500000 0.020932
vt 0.479167 0.041864
vt 0.479167 0.020932
vt 0.500000 0.062796
vt 0.479167 0.083729
vt 0.479167 0.062796
vt 0.500000 0.729068
vt 0.479167 0.750000
vt 0.479167 0.729068
vt 0.500000 0.937500
vt 0.479167 1.000000
vt 0.479167 0.937500
vt 0.458333 1.000000
vt 0.458333 0.968612
vt 0.461512 0.937500
vt 0.461094 0.747226
vt 0.458333 0.737365
vt 0.458333 0.083729
vt 0.458333 0.041864
vt 0.461270 0.705185
vt 0.458333 0.697009
vt 0.500000 0.708136
vt 0.500000 0.041864
vt 0.500000 0.083729
vt 0.520833 0.729068
vt 0.500000 0.750000
vt 0.520833 0.937500
vt 0.500000 1.000000
vt 0.520833 0.000000
vt 0.500000 0.000000
vt 0.479167 0.000000
vt 0.458333 0.000000
vt 0.458333 0.720981
vt 0.461579 0.708136
vt 0.541667 0.000000
vt 0.455188 0.003257
vt 0.454757 0.000000
vt 0.520833 0.666271
vt 0.500000 0.668450
vt 0.509408 0.666271
vt 0.458333 0.666271
vt 0.455068 0.669653
vt 0.455751 0.666271
vt 0.476256 0.086640
vt 0.458333 0.084165
vt 0.499404 0.084324
vt 0.479167 0.086174
vt 0.539816 0.086605
vt 0.539154 0.665231
vt 0.522872 0.664232
vt 0.520833 0.663944
vt 0.497645 0.668637
vt 0.479167 0.669002
vt 0.476863 0.668586
vt 0.466395 0.666271
vt 0.459651 0.664954
vt 0.458333 0.664715
vt 0.455881 0.664776
vt 0.455361 0.083729
vt 0.457965 0.084108
vt 0.500000 0.084246
vt 0.507527 0.083729
vt 0.526412 0.083729
vt 0.538770 0.086625
vt 0.520833 0.812500
vt 0.500000 0.875000
vt 0.500000 0.812500
vt 0.479167 0.812500
vt 0.461515 0.865455
vt 0.458333 0.848396
vt 0.458333 0.812500
vt 0.479167 0.875000
vt 0.541667 0.812500
vt 0.520833 0.875000
vt 0.454618 0.823990
vt 0.454260 0.812500
vt 0.461189 0.928932
vt 0.460691 0.875000
vt 0.541667 0.875000
vt 0.541667 0.750000
vt 0.520833 0.750000
vt 0.458333 0.776796
vt 0.461017 0.750000
vt 0.541667 0.030883
vt 0.539261 0.041864
vt 0.541667 0.704812
vt 0.541042 0.708136
vt 0.520833 1.000000
vt 0.541667 0.898233
vt 0.539401 0.937500
vt 0.544529 0.684327
vt 0.544501 0.687204
vt 0.543217 0.875000
vt 0.539042 0.668908
vt 0.541667 0.675129
vt 0.539100 0.044443
vt 0.539598 0.085798
vt 0.543300 0.750000
vt 0.542229 0.810812
vt 0.541667 0.973077
vt 0.543578 0.994265
vt 0.541667 1.000000
vt 0.543380 0.000000
vt 0.544187 0.018400
vt 0.454757 1.000000
vt 0.539745 0.943264
vt 0.538117 0.732634
vt 0.541667 0.742740
vt 0.540944 0.708861
vt 0.539617 0.083729
vt 0.539073 0.666271
vt 0.544338 0.020932
vt 0.542880 0.871361
vt 0.543328 0.748330
vt 0.538147 0.729068
vt 0.542217 0.812500
vt 0.543380 1.000000
s 0
f 22/1/1 79/2/1 102/3/1
f 32/4/2 81/5/2 62/6/2 40/7/2
f 31/8/3 83/9/3 124/10/3
f 23/11/4 92/12/4 100/13/4
f 24/14/5 20/15/5 29/16/5
f 34/17/6 21/18/6 39/19/6
f 33/20/7 96/21/7 121/22/7
f 35/23/8 15/24/8 38/25/8
f 25/26/9 14/27/9 28/28/9
f 36/29/10 13/30/10 37/31/10
f 26/32/11 12/33/11 27/34/11
f 45/35/12 16/36/12 46/37/12
f 46/37/13 1/38/13 109/39/13 117/40/13
f 27/34/14 125/41/14 112/42/14 22/1/14
f 37/31/15 5/43/15 31/8/15
f 28/28/16 6/44/16 23/11/16
f 38/25/17 130/45/17 53/46/17 33/20/17
f 39/19/18 11/47/18 35/23/18
f 29/16/19 10/48/19 25/26/19
f 40/7/20 9/49/20 36/29/20
f 30/50/21 8/51/21 26/32/21
f 47/52/22 7/53/22 45/35/22
f 21/18/23 26/32/23 11/47/23
f 17/54/24 25/26/24 7/55/24
f 16/56/25 23/11/25 1/57/25
f 15/24/26 22/1/26 85/58/26 60/59/26
f 11/47/27 27/34/27 15/24/27
f 7/55/28 28/28/28 16/56/28
f 2/60/29 29/16/29 17/54/29
f 1/57/30 71/61/30 104/62/30
f 20/15/31 36/29/31 10/48/31
f 19/63/32 35/23/32 105/64/32 74/65/32
f 14/27/33 31/8/33 6/44/33
f 10/48/34 37/31/34 14/27/34
f 4/66/35 87/67/35 113/68/35
f 13/30/36 90/69/36 126/70/36 5/43/36
f 9/49/37 93/71/37 132/72/37 13/30/37
f 133/73/38 134/74/38 86/75/38 61/76/38 74/65/38 105/64/38 84/77/38 111/78/38 77/79/38 123/80/38 129/81/38 119/82/38 135/83/38 108/84/38 97/85/38 126/70/38 5/43/38 90/69/38 132/72/38 93/71/38 128/86/38 73/87/38 62/6/38 81/5/38 99/88/38 94/89/38
f 52/90/39 42/91/39 50/92/39
f 51/93/40 59/94/40 127/95/40 48/96/40
f 50/92/41 43/97/41 51/93/41
f 49/98/42 44/99/42 52/90/42
f 48/96/43 68/100/43 63/101/43
f 44/99/44 45/35/44 42/91/44
f 43/97/45 78/102/45 70/103/45
f 42/91/46 46/37/46 43/97/46
f 41/104/47 47/52/47 44/99/47
f 3/105/48 52/90/48 18/106/48
f 8/51/49 51/93/49 12/33/49
f 12/33/50 48/96/50 131/107/50 107/108/50
f 18/106/51 50/92/51 8/51/51
f 22/1/52 112/42/52 79/2/52
f 31/8/53 5/43/53 108/84/53 83/9/53
f 23/11/54 6/44/54 92/12/54
f 24/14/55 58/109/55 56/110/55 20/15/55
f 34/17/56 55/111/56 57/112/56 21/18/56
f 33/20/57 53/46/57 96/21/57
f 35/23/58 11/47/58 15/24/58
f 25/26/59 10/48/59 14/27/59
f 36/29/60 9/49/60 13/30/60
f 26/32/61 8/51/61 12/33/61
f 45/35/62 7/53/62 16/36/62
f 46/37/63 16/36/63 1/38/63
f 27/34/64 12/33/64 107/108/64 125/41/64
f 37/31/65 13/30/65 5/43/65
f 28/28/66 14/27/66 6/44/66
f 38/25/67 15/24/67 60/59/67 130/45/67
f 39/19/68 21/18/68 11/47/68
f 29/16/69 20/15/69 10/48/69
f 40/7/70 62/6/70 73/87/70 9/49/70
f 30/50/71 18/106/71 8/51/71
f 47/52/72 17/113/72 7/53/72
f 21/18/73 30/50/73 26/32/73
f 17/54/74 29/16/74 25/26/74
f 16/56/75 28/28/75 23/11/75
f 15/24/76 27/34/76 22/1/76
f 11/47/77 26/32/77 27/34/77
f 7/55/78 25/26/78 28/28/78
f 2/60/79 24/14/79 29/16/79
f 1/57/80 23/11/80 100/13/80 71/61/80
f 20/15/81 40/7/81 36/29/81
f 19/63/82 39/19/82 35/23/82
f 14/27/83 37/31/83 31/8/83
f 10/48/84 36/29/84 37/31/84
f 4/66/85 33/20/85 121/22/85 87/67/85
f 13/30/86 132/72/86 90/69/86
f 9/49/87 128/86/87 93/71/87
f 52/90/88 44/99/88 42/91/88
f 51/93/89 43/97/89 70/103/89 59/94/89
f 50/92/90 42/91/90 43/97/90
f 49/98/91 41/104/91 44/99/91
f 48/96/92 127/95/92 68/100/92
f 44/99/93 47/52/93 45/35/93
f 43/97/94 46/37/94 117/40/94 78/102/94
f 42/91/95 45/35/95 46/37/95
f 41/104/96 82/114/96 120/115/96 47/52/96
f 3/105/97 49/98/97 52/90/97
f 8/51/98 50/92/98 51/93/98
f 12/33/99 51/93/99 48/96/99
f 18/106/100 52/90/100 50/92/100
f 75/116/101 118/117/101 34/17/101
f 77/79/102 111/78/102 38/25/102 33/20/102
f 84/77/103 105/64/103 35/23/103 38/25/103
f 69/118/104 82/114/104 41/104/104
f 88/119/105 103/120/105 34/17/105 39/19/105
f 124/10/106 6/44/106 31/8/106
f 89/121/107 32/4/107 40/7/107
f 119/82/108 129/81/108 4/66/108
f 95/122/109 133/73/109 94/89/109
f 106/123/110 91/124/110 49/98/110 3/105/110
f 118/117/111 55/111/111 34/17/111
f 110/125/112 65/126/112 2/127/112
f 66/128/113 116/129/113 24/14/113 2/60/113
f 104/130/114 109/39/114 1/38/114
f 76/131/115 110/125/115 2/127/115 17/113/115
f 80/132/116 114/133/116 3/105/116 18/106/116
f 57/112/117 72/134/117 30/50/117 21/18/117
f 98/135/118 99/88/118 81/5/118 32/4/118
f 86/75/119 134/74/119 54/136/119 19/63/119
f 113/68/120 135/83/120 119/82/120 4/66/120
f 103/120/121 75/116/121 34/17/121
f 123/80/122 77/79/122 33/20/122 4/66/122
f 111/78/123 84/77/123 38/25/123
f 54/136/124 88/119/124 39/19/124 19/63/124
f 56/110/125 89/121/125 40/7/125 20/15/125
f 73/87/126 128/86/126 9/49/126
f 115/137/127 58/109/127 24/14/127
f 122/138/128 69/118/128 41/104/128
f 98/135/129 95/122/129 94/89/129 99/88/129
f 114/133/130 64/139/130 3/105/130
f 120/115/131 76/131/131 17/113/131 47/52/131
f 101/140/132 80/132/132 18/106/132 30/50/132
f 61/76/133 86/75/133 19/63/133
f 129/81/134 123/80/134 4/66/134
f 63/101/135 131/107/135 48/96/135
f 74/65/136 61/76/136 19/63/136
f 91/124/137 67/141/137 49/98/137
f 64/139/138 106/123/138 3/105/138
f 67/141/139 122/138/139 41/104/139 49/98/139
f 65/126/140 66/142/140 2/127/140
f 116/129/141 115/137/141 24/14/141
f 72/134/142 101/140/142 30/50/142
f 102/3/143 85/58/143 22/1/143
f 121/22/144 96/21/144 53/46/144 130/45/144 60/59/144 85/58/144 102/3/144 79/2/144 112/42/144 125/41/144 107/108/144 131/107/144 63/101/144 68/100/144 127/95/144 59/94/144 70/103/144 78/102/144 117/40/144 109/39/144 104/130/144 71/61/144 100/13/144 92/12/144 6/44/144 124/10/144 83/9/144 108/84/144 135/83/144 113/68/144 87/67/144
f 97/85/145 108/84/145 5/43/145 126/70/145
f 134/74/146 133/73/146 95/122/146 98/135/146 32/4/146 89/121/146 56/110/146 58/109/146 115/137/146 116/129/146 66/142/146 65/126/146 110/125/146 76/131/146 120/115/146 82/114/146 69/118/146 122/138/146 67/141/146 91/124/146 106/123/146 64/139/146 114/133/146 80/132/146 101/140/146 72/134/146 57/112/146 55/111/146 118/117/146 75/116/146 103/120/146 88/119/146 54/136/146
