# Blender 4.4.3
# www.blender.org
mtllib block9.mtl
o block9
v -0.892328 0.987185 -0.820920
v 0.863340 0.930842 -0.965780
v 0.988071 -0.991648 -0.847298
v -0.955325 0.910732 -0.010686
v 1.051462 0.974388 -0.086571
v -0.914981 -0.079318 -0.856187
v 1.004256 0.011347 -0.963960
v -1.007646 -0.002237 0.891226
v 0.900164 -0.002087 0.985572
v 1.088687 0.023709 -0.044398
v -0.913780 0.026131 -0.048141
v -0.886930 -0.404653 -0.922030
v 0.849883 -0.430761 -0.944373
v 0.916518 -0.505128 0.936095
v 1.032058 -0.584658 -0.047232
v -1.068693 -0.571289 -0.018854
v -0.835512 0.466332 -0.964816
v 0.979331 0.440485 -0.967372
v 1.055486 0.504508 0.078328
v -0.991178 0.400595 0.001650
v 0.955359 -0.975055 0.579503
v -0.992679 -0.897802 0.494809
v -1.004270 -0.010815 0.393563
v 0.991411 -0.031708 0.587335
v 0.972596 -0.570060 0.558768
v -1.000936 -0.585362 0.544966
v -1.029057 0.595619 0.496461
v 0.900900 0.500512 0.479505
v -1.058388 -0.944530 -0.563882
v 1.014591 0.904154 -0.526881
v 0.990435 -0.060667 -0.423454
v -0.971854 0.033886 -0.412597
v -1.088845 -0.465201 -0.532300
v 1.094548 -0.527289 -0.484594
v 1.066317 0.574112 -0.512829
v -0.976202 0.549696 -0.585823
v -0.077602 -0.008580 -0.937515
v 0.034313 -0.486547 -0.907040
v -0.088477 0.457017 -0.981993
v -0.403892 0.972514 -1.002809
v -0.538268 -0.017478 -0.909280
v -0.583463 -0.553454 -1.013288
v -0.535621 0.464226 -1.086321
v 0.411035 -0.994127 -0.954462
v 0.407572 0.017684 -1.033828
v 0.468349 -0.594458 -1.008708
v 0.570383 0.556771 -1.042700
v -1.006222 0.101238 1.000004
v -0.122774 -1.000023 -1.021837
v 1.045945 0.999995 -0.104006
v -0.962634 0.999995 0.066522
v 0.945661 0.493753 1.000004
v -0.893044 0.999996 -0.811783
v 0.823027 0.999996 -0.959869
v 0.905162 -0.003215 1.000005
v -0.918070 -1.000020 0.079230
v -1.016692 0.999994 0.254283
v -0.020416 -1.000023 -1.006194
v 0.917710 -0.501850 1.000005
v -0.961331 0.999995 -0.024723
v 1.050687 0.999995 -0.086314
v -0.492311 -1.000023 -0.946503
v -0.429695 0.999996 -0.996771
v 1.024075 -1.000020 -0.090349
v 0.512320 0.999996 -0.924971
v 0.413171 -1.000023 -0.954516
v -0.997397 0.273153 1.000004
v 0.908274 0.074715 1.000005
v -0.055785 0.999996 -0.987435
v 0.417842 -1.000023 -0.952822
v 0.543237 0.999996 -0.916631
v -1.049365 -1.000022 -0.590964
v -0.999907 0.999995 -0.460363
v -0.925356 -0.532825 1.000005
v -1.012737 0.003726 1.000005
v 0.959485 0.573234 1.000004
v 0.996958 0.999994 0.583556
v 0.983271 -1.000019 0.303131
v 0.953084 -1.000018 0.601858
v 1.042106 0.999995 0.030572
v -0.928274 -1.000017 0.938465
v -1.062111 0.994265 1.000003
v 1.053876 -0.929625 1.000006
v -0.926814 -0.505873 1.000005
v -0.994997 0.515966 1.000004
v 0.924807 -0.548019 1.000005
v -0.976844 -1.000018 0.497641
v -1.058118 0.999994 0.460091
v -1.055710 0.999994 0.408375
v -0.984437 -1.000019 0.394133
v 0.049719 0.999996 -0.997084
v 0.959081 -1.000018 0.579320
v 0.900872 -0.014039 1.000005
v 0.988278 0.999994 0.485199
v -0.945408 -1.000021 -0.158705
v -0.993979 0.999995 -0.275071
v -0.465794 -1.000023 -0.957525
v 0.996579 -1.000023 -0.801815
v -0.413565 0.999996 -1.000160
v -0.890851 0.999996 -0.823189
v -0.868075 -1.000023 -0.900039
v 0.860634 0.999996 -0.954880
v 0.987116 -1.000023 -0.846945
v -0.990884 0.435283 1.000004
v 0.651874 0.999996 -0.934129
v -0.980000 -1.000022 -0.699281
v -0.918316 0.999996 -0.734698
v -1.058089 0.938861 1.000003
v 1.002740 0.999995 -0.509560
v 1.051069 -0.981352 1.000006
v 1.064857 -1.000021 -0.461195
v 0.988272 0.999996 -0.578352
v 0.383897 -1.000023 -0.958714
v 1.039768 -1.000022 -0.506725
v 0.990715 -0.742323 1.000005
v -0.946470 -0.343099 1.000005
v -1.010865 0.999995 -0.431760
v -1.061597 -1.000022 -0.554768
v 0.989691 -1.000023 -0.841792
v -0.894900 -1.000023 -0.849043
v -0.317917 0.999996 -0.999275
v -0.910514 -1.000020 -0.006476
v 1.028405 -1.000020 -0.121621
v -0.907508 -1.000020 0.020599
v 1.026287 0.999993 0.999696
v 1.045489 -1.000017 1.000006
v -0.919517 -1.000017 1.000006
vn 0.3380 0.1312 -0.9320
vn -0.9474 0.0022 -0.3201
vn 0.9568 0.1408 0.2546
vn 0.9870 0.1563 0.0365
vn -0.9859 -0.1507 0.0723
vn -0.9924 0.0258 0.1199
vn 0.9672 0.1943 0.1637
vn 0.9871 -0.0427 0.1541
vn -0.8654 0.2992 -0.4019
vn 0.1758 -0.0229 -0.9842
vn 0.1810 -0.1577 -0.9708
vn -0.8692 -0.0227 -0.4939
vn 0.9735 -0.0528 -0.2224
vn 0.9927 -0.0571 0.1066
vn -0.9842 0.0025 -0.1773
vn -0.9795 -0.0059 -0.2012
vn 0.9650 -0.1460 -0.2176
vn 0.9574 0.2042 0.2042
vn -0.9922 -0.0471 -0.1152
vn 0.1156 -0.0512 -0.9920
vn 0.9430 0.3199 0.0924
vn 0.9992 0.0345 -0.0204
vn 0.9876 0.0287 0.1546
vn 0.9942 -0.0298 0.1031
vn 0.9907 -0.0927 0.0994
vn -0.9766 -0.1179 0.1797
vn 0.9243 0.1334 0.3575
vn -0.9643 -0.2191 0.1490
vn 0.9977 0.0582 0.0333
vn 0.9666 0.2137 -0.1415
vn -0.9191 -0.3330 0.2107
vn -0.9629 0.2541 0.0903
vn 0.8124 -0.3057 -0.4965
vn 0.9430 0.2239 -0.2463
vn 0.8881 -0.1199 -0.4438
vn -0.9975 0.0699 -0.0077
vn -0.0508 -0.3443 -0.9375
vn -0.1816 -0.1688 -0.9688
vn 0.1483 0.1763 -0.9731
vn 0.2276 0.1002 -0.9686
vn -0.3658 0.2106 -0.9066
vn -0.2026 0.1774 -0.9631
vn -0.1226 -0.0405 -0.9916
vn -0.1085 -0.1789 -0.9779
vn -0.1887 -0.0978 -0.9772
vn 0.1148 0.1765 -0.9776
vn -0.2548 -0.1208 -0.9594
vn 0.1825 -0.0622 -0.9812
vn -0.8355 0.1253 -0.5350
vn 0.9352 -0.2796 -0.2171
vn 0.9966 -0.0197 -0.0803
vn -0.9710 0.1233 -0.2047
vn -0.9550 0.2390 -0.1757
vn 0.9688 -0.0891 -0.2313
vn 0.9749 0.0098 0.2226
vn -0.9918 -0.0630 -0.1111
vn 0.1150 -0.0840 -0.9898
vn 0.2131 -0.1154 -0.9702
vn -0.8841 -0.0452 -0.4651
vn 0.9441 0.3184 0.0855
vn 0.9900 -0.0333 0.1371
vn -0.9341 -0.3416 0.1037
vn -0.9792 -0.2031 0.0051
vn 0.9977 0.0624 0.0256
vn 0.9923 -0.0885 -0.0865
vn -0.9309 0.0640 -0.3596
vn 0.1819 0.0027 -0.9833
vn 0.9881 0.1519 -0.0262
vn 0.8773 -0.3477 -0.3309
vn 0.9083 0.2258 0.3522
vn 0.9944 -0.0373 0.0985
vn 0.9880 -0.0424 0.1484
vn -0.9999 -0.0076 -0.0067
vn 0.9782 -0.1724 0.1158
vn -0.9994 -0.0186 -0.0302
vn 0.9795 -0.1378 -0.1469
vn 0.8731 -0.0787 -0.4811
vn -0.9975 -0.0651 0.0257
vn -0.9691 0.1892 0.1584
vn 0.9761 0.2108 0.0530
vn 0.9394 0.1338 -0.3156
vn 0.9824 0.0788 -0.1693
vn -0.9879 -0.1125 0.1065
vn 0.2250 -0.0874 -0.9704
vn 0.1488 0.1722 -0.9738
vn -0.0595 -0.0774 -0.9952
vn 0.0451 -0.0127 -0.9989
vn -0.3329 0.2363 -0.9129
vn -0.1691 0.2015 -0.9648
vn -0.3751 -0.2115 -0.9025
vn -0.3576 -0.3204 -0.8772
vn -0.0935 0.0119 -0.9955
vn -0.2494 -0.0950 -0.9637
vn -0.1913 -0.0592 -0.9797
vn -0.3496 -0.1241 -0.9287
vn 0.9845 0.1407 -0.1049
vn -0.9488 0.1586 -0.2732
vn -0.9369 0.1667 -0.3072
vn -0.1487 -0.0022 -0.9889
vn -0.0911 -0.0045 -0.9958
vn -0.9969 -0.0508 0.0594
vn -0.9841 -0.0532 0.1696
vn -0.9965 0.0666 -0.0503
vn -0.9829 -0.1493 0.1083
vn -0.1589 -0.0344 -0.9867
vn -0.9973 -0.0724 -0.0081
vn -0.9582 -0.0258 -0.2850
vn 0.9855 0.1463 0.0863
vn 0.9856 -0.1543 -0.0695
vn 0.9969 0.0294 0.0732
vn 0.9666 0.1563 -0.2033
vn -0.9546 0.1012 0.2801
vn -0.9675 0.0621 -0.2450
vn 0.9434 -0.0377 -0.3296
vn -0.9816 -0.1876 -0.0357
vn -0.9992 0.0401 -0.0075
vn -0.9900 -0.0124 0.1409
vn -0.2056 0.0219 -0.9784
vn 0.2501 0.2790 -0.9271
vn -0.9326 0.0505 -0.3573
vn 0.9815 -0.1707 -0.0866
vn -0.9905 -0.0463 0.1292
vn 0.9434 0.0873 -0.3198
vn -0.9980 0.0512 -0.0357
vn 0.9654 0.0318 -0.2588
vn -0.9975 -0.0694 -0.0142
vn -0.9789 0.0796 -0.1883
vn 0.1298 0.1593 -0.9786
vn 0.0092 0.0991 -0.9950
vn -0.9960 -0.0758 -0.0464
vn 0.1482 0.2720 -0.9508
vn 0.1417 0.0604 -0.9881
vn -0.9881 -0.1474 0.0435
vn -0.0004 1.0000 0.0015
vn -0.0000 0.0001 1.0000
vn -0.0000 -1.0000 -0.0000
vt 0.458333 0.437500
vt 0.458071 0.438311
vt 0.458094 0.437500
vt 0.458333 0.229265
vt 0.456531 0.231114
vt 0.456367 0.229265
vt 0.458333 0.562203
vt 0.457334 0.563228
vt 0.457427 0.562203
vt 0.541667 0.520734
vt 0.520833 0.541469
vt 0.520833 0.520734
vt 0.458333 0.187796
vt 0.454239 0.191997
vt 0.454810 0.187796
vt 0.500000 0.187796
vt 0.479167 0.208531
vt 0.479167 0.187796
vt 0.500000 0.520734
vt 0.479167 0.541469
vt 0.479167 0.520734
vt 0.500000 0.562203
vt 0.479167 0.582938
vt 0.479167 0.562203
vt 0.500000 0.229265
vt 0.479167 0.250000
vt 0.479167 0.229265
vt 0.500000 0.437500
vt 0.479167 0.500000
vt 0.479167 0.437500
vt 0.458333 0.500000
vt 0.461075 0.247271
vt 0.458333 0.237692
vt 0.460996 0.580288
vt 0.458333 0.580174
vt 0.459803 0.540006
vt 0.460793 0.520734
vt 0.459334 0.207535
vt 0.458333 0.205007
vt 0.520833 0.187796
vt 0.500000 0.208531
vt 0.500000 0.541469
vt 0.520833 0.562203
vt 0.500000 0.582938
vt 0.520833 0.229265
vt 0.500000 0.250000
vt 0.520833 0.437500
vt 0.500000 0.500000
vt 0.476982 0.585123
vt 0.468811 0.582938
vt 0.499472 0.583466
vt 0.479167 0.585090
vt 0.458333 0.553696
vt 0.459990 0.541469
vt 0.500000 0.167062
vt 0.479167 0.169085
vt 0.485655 0.167062
vt 0.541667 0.541469
vt 0.520833 0.208531
vt 0.520833 0.500000
vt 0.460418 0.518660
vt 0.458333 0.502423
vt 0.458333 0.214210
vt 0.459303 0.208531
vt 0.541667 0.500000
vt 0.457960 0.500383
vt 0.457963 0.500000
vt 0.541667 0.208531
vt 0.520833 0.312500
vt 0.500000 0.375000
vt 0.500000 0.312500
vt 0.479167 0.312500
vt 0.461825 0.364524
vt 0.461030 0.312500
vt 0.479167 0.375000
vt 0.541667 0.312500
vt 0.520833 0.375000
vt 0.541667 0.250000
vt 0.520833 0.250000
vt 0.460424 0.306228
vt 0.460830 0.250000
vt 0.458333 0.433654
vt 0.461438 0.375000
vt 0.457576 0.580227
vt 0.520833 0.580219
vt 0.503233 0.582938
vt 0.500000 0.583647
vt 0.541667 0.545709
vt 0.538202 0.562203
vt 0.541667 0.222072
vt 0.539682 0.229265
vt 0.541667 0.327711
vt 0.538834 0.375000
vt 0.542259 0.250000
vt 0.542898 0.308806
vt 0.545191 0.520734
vt 0.542742 0.540399
vt 0.541667 0.196709
vt 0.544478 0.205733
vt 0.541667 0.245590
vt 0.542252 0.249418
vt 0.541667 0.463006
vt 0.543997 0.493009
vt 0.538300 0.385100
vt 0.518134 0.169748
vt 0.520833 0.170214
vt 0.477318 0.168902
vt 0.500000 0.163749
vt 0.504511 0.162550
vt 0.458333 0.170791
vt 0.540031 0.442408
vt 0.539190 0.169527
vt 0.541667 0.169357
vt 0.538694 0.187796
vt 0.539966 0.230958
vt 0.538247 0.565607
vt 0.538491 0.582455
vt 0.523597 0.580188
vt 0.542585 0.541469
vt 0.544797 0.517619
vt 0.539564 0.189889
vt 0.511385 0.167062
vt 0.458893 0.168445
vt 0.542762 0.312500
vt 0.539643 0.437500
vt 0.544787 0.208531
vt 0.544024 0.500000
s 0
f 44/1/1 70/2/1 66/3/1
f 29/4/2 72/5/2 118/6/2
f 21/7/3 79/8/3 92/9/3
f 30/10/4 19/11/4 35/12/4
f 22/13/5 90/14/5 87/15/5
f 23/16/6 16/17/6 26/18/6
f 31/19/7 15/20/7 34/21/7
f 24/22/8 14/23/8 25/24/8
f 32/25/9 12/26/9 33/27/9
f 45/28/10 13/29/10 46/30/10
f 46/30/11 3/31/11 44/1/11
f 33/27/12 120/32/12 106/33/12 29/4/12
f 25/24/13 83/34/13 110/35/13 21/7/13
f 34/21/14 123/36/14 111/37/14
f 26/18/15 124/38/15 56/39/15 22/13/15
f 27/40/16 11/41/16 23/16/16
f 35/12/17 10/42/17 31/19/17
f 28/43/18 9/44/18 24/22/18
f 36/45/19 6/46/19 32/25/19
f 47/47/20 7/48/20 45/28/20
f 14/23/21 86/49/21 115/50/21
f 9/44/22 93/51/22 59/52/22 14/23/22
f 19/11/23 24/22/23 10/42/23
f 15/20/24 21/7/24 78/53/24 64/54/24
f 10/42/25 25/24/25 15/20/25
f 8/55/26 26/18/26 84/56/26 116/57/26
f 5/58/27 28/43/27 19/11/27
f 20/59/28 32/25/28 11/41/28
f 18/60/29 31/19/29 7/48/29
f 13/29/30 114/61/30 98/62/30 3/31/30
f 16/17/31 29/4/31 95/63/31 122/64/31
f 11/41/32 33/27/32 16/17/32
f 7/48/33 34/21/33 13/29/33
f 2/65/34 35/12/34 18/60/34
f 3/31/35 119/66/35 103/67/35
f 4/68/36 36/45/36 20/59/36
f 43/69/37 37/70/37 41/71/37
f 42/72/38 49/73/38 97/74/38
f 41/71/39 38/75/39 42/72/39
f 40/76/40 39/77/40 43/69/40
f 1/78/41 43/69/41 17/79/41
f 6/46/42 42/72/42 12/26/42
f 12/26/43 62/80/43 101/81/43
f 17/79/44 41/71/44 6/46/44
f 39/77/45 45/28/45 37/70/45
f 38/75/46 44/1/46 113/82/46 58/83/46
f 37/70/47 46/30/47 38/75/47
f 44/1/48 3/31/48 103/67/48 70/2/48
f 29/4/49 106/33/49 72/5/49
f 21/7/50 110/35/50 126/84/50 79/8/50
f 30/10/51 5/58/51 19/11/51
f 22/13/52 56/39/52 90/14/52
f 23/16/53 11/41/53 16/17/53
f 31/19/54 10/42/54 15/20/54
f 24/22/55 9/44/55 14/23/55
f 32/25/56 6/46/56 12/26/56
f 45/28/57 7/48/57 13/29/57
f 46/30/58 13/29/58 3/31/58
f 33/27/59 12/26/59 101/81/59 120/32/59
f 25/24/60 14/23/60 115/50/60 83/34/60
f 34/21/61 15/20/61 64/54/61 123/36/61
f 26/18/62 16/17/62 122/64/62 124/38/62
f 27/40/63 20/59/63 11/41/63
f 35/12/64 19/11/64 10/42/64
f 28/43/65 52/85/65 68/86/65 9/44/65
f 36/45/66 17/79/66 6/46/66
f 47/47/67 18/60/67 7/48/67
f 14/23/68 59/52/68 86/49/68
f 9/44/69 55/87/69 93/51/69
f 19/11/70 28/43/70 24/22/70
f 15/20/71 25/24/71 21/7/71
f 10/42/72 24/22/72 25/24/72
f 8/55/73 23/16/73 26/18/73
f 5/58/74 80/88/74 94/89/74 28/43/74
f 20/59/75 36/45/75 32/25/75
f 18/60/76 35/12/76 31/19/76
f 13/29/77 34/21/77 111/37/77 114/61/77
f 16/17/78 33/27/78 29/4/78
f 11/41/79 32/25/79 33/27/79
f 7/48/80 31/19/80 34/21/80
f 2/65/81 30/10/81 35/12/81
f 3/31/82 98/62/82 119/66/82
f 4/68/83 96/90/83 117/91/83 36/45/83
f 43/69/84 39/77/84 37/70/84
f 42/72/85 38/75/85 58/83/85 49/73/85
f 41/71/86 37/70/86 38/75/86
f 40/76/87 121/92/87 69/93/87 39/77/87
f 1/78/88 40/76/88 43/69/88
f 6/46/89 41/71/89 42/72/89
f 12/26/90 42/72/90 97/74/90 62/80/90
f 17/79/91 43/69/91 41/71/91
f 39/77/92 47/47/92 45/28/92
f 38/75/93 46/30/93 44/1/93
f 37/70/94 45/28/94 46/30/94
f 100/94/95 63/95/95 40/76/95 1/78/95
f 109/96/96 50/97/96 5/58/96 30/10/96
f 57/98/97 51/99/97 4/68/97
f 107/100/98 53/101/98 1/78/98
f 105/102/99 54/103/99 2/65/99
f 69/93/100 91/104/100 47/47/100 39/77/100
f 104/105/101 85/106/101 27/40/101 23/16/101
f 74/107/102 84/56/102 26/18/102 22/13/102
f 75/108/103 48/109/103 8/55/103
f 87/15/104 81/110/104 22/13/104
f 71/111/105 105/102/105 2/65/105 18/60/105
f 108/112/106 82/113/106 88/114/106 27/40/106
f 73/115/107 107/100/107 1/78/107 17/79/107
f 92/9/108 78/53/108 21/7/108
f 77/116/109 125/117/109 76/118/109
f 61/119/110 80/88/110 5/58/110
f 112/120/111 109/96/111 30/10/111
f 118/6/112 95/63/112 29/4/112
f 89/121/113 57/98/113 4/68/113 20/59/113
f 68/86/114 55/87/114 9/44/114
f 116/57/115 75/108/115 8/55/115
f 67/122/116 104/105/116 23/16/116 8/55/116
f 81/110/117 127/123/117 74/107/117 22/13/117
f 63/95/118 99/124/118 40/76/118
f 65/125/119 71/111/119 18/60/119 47/47/119
f 117/91/120 73/115/120 17/79/120 36/45/120
f 94/89/121 77/116/121 76/118/121 52/85/121 28/43/121
f 60/126/122 96/90/122 4/68/122
f 102/127/123 112/120/123 30/10/123 2/65/123
f 48/109/124 67/122/124 8/55/124
f 50/97/125 61/119/125 5/58/125
f 51/99/126 60/126/126 4/68/126
f 53/101/127 100/94/127 1/78/127
f 54/103/128 102/127/128 2/65/128
f 99/124/129 121/92/129 40/76/129
f 88/114/130 89/121/130 20/59/130 27/40/130
f 91/104/131 65/125/131 47/47/131
f 66/3/132 113/82/132 44/1/132
f 85/106/133 108/112/133 27/40/133
f 100/94/134 53/101/134 107/100/134 73/115/134 117/91/134 96/90/134 60/126/134 51/99/134 57/98/134 89/121/134 88/114/134 82/113/134 125/117/134 77/116/134 94/89/134 80/88/134 61/119/134 50/97/134 109/96/134 112/120/134 102/127/134 54/103/134 105/102/134 71/111/134 65/125/134 91/104/134 69/93/134 121/92/134 99/124/134 63/95/134
f 110/35/135 83/34/135 115/50/135 86/49/135 59/52/135 93/51/135 55/87/135 68/86/135 52/85/135 76/118/135 125/117/135 82/113/135 108/112/135 85/106/135 104/105/135 67/122/135 48/109/135 75/108/135 116/57/135 84/56/135 74/107/135 127/123/135 126/84/135
f 62/80/136 97/74/136 49/73/136 58/83/136 113/82/136 66/3/136 70/2/136 103/67/136 119/66/136 98/62/136 114/61/136 111/37/136 123/36/136 64/54/136 78/53/136 92/9/136 79/8/136 126/84/136 127/123/136 81/110/136 87/15/136 90/14/136 56/39/136 124/38/136 122/64/136 95/63/136 118/6/136 72/5/136 106/33/136 120/32/136 101/81/136
