# Blender 4.4.3
# www.blender.org
mtllib block3.mtl
o block3
v -0.910303 0.889209 -0.979513
v 0.860491 0.884046 -0.938742
v 0.889948 1.007184 0.957850
v 1.040533 -0.909000 0.999631
v -0.850581 0.040701 -0.980118
v 0.896678 -0.085098 -0.868495
v -1.097515 0.017241 0.976991
v -0.919522 0.863808 0.080096
v 0.839608 0.899473 -0.066114
v 1.032313 0.060596 -0.077435
v -0.937179 -0.004663 -0.082408
v -0.840397 -0.562563 -0.900663
v 0.839426 -0.457975 -0.869441
v -0.909262 -0.462397 0.972130
v -0.995429 -0.493248 -0.104411
v 1.033895 -0.444551 -0.080748
v -0.958647 0.420279 -0.960446
v 0.977802 0.578980 -0.912108
v 0.995099 0.575227 0.925205
v -1.050708 0.586179 0.989570
v 0.907531 0.464329 -0.018052
v -0.906707 0.485101 0.028034
v 0.991228 0.851830 0.508276
v 1.005706 -0.900378 0.486335
v 0.999037 -0.013488 0.591966
v -0.822298 0.940497 0.469934
v -1.062955 -0.932712 0.454038
v -0.940951 -0.069967 0.533106
v -1.009482 -0.427813 0.561435
v 0.902315 -0.495896 0.471889
v -1.081975 0.552849 0.470816
v 1.073727 0.439667 0.523285
v -0.874297 0.888603 -0.588495
v -1.014516 -0.952581 -0.415534
v -1.061837 -0.061727 -0.551012
v 0.952547 0.855251 -0.432082
v 1.067307 0.037411 -0.438574
v 0.944540 -0.529298 -0.424489
v -0.917831 -0.556583 -0.495539
v 0.972629 0.407364 -0.528245
v -1.085172 0.494009 -0.450315
v 0.154055 0.845999 -0.914908
v -0.050642 -0.914570 -0.988291
v 0.024192 0.905421 0.969237
v 0.007990 0.098774 -1.013414
v -0.083414 1.024209 0.044815
v -0.041345 -0.436225 -1.064988
v -0.082354 0.462585 -0.957363
v -0.040600 1.079040 0.538757
v -0.062502 0.969284 -0.574136
v -0.438315 0.950252 -0.825392
v -0.419908 -0.004214 -0.940271
v -0.416088 1.054181 0.000069
v -0.587831 -0.504892 -0.952441
v -0.523384 0.463766 -1.090224
v -0.473070 0.964525 0.582418
v -0.481696 0.994134 -0.600507
v 0.629856 0.958899 -0.994857
v 0.506074 -0.952324 -0.912307
v 0.462586 0.994637 0.898325
v 0.432021 0.037400 -1.063088
v 0.520060 1.093852 0.023352
v 0.502932 -0.450900 -0.912934
v 0.451283 0.445813 -1.068487
v 0.436969 0.940630 0.442861
v 0.437677 0.951251 -0.441221
v 1.045945 -1.000005 -0.104006
v -0.962634 -1.000005 0.066522
v -0.893044 -1.000004 -0.811783
v 0.823027 -1.000004 -0.959869
v -1.089620 0.042984 1.000002
v 0.026700 0.906603 1.000001
v 1.040243 -0.015215 1.000002
v 0.898073 0.997513 1.000001
v 0.454622 0.992803 1.000001
v -1.016692 -1.000006 0.254283
v 1.025285 -0.521672 1.000003
v -0.961331 -1.000005 -0.024723
v -0.913834 -0.459879 1.000003
v 1.050687 -1.000005 -0.086314
v 1.006900 0.559283 1.000001
v -0.429695 -1.000004 -0.996771
v -1.041242 0.634609 1.000001
v 0.512320 -1.000004 -0.924971
v -0.055785 -1.000004 -0.987435
v -1.048056 0.585757 1.000001
v 0.543237 -1.000004 -0.916631
v -0.999907 -1.000005 -0.460363
v 0.996958 -1.000006 0.583556
v 1.042106 -1.000005 0.030572
v -0.489324 1.027109 1.000001
v -0.965781 0.932897 1.000001
v -1.062111 -1.005734 1.000003
v -1.046048 0.594523 1.000001
v -0.915194 -0.443187 1.000003
v 1.036246 -0.443840 1.000003
v 0.564441 0.976492 1.000001
v 1.000448 0.499424 1.000001
v -1.058118 -1.000006 0.460091
v -1.055710 -1.000006 0.408375
v 0.049719 -1.000004 -0.997084
v 0.988278 -1.000006 0.485199
v -0.993979 -1.000005 -0.275071
v 0.905105 0.964349 1.000001
v -0.413565 -1.000004 -1.000160
v -0.890851 -1.000004 -0.823189
v 0.860634 -1.000004 -0.954880
v 0.651874 -1.000004 -0.934129
v -0.918316 -1.000004 -0.734698
v -0.993792 0.891046 1.000001
v 1.002740 -1.000005 -0.509560
v -0.450856 1.027889 1.000001
v 0.988272 -1.000004 -0.578352
v -1.010865 -1.000005 -0.431760
v -0.953693 -0.623091 1.000003
v 1.018900 0.204606 1.000002
v -0.317917 -1.000004 -0.999275
v -0.124321 0.947195 1.000001
v -1.094216 0.012251 1.000002
v 1.031952 -0.061215 1.000002
v 0.045271 0.909638 1.000001
v 1.026287 -1.000007 0.999696
vn -0.8848 0.3769 -0.2739
vn 0.2746 0.0423 -0.9606
vn 0.2501 0.2790 -0.9271
vn -0.9326 0.0505 -0.3573
vn 0.9815 -0.1707 -0.0866
vn -0.0200 0.9886 -0.1489
vn 0.9722 0.1991 0.1231
vn 0.9635 -0.1357 -0.2310
vn 0.1175 -0.2763 -0.9539
vn -0.9399 -0.2932 -0.1753
vn -0.9820 0.1850 -0.0389
vn 0.9573 -0.2123 -0.1965
vn 0.9920 0.0177 0.1246
vn -0.2609 0.9630 -0.0678
vn -0.9960 -0.0758 -0.0464
vn -0.7680 0.5136 -0.3826
vn 0.9845 0.1407 -0.1049
vn -0.9488 0.1586 -0.2732
vn -0.9369 0.1667 -0.3072
vn -0.1487 -0.0022 -0.9889
vn 0.9675 0.2451 -0.0615
vn -0.9742 -0.2236 -0.0297
vn 0.9614 0.2645 0.0762
vn 0.9792 -0.1765 -0.0996
vn 0.3793 -0.0301 -0.9248
vn -0.9002 0.0407 -0.4335
vn 0.9980 0.0625 -0.0081
vn 0.9649 0.2425 -0.1006
vn 0.9556 0.2838 0.0789
vn -0.9344 0.0845 -0.3462
vn 0.9969 0.0294 0.0732
vn -0.9614 0.2724 0.0379
vn -0.9128 -0.3602 0.1924
vn 0.9728 0.0015 0.2318
vn 0.9509 0.1168 -0.2866
vn -0.3360 0.9353 0.1111
vn -0.9665 0.0022 0.2568
vn 0.9335 -0.1358 -0.3318
vn -0.9905 -0.0463 0.1292
vn 0.9434 0.0873 -0.3198
vn -0.0603 0.9774 -0.2024
vn 0.9135 0.3667 0.1762
vn 0.9572 -0.1463 -0.2496
vn -0.9691 0.1251 -0.2125
vn -0.9344 -0.0793 0.3472
vn -0.2415 0.9678 -0.0705
vn -0.0970 0.9409 0.3244
vn -0.1991 0.9800 0.0021
vn -0.0840 -0.3209 -0.9434
vn 0.0092 0.0991 -0.9950
vn 0.1165 0.9435 -0.3103
vn -0.2122 0.0948 -0.9726
vn 0.2523 0.9592 -0.1279
vn 0.2621 0.4257 -0.8661
vn -0.2848 -0.0096 -0.9585
vn -0.1702 -0.1315 -0.9766
vn -0.3496 -0.1242 -0.9287
vn 0.1001 0.0799 -0.9918
vn 0.1283 0.9559 -0.2643
vn 0.1049 0.9874 -0.1187
vn 0.0644 0.9942 -0.0861
vn -0.1983 0.8983 0.3921
vn 0.1842 0.9411 -0.2837
vn 0.1840 0.9810 -0.0618
vn -0.0611 0.9702 0.2344
vn 0.5059 0.8603 -0.0622
vn 0.3092 0.9510 -0.0021
vn -0.0971 0.1280 -0.9870
vn 0.1229 -0.1594 -0.9795
vn 0.2701 0.0677 -0.9604
vn -0.0911 -0.0045 -0.9958
vn -0.1919 0.2241 -0.9555
vn -0.9902 0.1058 0.0913
vn 0.2385 0.0069 -0.9711
vn -0.1589 -0.0344 -0.9867
vn -0.9582 -0.0258 -0.2850
vn 0.9856 -0.1543 -0.0695
vn -0.1938 0.9803 -0.0384
vn 0.9645 0.2242 0.1398
vn 0.9968 0.0112 -0.0791
vn 0.3733 -0.0550 -0.9261
vn -0.8874 -0.0749 -0.4548
vn -0.9930 0.1181 0.0064
vn 0.9954 0.0025 0.0963
vn 0.9462 0.1776 0.2705
vn -0.3522 0.9359 0.0109
vn -0.9675 0.0621 -0.2450
vn -0.9649 -0.0676 0.2539
vn 0.9654 0.0318 -0.2588
vn -0.9975 -0.0694 -0.0142
vn -0.9789 0.0796 -0.1883
vn 0.1298 0.1593 -0.9786
vn 0.9736 0.0385 -0.2248
vn -0.9125 0.1432 -0.3831
vn 0.9552 0.2819 0.0904
vn 0.9825 0.0954 0.1600
vn 0.3064 -0.0996 -0.9467
vn -0.9456 -0.2590 -0.1971
vn 0.9786 -0.1055 -0.1769
vn 0.9687 0.2054 -0.1396
vn 0.9343 -0.1988 -0.2959
vn -0.9743 -0.2134 0.0724
vn 0.9369 0.2483 0.2461
vn -0.9692 0.0514 0.2408
vn -0.9230 0.1487 -0.3548
vn 0.9789 -0.2028 0.0262
vn 0.9543 0.1824 -0.2368
vn -0.0058 0.9815 -0.1916
vn -0.9327 -0.1019 0.3461
vn 0.9513 0.2765 0.1364
vn -0.9569 0.1891 -0.2205
vn 0.9666 0.1563 -0.2033
vn -0.2588 0.9656 0.0253
vn 0.9814 0.0813 -0.1737
vn 0.9279 -0.2087 -0.3088
vn -0.9305 -0.2398 0.2767
vn -0.8873 0.4591 -0.0430
vn 0.1080 0.9548 -0.2768
vn 0.2522 0.9591 -0.1283
vn -0.1613 0.9866 -0.0247
vn 0.2823 0.2142 -0.9351
vn -0.1810 -0.1523 -0.9716
vn -0.1174 0.9888 -0.0917
vn -0.1935 0.1118 -0.9747
vn -0.1233 0.9138 0.3871
vn -0.1160 0.1797 -0.9769
vn 0.2283 0.4344 -0.8713
vn 0.0915 -0.0065 -0.9958
vn -0.2056 0.0219 -0.9784
vn -0.2367 -0.3435 -0.9088
vn 0.0694 0.9816 -0.1781
vn -0.2422 0.9622 0.1244
vn 0.1039 0.9885 -0.1102
vn 0.2369 0.9586 -0.1581
vn -0.0129 0.9930 -0.1170
vn 0.4200 0.8440 -0.3335
vn 0.1468 0.9887 0.0293
vn 0.1061 0.9271 0.3596
vn 0.1814 0.9804 0.0765
vn -0.2040 -0.0033 -0.9790
vn 0.2691 0.0005 -0.9631
vn -0.1548 -0.3109 -0.9378
vn 0.1482 0.2720 -0.9508
vn -0.2103 0.2102 -0.9548
vn 0.2591 0.9641 -0.0582
vn -0.8121 0.5436 -0.2120
vn -0.9973 -0.0724 -0.0081
vn 0.9782 -0.1724 0.1158
vn -0.9376 0.1124 0.3290
vn -0.9293 -0.3653 0.0540
vn -0.9879 -0.1125 0.1065
vn 0.0451 -0.0127 -0.9989
vn -0.9822 0.1817 0.0475
vn -0.9441 0.2162 0.2488
vn -0.9848 -0.0802 -0.1543
vn -0.9744 0.1457 0.1713
vn -0.9560 0.2335 -0.1779
vn -0.9658 0.0740 0.2486
vn 0.0004 -1.0000 -0.0015
vn -0.0000 -0.0001 1.0000
vt 0.625000 0.229265
vt 0.604167 0.250000
vt 0.604167 0.229265
vt 0.625000 0.437500
vt 0.604167 0.500000
vt 0.604167 0.437500
vt 0.541667 0.437500
vt 0.540031 0.442408
vt 0.539643 0.437500
vt 0.541667 0.229265
vt 0.539966 0.230958
vt 0.539682 0.229265
vt 0.541667 0.562203
vt 0.538247 0.565607
vt 0.538202 0.562203
vt 0.875000 0.562203
vt 0.819504 0.580614
vt 0.812500 0.580075
vt 0.812500 0.562203
vt 0.625000 0.562203
vt 0.604167 0.582938
vt 0.604167 0.562203
vt 0.583333 0.562203
vt 0.565821 0.579633
vt 0.562500 0.580288
vt 0.562500 0.562203
vt 0.583333 0.437500
vt 0.562500 0.500000
vt 0.562500 0.437500
vt 0.583333 0.229265
vt 0.562500 0.250000
vt 0.562500 0.229265
vt 0.583333 0.187796
vt 0.562500 0.208531
vt 0.562500 0.187796
vt 0.583333 0.520734
vt 0.562500 0.541469
vt 0.562500 0.520734
vt 0.625000 0.520734
vt 0.604167 0.541469
vt 0.604167 0.520734
vt 0.875000 0.520734
vt 0.812500 0.541469
vt 0.812500 0.520734
vt 0.541667 0.187796
vt 0.539564 0.189889
vt 0.538694 0.187796
vt 0.625000 0.187796
vt 0.604167 0.208531
vt 0.604167 0.187796
vt 0.542742 0.540399
vt 0.545191 0.520734
vt 0.544478 0.205733
vt 0.541667 0.196709
vt 0.542252 0.249418
vt 0.541667 0.245590
vt 0.543997 0.493009
vt 0.541667 0.463006
vt 0.541667 0.582938
vt 0.583333 0.208531
vt 0.583333 0.541469
vt 0.585486 0.580795
vt 0.583333 0.580477
vt 0.583333 0.500000
vt 0.583333 0.250000
vt 0.601048 0.586057
vt 0.592156 0.582938
vt 0.625000 0.582938
vt 0.623393 0.584545
vt 0.604167 0.585628
vt 0.604167 0.167062
vt 0.583333 0.167062
vt 0.541667 0.545709
vt 0.542585 0.541469
vt 0.562500 0.167062
vt 0.541667 0.169357
vt 0.556440 0.167062
vt 0.625000 0.541469
vt 0.875000 0.541469
vt 0.541667 0.222072
vt 0.544787 0.208531
vt 0.544797 0.517619
vt 0.544024 0.500000
vt 0.875000 0.500000
vt 0.812500 0.500000
vt 0.625000 0.500000
vt 0.625000 0.208531
vt 0.750000 0.500000
vt 0.687500 0.520734
vt 0.687500 0.500000
vt 0.750000 0.541469
vt 0.687500 0.562203
vt 0.687500 0.541469
vt 0.750000 0.582938
vt 0.746608 0.584068
vt 0.687500 0.586259
vt 0.687500 0.582938
vt 0.604167 0.312500
vt 0.583333 0.375000
vt 0.583333 0.312500
vt 0.562500 0.312500
vt 0.541667 0.375000
vt 0.541667 0.327711
vt 0.542762 0.312500
vt 0.750000 0.520734
vt 0.562500 0.375000
vt 0.750000 0.562203
vt 0.625000 0.312500
vt 0.604167 0.375000
vt 0.625000 0.250000
vt 0.542898 0.308806
vt 0.542259 0.250000
vt 0.675138 0.587058
vt 0.625000 0.584870
vt 0.538300 0.385100
vt 0.538834 0.375000
vt 0.625000 0.375000
vt 0.538491 0.582455
vt 0.875000 0.580703
vt 0.750000 0.584176
vt 0.769687 0.582938
vt 0.622751 0.169301
vt 0.625000 0.169297
vt 0.604617 0.166611
vt 0.607084 0.167062
vt 0.563595 0.165967
vt 0.583333 0.166150
vt 0.604167 0.166608
vt 0.562500 0.166034
vt 0.584309 0.166086
s 0
f 33/1/1 17/2/1 41/3/1
f 58/4/2 18/5/2 64/6/2
f 59/7/3 87/8/3 84/9/3
f 34/10/4 88/11/4 114/12/4
f 24/13/5 89/14/5 102/15/5
f 26/16/6 91/17/6 112/18/6 56/19/6
f 23/20/7 19/21/7 32/22/7
f 25/23/8 96/24/8 77/25/8 30/26/8
f 61/27/9 13/28/9 63/29/9
f 35/30/10 12/31/10 39/32/10
f 28/33/11 15/34/11 29/35/11
f 37/36/12 16/37/12 38/38/12
f 36/39/13 21/40/13 40/41/13
f 33/42/14 53/43/14 57/44/14
f 27/45/15 100/46/15 99/47/15
f 26/48/16 22/49/16 31/50/16
f 38/38/17 67/51/17 111/52/17
f 29/35/18 68/53/18 76/54/18 27/45/18
f 39/32/19 69/55/19 109/56/19 34/10/19
f 63/29/20 70/57/20 108/58/20 59/7/20
f 30/26/21 4/59/21 24/13/21
f 31/50/22 11/60/22 28/33/22
f 40/41/23 10/61/23 37/36/23
f 32/22/24 73/62/24 120/63/24 25/23/24
f 64/6/25 6/64/25 61/27/25
f 41/3/26 5/65/26 35/30/26
f 19/21/27 98/66/27 116/67/27
f 3/68/28 104/69/28 81/70/28 19/21/28
f 21/40/29 25/23/29 10/61/29
f 20/71/30 28/33/30 7/72/30
f 16/37/31 24/13/31 90/73/31 80/74/31
f 14/75/32 27/45/32 93/76/32 115/77/32
f 7/72/33 29/35/33 14/75/33
f 10/61/34 30/26/34 16/37/34
f 9/78/35 32/22/35 21/40/35
f 8/79/36 56/19/36 53/43/36
f 22/49/37 35/30/37 11/60/37
f 18/5/38 37/36/38 6/64/38
f 15/34/39 34/10/39 103/80/39 78/81/39
f 13/28/40 113/82/40 107/83/40
f 1/84/41 57/44/41 51/85/41
f 2/86/42 40/41/42 18/5/42
f 6/64/43 38/38/43 13/28/43
f 11/60/44 39/32/44 15/34/44
f 8/87/45 41/3/45 22/49/45
f 42/88/46 66/89/46 58/90/46
f 46/91/47 65/92/47 62/93/47
f 44/94/48 121/95/48 75/96/48 60/97/48
f 55/98/49 45/99/49 52/100/49
f 54/101/50 43/102/50 117/103/50 105/104/50
f 50/105/51 62/93/51 66/89/51
f 52/100/52 47/106/52 54/101/52
f 49/107/53 60/97/53 65/92/53
f 51/108/54 48/109/54 55/98/54
f 1/110/55 55/98/55 17/2/55
f 5/65/56 54/101/56 12/31/56
f 12/31/57 82/111/57 106/112/57
f 17/2/58 52/100/58 5/65/58
f 51/85/59 50/105/59 42/88/59
f 53/43/60 49/107/60 46/91/60
f 57/44/61 46/91/61 50/105/61
f 56/19/62 44/94/62 49/107/62
f 65/92/63 3/68/63 23/20/63
f 66/89/64 9/78/64 36/39/64
f 60/97/65 97/113/65 74/114/65 3/68/65
f 62/93/66 23/20/66 9/78/66
f 58/90/67 36/39/67 2/86/67
f 48/109/68 61/27/68 45/99/68
f 47/106/69 59/7/69 43/102/69
f 45/99/70 63/29/70 47/106/70
f 43/102/71 101/115/71 85/116/71
f 42/117/72 64/6/72 48/109/72
f 33/1/73 1/110/73 17/2/73
f 58/4/74 2/86/74 18/5/74
f 59/7/75 108/58/75 87/8/75
f 34/10/76 109/56/76 88/11/76
f 24/13/77 4/59/77 122/118/77 89/14/77
f 26/16/78 92/119/78 91/17/78
f 23/20/79 3/68/79 19/21/79
f 25/23/80 120/63/80 96/24/80
f 61/27/81 6/64/81 13/28/81
f 35/30/82 5/65/82 12/31/82
f 28/33/83 11/60/83 15/34/83
f 37/36/84 10/61/84 16/37/84
f 36/39/85 9/78/85 21/40/85
f 33/42/86 8/79/86 53/43/86
f 27/45/87 76/54/87 100/46/87
f 26/48/88 8/87/88 22/49/88
f 38/38/89 16/37/89 80/74/89 67/51/89
f 29/35/90 15/34/90 78/81/90 68/53/90
f 39/32/91 12/31/91 106/112/91 69/55/91
f 63/29/92 13/28/92 107/83/92 70/57/92
f 30/26/93 77/25/93 4/59/93
f 31/50/94 22/49/94 11/60/94
f 40/41/95 21/40/95 10/61/95
f 32/22/96 19/21/96 116/67/96 73/62/96
f 64/6/97 18/5/97 6/64/97
f 41/3/98 17/2/98 5/65/98
f 19/21/99 81/70/99 98/66/99
f 3/68/100 74/114/100 104/69/100
f 21/40/101 32/22/101 25/23/101
f 20/71/102 31/50/102 28/33/102
f 16/37/103 30/26/103 24/13/103
f 14/75/104 29/35/104 27/45/104
f 7/72/105 28/33/105 29/35/105
f 10/61/106 25/23/106 30/26/106
f 9/78/107 23/20/107 32/22/107
f 8/79/108 26/16/108 56/19/108
f 22/49/109 41/3/109 35/30/109
f 18/5/110 40/41/110 37/36/110
f 15/34/111 39/32/111 34/10/111
f 13/28/112 38/38/112 111/52/112 113/82/112
f 1/84/113 33/42/113 57/44/113
f 2/86/114 36/39/114 40/41/114
f 6/64/115 37/36/115 38/38/115
f 11/60/116 35/30/116 39/32/116
f 8/87/117 33/1/117 41/3/117
f 42/88/118 50/105/118 66/89/118
f 46/91/119 49/107/119 65/92/119
f 44/94/120 72/120/120 121/95/120
f 55/98/121 48/109/121 45/99/121
f 54/101/122 47/106/122 43/102/122
f 50/105/123 46/91/123 62/93/123
f 52/100/124 45/99/124 47/106/124
f 49/107/125 44/94/125 60/97/125
f 51/108/126 42/117/126 48/109/126
f 1/110/127 51/108/127 55/98/127
f 5/65/128 52/100/128 54/101/128
f 12/31/129 54/101/129 105/104/129 82/111/129
f 17/2/130 55/98/130 52/100/130
f 51/85/131 57/44/131 50/105/131
f 53/43/132 56/19/132 49/107/132
f 57/44/133 53/43/133 46/91/133
f 56/19/134 112/18/134 118/121/134 44/94/134
f 65/92/135 60/97/135 3/68/135
f 66/89/136 62/93/136 9/78/136
f 60/97/137 75/96/137 97/113/137
f 62/93/138 65/92/138 23/20/138
f 58/90/139 66/89/139 36/39/139
f 48/109/140 64/6/140 61/27/140
f 47/106/141 63/29/141 59/7/141
f 45/99/142 61/27/142 63/29/142
f 43/102/143 59/7/143 84/9/143 101/115/143
f 42/117/144 58/4/144 64/6/144
f 118/121/145 72/120/145 44/94/145
f 110/122/146 92/123/146 26/48/146 31/50/146
f 99/47/147 93/76/147 27/45/147
f 102/15/148 90/73/148 24/13/148
f 94/124/149 83/125/149 20/71/149
f 95/126/150 119/127/150 7/72/150 14/75/150
f 114/12/151 103/80/151 34/10/151
f 85/116/152 117/103/152 43/102/152
f 83/125/153 110/122/153 31/50/153 20/71/153
f 86/128/154 94/124/154 20/71/154
f 79/129/155 95/126/155 14/75/155
f 119/127/156 71/130/156 7/72/156
f 115/77/157 79/129/157 14/75/157
f 71/130/158 86/128/158 20/71/158 7/72/158
f 106/112/159 82/111/159 105/104/159 117/103/159 85/116/159 101/115/159 84/9/159 87/8/159 108/58/159 70/57/159 107/83/159 113/82/159 111/52/159 67/51/159 80/74/159 90/73/159 102/15/159 89/14/159 122/118/159 93/76/159 99/47/159 100/46/159 76/54/159 68/53/159 78/81/159 103/80/159 114/12/159 88/11/159 109/56/159 69/55/159
f 118/121/160 112/18/160 91/17/160 92/119/160 110/122/160 83/125/160 94/124/160 86/128/160 71/130/160 119/127/160 95/126/160 79/129/160 115/77/160 93/76/160 122/118/160 4/59/160 77/25/160 96/24/160 120/63/160 73/62/160 116/67/160 98/66/160 81/70/160 104/69/160 74/114/160 97/113/160 75/96/160 121/95/160 72/120/160
