# Blender 4.4.3
# www.blender.org
mtllib block4.mtl
o block4
v -0.915464 0.890461 0.970716
v 0.785678 0.969007 0.932702
v 0.974620 0.836923 -0.992289
v 0.928592 -0.938967 -0.974801
v -1.014179 -0.946228 -0.925981
v -0.868786 -0.086196 0.899610
v 0.946981 0.045889 0.832753
v 0.908337 -0.036571 -0.992954
v -1.010477 -0.057264 -0.927784
v 0.972756 0.916665 0.161774
v 1.080085 -0.984305 -0.062537
v -0.843755 0.966106 0.042581
v -1.055706 -0.923960 0.028644
v -0.997239 0.099869 -0.009045
v 1.091174 0.040306 0.003178
v 0.925699 -0.445250 0.833079
v -0.935312 -0.499235 0.818028
v 0.933912 -0.527148 -0.074710
v -1.041207 -0.583650 0.031376
v -0.936326 0.586926 0.870913
v 0.982179 0.429861 0.944356
v -1.012324 0.591289 -0.043661
v 0.943483 0.564404 -0.056299
v 0.856689 0.870771 0.568811
v 1.045265 -0.911109 0.490593
v 1.063898 -0.059981 0.449468
v -1.008765 0.897919 0.463474
v -0.938039 -0.057266 0.551306
v -0.912697 -0.531408 0.534933
v 1.045725 -0.455382 0.574559
v -1.049675 0.465365 0.418049
v 1.098921 0.510887 0.487821
v -0.917444 0.916603 -0.607113
v -0.937784 -1.002964 -0.585349
v -0.969316 -0.073447 -0.446585
v 0.873622 0.924953 -0.373166
v 1.071501 0.053550 -0.462171
v 0.915775 -0.471511 -0.552881
v -0.907178 -0.537086 -0.504183
v 1.043885 0.455023 -0.429327
v -1.063451 0.552390 -0.563943
v -0.078471 0.831805 0.863595
v 0.055352 -0.027529 0.921398
v -0.080686 1.033909 0.043630
v -0.058622 -0.563596 0.949810
v -0.001307 0.572636 0.931281
v -0.004952 1.043084 0.407521
v -0.057463 0.944430 -0.447032
v -0.558692 0.870543 1.001509
v -0.568090 -0.940699 1.042978
v -0.553856 0.064466 1.054256
v -0.539272 -0.555765 1.073130
v -0.403168 0.517228 1.018078
v -0.414120 1.010241 -0.054941
v -0.461922 0.993708 0.405376
v -0.524022 1.087758 -0.465626
v 0.442759 0.932688 -0.041646
v 0.592131 1.024622 0.540554
v 0.507721 0.994458 -0.475881
v 0.401839 0.836886 0.857832
v 0.463551 -0.042247 1.082986
v 0.519481 -0.432315 0.929012
v 0.413989 0.458901 1.030215
v 0.074421 0.928006 -1.000000
v 0.937645 -1.000010 -0.970271
v 1.071814 -1.000012 -0.140725
v -1.047305 -1.000012 0.030996
v 1.075732 -1.000012 -0.063062
v -1.051924 -1.000012 0.302903
v 0.895403 -1.000013 0.814287
v -0.887315 -1.000013 0.849683
v 0.928883 -0.922513 -1.000007
v -1.006936 -0.543702 -1.000005
v -0.923535 -1.000013 0.826360
v 0.405849 -1.000013 0.981034
v 0.910525 -0.028360 -1.000003
v 0.471807 1.085608 -0.999999
v 0.012388 0.922352 -1.000000
v -0.062491 -1.000013 0.931984
v -1.004887 -0.598748 -1.000005
v 0.921887 -0.073558 -1.000004
v 0.972130 0.811147 -1.000000
v 0.910823 0.002655 -1.000003
v 1.077851 -1.000012 -0.040469
v -0.403513 1.039453 -1.000000
v 1.033750 -1.000011 -0.626693
v 1.063709 -0.566900 -1.000005
v -0.601630 -1.000013 1.026459
v 0.961406 0.442155 -1.000002
v -1.093595 0.478194 -1.000002
v 1.029218 -1.000013 0.574311
v -0.250633 -1.000013 0.972343
v -0.964627 0.964601 -1.000000
v 0.945698 -1.000010 -0.916201
v -1.041156 -1.000012 -0.029186
v -1.084798 0.500130 -1.000002
v -1.005976 -0.591982 -1.000005
v 0.416888 -1.000013 0.978412
v 0.490697 1.082890 -1.000000
v -1.021221 -1.000010 -0.978856
v -1.017360 -0.123236 -1.000004
v -1.022437 -1.000010 -0.935928
v 1.040259 -1.000013 0.504682
v 0.970654 -1.000010 -0.797148
v 0.885771 -1.000013 0.834910
v -0.769823 -1.000013 0.920095
v 0.938868 -1.000013 0.715595
v -1.031084 -1.000013 0.549328
v 1.047248 -0.476676 -1.000005
v -0.410520 1.041611 -1.000000
v 0.956694 0.500504 -1.000002
v -1.034804 -1.000013 0.583696
v -0.993254 0.950271 -1.000000
v 1.012728 -1.000011 -0.554683
v 0.928312 -0.940584 -1.000007
v -0.570046 -1.000013 1.032979
v -0.028902 -1.000013 0.930460
v 0.963439 -0.825177 -1.000006
v -1.007301 -0.634811 -1.000006
v -1.021476 -0.961933 -1.000007
v -1.021536 -0.051651 -1.000004
v -1.073714 0.338807 -1.000002
v 0.909259 -0.037352 -1.000004
v 0.883042 0.883101 -1.000000
v -1.023113 -1.000010 -1.000007
v 0.937035 -1.000010 -1.000007
vn 0.8219 0.4865 0.2965
vn -0.2745 -0.0759 0.9586
vn -0.1516 0.9726 0.1763
vn -0.1997 -0.1565 0.9673
vn 0.9872 -0.0308 0.1566
vn -0.9282 0.3722 0.0008
vn -0.9654 -0.1554 0.2096
vn -0.5402 0.0129 0.8415
vn 0.9047 0.0902 0.4165
vn 0.9596 -0.2728 -0.0681
vn -0.9657 -0.0603 0.2527
vn -0.9936 0.0996 -0.0532
vn -0.4664 0.8381 0.2830
vn 0.9343 0.3197 0.1577
vn -0.9657 0.2465 0.0817
vn 0.9740 0.1791 -0.1390
vn 0.9126 -0.0750 0.4019
vn -0.5138 -0.0287 0.8574
vn -0.9745 0.0252 0.2228
vn 0.9966 0.0718 -0.0401
vn -0.9792 -0.1969 0.0482
vn -0.9878 -0.1336 0.0800
vn -0.5174 0.2379 0.8220
vn 0.9472 -0.0790 0.3108
vn 0.9517 0.2820 0.1215
vn -0.9782 -0.0902 0.1870
vn 0.9522 0.3050 0.0196
vn -0.9089 -0.0144 0.4168
vn -0.9691 -0.0144 0.2464
vn -0.9793 0.1772 -0.0984
vn 0.9592 -0.2469 -0.1379
vn 0.9605 -0.2632 -0.0901
vn -0.0964 0.9950 0.0257
vn 0.9602 0.0849 -0.2660
vn -0.9982 -0.0342 -0.0502
vn -0.9801 0.0433 -0.1938
vn 0.9867 -0.0490 -0.1547
vn 0.9801 0.1345 -0.1460
vn 0.9202 0.2861 0.2673
vn -0.9699 0.0483 -0.2385
vn -0.9155 0.3979 0.0602
vn -0.9885 -0.1123 -0.1010
vn -0.9872 0.1568 -0.0280
vn -0.9928 -0.0246 0.1171
vn 0.1559 0.9687 -0.1930
vn -0.3654 0.0617 0.9288
vn -0.1148 0.1134 0.9869
vn -0.0809 0.9884 0.1285
vn 0.1131 -0.3507 0.9296
vn -0.0781 0.8778 0.4726
vn -0.1036 0.4100 0.9062
vn -0.0675 0.9977 -0.0111
vn 0.2137 0.0041 0.9769
vn 0.2096 -0.0418 0.9769
vn 0.2957 0.9421 -0.1578
vn 0.2485 -0.0015 0.9686
vn -0.1001 0.9089 0.4049
vn 0.1628 0.2944 0.9417
vn 0.1528 0.0770 0.9853
vn 0.5088 0.8509 -0.1304
vn 0.2295 -0.0093 0.9733
vn 0.0261 0.9996 0.0106
vn 0.2926 -0.0179 0.9561
vn 0.4811 -0.2851 0.8290
vn 0.4707 0.8517 0.2303
vn 0.9351 0.3428 0.0899
vn -0.0988 -0.3047 0.9473
vn 0.0554 0.9985 0.0045
vn -0.5333 0.0667 0.8433
vn 0.7939 0.3348 0.5077
vn -0.9665 0.1051 0.2343
vn -0.9598 0.1952 0.2019
vn -0.9962 -0.0198 0.0845
vn -0.3921 -0.1171 0.9125
vn 0.9525 -0.0411 0.3019
vn 0.9642 -0.2606 -0.0482
vn -0.9897 0.0710 0.1245
vn -0.8557 0.4454 -0.2633
vn -0.1160 0.9913 -0.0624
vn 0.9829 0.0308 -0.1817
vn -0.9692 0.0393 0.2433
vn 0.9525 0.3045 -0.0007
vn 0.9042 -0.0637 0.4223
vn -0.5414 0.0013 0.8408
vn -0.9805 0.0656 0.1851
vn 0.9432 0.2851 0.1703
vn -0.9952 -0.0369 -0.0906
vn -0.9858 -0.1406 0.0921
vn -0.2643 0.0146 0.9643
vn 0.9637 -0.1521 0.2194
vn 0.9597 -0.0402 -0.2781
vn -0.9524 -0.1335 0.2742
vn 0.9844 0.0309 -0.1729
vn -0.9650 0.2406 -0.1044
vn -0.9806 0.0737 0.1815
vn -0.9800 -0.0589 0.1900
vn 0.9981 -0.0286 0.0546
vn 0.9966 -0.0452 0.0687
vn -0.1619 0.9822 0.0957
vn 0.8229 0.4887 0.2898
vn -0.9860 -0.1283 0.1065
vn -0.9669 0.1041 -0.2329
vn 0.9388 0.3274 0.1066
vn 0.9758 0.0771 -0.2046
vn 0.9395 -0.2357 -0.2488
vn -0.9913 -0.1315 -0.0112
vn -0.9224 0.3788 0.0758
vn -0.9820 -0.0493 -0.1823
vn -0.9951 0.0428 0.0890
vn -0.9875 -0.0576 0.1467
vn 0.0383 0.9987 -0.0331
vn -0.2416 -0.0388 0.9696
vn 0.0453 -0.0412 0.9981
vn 0.1604 0.9724 -0.1697
vn -0.3612 0.1258 0.9240
vn -0.0046 0.9076 0.4197
vn 0.0089 0.2552 0.9669
vn -0.1075 0.9939 0.0245
vn 0.2100 0.0082 0.9777
vn 0.2460 -0.0940 0.9647
vn -0.1331 0.9668 0.2181
vn 0.2180 0.0348 0.9753
vn 0.1417 0.9646 0.2223
vn 0.2846 0.1695 0.9435
vn -0.3032 0.3873 0.8707
vn -0.3625 0.8810 0.3039
vn 0.4809 -0.2614 0.8369
vn 0.1407 0.9770 0.1600
vn 0.2309 0.0429 0.9720
vn 0.1543 0.1185 0.9809
vn 0.0986 0.9787 -0.1799
vn 0.9863 0.0797 -0.1443
vn 0.9455 0.1725 0.2760
vn 0.2710 0.9626 -0.0042
vn -0.4418 0.8826 0.1609
vn 0.4531 0.8899 -0.0526
vn 0.9995 -0.0316 -0.0091
vn 0.9892 0.1452 -0.0203
vn 0.9552 -0.1099 -0.2750
vn 0.8812 -0.3421 -0.3262
vn 0.9407 0.3281 0.0867
vn -0.9938 -0.1103 -0.0169
vn 0.9630 -0.2653 -0.0486
vn -0.9814 -0.1311 0.1401
vn -0.9951 0.0431 0.0889
vn -0.0906 0.9946 -0.0512
vn -0.1368 0.9840 -0.1140
vn 0.2943 0.9555 -0.0200
vn 0.1838 -0.1693 0.9683
vn 0.9800 -0.1380 0.1435
vn -0.3624 0.9137 0.1837
vn 0.1406 0.9770 0.1603
vn 0.9227 -0.3276 -0.2032
vn 0.9580 -0.0092 0.2867
vn 0.0001 0.0001 -1.0000
vn 0.0003 -1.0000 -0.0000
vt 0.625000 0.729068
vt 0.604167 0.750000
vt 0.604167 0.729068
vt 0.625000 0.937500
vt 0.604167 1.000000
vt 0.604167 0.937500
vt 0.875000 0.729068
vt 0.812500 0.750000
vt 0.812500 0.729068
vt 0.541667 0.937500
vt 0.539745 0.943264
vt 0.539401 0.937500
vt 0.541667 0.729068
vt 0.538117 0.732634
vt 0.538147 0.729068
vt 0.625000 0.062796
vt 0.605397 0.082493
vt 0.604167 0.082609
vt 0.604167 0.062796
vt 0.583333 0.062796
vt 0.562809 0.083418
vt 0.562500 0.083383
vt 0.562500 0.062796
vt 0.583333 0.937500
vt 0.562500 1.000000
vt 0.562500 0.937500
vt 0.583333 0.729068
vt 0.562500 0.750000
vt 0.562500 0.729068
vt 0.583333 0.687204
vt 0.562500 0.708136
vt 0.562500 0.687204
vt 0.583333 0.020932
vt 0.562500 0.041864
vt 0.562500 0.020932
vt 0.625000 0.020932
vt 0.604167 0.041864
vt 0.604167 0.020932
vt 0.875000 0.687204
vt 0.812500 0.708136
vt 0.812500 0.687204
vt 0.625000 0.687204
vt 0.604167 0.708136
vt 0.604167 0.687204
vt 0.541667 0.041864
vt 0.541667 0.030883
vt 0.544338 0.020932
vt 0.541667 0.708136
vt 0.541667 0.704812
vt 0.544501 0.687204
vt 0.543328 0.748330
vt 0.541667 0.742740
vt 0.543578 0.994265
vt 0.541667 0.973077
vt 0.541667 0.083729
vt 0.541667 0.062796
vt 0.583333 0.708136
vt 0.583333 0.041864
vt 0.583333 0.083729
vt 0.583333 1.000000
vt 0.583333 0.750000
vt 0.604167 0.000000
vt 0.583333 0.000000
vt 0.562500 0.000000
vt 0.544187 0.018400
vt 0.543380 0.000000
vt 0.625000 0.000000
vt 0.540944 0.708861
vt 0.541042 0.708136
vt 0.875000 0.708136
vt 0.625000 0.708136
vt 0.625000 0.666271
vt 0.604167 0.669144
vt 0.623369 0.666271
vt 0.541667 0.666271
vt 0.539042 0.668908
vt 0.539073 0.666271
vt 0.583333 0.666271
vt 0.562500 0.669347
vt 0.581586 0.666271
vt 0.625000 0.041864
vt 0.539100 0.044443
vt 0.539261 0.041864
vt 0.539598 0.085798
vt 0.539617 0.083729
vt 0.580678 0.086384
vt 0.564654 0.083729
vt 0.750000 0.708136
vt 0.687500 0.729068
vt 0.687500 0.708136
vt 0.604167 0.812500
vt 0.583333 0.875000
vt 0.583333 0.812500
vt 0.562500 0.812500
vt 0.542880 0.871361
vt 0.542217 0.812500
vt 0.750000 0.687204
vt 0.687500 0.687204
vt 0.562500 0.875000
vt 0.750000 0.729068
vt 0.687500 0.750000
vt 0.625000 0.812500
vt 0.604167 0.875000
vt 0.541667 0.898233
vt 0.543217 0.875000
vt 0.750000 0.750000
vt 0.625000 0.875000
vt 0.625000 0.750000
vt 0.542229 0.810812
vt 0.543300 0.750000
vt 0.625000 1.000000
vt 0.875000 0.750000
vt 0.625000 0.081564
vt 0.543380 1.000000
vt 0.560394 0.083729
vt 0.598865 0.083729
vt 0.541667 0.675129
vt 0.541667 0.086569
vt 0.539816 0.086605
vt 0.583333 0.086325
vt 0.601158 0.669294
vt 0.559427 0.669359
vt 0.544529 0.684327
vt 0.750000 0.668476
vt 0.811569 0.666583
vt 0.870113 0.667908
vt 0.875000 0.668436
vt 0.636329 0.666271
vt 0.684210 0.667373
vt 0.541667 0.665386
vt 0.542563 0.665375
vt 0.539154 0.665231
vt 0.584835 0.666271
vt 0.546805 0.666271
vt 0.583333 0.665997
vt 0.743096 0.668584
vt 0.812500 0.666594
vt 0.583673 0.665932
vt 0.687500 0.667576
s 0
f 24/1/1 21/2/1 32/3/1
f 49/4/2 20/5/2 53/6/2
f 27/7/3 49/8/3 55/9/3
f 50/10/4 88/11/4 116/12/4
f 25/13/5 91/14/5 103/15/5
f 33/16/6 96/17/6 90/18/6 41/19/6
f 35/20/7 97/21/7 80/22/7 39/23/7
f 51/24/8 17/25/8 52/26/8
f 26/27/9 16/28/9 30/29/9
f 37/30/10 18/31/10 38/32/10
f 28/33/11 19/34/11 29/35/11
f 27/36/12 22/37/12 31/38/12
f 33/39/13 54/40/13 56/41/13
f 36/42/14 23/43/14 40/44/14
f 29/35/15 13/45/15 69/46/15 108/47/15
f 38/32/16 11/48/16 66/49/16 114/50/16
f 30/29/17 70/51/17 107/52/17 25/13/17
f 52/26/18 71/53/18 106/54/18 50/10/18
f 39/23/19 5/55/19 34/56/19
f 40/44/20 15/57/20 37/30/20
f 31/38/21 14/58/21 28/33/21
f 41/19/22 9/59/22 35/20/22
f 53/6/23 6/60/23 51/24/23
f 32/3/24 7/61/24 26/27/24
f 23/43/25 26/27/25 15/57/25
f 20/62/26 28/33/26 6/63/26
f 18/31/27 25/13/27 11/48/27
f 17/64/28 112/65/28 74/66/28
f 1/67/29 31/38/29 20/62/29
f 6/63/30 29/35/30 17/64/30
f 15/57/31 30/29/31 18/31/31
f 11/48/32 84/68/32 68/69/32
f 12/70/33 55/9/33 54/40/33
f 10/71/34 32/3/34 23/43/34
f 22/37/35 35/20/35 14/58/35
f 19/34/36 34/56/36 13/45/36
f 3/72/37 40/44/37 111/73/37 82/74/37
f 4/75/38 94/76/38 65/77/38
f 8/78/39 38/32/39 109/79/39 81/80/39
f 14/58/40 39/23/40 19/34/40
f 12/81/41 41/19/41 22/37/41
f 13/45/42 95/82/42 67/83/42
f 5/55/43 100/84/43 102/85/43
f 9/59/44 101/86/44 73/87/44
f 44/88/45 58/89/45 57/90/45
f 63/91/46 43/92/46 61/93/46
f 62/94/47 117/95/47 75/96/47
f 48/97/48 57/90/48 59/98/48
f 61/93/49 45/99/49 62/94/49
f 47/100/50 60/101/50 58/89/50
f 60/102/51 46/103/51 63/91/51
f 54/40/52 47/100/52 44/88/52
f 46/103/53 51/24/53 43/92/53
f 45/99/54 50/10/54 92/104/54 79/105/54
f 56/41/55 44/88/55 48/97/55
f 43/92/56 52/26/56 45/99/56
f 55/9/57 42/106/57 47/100/57
f 42/107/58 53/6/58 46/103/58
f 2/108/59 63/91/59 21/2/59
f 58/89/60 2/108/60 24/1/60
f 7/61/61 62/94/61 16/28/61
f 36/42/62 57/90/62 10/71/62
f 16/28/63 98/109/63 105/110/63
f 21/2/64 61/93/64 7/61/64
f 10/71/65 58/89/65 24/1/65
f 24/1/66 2/108/66 21/2/66
f 49/4/67 1/111/67 20/5/67
f 27/7/68 1/112/68 49/8/68
f 50/10/69 106/54/69 88/11/69
f 25/13/70 107/52/70 91/14/70
f 34/56/71 5/55/71 102/85/71
f 33/16/72 113/113/72 96/17/72
f 35/20/73 9/59/73 73/87/73 97/21/73
f 51/24/74 6/60/74 17/25/74
f 26/27/75 7/61/75 16/28/75
f 37/30/76 15/57/76 18/31/76
f 28/33/77 14/58/77 19/34/77
f 27/36/78 12/81/78 22/37/78
f 33/39/79 12/70/79 54/40/79
f 36/42/80 10/71/80 23/43/80
f 29/35/81 19/34/81 13/45/81
f 38/32/82 18/31/82 11/48/82
f 30/29/83 16/28/83 105/110/83 70/51/83
f 52/26/84 17/25/84 74/114/84 71/53/84
f 39/23/85 80/22/85 119/115/85 5/55/85
f 40/44/86 23/43/86 15/57/86
f 31/38/87 22/37/87 14/58/87
f 41/19/88 90/18/88 122/116/88 9/59/88
f 53/6/89 20/5/89 6/60/89
f 32/3/90 21/2/90 7/61/90
f 23/43/91 32/3/91 26/27/91
f 20/62/92 31/38/92 28/33/92
f 18/31/93 30/29/93 25/13/93
f 17/64/94 29/35/94 108/47/94 112/65/94
f 1/67/95 27/36/95 31/38/95
f 6/63/96 28/33/96 29/35/96
f 15/57/97 26/27/97 30/29/97
f 11/48/98 25/13/98 103/15/98 84/68/98
f 12/70/99 27/7/99 55/9/99
f 10/71/100 24/1/100 32/3/100
f 22/37/101 41/19/101 35/20/101
f 19/34/102 39/23/102 34/56/102
f 3/72/103 36/42/103 40/44/103
f 4/75/104 104/117/104 94/76/104
f 8/78/105 37/30/105 38/32/105
f 14/58/106 35/20/106 39/23/106
f 12/81/107 33/16/107 41/19/107
f 13/45/108 34/56/108 95/82/108
f 5/55/109 120/118/109 125/119/109 100/84/109
f 9/59/110 121/120/110 101/86/110
f 44/88/111 47/100/111 58/89/111
f 63/91/112 46/103/112 43/92/112
f 62/94/113 45/99/113 79/105/113 117/95/113
f 48/97/114 44/88/114 57/90/114
f 61/93/115 43/92/115 45/99/115
f 47/100/116 42/106/116 60/101/116
f 60/102/117 42/107/117 46/103/117
f 54/40/118 55/9/118 47/100/118
f 46/103/119 53/6/119 51/24/119
f 45/99/120 52/26/120 50/10/120
f 56/41/121 54/40/121 44/88/121
f 43/92/122 51/24/122 52/26/122
f 55/9/123 49/8/123 42/106/123
f 42/107/124 49/4/124 53/6/124
f 2/108/125 60/102/125 63/91/125
f 58/89/126 60/101/126 2/108/126
f 7/61/127 61/93/127 62/94/127
f 36/42/128 59/98/128 57/90/128
f 16/28/129 62/94/129 75/96/129 98/109/129
f 21/2/130 63/91/130 61/93/130
f 10/71/131 57/90/131 58/89/131
f 89/121/132 111/73/132 40/44/132 37/30/132
f 87/122/133 109/79/133 38/32/133 114/50/133 86/123/133
f 78/124/134 85/125/134 48/97/134
f 93/126/135 113/127/135 33/39/135 56/41/135
f 124/128/136 99/129/136 36/42/136 3/72/136
f 115/130/137 72/131/137 4/75/137
f 65/77/138 126/132/138 115/130/138 4/75/138
f 83/133/139 89/121/139 37/30/139 8/78/139
f 118/134/140 87/122/140 86/123/140 104/117/140 4/75/140
f 81/80/141 123/135/141 8/78/141
f 67/83/142 69/46/142 13/45/142
f 68/69/143 66/49/143 11/48/143
f 122/116/144 121/120/144 9/59/144
f 119/115/145 120/118/145 5/55/145
f 64/136/146 78/124/146 48/97/146 59/98/146
f 110/137/147 93/126/147 56/41/147
f 85/125/148 110/137/148 56/41/148 48/97/148
f 116/12/149 92/104/149 50/10/149
f 123/135/150 76/138/150 8/78/150
f 77/139/151 64/136/151 59/98/151
f 99/129/152 77/139/152 59/98/152 36/42/152
f 72/131/153 118/134/153 4/75/153
f 76/138/154 83/133/154 8/78/154
f 3/72/155 82/74/155 111/73/155 89/121/155 83/133/155 76/138/155 123/135/155 81/80/155 109/79/155 87/122/155 118/134/155 72/131/155 115/130/155 126/132/155 125/119/155 120/118/155 119/115/155 80/22/155 97/21/155 73/87/155 101/86/155 121/120/155 122/116/155 90/18/155 96/17/155 113/113/155 93/126/155 110/137/155 85/125/155 78/124/155 64/136/155 77/139/155 99/129/155 124/128/155
f 114/50/156 66/49/156 68/69/156 84/68/156 103/15/156 91/14/156 107/52/156 70/51/156 105/110/156 98/109/156 75/96/156 117/95/156 79/105/156 92/104/156 116/12/156 88/11/156 106/54/156 71/53/156 74/114/156 112/65/156 108/47/156 69/46/156 67/83/156 95/82/156 34/56/156 102/85/156 100/84/156 125/119/156 126/132/156 65/77/156 94/76/156 104/117/156 86/123/156
