# Blender 4.4.3
# www.blender.org
mtllib block8.mtl
o block8
v -0.869740 -0.901247 -0.806893
v 0.796934 -0.983399 -0.915594
v -0.865508 0.918926 -0.897045
v 0.850280 -0.987792 0.967797
v 0.977815 -0.843816 -0.035625
v -0.902792 0.979048 -0.005871
v -0.828985 -0.890875 0.035836
v 1.023385 0.964102 -0.094074
v -0.981259 -0.050674 -0.862272
v 0.828279 0.016826 -0.872543
v -0.925152 0.021095 0.927257
v 1.005932 -0.012537 0.093944
v -1.061170 -0.022717 0.070244
v -0.950391 -0.420162 -0.867176
v 0.925904 -0.598035 -0.934495
v 1.086894 -0.526961 0.949404
v 0.942532 -0.566421 0.043066
v -0.911179 -0.538722 0.019985
v -0.957171 0.432994 -0.867680
v 0.935958 0.551200 -0.828036
v 1.047608 0.597877 -0.005648
v -0.951994 0.597627 -0.002154
v -0.973125 -0.950494 0.417597
v 0.878269 -1.003212 0.460705
v -1.006921 0.072097 0.421426
v 0.992089 -0.074753 0.555906
v 0.964684 -0.593485 0.496531
v -1.058360 -0.468502 0.418038
v -0.901838 0.515777 0.511054
v 1.038317 0.468479 0.575423
v 0.839942 -0.969614 -0.466180
v -0.884510 -0.992907 -0.558527
v 1.060881 0.936682 -0.458062
v 0.912359 0.049454 -0.513003
v -0.996208 0.052762 -0.416013
v -1.067073 -0.544412 -0.561775
v 1.019913 -0.466422 -0.410307
v 1.075731 0.555227 -0.549426
v -1.091365 0.485090 -0.470203
v -0.072019 -0.818597 -0.933012
v -0.030001 0.910047 -1.023559
v 0.000521 -1.085654 -0.056350
v -0.010968 -0.004703 -0.900864
v -0.015614 -0.579237 -1.058973
v -0.047183 0.583081 -1.049237
v 0.012682 -1.033843 0.586125
v -0.026365 -1.084801 -0.548346
v -0.588521 -1.002854 -0.967509
v -0.505235 -0.900192 0.987587
v -0.416588 -0.973729 0.043756
v -0.587756 -1.038871 0.520954
v -0.553912 -1.079376 -0.530530
v -0.448296 0.933570 -0.949233
v -0.446052 0.029816 -0.920360
v -0.534810 -0.421120 -1.050658
v -0.482673 0.527424 -1.096923
v 0.544318 0.092106 -0.997998
v 0.566382 -0.457862 -0.938212
v 0.591223 0.508421 -0.959059
v 0.508544 -0.946793 -0.942578
v 0.480248 -1.037261 -0.095416
v 0.443814 -0.979484 0.412745
v 0.407174 -0.976631 -0.473438
v -0.122774 0.999977 -1.021837
v -0.918070 0.999980 0.079230
v -0.867692 -0.981692 1.000008
v 1.081414 -0.515355 1.000008
v 0.929997 0.032102 1.000007
v -0.020416 0.999977 -1.006194
v -0.492311 0.999977 -0.946503
v 1.024075 0.999980 -0.090349
v 0.508160 -1.015401 1.000008
v -0.516838 -0.902822 1.000008
v 0.413171 0.999977 -0.954516
v 0.063937 -1.032807 1.000008
v 0.417842 0.999977 -0.952822
v -1.049365 0.999978 -0.590964
v -0.946530 0.087598 1.000007
v -0.397129 -0.925064 1.000008
v 0.983271 0.999981 0.303131
v 0.912557 0.555393 1.000006
v 0.953084 0.999982 0.601858
v 0.567847 -1.018293 1.000008
v -0.919340 0.985805 1.000006
v -0.928274 0.999983 0.938465
v -1.007347 0.285634 1.000007
v -1.077311 -0.472374 1.000008
v -1.044989 0.454770 1.000006
v -0.927361 0.015935 1.000007
v -1.019241 -0.281256 1.000007
v 0.998280 -0.217147 1.000007
v -0.976844 0.999982 0.497641
v 1.062492 -0.559558 1.000008
v 0.101884 -1.028214 1.000008
v -0.984437 0.999981 0.394133
v 0.959081 0.999982 0.579320
v -0.945408 0.999979 -0.158705
v 0.826545 -0.992013 1.000008
v -0.465794 0.999977 -0.957525
v 0.996579 0.999977 -0.801815
v -0.868075 0.999977 -0.900039
v 0.987116 0.999977 -0.846945
v -0.502880 -0.903980 1.000008
v -1.054461 0.421966 1.000007
v -1.071065 -0.507698 1.000008
v -0.980000 0.999978 -0.699281
v -0.917545 -0.970429 1.000008
v -0.913314 0.946124 1.000006
v 0.849429 -0.979598 1.000008
v 0.918321 0.516219 1.000006
v 1.064857 0.999979 -0.461195
v 0.383897 0.999977 -0.958714
v 1.039768 0.999978 -0.506725
v 0.934440 0.080975 1.000007
v -0.563941 -0.910729 1.000008
v -1.061597 0.999978 -0.554768
v 0.989691 0.999977 -0.841792
v -0.894900 0.999977 -0.849043
v -0.910514 0.999980 -0.006476
v 1.028405 0.999980 -0.121621
v 0.760502 -0.996683 1.000008
v -0.907508 0.999980 0.020599
v 1.045489 0.999983 1.000006
v -0.919517 0.999983 1.000006
vn -0.0483 -0.9973 -0.0557
vn 0.0187 -0.9866 -0.1619
vn 0.9984 0.0270 0.0495
vn -0.9288 0.0906 -0.3594
vn 0.9467 0.2401 0.2145
vn 0.9660 -0.0216 -0.2575
vn -0.9410 0.1814 -0.2857
vn -0.0323 -0.1093 -0.9935
vn 0.0929 -0.0021 -0.9957
vn -0.9087 -0.3713 -0.1911
vn 0.9756 -0.2110 0.0603
vn 0.9283 -0.3090 -0.2070
vn -0.9147 -0.1614 -0.3706
vn -0.9729 0.2116 0.0932
vn 0.9330 -0.3140 -0.1759
vn 0.9832 -0.0894 0.1590
vn -0.9769 -0.2129 0.0166
vn 0.4124 0.0387 -0.9102
vn 0.8834 -0.4481 0.1373
vn 0.0703 -0.9944 -0.0785
vn 0.9977 -0.0647 0.0212
vn 0.9745 0.0628 0.2156
vn 0.9926 -0.1086 -0.0550
vn -0.9564 0.2906 -0.0292
vn 0.3456 -0.9293 0.1304
vn 0.9968 0.0737 0.0324
vn -0.9813 0.1603 -0.1062
vn 0.9619 -0.1764 -0.2089
vn 0.9440 -0.3199 -0.0805
vn -0.9671 -0.2200 0.1281
vn -0.9229 -0.2926 0.2502
vn 0.9607 0.1743 -0.2161
vn -0.1173 -0.9892 -0.0883
vn -0.9586 0.1261 0.2551
vn 0.3411 -0.9210 -0.1883
vn -0.3041 -0.9232 -0.2351
vn 0.0158 -0.3333 -0.9427
vn 0.1195 -0.1513 -0.9812
vn 0.0653 0.2651 -0.9620
vn -0.0040 -0.9833 0.1818
vn -0.0233 -0.9572 0.2886
vn 0.0599 0.3367 -0.9397
vn -0.4395 0.0286 -0.8978
vn -0.2204 -0.9753 -0.0124
vn -0.2634 -0.9464 0.1871
vn -0.4038 -0.0216 -0.9146
vn -0.5383 -0.1930 -0.8204
vn -0.1070 -0.0058 -0.9942
vn 0.1653 -0.9848 -0.0541
vn -0.1881 -0.9571 -0.2205
vn -0.4813 -0.8127 -0.3285
vn -0.1895 -0.8178 -0.5434
vn 0.1063 -0.9913 0.0779
vn -0.1244 -0.2500 -0.9602
vn -0.1122 -0.4419 -0.8900
vn 0.1435 0.2615 -0.9545
vn 0.2445 -0.9695 -0.0150
vn 0.1202 -0.9927 -0.0124
vn 0.1475 0.0697 -0.9866
vn 0.1114 -0.9931 0.0363
vn 0.3407 -0.9262 0.1615
vn 0.9915 0.0886 0.0955
vn -0.9302 -0.2920 0.2225
vn 0.9821 -0.0976 -0.1614
vn 0.9620 0.2636 0.0711
vn -0.9964 -0.0831 -0.0141
vn 0.4338 0.1583 -0.8870
vn -0.0078 -0.0464 -0.9989
vn -0.8850 -0.2010 -0.4199
vn 0.8740 -0.4555 -0.1690
vn 0.9804 0.0727 0.1834
vn -0.9254 -0.2296 -0.3017
vn -0.9746 0.1861 0.1249
vn 0.9967 -0.0589 0.0562
vn 0.9627 0.0357 0.2681
vn -0.9448 0.0434 -0.3247
vn 0.3546 0.0064 -0.9350
vn 0.9032 -0.3866 0.1865
vn 0.4641 -0.8555 0.2299
vn 0.9964 -0.0847 -0.0029
vn 0.9778 -0.2010 -0.0598
vn 0.9982 -0.0553 0.0225
vn -0.9815 0.0923 0.1680
vn -0.0178 -0.9509 -0.3090
vn 0.9855 0.1463 0.0863
vn -0.9336 -0.1656 0.3178
vn 0.8527 -0.3059 -0.4234
vn 0.9411 -0.3270 -0.0867
vn -0.8987 -0.3641 0.2444
vn -0.9836 0.1434 -0.1092
vn 0.9592 0.1526 -0.2382
vn 0.0157 -0.9995 0.0292
vn -0.9546 0.1012 0.2801
vn -0.0276 -0.8235 -0.5666
vn -0.0004 -0.9968 0.0804
vn 0.1354 -0.2346 -0.9626
vn -0.1463 -0.4335 -0.8892
vn 0.0641 0.2643 -0.9623
vn -0.2564 -0.9665 0.0123
vn -0.2274 -0.9733 0.0306
vn -0.1696 0.0860 -0.9818
vn -0.1284 0.3485 -0.9285
vn 0.2207 -0.9449 0.2418
vn -0.1961 -0.9550 0.2226
vn -0.1476 0.3013 -0.9421
vn -0.4023 -0.0930 -0.9108
vn -0.3548 -0.3357 -0.8726
vn -0.0794 -0.9576 -0.2769
vn -0.1699 -0.9664 -0.1929
vn -0.2384 -0.9597 -0.1492
vn 0.2435 -0.9698 -0.0091
vn 0.1729 -0.9772 0.1235
vn 0.1481 0.0755 -0.9861
vn 0.2063 -0.0157 -0.9784
vn -0.1521 -0.1128 -0.9819
vn 0.0848 -0.9811 -0.1738
vn 0.0315 -0.9974 -0.0644
vn 0.1417 0.0604 -0.9881
vn -0.1226 -0.0405 -0.9916
vn -0.8692 -0.0227 -0.4939
vn 0.9927 -0.0571 0.1066
vn -0.9842 0.0024 -0.1773
vn 0.1148 0.1765 -0.9776
vn -0.9328 0.2693 -0.2395
vn -0.9842 -0.1740 -0.0332
vn 0.1825 -0.0621 -0.9812
vn -0.9829 -0.1493 0.1083
vn -0.8355 0.1253 -0.5350
vn 0.9352 -0.2796 -0.2171
vn 0.8731 -0.0787 -0.4811
vn 0.9824 0.0788 -0.1693
vn 0.1488 0.1722 -0.9738
vn -0.9710 0.1233 -0.2046
vn 0.9624 0.2683 0.0427
vn -0.9554 0.2954 -0.0081
vn -0.9900 -0.0124 0.1409
vn 0.9942 -0.0298 0.1031
vn -0.9384 -0.3243 0.1190
vn -0.9461 -0.3139 0.0795
vn -0.3751 -0.2115 -0.9025
vn -0.9370 0.2511 -0.2430
vn 0.3380 0.1310 -0.9320
vn -0.9474 0.0022 -0.3201
vn -0.9559 -0.2935 -0.0125
vn 0.9568 0.1408 0.2546
vn 0.9666 0.2137 -0.1415
vn -0.8841 -0.0452 -0.4651
vn -0.9191 -0.3330 0.2107
vn 0.9900 -0.0333 0.1371
vn -0.9341 -0.3416 0.1037
vn 0.8881 -0.1199 -0.4438
vn -0.1891 -0.9487 -0.2534
vn -0.9649 -0.2581 -0.0476
vn -0.1816 -0.1688 -0.9688
vn -0.9859 -0.1507 0.0723
vn -0.0000 1.0000 -0.0000
vn -0.0000 -0.0000 1.0000
vt 0.375000 0.562203
vt 0.321192 0.580055
vt 0.312500 0.580260
vt 0.312500 0.562203
vt 0.375000 0.520734
vt 0.312500 0.541469
vt 0.312500 0.520734
vt 0.458333 0.520734
vt 0.438121 0.541469
vt 0.438121 0.520734
vt 0.416667 0.187796
vt 0.395833 0.208531
vt 0.395833 0.187796
vt 0.416667 0.520734
vt 0.395833 0.541469
vt 0.395833 0.520734
vt 0.416667 0.562203
vt 0.395833 0.582938
vt 0.395833 0.562203
vt 0.416667 0.229265
vt 0.395833 0.250000
vt 0.395833 0.229265
vt 0.416667 0.437500
vt 0.395833 0.500000
vt 0.395833 0.437500
vt 0.375000 0.500000
vt 0.375000 0.437500
vt 0.375000 0.250000
vt 0.375000 0.229265
vt 0.375000 0.582938
vt 0.375000 0.541469
vt 0.375000 0.208531
vt 0.375000 0.187796
vt 0.438121 0.187796
vt 0.416667 0.208531
vt 0.416667 0.541469
vt 0.438121 0.562203
vt 0.418614 0.581056
vt 0.416667 0.581132
vt 0.438121 0.229265
vt 0.416667 0.250000
vt 0.438121 0.437500
vt 0.416667 0.500000
vt 0.393798 0.584973
vt 0.375000 0.584281
vt 0.371438 0.584125
vt 0.358128 0.582938
vt 0.416667 0.167062
vt 0.395833 0.168583
vt 0.403910 0.167062
vt 0.458333 0.541469
vt 0.438121 0.208531
vt 0.438121 0.500000
vt 0.312500 0.500000
vt 0.458333 0.208531
vt 0.250000 0.500000
vt 0.187500 0.520734
vt 0.187500 0.500000
vt 0.250000 0.541469
vt 0.187500 0.562203
vt 0.187500 0.541469
vt 0.438121 0.312500
vt 0.416667 0.375000
vt 0.416667 0.312500
vt 0.395833 0.312500
vt 0.375000 0.375000
vt 0.375000 0.312500
vt 0.395833 0.375000
vt 0.250000 0.520734
vt 0.250000 0.562203
vt 0.187500 0.582938
vt 0.458333 0.312500
vt 0.438121 0.375000
vt 0.458333 0.250000
vt 0.438121 0.250000
vt 0.133298 0.580185
vt 0.125000 0.580619
vt 0.125000 0.562203
vt 0.125000 0.541469
vt 0.125000 0.520734
vt 0.185918 0.583465
vt 0.178447 0.582938
vt 0.125000 0.500000
vt 0.255240 0.581200
vt 0.250000 0.580555
vt 0.458333 0.375000
vt 0.407172 0.582938
vt 0.438121 0.581490
vt 0.395833 0.584915
vt 0.458333 0.553696
vt 0.457427 0.562203
vt 0.458333 0.214210
vt 0.456367 0.229265
vt 0.199234 0.582938
vt 0.187500 0.583483
vt 0.458333 0.433654
vt 0.458094 0.437500
vt 0.460830 0.250000
vt 0.460424 0.306228
vt 0.458333 0.237692
vt 0.461075 0.247271
vt 0.460793 0.520734
vt 0.459803 0.540006
vt 0.458333 0.205007
vt 0.459334 0.207535
vt 0.461438 0.375000
vt 0.436574 0.168557
vt 0.438121 0.168808
vt 0.394306 0.168582
vt 0.458071 0.438311
vt 0.457963 0.500000
vt 0.456957 0.168474
vt 0.458333 0.168432
vt 0.458333 0.170791
vt 0.454810 0.187796
vt 0.456531 0.231114
vt 0.457334 0.563228
vt 0.457576 0.580227
vt 0.439545 0.581477
vt 0.460418 0.518660
vt 0.457960 0.500383
vt 0.458333 0.502423
vt 0.461825 0.364524
vt 0.454239 0.191997
vt 0.416667 0.164701
vt 0.458893 0.168445
vt 0.459990 0.541469
vt 0.429925 0.167062
vt 0.375000 0.169381
vt 0.461030 0.312500
vt 0.419393 0.164415
vt 0.459303 0.208531
s 0
f 24/1/1 83/2/1 72/3/1 62/4/1
f 31/5/2 61/6/2 63/7/2
f 33/8/3 21/9/3 38/10/3
f 25/11/4 18/12/4 28/13/4
f 34/14/5 17/15/5 37/16/5
f 26/17/6 16/18/6 27/19/6
f 35/20/7 14/21/7 36/22/7
f 57/23/8 15/24/8 58/25/8
f 58/25/9 2/26/9 60/27/9
f 36/22/10 1/28/10 32/29/10
f 27/19/11 4/30/11 24/1/11
f 37/16/12 5/31/12 31/5/12
f 28/13/13 7/32/13 23/33/13
f 29/34/14 13/35/14 25/11/14
f 38/10/15 12/36/15 34/14/15
f 30/37/16 114/38/16 68/39/16 26/17/16
f 39/40/17 9/41/17 35/20/17
f 59/42/18 10/43/18 57/23/18
f 16/18/19 93/44/19 109/45/19 4/30/19
f 4/30/20 98/46/20 121/47/20
f 21/9/21 26/17/21 12/36/21
f 17/15/22 24/1/22 5/31/22
f 12/36/23 27/19/23 17/15/23
f 11/48/24 28/13/24 87/49/24 90/50/24
f 5/31/25 62/4/25 61/6/25
f 8/51/26 30/37/26 21/9/26
f 22/52/27 35/20/27 13/35/27
f 20/53/28 34/14/28 10/43/28
f 15/24/29 31/5/29 2/26/29
f 18/12/30 32/29/30 7/32/30
f 13/35/31 36/22/31 18/12/31
f 10/43/32 37/16/32 15/24/32
f 2/26/33 63/7/33 60/54/33
f 6/55/34 39/40/34 22/52/34
f 40/56/35 52/57/35 48/58/35
f 42/59/36 51/60/36 50/61/36
f 56/62/37 43/63/37 54/64/37
f 55/65/38 40/66/38 48/67/38
f 54/64/39 44/68/39 55/65/39
f 47/69/40 50/61/40 52/57/40
f 46/70/41 49/71/41 51/60/41
f 53/72/42 45/73/42 56/62/42
f 3/74/43 56/62/43 19/75/43
f 51/60/44 66/76/44 107/77/44 23/78/44
f 52/57/45 7/79/45 32/80/45
f 9/41/46 55/65/46 14/21/46
f 14/21/47 48/67/47 1/28/47
f 19/75/48 54/64/48 9/41/48
f 49/71/49 73/81/49 115/82/49
f 50/61/50 23/78/50 7/79/50
f 48/58/51 32/80/51 1/83/51
f 60/54/52 47/69/52 40/56/52
f 61/6/53 46/70/53 42/59/53
f 45/73/54 57/23/54 43/63/54
f 44/68/55 60/27/55 40/66/55
f 43/63/56 58/25/56 44/68/56
f 63/7/57 42/59/57 47/69/57
f 62/4/58 94/84/58 75/85/58 46/70/58
f 41/86/59 59/42/59 45/73/59
f 24/1/60 4/30/60 121/47/60 83/2/60
f 31/5/61 5/31/61 61/6/61
f 33/8/62 8/51/62 21/9/62
f 25/11/63 13/35/63 18/12/63
f 34/14/64 12/36/64 17/15/64
f 26/17/65 68/39/65 91/87/65 16/18/65
f 35/20/66 9/41/66 14/21/66
f 57/23/67 10/43/67 15/24/67
f 58/25/68 15/24/68 2/26/68
f 36/22/69 14/21/69 1/28/69
f 27/19/70 16/18/70 4/30/70
f 37/16/71 17/15/71 5/31/71
f 28/13/72 18/12/72 7/32/72
f 29/34/73 22/52/73 13/35/73
f 38/10/74 21/9/74 12/36/74
f 30/37/75 110/88/75 114/38/75
f 39/40/76 19/75/76 9/41/76
f 59/42/77 20/53/77 10/43/77
f 16/18/78 67/89/78 93/44/78
f 4/30/79 109/45/79 98/46/79
f 21/9/80 30/37/80 26/17/80
f 17/15/81 27/19/81 24/1/81
f 12/36/82 26/17/82 27/19/82
f 11/48/83 25/11/83 28/13/83
f 5/31/84 24/1/84 62/4/84
f 8/51/85 80/90/85 96/91/85 30/37/85
f 22/52/86 39/40/86 35/20/86
f 20/53/87 38/10/87 34/14/87
f 15/24/88 37/16/88 31/5/88
f 18/12/89 36/22/89 32/29/89
f 13/35/90 35/20/90 36/22/90
f 10/43/91 34/14/91 37/16/91
f 2/26/92 31/5/92 63/7/92
f 6/55/93 97/92/93 116/93/93 39/40/93
f 40/56/94 47/69/94 52/57/94
f 42/59/95 46/70/95 51/60/95
f 56/62/96 45/73/96 43/63/96
f 55/65/97 44/68/97 40/66/97
f 54/64/98 43/63/98 44/68/98
f 47/69/99 42/59/99 50/61/99
f 46/70/100 75/85/100 79/94/100 49/71/100
f 53/72/101 41/86/101 45/73/101
f 3/74/102 53/72/102 56/62/102
f 51/60/103 49/71/103 115/82/103 66/76/103
f 52/57/104 50/61/104 7/79/104
f 9/41/105 54/64/105 55/65/105
f 14/21/106 55/65/106 48/67/106
f 19/75/107 56/62/107 54/64/107
f 49/71/108 103/95/108 73/81/108
f 50/61/109 51/60/109 23/78/109
f 48/58/110 52/57/110 32/80/110
f 60/54/111 63/7/111 47/69/111
f 61/6/112 62/4/112 46/70/112
f 45/73/113 59/42/113 57/23/113
f 44/68/114 58/25/114 60/27/114
f 43/63/115 57/23/115 58/25/115
f 63/7/116 61/6/116 42/59/116
f 62/4/117 72/3/117 94/84/117
f 41/86/118 112/96/118 74/97/118 59/42/118
f 101/98/119 70/99/119 53/72/119 3/74/119
f 106/100/120 118/101/120 3/74/120
f 111/102/121 120/103/121 8/51/121 33/8/121
f 65/104/122 122/105/122 6/55/122
f 69/106/123 112/96/123 41/86/123
f 104/107/124 88/108/124 29/34/124 25/11/124
f 105/109/125 87/49/125 28/13/125 23/33/125
f 76/110/126 102/111/126 20/53/126
f 108/112/127 84/113/127 85/114/127 92/115/127 29/34/127
f 77/116/128 106/100/128 3/74/128 19/75/128
f 82/117/129 123/118/129 81/119/129
f 113/120/130 111/102/130 33/8/130
f 117/121/131 100/122/131 33/8/131 38/10/131
f 64/123/132 69/106/132 41/86/132
f 95/124/133 65/104/133 6/55/133 22/52/133
f 91/87/134 67/89/134 16/18/134
f 90/50/135 89/125/135 11/48/135
f 84/113/136 124/126/136 85/114/136
f 71/127/137 80/90/137 8/51/137
f 86/128/138 104/107/138 25/11/138 11/48/138
f 107/129/139 105/109/139 23/33/139
f 70/99/140 99/130/140 53/72/140
f 88/108/141 108/112/141 29/34/141
f 74/97/142 76/110/142 20/53/142 59/42/142
f 116/93/143 77/116/143 19/75/143 39/40/143
f 78/131/144 86/128/144 11/48/144
f 96/91/145 82/117/145 81/119/145 110/88/145 30/37/145
f 100/122/146 113/120/146 33/8/146
f 118/101/147 101/98/147 3/74/147
f 119/132/148 97/92/148 6/55/148
f 120/103/149 71/127/149 8/51/149
f 122/105/150 119/132/150 6/55/150
f 102/111/151 117/121/151 38/10/151 20/53/151
f 79/94/152 103/95/152 49/71/152
f 89/125/153 78/131/153 11/48/153
f 99/130/154 64/123/154 41/86/154 53/72/154
f 92/115/155 95/124/155 22/52/155 29/34/155
f 70/99/156 101/98/156 118/101/156 106/100/156 77/116/156 116/93/156 97/92/156 119/132/156 122/105/156 65/104/156 95/124/156 92/115/156 85/114/156 124/126/156 123/118/156 82/117/156 96/91/156 80/90/156 71/127/156 120/103/156 111/102/156 113/120/156 100/122/156 117/121/156 102/111/156 76/110/156 74/97/156 112/96/156 69/106/156 64/123/156 99/130/156
f 73/81/157 103/95/157 79/94/157 75/85/157 94/84/157 72/3/157 83/2/157 121/47/157 98/46/157 109/45/157 93/44/157 67/89/157 91/87/157 68/39/157 114/38/157 110/88/157 81/119/157 123/118/157 124/126/157 84/113/157 108/112/157 88/108/157 104/107/157 86/128/157 78/131/157 89/125/157 90/50/157 87/49/157 105/109/157 107/129/157 66/76/157 115/82/157
