# Blender 4.4.3
# www.blender.org
mtllib block1.mtl
o block1
v 1.065788 -0.982321 -0.935329
v -1.062007 0.985178 -0.932050
v 1.001978 -1.004707 -0.109209
v -0.978615 -1.002154 0.088089
v 0.964683 0.083780 0.949271
v 1.020816 -0.038723 0.080331
v -0.944807 0.079719 0.014980
v -0.918799 -0.497278 -0.950792
v 1.038835 -0.576995 0.940276
v 1.095554 -0.472181 -0.019259
v -0.947637 -0.483981 -0.093162
v -1.098109 0.507143 0.972921
v -0.988891 0.501686 -0.909725
v 0.952417 0.492732 -0.921440
v 1.091701 0.519420 -0.044327
v -1.055153 0.512111 0.073045
v 0.912325 -0.975079 0.533053
v -1.067701 0.938581 0.531062
v -1.038571 -0.006757 0.398498
v 0.922958 0.050446 0.451528
v 1.036660 -0.420812 0.441672
v -0.927906 -0.431525 0.479854
v -1.085091 0.512222 0.541603
v 1.064533 0.426174 0.510139
v -0.929993 0.951646 -0.456943
v 0.995557 -0.914123 -0.454478
v 1.050852 0.958468 -0.584914
v 1.046979 -0.035241 -0.590426
v -1.039658 0.035261 -0.424729
v -1.002543 -0.506266 -0.609259
v 0.928058 -0.473400 -0.445325
v 0.999019 0.424188 -0.574692
v -1.001068 0.475590 -0.606457
v 1.027129 0.999993 -0.988363
v 1.006076 0.999991 0.049553
v -1.006222 0.101238 -0.999996
v -1.091954 0.999992 -0.040387
v -1.067296 0.999991 0.527837
v -0.958593 -1.000011 0.568530
v 1.008370 0.554586 0.999991
v 0.945661 0.493753 -0.999996
v -1.090698 0.504907 0.999991
v 1.029366 0.999992 -0.340746
v -1.088360 0.999991 0.061679
v 0.920519 -1.000011 0.528064
v 0.927499 0.999991 0.435305
v -1.060531 0.999993 -0.920540
v -1.056855 0.999992 -0.135232
v 1.047619 0.999993 -0.715084
v 0.905162 -0.003215 -0.999995
v 0.917710 -0.501850 -0.999995
v -0.935450 0.999992 -0.457419
v 1.048736 0.999992 -0.578290
v -0.946461 -1.000015 -0.543639
v -1.081502 0.224639 0.999990
v -0.997397 0.273153 -0.999996
v 0.908274 0.074715 -0.999996
v 0.981222 0.303682 0.999991
v 1.026491 -0.616044 0.999987
v 0.983885 -1.000015 -0.471273
v -1.088284 0.537165 0.999991
v -0.925356 -0.532825 -0.999995
v 0.971714 0.015914 0.999990
v -1.012737 0.003726 -0.999995
v 0.959485 0.573234 -0.999996
v 0.993546 0.614999 0.999992
v 0.926039 0.999991 0.464314
v 0.917555 -1.000011 0.553501
v -1.062111 0.994265 -0.999997
v 1.053876 -0.929625 -0.999994
v -1.059563 0.999991 0.592335
v -0.965957 -1.000011 0.610586
v -1.023993 -0.619545 0.999987
v -0.926814 -0.505873 -0.999995
v -0.994997 0.515966 -0.999996
v -1.067985 0.050655 0.999990
v -1.024038 0.978476 0.999993
v -1.043429 -1.000010 0.922689
v -1.034399 -0.915016 0.999986
v -1.075636 0.653511 0.999992
v 1.001397 0.999991 0.110752
v 0.998217 -1.000015 -0.392469
v 0.924807 -0.548019 -0.999995
v -0.939409 -1.000015 -0.479904
v 0.900872 -0.014039 -0.999995
v 1.034867 0.999993 -0.942273
v -0.934349 0.999992 -0.407718
v 1.060591 -1.000016 -0.922368
v 1.050244 0.999992 -0.612086
v 0.964031 0.082485 0.999990
v -1.090641 0.999992 -0.057992
v -1.016949 -0.997608 0.999986
v -0.990884 0.435283 -0.999996
v 1.060227 -1.000016 -0.936494
v 1.037277 -0.569128 0.999987
v -1.058089 0.938861 -0.999997
v 1.051069 -0.981352 -0.999994
v 0.962529 -0.920120 0.999986
v -0.914351 -1.000016 -0.963688
v 0.990715 -0.742323 -0.999995
v 0.994539 -0.784632 0.999987
v -0.946470 -0.343099 -0.999995
v -1.057910 0.999993 -0.934620
v -1.031811 -0.907740 0.999986
v -0.980390 -1.000011 0.692801
v -1.039168 0.999990 0.820516
v -1.071276 0.063071 0.999990
v -0.917991 -1.000016 -0.948850
v 0.971013 -0.884392 0.999986
v -1.021814 -0.537819 0.999987
v -1.023113 0.999990 0.999993
v 1.026287 0.999993 -1.000304
v 0.937035 0.999990 0.999993
v 1.045489 -1.000017 -0.999994
v 0.971388 -1.000010 0.999986
v -0.919517 -1.000017 -0.999994
vn -0.9875 0.1557 -0.0263
vn 0.9505 0.2903 0.1108
vn 0.9791 -0.0982 -0.1781
vn 0.9831 -0.0983 -0.1541
vn -0.9972 0.0391 -0.0637
vn -0.9687 -0.2418 0.0555
vn 0.8722 -0.3499 -0.3419
vn 0.9701 0.2326 0.0686
vn -0.9712 0.0145 -0.2378
vn -0.9901 -0.1217 -0.0696
vn 0.9700 -0.2303 -0.0772
vn 0.9883 0.1509 0.0212
vn -0.9973 0.0603 0.0413
vn -0.9701 -0.0203 -0.2418
vn 0.9940 0.1024 0.0393
vn 0.9372 -0.3445 -0.0555
vn -0.9965 0.0666 -0.0503
vn 0.9793 -0.1856 0.0811
vn 0.9937 0.1114 0.0112
vn 0.9613 -0.0622 0.2684
vn -0.9969 -0.0631 -0.0469
vn 0.9701 -0.1949 0.1444
vn 0.9834 0.1444 0.1096
vn -0.9354 -0.2695 0.2290
vn 0.9434 -0.0377 -0.3296
vn -0.9970 0.0356 -0.0687
vn -0.9942 -0.0154 0.1064
vn 0.9542 -0.2983 -0.0246
vn -0.9992 0.0401 -0.0075
vn -0.9900 -0.0124 0.1409
vn -0.9881 -0.1474 0.0435
vn -0.9573 -0.1329 0.2566
vn 0.9868 0.1094 -0.1190
vn 0.9997 0.0216 -0.0129
vn 0.9847 0.1640 0.0588
vn -0.9971 -0.0671 0.0351
vn -0.9727 0.0484 -0.2269
vn 0.9862 0.1610 0.0393
vn 0.9895 0.1123 -0.0905
vn -0.9816 -0.1876 -0.0357
vn -0.9712 -0.0025 -0.2382
vn 0.9705 -0.2289 -0.0759
vn 0.9260 -0.1013 -0.3637
vn -0.9972 0.0694 0.0280
vn -0.9690 -0.2390 -0.0619
vn 0.9774 -0.1560 -0.1428
vn 0.9843 -0.1065 0.1408
vn -0.9980 0.0512 -0.0357
vn 0.9731 -0.2237 0.0549
vn 0.9933 0.1146 0.0157
vn 0.9364 -0.3508 -0.0131
vn -0.9963 -0.0807 -0.0310
vn 0.9702 -0.1936 0.1455
vn 0.9540 0.2260 0.1972
vn -0.9952 0.0533 -0.0821
vn 0.9880 0.1070 -0.1116
vn -0.9892 -0.0978 0.1095
vn -0.9646 -0.1419 0.2224
vn 0.9724 -0.1645 0.1654
vn -0.9969 -0.0508 0.0594
vn -0.9841 -0.0532 0.1696
vn -0.9973 -0.0724 -0.0081
vn 0.9980 0.0437 0.0445
vn -0.9647 -0.0317 0.2615
vn 0.9735 -0.0528 -0.2224
vn -0.9928 0.0128 0.1190
vn -0.9847 0.0263 -0.1724
vn -0.9664 -0.2561 -0.0228
vn -0.9951 0.0428 0.0890
vn -0.9122 0.3244 -0.2502
vn 0.9501 0.2884 0.1193
vn -0.9989 0.0090 0.0451
vn 0.9960 0.0378 0.0812
vn -0.9935 -0.1119 0.0220
vn 0.9881 0.1519 -0.0262
vn -0.9600 -0.1058 0.2593
vn 0.8773 -0.3477 -0.3309
vn 0.9937 -0.0975 -0.0558
vn -0.8861 0.2540 -0.3876
vn -0.9665 0.1051 0.2343
vn 0.9856 -0.1543 -0.0695
vn 0.9892 0.1452 -0.0203
vn 0.9352 -0.2796 -0.2171
vn 0.9969 -0.0775 0.0108
vn -0.9951 0.0431 0.0889
vn -0.9783 -0.0768 -0.1923
vn -0.9872 0.1568 -0.0280
vn -0.9259 -0.1956 0.3233
vn 0.9841 0.1607 0.0752
vn -0.8647 0.3179 -0.3888
vn 0.9997 -0.0020 -0.0255
vn 0.9430 0.3199 0.0924
vn 0.9992 0.0345 -0.0204
vn 0.9727 -0.1648 -0.1633
vn -0.9930 -0.0921 -0.0741
vn -0.9614 0.2724 0.0379
vn -0.9766 -0.1179 0.1797
vn -0.9605 0.0719 0.2689
vn 0.9815 -0.1707 -0.0866
vn 0.9700 0.2380 0.0488
vn 0.9441 0.3184 0.0855
vn 0.9923 -0.0885 -0.0865
vn -0.9560 0.2335 -0.1779
vn -0.9846 0.0267 -0.1728
vn 0.9433 0.2533 0.2148
vn -0.0000 1.0000 -0.0015
vn 0.0006 -0.0002 -1.0000
vn -0.0003 -1.0000 0.0006
vn -0.0000 -0.0000 1.0000
vt 0.541667 0.146229
vt 0.520833 0.167062
vt 0.520833 0.146229
vt 0.458333 0.645438
vt 0.457494 0.646303
vt 0.457217 0.645438
vt 0.458333 0.603771
vt 0.455732 0.606452
vt 0.455298 0.603771
vt 0.541667 0.603771
vt 0.520833 0.624605
vt 0.520833 0.603771
vt 0.541667 0.104562
vt 0.520833 0.125395
vt 0.520833 0.104562
vt 0.500000 0.104562
vt 0.479167 0.125395
vt 0.479167 0.104562
vt 0.500000 0.603771
vt 0.479167 0.624605
vt 0.479167 0.603771
vt 0.500000 0.645438
vt 0.479167 0.666271
vt 0.479167 0.645438
vt 0.500000 0.146229
vt 0.479167 0.167062
vt 0.479167 0.146229
vt 0.459238 0.166157
vt 0.460992 0.146229
vt 0.459651 0.664954
vt 0.458333 0.664715
vt 0.458333 0.624605
vt 0.458333 0.125395
vt 0.459563 0.104562
vt 0.500000 0.125395
vt 0.500000 0.624605
vt 0.520833 0.645438
vt 0.500000 0.666271
vt 0.504511 0.162550
vt 0.500000 0.163749
vt 0.476863 0.668586
vt 0.466395 0.666271
vt 0.497645 0.668637
vt 0.479167 0.669002
vt 0.520833 0.083729
vt 0.500000 0.084246
vt 0.507527 0.083729
vt 0.520833 0.582938
vt 0.500000 0.583647
vt 0.503233 0.582938
vt 0.460891 0.143671
vt 0.458333 0.582938
vt 0.457623 0.583670
vt 0.457615 0.582938
vt 0.518134 0.169748
vt 0.511385 0.167062
vt 0.477318 0.168902
vt 0.458893 0.168445
vt 0.459222 0.167062
vt 0.541667 0.167062
vt 0.539190 0.169527
vt 0.520833 0.170214
vt 0.455881 0.664776
vt 0.541667 0.611623
vt 0.539062 0.624605
vt 0.541667 0.121579
vt 0.541095 0.125395
vt 0.485655 0.167062
vt 0.520833 0.663944
vt 0.509408 0.666271
vt 0.500000 0.668450
vt 0.479167 0.169085
vt 0.541667 0.169357
vt 0.543343 0.602095
vt 0.543608 0.603771
vt 0.520833 0.082762
vt 0.458333 0.580174
vt 0.460996 0.580288
vt 0.544438 0.101791
vt 0.544297 0.104562
vt 0.476256 0.086640
vt 0.479167 0.086174
vt 0.459869 0.103026
vt 0.499404 0.084324
vt 0.538770 0.086625
vt 0.539816 0.086605
vt 0.541667 0.093456
vt 0.457965 0.084108
vt 0.458333 0.084165
vt 0.458333 0.098877
vt 0.454841 0.087328
vt 0.543552 0.144344
vt 0.543248 0.146229
vt 0.476982 0.585123
vt 0.479167 0.585090
vt 0.542178 0.166551
vt 0.499472 0.583466
vt 0.538823 0.585781
vt 0.541667 0.597244
vt 0.541133 0.125928
vt 0.541667 0.130014
vt 0.522110 0.082446
vt 0.526412 0.083729
vt 0.523597 0.580188
vt 0.538491 0.582455
vt 0.538498 0.582938
vt 0.540607 0.646498
vt 0.539154 0.665231
vt 0.522872 0.664232
vt 0.457576 0.580227
vt 0.455361 0.083729
vt 0.539440 0.626831
vt 0.468811 0.582938
vt 0.542225 0.167062
vt 0.520833 0.580219
vt 0.540864 0.645438
s 0
f 25/1/1 13/2/1 33/3/1
f 17/4/2 68/5/2 45/6/2
f 26/7/3 82/8/3 60/9/3
f 27/10/4 15/11/4 32/12/4
f 18/13/5 16/14/5 23/15/5
f 19/16/6 11/17/6 22/18/6
f 28/19/7 10/20/7 31/21/7
f 20/22/8 9/23/8 21/24/8
f 29/25/9 8/26/9 30/27/9
f 30/27/10 108/28/10 54/29/10
f 21/24/11 109/30/11 98/31/11 17/4/11
f 31/21/12 3/32/12 26/7/12
f 22/18/13 4/33/13 39/34/13
f 23/15/14 7/35/14 19/16/14
f 32/12/15 6/36/15 28/19/15
f 24/37/16 5/38/16 20/22/16
f 33/3/17 36/39/17 64/40/17 29/25/17
f 9/23/18 59/41/18 101/42/18
f 5/38/19 63/43/19 95/44/19 9/23/19
f 15/11/20 20/22/20 6/36/20
f 12/45/21 19/16/21 107/46/21 55/47/21
f 10/20/22 17/4/22 3/32/22
f 6/36/23 21/24/23 10/20/23
f 16/14/24 29/25/24 7/35/24
f 14/48/25 28/19/25 50/49/25 57/50/25
f 11/17/26 84/51/26 4/33/26
f 7/35/27 30/27/27 11/17/27
f 1/52/28 88/53/28 94/54/28
f 13/2/29 93/55/29 56/56/29
f 8/26/30 62/57/30 116/58/30 99/59/30
f 2/60/31 96/61/31 75/62/31 13/2/31
f 25/1/32 2/60/32 13/2/32
f 17/4/33 98/31/33 115/63/33 68/5/33
f 26/7/34 3/32/34 82/8/34
f 27/10/35 43/64/35 35/65/35 15/11/35
f 18/13/36 44/66/36 37/67/36 16/14/36
f 19/16/37 7/35/37 11/17/37
f 28/19/38 6/36/38 10/20/38
f 20/22/39 5/38/39 9/23/39
f 29/25/40 64/40/40 102/68/40 8/26/40
f 30/27/41 8/26/41 99/59/41 108/28/41
f 21/24/42 9/23/42 101/42/42 109/30/42
f 31/21/43 10/20/43 3/32/43
f 22/18/44 11/17/44 4/33/44
f 23/15/45 16/14/45 7/35/45
f 32/12/46 15/11/46 6/36/46
f 24/37/47 40/69/47 58/70/47 5/38/47
f 33/3/48 13/2/48 56/56/48 36/39/48
f 9/23/49 95/44/49 59/41/49
f 5/38/50 90/71/50 63/43/50
f 15/11/51 24/37/51 20/22/51
f 12/45/52 23/15/52 19/16/52
f 10/20/53 21/24/53 17/4/53
f 6/36/54 20/22/54 21/24/54
f 16/14/55 33/3/55 29/25/55
f 14/48/56 32/12/56 28/19/56
f 11/17/57 30/27/57 54/29/57 84/51/57
f 7/35/58 29/25/58 30/27/58
f 1/52/59 26/7/59 60/9/59 88/53/59
f 13/2/60 75/62/60 93/55/60
f 8/26/61 74/72/61 62/57/61
f 2/60/62 69/73/62 96/61/62
f 89/74/63 53/75/63 27/10/63
f 55/47/64 42/76/64 12/45/64
f 97/77/65 70/78/65 1/52/65
f 71/79/66 38/80/66 18/13/66
f 73/81/67 110/82/67 22/18/67 39/34/67 72/83/67
f 76/84/68 107/46/68 19/16/68 22/18/68
f 77/85/69 111/86/69 106/87/69 18/13/69 23/15/69
f 79/88/70 104/89/70 105/90/70 78/91/70
f 45/6/71 3/32/71 17/4/71
f 38/80/72 44/66/72 18/13/72
f 53/75/73 43/64/73 27/10/73
f 87/92/74 52/93/74 25/1/74
f 83/94/75 51/95/75 31/21/75 26/7/75
f 52/93/76 47/96/76 2/60/76 25/1/76
f 85/97/77 50/49/77 28/19/77 31/21/77
f 86/98/78 49/99/78 27/10/78 32/12/78
f 91/100/79 48/101/79 25/1/79 33/3/79
f 61/102/80 80/103/80 12/45/80
f 65/104/81 112/105/81 34/106/81 14/48/81
f 67/107/82 113/108/82 66/109/82
f 94/54/83 114/110/83 97/77/83 1/52/83
f 58/70/84 90/71/84 5/38/84
f 106/87/85 71/79/85 18/13/85
f 110/82/86 76/84/86 22/18/86
f 80/103/87 77/85/87 23/15/87 12/45/87
f 78/91/88 92/111/88 79/88/88
f 35/65/89 81/112/89 24/37/89 15/11/89
f 48/101/90 87/92/90 25/1/90
f 49/99/91 89/74/91 27/10/91
f 100/113/92 83/94/92 26/7/92 1/52/92
f 51/95/93 85/97/93 31/21/93
f 34/106/94 86/98/94 32/12/94 14/48/94
f 37/67/95 91/100/95 33/3/95 16/14/95
f 103/114/96 69/73/96 2/60/96
f 102/68/97 74/72/97 8/26/97
f 42/76/98 61/102/98 12/45/98
f 41/115/99 65/104/99 14/48/99
f 46/116/100 67/107/100 66/109/100 40/69/100 24/37/100
f 70/78/101 100/113/101 1/52/101
f 57/50/102 41/115/102 14/48/102
f 47/96/103 103/114/103 2/60/103
f 104/89/104 73/81/104 72/83/104 105/90/104
f 81/112/105 46/116/105 24/37/105
f 53/75/106 89/74/106 49/99/106 86/98/106 34/106/106 112/105/106 69/73/106 103/114/106 47/96/106 52/93/106 87/92/106 48/101/106 91/100/106 37/67/106 44/66/106 38/80/106 71/79/106 106/87/106 111/86/106 113/108/106 67/107/106 46/116/106 81/112/106 35/65/106 43/64/106
f 69/73/107 112/105/107 34/106/107 65/104/107 41/115/107 57/50/107 50/49/107 85/97/107 51/95/107 83/94/107 100/113/107 70/78/107 97/77/107 114/110/107 116/58/107 62/57/107 74/72/107 102/68/107 64/40/107 36/39/107 56/56/107 93/55/107 75/62/107 96/61/107
f 108/28/108 99/59/108 116/58/108 114/110/108 94/54/108 88/53/108 60/9/108 82/8/108 3/32/108 45/6/108 68/5/108 115/63/108 92/111/108 78/91/108 105/90/108 72/83/108 39/34/108 4/33/108 84/51/108 54/29/108
f 59/41/109 95/44/109 63/43/109 90/71/109 58/70/109 40/69/109 66/109/109 113/108/109 111/86/109 77/85/109 80/103/109 61/102/109 42/76/109 55/47/109 107/46/109 76/84/109 110/82/109 73/81/109 104/89/109 79/88/109 92/111/109 115/63/109 98/31/109 109/30/109 101/42/109
