# Blender 4.4.3
# www.blender.org
mtllib block7.mtl
o block7
v -0.910547 -0.972939 -0.926654
v 0.978932 -0.890218 0.917263
v -0.914153 0.977573 -0.964263
v -0.863617 -0.885691 0.069419
v 0.964480 -0.984794 0.045943
v 1.001978 0.995293 -0.109209
v -0.978615 0.997846 0.088089
v 0.924072 0.042299 -0.957616
v 1.024585 -0.011294 0.894961
v 1.008579 -0.008304 -0.108533
v -1.000141 0.032611 0.085867
v -1.078810 -0.472680 -0.953933
v 0.904444 -0.527780 0.981044
v 0.933664 -0.432478 0.022766
v -1.031703 -0.594712 -0.014444
v -0.921917 0.465326 0.947176
v -1.058156 0.449159 -0.955023
v 0.909313 0.519803 -0.968121
v 1.016223 0.418416 0.027389
v -1.076646 0.551502 -0.058458
v -0.937847 -1.006635 0.452340
v 0.949848 -0.852558 0.559715
v -0.960518 0.964332 0.574092
v -0.980842 0.071975 0.559824
v 0.954187 0.087878 0.515196
v 1.015446 -0.467963 0.397051
v -0.922096 -0.533885 0.437760
v -1.091756 0.545132 0.509019
v 1.060733 0.573397 0.442712
v 0.837068 -0.860689 -0.532519
v -0.938257 0.927752 -0.534039
v -0.963670 -1.004089 -0.521650
v 0.965434 -0.051479 -0.432721
v -0.944649 -0.024443 -0.430676
v -0.937118 -0.448895 -0.568088
v 1.029149 -0.404668 -0.517367
v 0.917820 0.513864 -0.566330
v -1.093391 0.544467 -0.500210
v 0.070593 -1.032673 -0.946250
v -0.034360 -1.020215 -0.101198
v -0.076060 -1.005958 0.425864
v -0.006663 -0.947279 -0.594199
v -0.529861 -0.931916 -0.076368
v -0.555194 -1.030602 0.568082
v -0.415172 -1.045037 -0.537342
v 0.517705 -1.020729 -0.912880
v 0.560000 -1.079886 0.995178
v 0.527181 -1.044798 0.075685
v 0.575436 -1.065589 0.487775
v 0.433848 -1.061848 -0.467076
v -0.958593 0.999989 0.568530
v -0.399059 -0.991827 0.999979
v 0.920519 0.999989 0.528064
v -0.867692 -0.981692 -0.999992
v -0.811540 -0.896699 0.999979
v 1.081414 -0.515355 -0.999992
v 0.929997 0.032102 -0.999993
v 0.508160 -1.015401 -0.999992
v -0.516838 -0.902822 -0.999992
v -0.946461 0.999985 -0.543639
v -0.086764 -0.986421 0.999979
v 0.063937 -1.032807 -0.999992
v 0.983885 0.999985 -0.471273
v 0.902642 -0.542495 0.999980
v -0.946530 0.087598 -0.999993
v 1.029742 -0.095010 0.999982
v -0.933847 0.522826 0.999984
v -0.397129 -0.925064 -0.999992
v 0.899141 -0.901303 0.999979
v 0.912557 0.555393 -0.999994
v 1.031756 0.455604 0.999984
v 0.917555 0.999989 0.553501
v 0.567847 -1.018293 -0.999992
v -0.919340 0.985805 -0.999994
v -0.938829 0.287484 0.999983
v -1.007347 0.285634 -0.999993
v -1.077311 -0.472374 -0.999992
v -0.965957 0.999989 0.610586
v -1.044989 0.454770 -0.999994
v -0.932214 -0.489694 0.999980
v -0.957135 -0.016799 0.999982
v -1.043429 0.999990 0.922689
v -0.927361 0.015935 -0.999993
v 0.998217 0.999985 -0.392469
v -1.019241 -0.281256 -0.999993
v 0.998280 -0.217147 -0.999993
v -0.939409 0.999985 -0.479904
v 1.062492 -0.559558 -0.999992
v -0.042689 -0.990590 0.999979
v 0.101884 -1.028214 -0.999992
v -0.453627 -0.995675 0.999979
v 1.060591 0.999984 -0.922368
v 0.826545 -0.992013 -0.999992
v 1.005184 -0.012104 0.999982
v 0.909425 -0.528286 0.999980
v -0.502880 -0.903980 -0.999992
v -1.016949 1.002392 0.999986
v 1.060227 0.999984 -0.936494
v -1.054461 0.421966 -0.999993
v -1.071065 -0.507698 -0.999992
v -0.917545 -0.970429 -0.999992
v -0.836164 -0.893434 0.999979
v 0.962084 -0.900429 0.999979
v -0.913314 0.946124 -0.999994
v 0.849429 -0.979598 -0.999992
v 1.039300 0.430900 0.999984
v 0.918321 0.516219 -0.999994
v -0.935401 0.470973 0.999984
v -0.914351 0.999984 -0.963688
v 1.035620 0.338861 0.999983
v 0.934440 0.080975 -0.999993
v -0.563941 -0.910729 -0.999992
v -0.980390 0.999989 0.692801
v -0.917991 0.999984 -0.948850
v -0.964236 0.051737 0.999982
v -0.931079 -0.454969 0.999980
v 0.760502 -0.996683 -0.999992
v 1.045489 0.999983 -0.999994
v 0.971388 0.999990 0.999986
v -0.919517 0.999983 -0.999994
vn -0.9213 0.3600 -0.1468
vn 0.4959 -0.8683 -0.0094
vn 0.4397 -0.8969 -0.0474
vn -0.9531 0.3018 -0.0220
vn -0.9572 -0.1434 0.2513
vn 0.9748 0.1329 0.1792
vn 0.9789 0.0669 0.1929
vn -0.9282 -0.1294 0.3488
vn -0.9912 0.0368 -0.1272
vn 0.9727 -0.2087 -0.1011
vn 0.8895 -0.3655 -0.2743
vn -0.9829 0.0271 -0.1820
vn -0.9733 -0.2219 0.0581
vn 0.9891 0.0506 -0.1384
vn 0.9408 -0.2419 -0.2376
vn -0.9649 -0.2581 -0.0476
vn 0.9632 0.1600 0.2159
vn 0.9324 -0.2589 -0.2522
vn 0.4394 -0.8428 0.3109
vn 0.9944 -0.0478 0.0941
vn -0.9933 0.1071 0.0424
vn 0.9983 0.0563 0.0139
vn 0.9440 -0.2376 -0.2288
vn 0.1313 -0.9892 -0.0653
vn 0.9943 -0.0006 -0.1063
vn -0.9818 -0.1689 -0.0868
vn 0.9969 0.0292 -0.0733
vn -0.8695 -0.4348 0.2343
vn -0.9861 0.0735 -0.1491
vn 0.9624 0.2683 0.0427
vn -0.9784 0.2038 0.0338
vn -0.9384 -0.3243 0.1190
vn -0.9461 -0.3139 0.0795
vn -0.9370 0.2511 -0.2430
vn -0.1892 -0.9487 -0.2534
vn -0.1809 -0.9711 -0.1558
vn 0.2608 -0.9206 0.2908
vn 0.0702 -0.9955 0.0640
vn -0.1281 -0.9662 0.2235
vn -0.0670 -0.9761 0.2069
vn -0.2722 -0.9012 -0.3374
vn 0.0082 -0.9714 0.2374
vn -0.0509 -0.9984 0.0230
vn -0.2067 -0.9661 -0.1545
vn -0.0941 -0.9950 0.0321
vn -0.9646 0.2625 -0.0237
vn 0.3892 -0.9122 -0.1277
vn 0.1166 -0.9655 -0.2328
vn -0.9788 0.1985 0.0501
vn -0.9983 0.0443 0.0370
vn 0.9737 -0.2037 -0.1025
vn 0.9357 -0.2578 -0.2408
vn -0.9554 0.2954 -0.0081
vn -0.8948 -0.2821 0.3460
vn 0.9660 0.1633 0.2003
vn 0.9823 0.0622 0.1769
vn -0.8658 -0.4233 0.2668
vn -0.9878 -0.1534 -0.0280
vn 0.9868 0.0327 -0.1583
vn 0.9988 -0.0399 0.0282
vn -0.9559 -0.2935 -0.0125
vn 0.8757 -0.4180 -0.2415
vn 0.9438 0.2796 0.1765
vn 0.0138 -0.9927 -0.1197
vn 0.9758 -0.2176 -0.0234
vn -0.9275 -0.1824 0.3263
vn 0.9387 -0.2572 -0.2295
vn 0.9929 0.0941 0.0721
vn 0.4462 -0.8635 0.2350
vn 0.9500 0.2884 0.1193
vn -0.9679 -0.2481 0.0406
vn 0.9967 0.0792 -0.0199
vn -0.9866 0.0338 -0.1596
vn -0.9939 0.0176 -0.1087
vn 0.9813 0.1875 -0.0438
vn -0.9253 0.3656 -0.1012
vn -0.9328 0.2693 -0.2395
vn -0.9842 -0.1740 -0.0332
vn -0.9829 -0.1492 0.1083
vn 0.2602 -0.9237 0.2812
vn 0.0608 -0.9976 0.0318
vn -0.1808 -0.9714 -0.1539
vn 0.0173 -0.9993 0.0343
vn -0.2639 -0.9544 0.1393
vn -0.0342 -0.9726 0.2302
vn -0.0159 -0.9883 -0.1520
vn -0.2144 -0.9681 -0.1296
vn -0.0873 -0.9954 -0.0400
vn -0.0566 -0.9976 0.0411
vn -0.1467 -0.9886 -0.0323
vn 0.1653 -0.9848 -0.0541
vn 0.9832 -0.0894 0.1590
vn -0.9901 -0.1217 -0.0696
vn -0.9973 0.0603 0.0413
vn -0.9847 0.0263 -0.1724
vn -0.9993 0.0327 -0.0206
vn -0.9941 -0.1030 0.0328
vn -0.9122 0.3244 -0.2502
vn -0.9892 -0.0978 0.1095
vn -0.0483 -0.9973 -0.0557
vn 0.9032 -0.3866 0.1865
vn 0.9724 -0.1645 0.1654
vn 0.4641 -0.8554 0.2299
vn 0.1202 -0.9927 -0.0124
vn -0.9847 -0.1706 -0.0367
vn 0.9352 -0.2796 -0.2171
vn 0.9868 0.1094 -0.1190
vn 0.1114 -0.9931 0.0363
vn 0.9799 -0.0850 0.1804
vn 0.9997 0.0216 -0.0129
vn -0.9484 -0.2256 0.2227
vn -0.9982 -0.0594 -0.0076
vn -0.9259 -0.1956 0.3233
vn 0.9627 0.0357 0.2681
vn -0.9970 0.0356 -0.0687
vn 0.8834 -0.4481 0.1373
vn -0.2274 -0.9733 0.0306
vn -0.9683 0.0181 -0.2492
vn 0.9542 -0.2983 -0.0246
vn 0.9620 0.2636 0.0711
vn 0.0703 -0.9944 -0.0785
vn 0.2207 -0.9449 0.2418
vn -0.9900 -0.0124 0.1409
vn -0.9564 0.2906 -0.0292
vn -0.0794 -0.9576 -0.2769
vn -0.9678 0.0290 -0.2502
vn 0.9568 0.1408 0.2546
vn 0.9505 0.2903 0.1108
vn -0.9712 -0.0025 -0.2382
vn 0.9791 -0.0982 -0.1781
vn -0.9846 0.0267 -0.1728
vn 0.0315 -0.9974 -0.0645
vn -0.2204 -0.9753 -0.0124
vn -0.0000 -0.0000 -1.0000
vn 0.0001 -0.0006 1.0000
vn 0.0003 1.0000 -0.0006
vt 0.458333 0.146229
vt 0.438121 0.167062
vt 0.438121 0.146229
vt 0.375000 0.645438
vt 0.312500 0.666271
vt 0.312500 0.645438
vt 0.375000 0.603771
vt 0.312500 0.624605
vt 0.312500 0.603771
vt 0.458333 0.104562
vt 0.438121 0.125395
vt 0.438121 0.104562
vt 0.416667 0.104562
vt 0.395833 0.125395
vt 0.395833 0.104562
vt 0.416667 0.603771
vt 0.395833 0.624605
vt 0.395833 0.603771
vt 0.416667 0.645438
vt 0.395833 0.666271
vt 0.395833 0.645438
vt 0.416667 0.146229
vt 0.395833 0.167062
vt 0.395833 0.146229
vt 0.375000 0.167062
vt 0.375000 0.146229
vt 0.375000 0.666271
vt 0.375000 0.624605
vt 0.375000 0.125395
vt 0.375000 0.104562
vt 0.416667 0.125395
vt 0.438121 0.603771
vt 0.416667 0.624605
vt 0.438121 0.645438
vt 0.416667 0.666271
vt 0.419393 0.164415
vt 0.416667 0.164701
vt 0.395137 0.666971
vt 0.375000 0.669018
vt 0.413389 0.669565
vt 0.395833 0.666953
vt 0.366290 0.669188
vt 0.438121 0.624605
vt 0.438121 0.083729
vt 0.416667 0.086621
vt 0.428968 0.083729
vt 0.458333 0.624605
vt 0.438121 0.582938
vt 0.416667 0.582938
vt 0.395833 0.584915
vt 0.407172 0.582938
vt 0.458333 0.125395
vt 0.436574 0.168557
vt 0.429925 0.167062
vt 0.394306 0.168582
vt 0.375000 0.169381
vt 0.458333 0.167062
vt 0.456957 0.168474
vt 0.438121 0.168808
vt 0.250000 0.582938
vt 0.187500 0.603771
vt 0.187500 0.583483
vt 0.199234 0.582938
vt 0.250000 0.624605
vt 0.187500 0.645438
vt 0.187500 0.624605
vt 0.250000 0.603771
vt 0.250000 0.645438
vt 0.194154 0.664053
vt 0.187500 0.663423
vt 0.129261 0.664851
vt 0.125000 0.665135
vt 0.125000 0.645438
vt 0.125000 0.624605
vt 0.125000 0.603771
vt 0.312500 0.582938
vt 0.254221 0.664864
vt 0.250000 0.665007
vt 0.403910 0.167062
vt 0.438121 0.665355
vt 0.433911 0.666271
vt 0.416667 0.670396
vt 0.457217 0.645438
vt 0.395833 0.168583
vt 0.458333 0.168432
vt 0.178447 0.582938
vt 0.185918 0.583465
vt 0.125000 0.582938
vt 0.416667 0.581132
vt 0.418614 0.581056
vt 0.460992 0.146229
vt 0.459238 0.166157
vt 0.459563 0.104562
vt 0.459869 0.103026
vt 0.394310 0.085252
vt 0.395833 0.085216
vt 0.414332 0.086064
vt 0.454841 0.087328
vt 0.458333 0.098877
vt 0.460891 0.143671
vt 0.312500 0.580260
vt 0.321192 0.580055
vt 0.393798 0.584973
vt 0.457623 0.583670
vt 0.455298 0.603771
vt 0.371438 0.584125
vt 0.375000 0.584281
vt 0.250000 0.580555
vt 0.255240 0.581200
vt 0.439996 0.081788
vt 0.455361 0.083729
vt 0.439545 0.581477
vt 0.457576 0.580227
vt 0.457615 0.582938
vt 0.457494 0.646303
vt 0.455881 0.664776
vt 0.439173 0.665187
vt 0.358128 0.582938
vt 0.455732 0.606452
vt 0.375000 0.084865
vt 0.438121 0.581490
vt 0.438121 0.081289
vt 0.133298 0.580185
vt 0.459222 0.167062
vt 0.458893 0.168445
vt 0.125000 0.580619
s 0
f 31/1/1 17/2/1 38/3/1
f 22/4/2 47/5/2 49/6/2
f 30/7/3 48/8/3 50/9/3
f 23/10/4 20/11/4 28/12/4
f 24/13/5 15/14/5 27/15/5
f 33/16/6 14/17/6 36/18/6
f 25/19/7 13/20/7 26/21/7
f 34/22/8 12/23/8 35/24/8
f 35/24/9 1/25/9 32/26/9
f 26/21/10 2/27/10 22/4/10
f 36/18/11 5/28/11 30/7/11
f 27/15/12 4/29/12 21/30/12
f 28/12/13 11/31/13 24/13/13
f 37/32/14 10/33/14 33/16/14
f 29/34/15 9/35/15 25/19/15
f 38/3/16 65/36/16 83/37/16 34/22/16
f 13/20/17 64/38/17 103/39/17 2/27/17
f 9/35/18 66/40/18 95/41/18 13/20/18
f 2/27/19 69/42/19 47/5/19
f 19/43/20 25/19/20 10/33/20
f 16/44/21 24/13/21 115/45/21 75/46/21
f 14/17/22 22/4/22 5/28/22
f 10/33/23 26/21/23 14/17/23
f 5/28/24 49/6/24 48/8/24
f 6/47/25 29/34/25 19/43/25
f 20/11/26 34/22/26 11/31/26
f 18/48/27 33/16/27 8/49/27
f 15/14/28 32/26/28 4/29/28
f 11/31/29 35/24/29 15/14/29
f 8/49/30 36/18/30 56/50/30 86/51/30
f 7/52/31 38/3/31 20/11/31
f 17/2/32 99/53/32 76/54/32
f 12/23/33 100/55/33 101/56/33 1/25/33
f 3/57/34 104/58/34 79/59/34 17/2/34
f 39/60/35 45/61/35 96/62/35 68/63/35
f 40/64/36 44/65/36 43/66/36
f 42/67/37 43/66/37 45/61/37
f 41/68/38 52/69/38 91/70/38 44/65/38
f 44/65/39 55/71/39 102/72/39 21/73/39
f 45/61/40 4/74/40 32/75/40
f 43/66/41 21/73/41 4/74/41
f 46/76/42 42/67/42 39/60/42
f 48/8/43 41/68/43 40/64/43
f 50/9/44 40/64/44 42/67/44
f 49/6/45 89/77/45 61/78/45 41/68/45
f 31/1/46 3/57/46 17/2/46
f 22/4/47 2/27/47 47/5/47
f 30/7/48 5/28/48 48/8/48
f 23/10/49 7/52/49 20/11/49
f 24/13/50 11/31/50 15/14/50
f 33/16/51 10/33/51 14/17/51
f 25/19/52 9/35/52 13/20/52
f 34/22/53 83/37/53 85/79/53 12/23/53
f 35/24/54 12/23/54 1/25/54
f 26/21/55 13/20/55 2/27/55
f 36/18/56 14/17/56 5/28/56
f 27/15/57 15/14/57 4/29/57
f 28/12/58 20/11/58 11/31/58
f 37/32/59 19/43/59 10/33/59
f 29/34/60 106/80/60 110/81/60 9/35/60
f 38/3/61 17/2/61 76/54/61 65/36/61
f 13/20/62 95/41/62 64/38/62
f 9/35/63 94/82/63 66/40/63
f 2/27/64 103/39/64 69/42/64
f 19/43/65 29/34/65 25/19/65
f 16/44/66 28/12/66 24/13/66
f 14/17/67 26/21/67 22/4/67
f 10/33/68 25/19/68 26/21/68
f 5/28/69 22/4/69 49/6/69
f 6/47/70 53/83/70 29/34/70
f 20/11/71 38/3/71 34/22/71
f 18/48/72 37/32/72 33/16/72
f 15/14/73 35/24/73 32/26/73
f 11/31/74 34/22/74 35/24/74
f 8/49/75 33/16/75 36/18/75
f 7/52/76 31/1/76 38/3/76
f 17/2/77 79/59/77 99/53/77
f 12/23/78 77/84/78 100/55/78
f 3/57/79 74/85/79 104/58/79
f 39/60/80 42/67/80 45/61/80
f 40/64/81 41/68/81 44/65/81
f 42/67/82 40/64/82 43/66/82
f 41/68/83 61/78/83 52/69/83
f 44/65/84 91/70/84 55/71/84
f 45/61/85 43/66/85 4/74/85
f 43/66/86 44/65/86 21/73/86
f 46/76/87 50/9/87 42/67/87
f 48/8/88 49/6/88 41/68/88
f 50/9/89 48/8/89 40/64/89
f 49/6/90 47/5/90 89/77/90
f 112/86/91 59/87/91 32/75/91 1/88/91
f 57/89/92 111/90/92 8/49/92
f 60/91/93 114/92/93 3/57/93 31/1/93
f 51/93/94 7/52/94 23/10/94
f 78/94/95 51/93/95 23/10/95
f 80/95/96 116/96/96 27/15/96 21/30/96
f 81/97/97 115/45/97 24/13/97 27/15/97
f 82/98/98 113/99/98 23/10/98 28/12/98
f 87/100/99 60/91/99 31/1/99
f 58/101/100 73/102/100 46/76/100
f 88/103/101 56/50/101 36/18/101 30/7/101
f 92/104/102 63/105/102 37/32/102
f 93/106/103 105/107/103 30/7/103 50/9/103
f 62/108/104 90/109/104 39/60/104
f 67/110/105 97/111/105 16/44/105
f 70/112/106 118/113/106 98/114/106 18/48/106
f 72/115/107 119/116/107 71/117/107
f 73/102/108 117/118/108 46/76/108
f 110/81/109 94/82/109 9/35/109
f 84/119/110 6/47/110 19/43/110
f 102/120/111 80/95/111 21/30/111
f 116/96/112 81/97/112 27/15/112
f 97/111/113 82/98/113 28/12/113 16/44/113
f 111/90/114 107/121/114 18/48/114 8/49/114
f 7/52/115 87/100/115 31/1/115
f 105/107/116 88/103/116 30/7/116
f 68/63/117 62/108/117 39/60/117
f 75/46/118 108/122/118 16/44/118
f 98/114/119 92/104/119 37/32/119 18/48/119
f 86/51/120 57/89/120 8/49/120
f 117/118/121 93/106/121 50/9/121 46/76/121
f 54/123/122 112/86/122 1/88/122
f 109/124/123 120/125/123 74/85/123 3/57/123
f 85/79/124 77/84/124 12/23/124
f 59/87/125 96/62/125 45/61/125 32/75/125
f 108/122/126 67/110/126 16/44/126
f 107/121/127 70/112/127 18/48/127
f 53/83/128 72/115/128 71/117/128 106/80/128 29/34/128
f 114/92/129 109/124/129 3/57/129
f 63/105/130 84/119/130 19/43/130 37/32/130
f 113/99/131 78/94/131 23/10/131
f 90/109/132 58/101/132 46/76/132 39/60/132
f 101/126/133 54/123/133 1/88/133
f 59/87/134 112/86/134 54/123/134 101/56/134 100/55/134 77/84/134 85/79/134 83/37/134 65/36/134 76/54/134 99/53/134 79/59/134 104/58/134 74/85/134 120/125/134 118/113/134 70/112/134 107/121/134 111/90/134 57/89/134 86/51/134 56/50/134 88/103/134 105/107/134 93/106/134 117/118/134 73/102/134 58/101/134 90/109/134 62/108/134 68/63/134 96/62/134
f 119/116/135 97/111/135 67/110/135 108/122/135 75/46/135 115/45/135 81/97/135 116/96/135 80/95/135 102/120/135 55/71/135 91/70/135 52/69/135 61/78/135 89/77/135 47/5/135 69/42/135 103/39/135 64/38/135 13/20/135 95/41/135 66/40/135 94/82/135 110/81/135 106/80/135 71/117/135
f 114/92/136 60/91/136 87/100/136 7/52/136 51/93/136 78/94/136 113/99/136 82/98/136 97/111/136 119/116/136 72/115/136 53/83/136 6/47/136 84/119/136 63/105/136 92/104/136 98/114/136 118/113/136 120/125/136 109/124/136
