# Blender 4.4.3
# www.blender.org
mtllib block5.mtl
o block5
v -0.778786 -0.850020 0.850226
v 0.868402 -0.922956 0.820317
v 0.924830 0.923964 0.977653
v -0.830296 -0.886901 -0.968420
v -0.857498 -0.864235 0.017748
v 1.036038 0.920687 0.040093
v 0.978758 -0.839754 0.010391
v -1.086762 0.997263 -0.054191
v 0.922319 -0.073344 0.851325
v -0.851543 0.013929 0.991292
v -0.961558 0.048474 -0.929047
v -0.981558 0.039982 -0.095594
v 0.916824 -0.052895 -0.008585
v 0.878862 -0.446792 0.992033
v -0.931769 -0.448904 -0.956807
v -0.993569 -0.542018 -0.095260
v 0.971286 -0.420461 0.048633
v -0.829263 -0.472800 0.876011
v -1.001776 0.561366 0.905693
v 0.933537 0.463650 1.003291
v 1.038314 0.424344 -0.974378
v -1.040295 0.523097 -0.095316
v 0.963880 0.451060 0.067563
v -0.985859 -0.914848 0.455704
v 0.949566 -0.965045 0.578728
v -1.065919 0.075208 0.516762
v 0.915453 -0.033970 0.458605
v 0.985928 -0.438414 0.575147
v -0.962071 -0.413756 0.464111
v -1.071110 0.488304 0.430731
v 0.951474 0.436707 0.545398
v 0.850551 -0.968029 -0.452429
v -0.839246 -0.947415 -0.553517
v 0.926133 -0.015401 -0.572106
v -0.989517 -0.019467 -0.410120
v -0.919656 -0.524958 -0.453061
v 1.057364 -0.543332 -0.437605
v 1.044985 0.562302 -0.579467
v -1.037623 0.513787 -0.599688
v 0.071064 -0.875231 1.006452
v -0.049587 0.924913 1.039034
v -0.087455 -0.985158 -0.962926
v -0.056043 -1.036491 -0.079091
v 0.082496 0.043669 0.961291
v 0.093953 -0.497613 0.965835
v 0.087168 0.550248 0.972123
v -0.029704 -0.904563 0.500705
v -0.061013 -1.007721 -0.585969
v -0.527446 0.906526 1.006202
v -0.437542 -0.990144 -0.931621
v -0.596973 -1.009141 -0.111115
v -0.599084 0.012182 1.009393
v -0.453430 -0.524483 0.914960
v -0.549139 0.429662 0.966228
v -0.594998 -0.935884 0.510473
v -0.499101 -1.068185 -0.503131
v -0.356776 -0.979917 0.965388
v 0.578000 -0.967263 1.002362
v 0.560000 -1.079886 -1.004822
v 0.413726 -1.013983 -0.053337
v 0.588955 0.023700 0.959541
v 0.414078 -0.548728 0.984411
v 0.472898 0.598659 0.962655
v 0.539364 -1.078936 0.450516
v 0.406381 -0.969763 -0.489194
v 0.978187 0.999993 -0.257500
v 0.026561 0.999997 1.029851
v 1.021110 0.999994 0.027090
v 0.497929 0.999997 1.004228
v -0.399059 -0.991827 -1.000021
v 0.427570 0.999997 1.006891
v -0.811540 -0.896699 -1.000021
v -0.040814 0.999997 1.038862
v -0.918147 0.999996 0.865431
v -0.086764 -0.986421 -1.000021
v -0.451313 0.999997 1.010493
v 1.066972 0.999995 0.575485
v 0.902642 -0.542495 -1.000020
v 1.029742 -0.095010 -1.000018
v -0.933847 0.522826 -1.000016
v -1.032846 0.999992 -0.561794
v 1.062644 0.999995 0.344211
v 0.899141 -0.901303 -1.000021
v 0.979247 0.999990 -0.900480
v 1.031756 0.455604 -1.000016
v -0.938829 0.287484 -1.000017
v -0.932214 -0.489694 -1.000020
v -0.957135 -0.016799 -1.000018
v -1.091847 0.999995 0.466496
v 0.931349 0.999992 -0.453417
v -1.093884 0.999995 0.499898
v 1.068978 0.999995 0.536455
v -0.042689 -0.990590 -1.000021
v -0.453627 -0.995675 -1.000021
v -0.909743 0.999997 0.938493
v 1.005184 -0.012104 -1.000018
v 0.909425 -0.528286 -1.000020
v 0.933931 0.999997 0.962025
v -1.016949 1.002392 -1.000014
v -0.707900 0.999997 0.976007
v 1.018129 0.999996 0.710852
v 0.975747 0.999990 -0.963866
v -0.836164 -0.893434 -1.000021
v -0.518645 0.999997 0.991009
v 0.962084 -0.900429 -1.000021
v 1.039300 0.430900 -1.000016
v -0.935401 0.470973 -1.000016
v 0.943424 0.999992 -0.527968
v -1.048634 0.999992 -0.500728
v 1.035620 0.338861 -1.000017
v 0.921625 0.999997 0.915518
v 0.186161 0.999997 1.028686
v -0.964236 0.051737 -1.000018
v 1.034749 0.999993 -0.050411
v -0.931079 -0.454969 -1.000020
v 0.744509 0.999997 0.993546
v 0.971388 0.999990 -1.000014
vn 0.2106 -0.9609 0.1797
vn -0.1538 -0.0756 0.9852
vn 0.0123 -0.9948 -0.1011
vn 0.9589 0.2646 0.1029
vn -0.9705 -0.2174 0.1045
vn -0.9905 -0.1372 0.0031
vn 0.9403 0.2348 0.2462
vn -0.1288 -0.2057 0.9701
vn -0.2472 0.0547 0.9674
vn 0.9427 -0.0629 0.3277
vn -0.9833 -0.1760 -0.0469
vn -0.9600 0.0502 -0.2756
vn 0.8934 -0.4306 -0.1281
vn 0.9795 -0.2015 0.0028
vn -0.9901 -0.0404 -0.1341
vn -0.9912 -0.1137 -0.0683
vn 0.9971 -0.0718 -0.0246
vn -0.0703 0.1109 0.9913
vn 0.9956 -0.0940 0.0067
vn -0.9039 -0.1880 0.3841
vn -0.8654 -0.1485 0.4786
vn 0.9985 0.0129 0.0541
vn 0.9895 0.1431 -0.0226
vn -0.9503 -0.1123 0.2903
vn 0.9884 -0.1506 0.0211
vn 0.3091 -0.9304 -0.1970
vn -0.9915 -0.1206 0.0479
vn 0.9799 -0.0850 0.1804
vn -0.9241 -0.3812 0.0260
vn -0.9793 0.0201 -0.2013
vn -0.9953 -0.0972 -0.0035
vn -0.9484 -0.2256 0.2227
vn -0.9982 -0.0594 -0.0076
vn -0.0020 -0.9838 -0.1795
vn -0.0571 -0.9915 0.1170
vn 0.0033 -0.0048 1.0000
vn 0.0170 0.0495 0.9986
vn -0.0486 0.0582 0.9971
vn 0.1691 -0.9675 0.1879
vn 0.0528 -0.9909 -0.1236
vn -0.0809 -0.9759 0.2028
vn -0.4385 -0.8913 0.1158
vn -0.0358 -0.9915 -0.1251
vn -0.2388 -0.9602 -0.1452
vn 0.0714 -0.0220 0.9972
vn -0.1224 0.1135 0.9860
vn -0.0929 0.0064 0.9957
vn 0.0227 -0.1677 0.9856
vn -0.0720 0.0541 0.9959
vn -0.0943 0.3606 0.9279
vn 0.5393 -0.2961 0.7883
vn 0.2254 -0.2696 0.9362
vn -0.1477 -0.9878 -0.0488
vn 0.0346 -0.9748 0.2202
vn 0.0926 -0.9941 -0.0573
vn -0.2821 -0.9529 0.1115
vn 0.3038 -0.9161 0.2617
vn -0.1826 -0.0352 0.9826
vn 0.2702 -0.9445 0.1869
vn 0.9883 0.1505 0.0263
vn -0.9903 0.0204 -0.1376
vn -0.9965 -0.0563 -0.0611
vn 0.9915 -0.1267 -0.0300
vn -0.0712 -0.2330 0.9699
vn -0.1140 -0.0829 0.9900
vn 0.9633 -0.1096 0.2452
vn -0.9742 -0.2254 -0.0106
vn -0.9289 -0.3461 0.1317
vn 0.9848 0.0017 0.1739
vn 0.9885 -0.1082 0.1053
vn -0.9905 -0.1204 -0.0660
vn -0.9683 0.0181 -0.2492
vn 0.9986 -0.0325 0.0410
vn -0.0947 0.1284 0.9872
vn 0.9965 -0.0806 0.0235
vn -0.9897 0.0171 0.1418
vn -0.9493 0.0398 0.3118
vn 0.9972 -0.0691 -0.0301
vn 0.9853 0.1705 -0.0040
vn -0.8975 -0.2311 0.3756
vn 0.9783 -0.2046 -0.0322
vn 0.3170 -0.9295 -0.1886
vn -0.9958 -0.0911 -0.0036
vn 0.9782 -0.2006 0.0535
vn -0.9690 -0.1353 -0.2066
vn -0.9887 -0.1410 0.0517
vn -0.9964 -0.0052 -0.0851
vn -0.9993 0.0327 -0.0206
vn -0.9941 -0.1030 0.0328
vn 0.1238 -0.9900 -0.0679
vn 0.0578 -0.9740 0.2190
vn 0.0272 -0.0216 0.9994
vn -0.0402 0.1093 0.9932
vn 0.0038 0.0085 1.0000
vn -0.0471 -0.9973 -0.0561
vn 0.2368 -0.9715 0.0092
vn -0.3111 -0.9477 0.0712
vn -0.3414 -0.9382 0.0561
vn -0.4426 -0.8904 0.1063
vn -0.2989 -0.9304 -0.2124
vn -0.0293 0.1063 0.9939
vn -0.0965 0.0893 0.9913
vn 0.0766 -0.1526 0.9853
vn -0.0652 -0.0804 0.9946
vn 0.0430 -0.1056 0.9935
vn 0.2955 -0.0488 0.9541
vn -0.0237 0.0336 0.9992
vn -0.0950 -0.0246 0.9952
vn 0.0340 -0.9753 0.2184
vn -0.2966 -0.9538 -0.0490
vn 0.0532 -0.9934 -0.1017
vn -0.1731 -0.9629 0.2070
vn 0.8757 -0.4180 -0.2415
vn 0.9438 0.2796 0.1765
vn 0.0138 -0.9927 -0.1197
vn 0.9722 0.2146 0.0935
vn -0.0779 0.1671 0.9829
vn -0.0689 0.0103 0.9976
vn 0.8436 0.3606 0.3978
vn 0.9277 -0.2741 -0.2534
vn 0.1615 0.1801 0.9703
vn 0.0702 -0.9955 0.0640
vn -0.0941 -0.9950 0.0321
vn 0.9782 0.1631 -0.1281
vn 0.9400 0.0367 0.3392
vn -0.9742 0.1960 0.1121
vn -0.9847 -0.1706 -0.0367
vn 0.9868 0.1094 -0.1190
vn 0.9632 0.1600 0.2159
vn 0.9324 -0.2589 -0.2522
vn 0.4394 -0.8428 0.3109
vn 0.9925 0.1089 -0.0548
vn -0.9953 -0.0967 -0.0092
vn 0.9599 -0.1609 -0.2295
vn -0.9933 0.1071 0.0424
vn 0.1325 -0.0132 0.9911
vn 0.0173 -0.9993 0.0343
vn 0.0890 -0.1435 0.9856
vn -0.2639 -0.9544 0.1393
vn 0.9778 -0.2032 0.0503
vn 0.9988 -0.0399 0.0282
vn -0.9678 0.0290 -0.2502
vn 0.9505 0.2903 0.1108
vn -0.2735 0.1793 0.9450
vn 0.9533 -0.1660 -0.2523
vn -0.9975 -0.0362 -0.0608
vn 0.9660 0.2057 0.1565
vn 0.9631 0.2091 0.1695
vn 0.0073 0.1141 0.9934
vn -0.1467 -0.9886 -0.0323
vn 0.0376 -0.1053 0.9937
vn -0.8969 -0.0982 0.4312
vn -0.1281 -0.9662 0.2235
vn -0.0001 0.0006 -1.0000
vn -0.0002 1.0000 0.0006
vt 0.375000 0.729068
vt 0.312500 0.750000
vt 0.312500 0.729068
vt 0.458333 0.937500
vt 0.438121 1.000000
vt 0.438121 0.937500
vt 0.375000 0.687204
vt 0.312500 0.708136
vt 0.312500 0.687204
vt 0.416667 0.687204
vt 0.395833 0.708136
vt 0.395833 0.687204
vt 0.416667 0.020932
vt 0.395833 0.041864
vt 0.395833 0.020932
vt 0.416667 0.062796
vt 0.395833 0.083729
vt 0.395833 0.062796
vt 0.416667 0.729068
vt 0.395833 0.750000
vt 0.395833 0.729068
vt 0.416667 0.937500
vt 0.395833 1.000000
vt 0.395833 0.937500
vt 0.375000 1.000000
vt 0.375000 0.937500
vt 0.375000 0.750000
vt 0.375000 0.083729
vt 0.375000 0.062796
vt 0.375000 0.041864
vt 0.375000 0.020932
vt 0.375000 0.708136
vt 0.438121 0.687203
vt 0.416667 0.708136
vt 0.438121 0.020932
vt 0.416667 0.041864
vt 0.438121 0.062796
vt 0.416667 0.083729
vt 0.438121 0.729068
vt 0.416667 0.750000
vt 0.416667 1.000000
vt 0.438121 0.708136
vt 0.438121 0.000000
vt 0.416667 0.000000
vt 0.395833 0.000000
vt 0.375000 0.000000
vt 0.458333 0.708136
vt 0.438121 0.041864
vt 0.438121 0.666271
vt 0.416667 0.670396
vt 0.433911 0.666271
vt 0.458333 0.041864
vt 0.394310 0.085252
vt 0.375000 0.084865
vt 0.414332 0.086064
vt 0.395833 0.085216
vt 0.250000 0.666271
vt 0.187500 0.687204
vt 0.187500 0.666271
vt 0.250000 0.708136
vt 0.187500 0.729068
vt 0.187500 0.708136
vt 0.438121 0.812500
vt 0.416667 0.875000
vt 0.416667 0.812500
vt 0.395833 0.812500
vt 0.375000 0.875000
vt 0.375000 0.812500
vt 0.395833 0.875000
vt 0.250000 0.687204
vt 0.250000 0.729068
vt 0.187500 0.750000
vt 0.125000 0.750000
vt 0.125000 0.729068
vt 0.125000 0.687204
vt 0.125000 0.708136
vt 0.125000 0.666271
vt 0.438121 0.875000
vt 0.458333 0.875000
vt 0.458333 0.750000
vt 0.438121 0.750000
vt 0.312500 0.666271
vt 0.250000 0.750000
vt 0.458333 0.968612
vt 0.454757 1.000000
vt 0.438121 0.081289
vt 0.428968 0.083729
vt 0.458333 0.720981
vt 0.456688 0.729068
vt 0.455313 0.062796
vt 0.416667 0.086621
vt 0.458333 0.776796
vt 0.454260 0.812500
vt 0.395137 0.666971
vt 0.395833 0.666953
vt 0.413389 0.669565
vt 0.366290 0.669188
vt 0.375000 0.669018
vt 0.455068 0.669653
vt 0.455550 0.687204
vt 0.461512 0.937500
vt 0.460691 0.875000
vt 0.461189 0.928932
vt 0.458333 0.737365
vt 0.461094 0.747226
vt 0.458333 0.697009
vt 0.461270 0.705185
vt 0.461017 0.750000
vt 0.187500 0.663423
vt 0.194154 0.664053
vt 0.250000 0.665007
vt 0.254221 0.664864
vt 0.461579 0.708136
vt 0.456612 0.730850
vt 0.454757 0.000000
vt 0.455188 0.003257
vt 0.455549 0.065680
vt 0.455361 0.083729
vt 0.439996 0.081788
vt 0.439173 0.665187
vt 0.455881 0.664776
vt 0.455751 0.666271
vt 0.457061 0.022249
vt 0.456051 0.689568
vt 0.461515 0.865455
vt 0.454618 0.823990
vt 0.458333 0.848396
vt 0.129261 0.664851
vt 0.438121 0.665355
vt 0.457143 0.020932
vt 0.125000 0.665135
s 0
f 25/1/1 58/2/1 64/3/1
f 49/4/2 19/5/2 54/6/2
f 32/7/3 60/8/3 65/9/3
f 34/10/4 17/11/4 37/12/4
f 26/13/5 16/14/5 29/15/5
f 35/16/6 15/17/6 36/18/6
f 27/19/7 14/20/7 28/21/7
f 52/22/8 18/23/8 53/24/8
f 53/24/9 1/25/9 57/26/9
f 28/21/10 2/27/10 25/1/10
f 36/18/11 4/28/11 33/29/11
f 29/15/12 5/30/12 24/31/12
f 37/12/13 7/32/13 32/7/13
f 38/33/14 13/34/14 34/10/14
f 30/35/15 12/36/15 26/13/15
f 39/37/16 11/38/16 35/16/16
f 31/39/17 9/40/17 27/19/17
f 54/6/18 10/41/18 52/22/18
f 23/42/19 27/19/19 13/34/19
f 19/43/20 26/13/20 10/44/20
f 18/45/21 24/31/21 1/46/21
f 17/11/22 25/1/22 7/32/22
f 13/34/23 28/21/23 17/11/23
f 10/44/24 29/15/24 18/45/24
f 6/47/25 31/39/25 23/42/25
f 7/32/26 64/3/26 60/8/26
f 22/48/27 35/16/27 12/36/27
f 21/49/28 34/10/28 96/50/28 110/51/28
f 16/14/29 33/29/29 5/30/29
f 12/36/30 36/18/30 16/14/30
f 8/52/31 39/37/31 22/48/31
f 15/17/32 87/53/32 103/54/32 4/28/32
f 11/38/33 88/55/33 115/56/33 15/17/33
f 42/57/34 56/58/34 50/59/34
f 43/60/35 55/61/35 51/62/35
f 63/63/36 44/64/36 61/65/36
f 62/66/37 40/67/37 58/68/37
f 61/65/38 45/69/38 62/66/38
f 48/70/39 51/62/39 56/58/39
f 47/71/40 57/72/40 55/61/40
f 55/61/41 1/73/41 24/74/41
f 33/75/42 51/62/42 5/76/42
f 5/76/43 55/61/43 24/74/43
f 50/59/44 33/75/44 4/77/44
f 46/78/45 52/22/45 44/64/45
f 45/69/46 57/26/46 40/67/46
f 44/64/47 53/24/47 45/69/47
f 41/79/48 54/6/48 46/78/48
f 3/80/49 63/63/49 20/81/49
f 9/40/50 62/66/50 14/20/50
f 14/20/51 58/68/51 2/27/51
f 20/81/52 61/65/52 9/40/52
f 59/82/53 48/70/53 42/57/53
f 60/8/54 47/71/54 43/60/54
f 65/9/55 43/60/55 48/70/55
f 64/3/56 40/83/56 47/71/56
f 25/1/57 2/27/57 58/2/57
f 49/4/58 100/84/58 95/85/58 19/5/58
f 32/7/59 7/32/59 60/8/59
f 34/10/60 13/34/60 17/11/60
f 26/13/61 12/36/61 16/14/61
f 35/16/62 11/38/62 15/17/62
f 27/19/63 9/40/63 14/20/63
f 52/22/64 10/41/64 18/23/64
f 53/24/65 18/23/65 1/25/65
f 28/21/66 14/20/66 2/27/66
f 36/18/67 15/17/67 4/28/67
f 29/15/68 16/14/68 5/30/68
f 37/12/69 17/11/69 7/32/69
f 38/33/70 23/42/70 13/34/70
f 30/35/71 22/48/71 12/36/71
f 39/37/72 107/86/72 86/87/72 11/38/72
f 31/39/73 20/81/73 9/40/73
f 54/6/74 19/5/74 10/41/74
f 23/42/75 31/39/75 27/19/75
f 19/43/76 30/35/76 26/13/76
f 18/45/77 29/15/77 24/31/77
f 17/11/78 28/21/78 25/1/78
f 13/34/79 27/19/79 28/21/79
f 10/44/80 26/13/80 29/15/80
f 6/47/81 82/88/81 92/89/81 31/39/81
f 7/32/82 25/1/82 64/3/82
f 22/48/83 39/37/83 35/16/83
f 21/49/84 38/33/84 34/10/84
f 16/14/85 36/18/85 33/29/85
f 12/36/86 35/16/86 36/18/86
f 8/52/87 109/90/87 39/37/87
f 15/17/88 115/56/88 87/53/88
f 11/38/89 113/91/89 88/55/89
f 42/57/90 48/70/90 56/58/90
f 43/60/91 47/71/91 55/61/91
f 63/63/92 46/78/92 44/64/92
f 62/66/93 45/69/93 40/67/93
f 61/65/94 44/64/94 45/69/94
f 48/70/95 43/60/95 51/62/95
f 47/71/96 40/83/96 57/72/96
f 55/61/97 57/72/97 1/73/97
f 33/75/98 56/58/98 51/62/98
f 5/76/99 51/62/99 55/61/99
f 50/59/100 56/58/100 33/75/100
f 46/78/101 54/6/101 52/22/101
f 45/69/102 53/24/102 57/26/102
f 44/64/103 52/22/103 53/24/103
f 41/79/104 49/4/104 54/6/104
f 3/80/105 116/92/105 69/93/105 63/63/105
f 9/40/106 61/65/106 62/66/106
f 14/20/107 62/66/107 58/68/107
f 20/81/108 63/63/108 61/65/108
f 59/82/109 65/9/109 48/70/109
f 60/8/110 64/3/110 47/71/110
f 65/9/111 60/8/111 43/60/111
f 64/3/112 58/2/112 40/83/112
f 78/94/113 97/95/113 37/12/113 32/7/113
f 79/96/114 96/50/114 34/10/114 37/12/114
f 83/97/115 105/98/115 32/7/115 65/9/115
f 84/99/116 108/100/116 38/33/116
f 104/101/117 100/84/117 49/4/117
f 73/102/118 76/103/118 49/4/118 41/79/118
f 101/104/119 111/105/119 3/80/119
f 66/106/120 114/107/120 6/47/120
f 98/108/121 116/92/121 3/80/121
f 94/109/122 70/110/122 50/59/122
f 75/111/123 93/112/123 42/57/123
f 68/113/124 82/88/124 6/47/124
f 77/114/125 101/104/125 3/80/125 20/81/125
f 95/115/126 74/116/126 30/35/126 19/43/126
f 81/117/127 99/118/127 80/119/127
f 85/120/128 117/121/128 102/122/128 21/49/128
f 105/98/129 78/94/129 32/7/129
f 97/95/130 79/96/130 37/12/130
f 59/82/131 83/97/131 65/9/131
f 102/122/132 84/99/132 38/33/132 21/49/132
f 89/123/133 8/52/133 22/48/133
f 90/124/134 66/106/134 6/47/134 23/42/134
f 86/87/135 113/91/135 11/38/135
f 67/125/136 73/102/136 41/79/136
f 70/110/137 75/111/137 42/57/137 50/59/137
f 71/126/138 112/127/138 41/79/138 46/78/138
f 72/128/139 94/109/139 50/59/139 4/77/139
f 92/89/140 77/114/140 20/81/140 31/39/140
f 110/51/141 106/129/141 21/49/141
f 109/90/142 81/117/142 80/119/142 107/86/142 39/37/142
f 106/129/143 85/120/143 21/49/143
f 76/103/144 104/101/144 49/4/144
f 111/105/145 98/108/145 3/80/145
f 91/130/146 89/123/146 22/48/146 30/35/146
f 108/100/147 90/124/147 23/42/147 38/33/147
f 114/107/148 68/113/148 6/47/148
f 112/127/149 67/125/149 41/79/149
f 93/112/150 59/82/150 42/57/150
f 69/93/151 71/126/151 46/78/151 63/63/151
f 74/116/152 91/130/152 30/35/152
f 103/131/153 72/128/153 4/77/153
f 78/94/154 105/98/154 83/97/154 59/82/154 93/112/154 75/111/154 70/110/154 94/109/154 72/128/154 103/131/154 87/53/154 115/56/154 88/55/154 113/91/154 86/87/154 107/86/154 80/119/154 99/118/154 117/121/154 85/120/154 106/129/154 110/51/154 96/50/154 79/96/154 97/95/154
f 108/100/155 84/99/155 102/122/155 117/121/155 99/118/155 81/117/155 109/90/155 8/52/155 89/123/155 91/130/155 74/116/155 95/85/155 100/84/155 104/101/155 76/103/155 73/102/155 67/125/155 112/127/155 71/126/155 69/93/155 116/92/155 98/108/155 111/105/155 101/104/155 77/114/155 92/89/155 82/88/155 68/113/155 114/107/155 66/106/155 90/124/155
