# Blender 4.4.0
# www.blender.org
mtllib laser.mtl
o 平面
v -0.707107 0.707107 1.000000
v 0.707107 -0.707107 1.000000
v -0.707107 0.707107 -1.000000
v 0.707107 -0.707107 -1.000000
vn 0.7071 0.7071 -0.0000
vt 1.000000 0.000000
vt 0.000000 1.000000
vt 0.000000 0.000000
vt 1.000000 1.000000
s 1
usemtl マテリアル.003
f 2/1/1 3/2/1 1/3/1
f 2/1/1 4/4/1 3/2/1
o 平面.001
v -0.707107 -0.707107 -1.000000
v 0.707107 0.707107 -1.000000
v -0.707107 -0.707107 1.000000
v 0.707107 0.707107 1.000000
vn 0.7071 -0.7071 -0.0000
vt 1.000000 0.000000
vt 0.000000 1.000000
vt 0.000000 0.000000
vt 1.000000 1.000000
s 1
usemtl マテリアル.002
f 6/5/2 7/6/2 5/7/2
f 6/5/2 8/8/2 7/6/2
