{
	"asset":{
		"generator":"Khronos glTF Blender I/O v5.2.40",
		"version":"2.0"
	},
	"scene":0,
	"scenes":[
		{
			"name":"Scene",
			"nodes":[
				20
			]
		}
	],
	"nodes":[
		{
			"name":"\u30dc\u30fc\u30f3.004",
			"rotation":[
				0,
				0,
				-4.656612873077393e-10,
				1
			],
			"scale":[
				1,
				1,
				0.9999999403953552
			],
			"translation":[
				8.149072527885437e-10,
				0.9616319537162781,
				4.76837158203125e-07
			]
		},
		{
			"children":[
				0
			],
			"name":"\u30dc\u30fc\u30f3.003",
			"rotation":[
				0,
				0,
				-4.656612873077393e-10,
				1
			],
			"scale":[
				1,
				1,
				0.9999999403953552
			],
			"translation":[
				1.979060471057892e-09,
				1.5240956544876099,
				4.76837158203125e-07
			]
		},
		{
			"children":[
				1
			],
			"name":"\u30dc\u30fc\u30f3.002",
			"rotation":[
				-0.7071067690849304,
				-3.29272248356105e-10,
				-3.29272248356105e-10,
				0.7071067690849304
			],
			"scale":[
				1,
				1,
				0.9999999403953552
			],
			"translation":[
				0,
				1.022270679473877,
				1.4901161193847656e-08
			]
		},
		{
			"name":"\u30dc\u30fc\u30f3.008",
			"rotation":[
				-3.0878286594315796e-08,
				2.907958851494641e-08,
				-0.6982084512710571,
				0.7158945202827454
			],
			"translation":[
				-8.686669161761529e-09,
				1.179917812347412,
				-4.697650979323953e-07
			]
		},
		{
			"children":[
				3
			],
			"name":"\u30dc\u30fc\u30f3.007",
			"rotation":[
				-1.7902710425232726e-09,
				1.2815960515055735e-09,
				-0.015379157848656178,
				0.9998817443847656
			],
			"scale":[
				0.9999999403953552,
				0.9999999403953552,
				1
			],
			"translation":[
				2.256399511679774e-09,
				1.215647578239441,
				-4.79552909382619e-07
			]
		},
		{
			"children":[
				4
			],
			"name":"\u30dc\u30fc\u30f3.006",
			"rotation":[
				0.006409825757145882,
				-4.372124351448292e-08,
				-2.8018415365593796e-10,
				0.9999794960021973
			],
			"scale":[
				1,
				1,
				0.9999999403953552
			],
			"translation":[
				7.010162589304869e-11,
				1.4153480529785156,
				3.471072886895854e-07
			]
		},
		{
			"children":[
				5
			],
			"name":"\u30dc\u30fc\u30f3.005",
			"rotation":[
				0.7025598883628845,
				-3.271818094230383e-10,
				3.2718169840073585e-10,
				0.7116246819496155
			],
			"scale":[
				1,
				0.9999998807907104,
				0.9999998807907104
			],
			"translation":[
				0,
				1.022270679473877,
				1.4901161193847656e-08
			]
		},
		{
			"name":"\u30dc\u30fc\u30f3.009",
			"rotation":[
				0,
				1.1827796697616577e-07,
				0,
				1
			],
			"scale":[
				1,
				0.9999998807907104,
				1
			],
			"translation":[
				0,
				1.022270679473877,
				1.4901161193847656e-08
			]
		},
		{
			"children":[
				2,
				6,
				7
			],
			"name":"\u30dc\u30fc\u30f3.001",
			"rotation":[
				0,
				-4.656612873077393e-10,
				0,
				1
			],
			"scale":[
				1,
				0.9999999403953552,
				1
			],
			"translation":[
				0,
				1,
				1.4901161193847656e-08
			]
		},
		{
			"name":"\u30dc\u30fc\u30f3.015",
			"rotation":[
				0.008473665453493595,
				2.3283902583770555e-10,
				-3.638152279439311e-12,
				0.9999641180038452
			],
			"scale":[
				1,
				0.9999998807907104,
				0.9999998807907104
			],
			"translation":[
				5.820763315789179e-10,
				1.0450941324234009,
				-5.4424162954092026e-09
			]
		},
		{
			"children":[
				9
			],
			"name":"\u30dc\u30fc\u30f3.013",
			"rotation":[
				-0.38268348574638367,
				-2.52014020762914e-10,
				1.0257122313718798e-16,
				0.9238795042037964
			],
			"scale":[
				1,
				0.9999998211860657,
				1
			],
			"translation":[
				9.313225746154785e-10,
				1.0161157846450806,
				1.855150912888348e-07
			]
		},
		{
			"children":[
				10
			],
			"name":"\u30dc\u30fc\u30f3.010",
			"rotation":[
				-0.9238795042037964,
				-2.5201407627406525e-10,
				-5.040281525481305e-10,
				0.3826834559440613
			],
			"scale":[
				1,
				0.9999999403953552,
				0.9999998807907104
			],
			"translation":[
				0,
				0,
				1.4901161193847656e-08
			]
		},
		{
			"name":"\u30dc\u30fc\u30f3.014",
			"rotation":[
				-0.007960102520883083,
				-2.3281564176524938e-10,
				-3.0912021831142056e-09,
				0.9999683499336243
			],
			"scale":[
				1.0000001192092896,
				0.9999999403953552,
				1.0000001192092896
			],
			"translation":[
				1.2124896642262684e-09,
				1.0453208684921265,
				1.1597876437008381e-07
			]
		},
		{
			"children":[
				12
			],
			"name":"\u30dc\u30fc\u30f3.012",
			"rotation":[
				-0.3730405867099762,
				2.3070438788519443e-12,
				-1.4525465985570918e-07,
				0.9278150200843811
			],
			"scale":[
				1,
				0.9999998807907104,
				0.9999999403953552
			],
			"translation":[
				1.0193730304308701e-09,
				0.9853245615959167,
				6.219488568603992e-08
			]
		},
		{
			"children":[
				13
			],
			"name":"\u30dc\u30fc\u30f3.011",
			"rotation":[
				1.8044204352918314e-07,
				-0.3826836049556732,
				-0.9238795042037964,
				7.425920500736538e-08
			],
			"scale":[
				1,
				1.0000001192092896,
				1.0000003576278687
			],
			"translation":[
				0,
				0,
				1.4901161193847656e-08
			]
		},
		{
			"children":[
				8,
				11,
				14
			],
			"name":"\u30dc\u30fc\u30f3",
			"rotation":[
				0,
				-4.656612873077393e-10,
				0,
				1
			],
			"scale":[
				1,
				0.9999999403953552,
				1
			],
			"translation":[
				0,
				0,
				1.4901161193847656e-08
			]
		},
		{
			"mesh":0,
			"name":"belt",
			"skin":0
		},
		{
			"mesh":1,
			"name":"body",
			"skin":0
		},
		{
			"mesh":2,
			"name":"head",
			"skin":0
		},
		{
			"mesh":3,
			"name":"hunmer",
			"skin":0
		},
		{
			"children":[
				16,
				17,
				18,
				19,
				15
			],
			"name":"\u30a2\u30fc\u30de\u30c1\u30e5\u30a2",
			"rotation":[
				0,
				-0.7114447951316833,
				0,
				0.7027419805526733
			],
			"scale":[
				0.7234350442886353,
				0.7234350442886353,
				0.7234350442886353
			],
			"translation":[
				-0.09570612013339996,
				2.171738862991333,
				0
			]
		}
	],
	"animations":[
		{
			"channels":[
				{
					"sampler":0,
					"target":{
						"node":15,
						"path":"translation"
					}
				},
				{
					"sampler":1,
					"target":{
						"node":15,
						"path":"rotation"
					}
				},
				{
					"sampler":2,
					"target":{
						"node":15,
						"path":"scale"
					}
				},
				{
					"sampler":3,
					"target":{
						"node":8,
						"path":"translation"
					}
				},
				{
					"sampler":4,
					"target":{
						"node":8,
						"path":"rotation"
					}
				},
				{
					"sampler":5,
					"target":{
						"node":8,
						"path":"scale"
					}
				},
				{
					"sampler":6,
					"target":{
						"node":2,
						"path":"translation"
					}
				},
				{
					"sampler":7,
					"target":{
						"node":2,
						"path":"rotation"
					}
				},
				{
					"sampler":8,
					"target":{
						"node":2,
						"path":"scale"
					}
				},
				{
					"sampler":9,
					"target":{
						"node":1,
						"path":"translation"
					}
				},
				{
					"sampler":10,
					"target":{
						"node":1,
						"path":"rotation"
					}
				},
				{
					"sampler":11,
					"target":{
						"node":1,
						"path":"scale"
					}
				},
				{
					"sampler":12,
					"target":{
						"node":0,
						"path":"translation"
					}
				},
				{
					"sampler":13,
					"target":{
						"node":0,
						"path":"rotation"
					}
				},
				{
					"sampler":14,
					"target":{
						"node":0,
						"path":"scale"
					}
				},
				{
					"sampler":15,
					"target":{
						"node":6,
						"path":"translation"
					}
				},
				{
					"sampler":16,
					"target":{
						"node":6,
						"path":"rotation"
					}
				},
				{
					"sampler":17,
					"target":{
						"node":6,
						"path":"scale"
					}
				},
				{
					"sampler":18,
					"target":{
						"node":5,
						"path":"translation"
					}
				},
				{
					"sampler":19,
					"target":{
						"node":5,
						"path":"rotation"
					}
				},
				{
					"sampler":20,
					"target":{
						"node":5,
						"path":"scale"
					}
				},
				{
					"sampler":21,
					"target":{
						"node":4,
						"path":"translation"
					}
				},
				{
					"sampler":22,
					"target":{
						"node":4,
						"path":"rotation"
					}
				},
				{
					"sampler":23,
					"target":{
						"node":4,
						"path":"scale"
					}
				},
				{
					"sampler":24,
					"target":{
						"node":3,
						"path":"translation"
					}
				},
				{
					"sampler":25,
					"target":{
						"node":3,
						"path":"rotation"
					}
				},
				{
					"sampler":26,
					"target":{
						"node":3,
						"path":"scale"
					}
				},
				{
					"sampler":27,
					"target":{
						"node":7,
						"path":"translation"
					}
				},
				{
					"sampler":28,
					"target":{
						"node":7,
						"path":"rotation"
					}
				},
				{
					"sampler":29,
					"target":{
						"node":7,
						"path":"scale"
					}
				},
				{
					"sampler":30,
					"target":{
						"node":11,
						"path":"translation"
					}
				},
				{
					"sampler":31,
					"target":{
						"node":11,
						"path":"rotation"
					}
				},
				{
					"sampler":32,
					"target":{
						"node":11,
						"path":"scale"
					}
				},
				{
					"sampler":33,
					"target":{
						"node":10,
						"path":"translation"
					}
				},
				{
					"sampler":34,
					"target":{
						"node":10,
						"path":"rotation"
					}
				},
				{
					"sampler":35,
					"target":{
						"node":10,
						"path":"scale"
					}
				},
				{
					"sampler":36,
					"target":{
						"node":9,
						"path":"translation"
					}
				},
				{
					"sampler":37,
					"target":{
						"node":9,
						"path":"rotation"
					}
				},
				{
					"sampler":38,
					"target":{
						"node":9,
						"path":"scale"
					}
				},
				{
					"sampler":39,
					"target":{
						"node":14,
						"path":"translation"
					}
				},
				{
					"sampler":40,
					"target":{
						"node":14,
						"path":"rotation"
					}
				},
				{
					"sampler":41,
					"target":{
						"node":14,
						"path":"scale"
					}
				},
				{
					"sampler":42,
					"target":{
						"node":13,
						"path":"translation"
					}
				},
				{
					"sampler":43,
					"target":{
						"node":13,
						"path":"rotation"
					}
				},
				{
					"sampler":44,
					"target":{
						"node":13,
						"path":"scale"
					}
				},
				{
					"sampler":45,
					"target":{
						"node":12,
						"path":"translation"
					}
				},
				{
					"sampler":46,
					"target":{
						"node":12,
						"path":"rotation"
					}
				},
				{
					"sampler":47,
					"target":{
						"node":12,
						"path":"scale"
					}
				}
			],
			"name":"damage",
			"samplers":[
				{
					"input":25,
					"interpolation":"STEP",
					"output":26
				},
				{
					"input":27,
					"interpolation":"LINEAR",
					"output":28
				},
				{
					"input":25,
					"interpolation":"STEP",
					"output":29
				},
				{
					"input":25,
					"interpolation":"STEP",
					"output":30
				},
				{
					"input":27,
					"interpolation":"LINEAR",
					"output":31
				},
				{
					"input":25,
					"interpolation":"STEP",
					"output":29
				},
				{
					"input":25,
					"interpolation":"STEP",
					"output":32
				},
				{
					"input":25,
					"interpolation":"STEP",
					"output":33
				},
				{
					"input":25,
					"interpolation":"STEP",
					"output":29
				},
				{
					"input":25,
					"interpolation":"STEP",
					"output":34
				},
				{
					"input":27,
					"interpolation":"LINEAR",
					"output":35
				},
				{
					"input":25,
					"interpolation":"STEP",
					"output":36
				},
				{
					"input":25,
					"interpolation":"STEP",
					"output":37
				},
				{
					"input":25,
					"interpolation":"STEP",
					"output":38
				},
				{
					"input":25,
					"interpolation":"STEP",
					"output":29
				},
				{
					"input":25,
					"interpolation":"STEP",
					"output":39
				},
				{
					"input":25,
					"interpolation":"STEP",
					"output":40
				},
				{
					"input":25,
					"interpolation":"STEP",
					"output":41
				},
				{
					"input":25,
					"interpolation":"STEP",
					"output":42
				},
				{
					"input":27,
					"interpolation":"LINEAR",
					"output":43
				},
				{
					"input":25,
					"interpolation":"STEP",
					"output":44
				},
				{
					"input":25,
					"interpolation":"STEP",
					"output":45
				},
				{
					"input":25,
					"interpolation":"STEP",
					"output":46
				},
				{
					"input":25,
					"interpolation":"STEP",
					"output":47
				},
				{
					"input":25,
					"interpolation":"STEP",
					"output":48
				},
				{
					"input":25,
					"interpolation":"STEP",
					"output":49
				},
				{
					"input":25,
					"interpolation":"STEP",
					"output":29
				},
				{
					"input":25,
					"interpolation":"STEP",
					"output":32
				},
				{
					"input":27,
					"interpolation":"LINEAR",
					"output":50
				},
				{
					"input":25,
					"interpolation":"STEP",
					"output":51
				},
				{
					"input":25,
					"interpolation":"STEP",
					"output":52
				},
				{
					"input":27,
					"interpolation":"LINEAR",
					"output":53
				},
				{
					"input":25,
					"interpolation":"STEP",
					"output":54
				},
				{
					"input":25,
					"interpolation":"STEP",
					"output":55
				},
				{
					"input":27,
					"interpolation":"LINEAR",
					"output":56
				},
				{
					"input":25,
					"interpolation":"STEP",
					"output":51
				},
				{
					"input":25,
					"interpolation":"STEP",
					"output":57
				},
				{
					"input":25,
					"interpolation":"STEP",
					"output":58
				},
				{
					"input":25,
					"interpolation":"STEP",
					"output":51
				},
				{
					"input":25,
					"interpolation":"STEP",
					"output":59
				},
				{
					"input":27,
					"interpolation":"LINEAR",
					"output":60
				},
				{
					"input":25,
					"interpolation":"STEP",
					"output":61
				},
				{
					"input":25,
					"interpolation":"STEP",
					"output":62
				},
				{
					"input":25,
					"interpolation":"STEP",
					"output":63
				},
				{
					"input":25,
					"interpolation":"STEP",
					"output":51
				},
				{
					"input":25,
					"interpolation":"STEP",
					"output":64
				},
				{
					"input":25,
					"interpolation":"STEP",
					"output":65
				},
				{
					"input":25,
					"interpolation":"STEP",
					"output":51
				}
			]
		},
		{
			"channels":[
				{
					"sampler":0,
					"target":{
						"node":15,
						"path":"translation"
					}
				},
				{
					"sampler":1,
					"target":{
						"node":15,
						"path":"rotation"
					}
				},
				{
					"sampler":2,
					"target":{
						"node":15,
						"path":"scale"
					}
				},
				{
					"sampler":3,
					"target":{
						"node":8,
						"path":"translation"
					}
				},
				{
					"sampler":4,
					"target":{
						"node":8,
						"path":"rotation"
					}
				},
				{
					"sampler":5,
					"target":{
						"node":8,
						"path":"scale"
					}
				},
				{
					"sampler":6,
					"target":{
						"node":2,
						"path":"translation"
					}
				},
				{
					"sampler":7,
					"target":{
						"node":2,
						"path":"rotation"
					}
				},
				{
					"sampler":8,
					"target":{
						"node":2,
						"path":"scale"
					}
				},
				{
					"sampler":9,
					"target":{
						"node":1,
						"path":"translation"
					}
				},
				{
					"sampler":10,
					"target":{
						"node":1,
						"path":"rotation"
					}
				},
				{
					"sampler":11,
					"target":{
						"node":1,
						"path":"scale"
					}
				},
				{
					"sampler":12,
					"target":{
						"node":0,
						"path":"translation"
					}
				},
				{
					"sampler":13,
					"target":{
						"node":0,
						"path":"rotation"
					}
				},
				{
					"sampler":14,
					"target":{
						"node":0,
						"path":"scale"
					}
				},
				{
					"sampler":15,
					"target":{
						"node":6,
						"path":"translation"
					}
				},
				{
					"sampler":16,
					"target":{
						"node":6,
						"path":"rotation"
					}
				},
				{
					"sampler":17,
					"target":{
						"node":6,
						"path":"scale"
					}
				},
				{
					"sampler":18,
					"target":{
						"node":5,
						"path":"translation"
					}
				},
				{
					"sampler":19,
					"target":{
						"node":5,
						"path":"rotation"
					}
				},
				{
					"sampler":20,
					"target":{
						"node":5,
						"path":"scale"
					}
				},
				{
					"sampler":21,
					"target":{
						"node":4,
						"path":"translation"
					}
				},
				{
					"sampler":22,
					"target":{
						"node":4,
						"path":"rotation"
					}
				},
				{
					"sampler":23,
					"target":{
						"node":4,
						"path":"scale"
					}
				},
				{
					"sampler":24,
					"target":{
						"node":3,
						"path":"translation"
					}
				},
				{
					"sampler":25,
					"target":{
						"node":3,
						"path":"rotation"
					}
				},
				{
					"sampler":26,
					"target":{
						"node":3,
						"path":"scale"
					}
				},
				{
					"sampler":27,
					"target":{
						"node":7,
						"path":"translation"
					}
				},
				{
					"sampler":28,
					"target":{
						"node":7,
						"path":"rotation"
					}
				},
				{
					"sampler":29,
					"target":{
						"node":7,
						"path":"scale"
					}
				},
				{
					"sampler":30,
					"target":{
						"node":11,
						"path":"translation"
					}
				},
				{
					"sampler":31,
					"target":{
						"node":11,
						"path":"rotation"
					}
				},
				{
					"sampler":32,
					"target":{
						"node":11,
						"path":"scale"
					}
				},
				{
					"sampler":33,
					"target":{
						"node":10,
						"path":"translation"
					}
				},
				{
					"sampler":34,
					"target":{
						"node":10,
						"path":"rotation"
					}
				},
				{
					"sampler":35,
					"target":{
						"node":10,
						"path":"scale"
					}
				},
				{
					"sampler":36,
					"target":{
						"node":9,
						"path":"translation"
					}
				},
				{
					"sampler":37,
					"target":{
						"node":9,
						"path":"rotation"
					}
				},
				{
					"sampler":38,
					"target":{
						"node":9,
						"path":"scale"
					}
				},
				{
					"sampler":39,
					"target":{
						"node":14,
						"path":"translation"
					}
				},
				{
					"sampler":40,
					"target":{
						"node":14,
						"path":"rotation"
					}
				},
				{
					"sampler":41,
					"target":{
						"node":14,
						"path":"scale"
					}
				},
				{
					"sampler":42,
					"target":{
						"node":13,
						"path":"translation"
					}
				},
				{
					"sampler":43,
					"target":{
						"node":13,
						"path":"rotation"
					}
				},
				{
					"sampler":44,
					"target":{
						"node":13,
						"path":"scale"
					}
				},
				{
					"sampler":45,
					"target":{
						"node":12,
						"path":"translation"
					}
				},
				{
					"sampler":46,
					"target":{
						"node":12,
						"path":"rotation"
					}
				},
				{
					"sampler":47,
					"target":{
						"node":12,
						"path":"scale"
					}
				}
			],
			"name":"idle",
			"samplers":[
				{
					"input":66,
					"interpolation":"STEP",
					"output":26
				},
				{
					"input":66,
					"interpolation":"STEP",
					"output":67
				},
				{
					"input":66,
					"interpolation":"STEP",
					"output":29
				},
				{
					"input":66,
					"interpolation":"STEP",
					"output":30
				},
				{
					"input":68,
					"interpolation":"LINEAR",
					"output":69
				},
				{
					"input":66,
					"interpolation":"STEP",
					"output":29
				},
				{
					"input":66,
					"interpolation":"STEP",
					"output":32
				},
				{
					"input":66,
					"interpolation":"STEP",
					"output":33
				},
				{
					"input":66,
					"interpolation":"STEP",
					"output":29
				},
				{
					"input":66,
					"interpolation":"STEP",
					"output":34
				},
				{
					"input":68,
					"interpolation":"LINEAR",
					"output":70
				},
				{
					"input":66,
					"interpolation":"STEP",
					"output":36
				},
				{
					"input":66,
					"interpolation":"STEP",
					"output":37
				},
				{
					"input":66,
					"interpolation":"STEP",
					"output":38
				},
				{
					"input":66,
					"interpolation":"STEP",
					"output":29
				},
				{
					"input":66,
					"interpolation":"STEP",
					"output":39
				},
				{
					"input":66,
					"interpolation":"STEP",
					"output":40
				},
				{
					"input":66,
					"interpolation":"STEP",
					"output":41
				},
				{
					"input":66,
					"interpolation":"STEP",
					"output":42
				},
				{
					"input":68,
					"interpolation":"LINEAR",
					"output":71
				},
				{
					"input":66,
					"interpolation":"STEP",
					"output":44
				},
				{
					"input":66,
					"interpolation":"STEP",
					"output":45
				},
				{
					"input":66,
					"interpolation":"STEP",
					"output":46
				},
				{
					"input":66,
					"interpolation":"STEP",
					"output":47
				},
				{
					"input":66,
					"interpolation":"STEP",
					"output":48
				},
				{
					"input":66,
					"interpolation":"STEP",
					"output":49
				},
				{
					"input":66,
					"interpolation":"STEP",
					"output":29
				},
				{
					"input":66,
					"interpolation":"STEP",
					"output":32
				},
				{
					"input":66,
					"interpolation":"STEP",
					"output":72
				},
				{
					"input":66,
					"interpolation":"STEP",
					"output":51
				},
				{
					"input":66,
					"interpolation":"STEP",
					"output":52
				},
				{
					"input":66,
					"interpolation":"STEP",
					"output":73
				},
				{
					"input":66,
					"interpolation":"STEP",
					"output":54
				},
				{
					"input":66,
					"interpolation":"STEP",
					"output":55
				},
				{
					"input":66,
					"interpolation":"STEP",
					"output":74
				},
				{
					"input":66,
					"interpolation":"STEP",
					"output":51
				},
				{
					"input":66,
					"interpolation":"STEP",
					"output":57
				},
				{
					"input":66,
					"interpolation":"STEP",
					"output":58
				},
				{
					"input":66,
					"interpolation":"STEP",
					"output":51
				},
				{
					"input":66,
					"interpolation":"STEP",
					"output":59
				},
				{
					"input":66,
					"interpolation":"STEP",
					"output":75
				},
				{
					"input":66,
					"interpolation":"STEP",
					"output":61
				},
				{
					"input":66,
					"interpolation":"STEP",
					"output":62
				},
				{
					"input":66,
					"interpolation":"STEP",
					"output":63
				},
				{
					"input":66,
					"interpolation":"STEP",
					"output":51
				},
				{
					"input":66,
					"interpolation":"STEP",
					"output":64
				},
				{
					"input":66,
					"interpolation":"STEP",
					"output":65
				},
				{
					"input":66,
					"interpolation":"STEP",
					"output":51
				}
			]
		},
		{
			"channels":[
				{
					"sampler":0,
					"target":{
						"node":15,
						"path":"translation"
					}
				},
				{
					"sampler":1,
					"target":{
						"node":15,
						"path":"rotation"
					}
				},
				{
					"sampler":2,
					"target":{
						"node":15,
						"path":"scale"
					}
				},
				{
					"sampler":3,
					"target":{
						"node":8,
						"path":"translation"
					}
				},
				{
					"sampler":4,
					"target":{
						"node":8,
						"path":"rotation"
					}
				},
				{
					"sampler":5,
					"target":{
						"node":8,
						"path":"scale"
					}
				},
				{
					"sampler":6,
					"target":{
						"node":2,
						"path":"translation"
					}
				},
				{
					"sampler":7,
					"target":{
						"node":2,
						"path":"rotation"
					}
				},
				{
					"sampler":8,
					"target":{
						"node":2,
						"path":"scale"
					}
				},
				{
					"sampler":9,
					"target":{
						"node":1,
						"path":"translation"
					}
				},
				{
					"sampler":10,
					"target":{
						"node":1,
						"path":"rotation"
					}
				},
				{
					"sampler":11,
					"target":{
						"node":1,
						"path":"scale"
					}
				},
				{
					"sampler":12,
					"target":{
						"node":0,
						"path":"translation"
					}
				},
				{
					"sampler":13,
					"target":{
						"node":0,
						"path":"rotation"
					}
				},
				{
					"sampler":14,
					"target":{
						"node":0,
						"path":"scale"
					}
				},
				{
					"sampler":15,
					"target":{
						"node":6,
						"path":"translation"
					}
				},
				{
					"sampler":16,
					"target":{
						"node":6,
						"path":"rotation"
					}
				},
				{
					"sampler":17,
					"target":{
						"node":6,
						"path":"scale"
					}
				},
				{
					"sampler":18,
					"target":{
						"node":5,
						"path":"translation"
					}
				},
				{
					"sampler":19,
					"target":{
						"node":5,
						"path":"rotation"
					}
				},
				{
					"sampler":20,
					"target":{
						"node":5,
						"path":"scale"
					}
				},
				{
					"sampler":21,
					"target":{
						"node":4,
						"path":"translation"
					}
				},
				{
					"sampler":22,
					"target":{
						"node":4,
						"path":"rotation"
					}
				},
				{
					"sampler":23,
					"target":{
						"node":4,
						"path":"scale"
					}
				},
				{
					"sampler":24,
					"target":{
						"node":3,
						"path":"translation"
					}
				},
				{
					"sampler":25,
					"target":{
						"node":3,
						"path":"rotation"
					}
				},
				{
					"sampler":26,
					"target":{
						"node":3,
						"path":"scale"
					}
				},
				{
					"sampler":27,
					"target":{
						"node":7,
						"path":"translation"
					}
				},
				{
					"sampler":28,
					"target":{
						"node":7,
						"path":"rotation"
					}
				},
				{
					"sampler":29,
					"target":{
						"node":7,
						"path":"scale"
					}
				},
				{
					"sampler":30,
					"target":{
						"node":11,
						"path":"translation"
					}
				},
				{
					"sampler":31,
					"target":{
						"node":11,
						"path":"rotation"
					}
				},
				{
					"sampler":32,
					"target":{
						"node":11,
						"path":"scale"
					}
				},
				{
					"sampler":33,
					"target":{
						"node":10,
						"path":"translation"
					}
				},
				{
					"sampler":34,
					"target":{
						"node":10,
						"path":"rotation"
					}
				},
				{
					"sampler":35,
					"target":{
						"node":10,
						"path":"scale"
					}
				},
				{
					"sampler":36,
					"target":{
						"node":9,
						"path":"translation"
					}
				},
				{
					"sampler":37,
					"target":{
						"node":9,
						"path":"rotation"
					}
				},
				{
					"sampler":38,
					"target":{
						"node":9,
						"path":"scale"
					}
				},
				{
					"sampler":39,
					"target":{
						"node":14,
						"path":"translation"
					}
				},
				{
					"sampler":40,
					"target":{
						"node":14,
						"path":"rotation"
					}
				},
				{
					"sampler":41,
					"target":{
						"node":14,
						"path":"scale"
					}
				},
				{
					"sampler":42,
					"target":{
						"node":13,
						"path":"translation"
					}
				},
				{
					"sampler":43,
					"target":{
						"node":13,
						"path":"rotation"
					}
				},
				{
					"sampler":44,
					"target":{
						"node":13,
						"path":"scale"
					}
				},
				{
					"sampler":45,
					"target":{
						"node":12,
						"path":"translation"
					}
				},
				{
					"sampler":46,
					"target":{
						"node":12,
						"path":"rotation"
					}
				},
				{
					"sampler":47,
					"target":{
						"node":12,
						"path":"scale"
					}
				}
			],
			"name":"jump",
			"samplers":[
				{
					"input":25,
					"interpolation":"STEP",
					"output":26
				},
				{
					"input":25,
					"interpolation":"STEP",
					"output":67
				},
				{
					"input":25,
					"interpolation":"STEP",
					"output":29
				},
				{
					"input":25,
					"interpolation":"STEP",
					"output":30
				},
				{
					"input":27,
					"interpolation":"LINEAR",
					"output":76
				},
				{
					"input":25,
					"interpolation":"STEP",
					"output":77
				},
				{
					"input":25,
					"interpolation":"STEP",
					"output":78
				},
				{
					"input":27,
					"interpolation":"LINEAR",
					"output":79
				},
				{
					"input":25,
					"interpolation":"STEP",
					"output":29
				},
				{
					"input":25,
					"interpolation":"STEP",
					"output":80
				},
				{
					"input":27,
					"interpolation":"LINEAR",
					"output":81
				},
				{
					"input":25,
					"interpolation":"STEP",
					"output":77
				},
				{
					"input":25,
					"interpolation":"LINEAR",
					"output":82
				},
				{
					"input":25,
					"interpolation":"LINEAR",
					"output":83
				},
				{
					"input":25,
					"interpolation":"STEP",
					"output":29
				},
				{
					"input":25,
					"interpolation":"STEP",
					"output":84
				},
				{
					"input":27,
					"interpolation":"LINEAR",
					"output":85
				},
				{
					"input":25,
					"interpolation":"STEP",
					"output":41
				},
				{
					"input":25,
					"interpolation":"STEP",
					"output":86
				},
				{
					"input":27,
					"interpolation":"LINEAR",
					"output":87
				},
				{
					"input":25,
					"interpolation":"STEP",
					"output":88
				},
				{
					"input":25,
					"interpolation":"LINEAR",
					"output":89
				},
				{
					"input":25,
					"interpolation":"LINEAR",
					"output":90
				},
				{
					"input":25,
					"interpolation":"STEP",
					"output":29
				},
				{
					"input":25,
					"interpolation":"LINEAR",
					"output":91
				},
				{
					"input":25,
					"interpolation":"LINEAR",
					"output":92
				},
				{
					"input":25,
					"interpolation":"STEP",
					"output":93
				},
				{
					"input":25,
					"interpolation":"STEP",
					"output":94
				},
				{
					"input":25,
					"interpolation":"STEP",
					"output":95
				},
				{
					"input":25,
					"interpolation":"STEP",
					"output":29
				},
				{
					"input":25,
					"interpolation":"LINEAR",
					"output":96
				},
				{
					"input":27,
					"interpolation":"LINEAR",
					"output":97
				},
				{
					"input":25,
					"interpolation":"STEP",
					"output":54
				},
				{
					"input":25,
					"interpolation":"LINEAR",
					"output":98
				},
				{
					"input":27,
					"interpolation":"LINEAR",
					"output":99
				},
				{
					"input":25,
					"interpolation":"STEP",
					"output":100
				},
				{
					"input":25,
					"interpolation":"LINEAR",
					"output":101
				},
				{
					"input":27,
					"interpolation":"LINEAR",
					"output":102
				},
				{
					"input":25,
					"interpolation":"STEP",
					"output":103
				},
				{
					"input":25,
					"interpolation":"LINEAR",
					"output":104
				},
				{
					"input":27,
					"interpolation":"LINEAR",
					"output":105
				},
				{
					"input":25,
					"interpolation":"STEP",
					"output":61
				},
				{
					"input":25,
					"interpolation":"LINEAR",
					"output":106
				},
				{
					"input":27,
					"interpolation":"LINEAR",
					"output":107
				},
				{
					"input":25,
					"interpolation":"STEP",
					"output":108
				},
				{
					"input":25,
					"interpolation":"LINEAR",
					"output":109
				},
				{
					"input":27,
					"interpolation":"LINEAR",
					"output":110
				},
				{
					"input":25,
					"interpolation":"LINEAR",
					"output":111
				}
			]
		},
		{
			"channels":[
				{
					"sampler":0,
					"target":{
						"node":15,
						"path":"translation"
					}
				},
				{
					"sampler":1,
					"target":{
						"node":15,
						"path":"rotation"
					}
				},
				{
					"sampler":2,
					"target":{
						"node":15,
						"path":"scale"
					}
				},
				{
					"sampler":3,
					"target":{
						"node":8,
						"path":"translation"
					}
				},
				{
					"sampler":4,
					"target":{
						"node":8,
						"path":"rotation"
					}
				},
				{
					"sampler":5,
					"target":{
						"node":8,
						"path":"scale"
					}
				},
				{
					"sampler":6,
					"target":{
						"node":2,
						"path":"translation"
					}
				},
				{
					"sampler":7,
					"target":{
						"node":2,
						"path":"rotation"
					}
				},
				{
					"sampler":8,
					"target":{
						"node":2,
						"path":"scale"
					}
				},
				{
					"sampler":9,
					"target":{
						"node":1,
						"path":"translation"
					}
				},
				{
					"sampler":10,
					"target":{
						"node":1,
						"path":"rotation"
					}
				},
				{
					"sampler":11,
					"target":{
						"node":1,
						"path":"scale"
					}
				},
				{
					"sampler":12,
					"target":{
						"node":0,
						"path":"translation"
					}
				},
				{
					"sampler":13,
					"target":{
						"node":0,
						"path":"rotation"
					}
				},
				{
					"sampler":14,
					"target":{
						"node":0,
						"path":"scale"
					}
				},
				{
					"sampler":15,
					"target":{
						"node":6,
						"path":"translation"
					}
				},
				{
					"sampler":16,
					"target":{
						"node":6,
						"path":"rotation"
					}
				},
				{
					"sampler":17,
					"target":{
						"node":6,
						"path":"scale"
					}
				},
				{
					"sampler":18,
					"target":{
						"node":5,
						"path":"translation"
					}
				},
				{
					"sampler":19,
					"target":{
						"node":5,
						"path":"rotation"
					}
				},
				{
					"sampler":20,
					"target":{
						"node":5,
						"path":"scale"
					}
				},
				{
					"sampler":21,
					"target":{
						"node":4,
						"path":"translation"
					}
				},
				{
					"sampler":22,
					"target":{
						"node":4,
						"path":"rotation"
					}
				},
				{
					"sampler":23,
					"target":{
						"node":4,
						"path":"scale"
					}
				},
				{
					"sampler":24,
					"target":{
						"node":3,
						"path":"translation"
					}
				},
				{
					"sampler":25,
					"target":{
						"node":3,
						"path":"rotation"
					}
				},
				{
					"sampler":26,
					"target":{
						"node":3,
						"path":"scale"
					}
				},
				{
					"sampler":27,
					"target":{
						"node":7,
						"path":"translation"
					}
				},
				{
					"sampler":28,
					"target":{
						"node":7,
						"path":"rotation"
					}
				},
				{
					"sampler":29,
					"target":{
						"node":7,
						"path":"scale"
					}
				},
				{
					"sampler":30,
					"target":{
						"node":11,
						"path":"translation"
					}
				},
				{
					"sampler":31,
					"target":{
						"node":11,
						"path":"rotation"
					}
				},
				{
					"sampler":32,
					"target":{
						"node":11,
						"path":"scale"
					}
				},
				{
					"sampler":33,
					"target":{
						"node":10,
						"path":"translation"
					}
				},
				{
					"sampler":34,
					"target":{
						"node":10,
						"path":"rotation"
					}
				},
				{
					"sampler":35,
					"target":{
						"node":10,
						"path":"scale"
					}
				},
				{
					"sampler":36,
					"target":{
						"node":9,
						"path":"translation"
					}
				},
				{
					"sampler":37,
					"target":{
						"node":9,
						"path":"rotation"
					}
				},
				{
					"sampler":38,
					"target":{
						"node":9,
						"path":"scale"
					}
				},
				{
					"sampler":39,
					"target":{
						"node":14,
						"path":"translation"
					}
				},
				{
					"sampler":40,
					"target":{
						"node":14,
						"path":"rotation"
					}
				},
				{
					"sampler":41,
					"target":{
						"node":14,
						"path":"scale"
					}
				},
				{
					"sampler":42,
					"target":{
						"node":13,
						"path":"translation"
					}
				},
				{
					"sampler":43,
					"target":{
						"node":13,
						"path":"rotation"
					}
				},
				{
					"sampler":44,
					"target":{
						"node":13,
						"path":"scale"
					}
				},
				{
					"sampler":45,
					"target":{
						"node":12,
						"path":"translation"
					}
				},
				{
					"sampler":46,
					"target":{
						"node":12,
						"path":"rotation"
					}
				},
				{
					"sampler":47,
					"target":{
						"node":12,
						"path":"scale"
					}
				}
			],
			"name":"walk",
			"samplers":[
				{
					"input":112,
					"interpolation":"STEP",
					"output":26
				},
				{
					"input":112,
					"interpolation":"STEP",
					"output":67
				},
				{
					"input":112,
					"interpolation":"STEP",
					"output":29
				},
				{
					"input":112,
					"interpolation":"STEP",
					"output":30
				},
				{
					"input":113,
					"interpolation":"LINEAR",
					"output":114
				},
				{
					"input":112,
					"interpolation":"STEP",
					"output":115
				},
				{
					"input":112,
					"interpolation":"STEP",
					"output":116
				},
				{
					"input":112,
					"interpolation":"STEP",
					"output":117
				},
				{
					"input":112,
					"interpolation":"STEP",
					"output":77
				},
				{
					"input":112,
					"interpolation":"STEP",
					"output":118
				},
				{
					"input":113,
					"interpolation":"LINEAR",
					"output":119
				},
				{
					"input":112,
					"interpolation":"STEP",
					"output":120
				},
				{
					"input":112,
					"interpolation":"STEP",
					"output":121
				},
				{
					"input":113,
					"interpolation":"LINEAR",
					"output":122
				},
				{
					"input":112,
					"interpolation":"STEP",
					"output":123
				},
				{
					"input":112,
					"interpolation":"STEP",
					"output":124
				},
				{
					"input":112,
					"interpolation":"STEP",
					"output":125
				},
				{
					"input":112,
					"interpolation":"STEP",
					"output":126
				},
				{
					"input":112,
					"interpolation":"STEP",
					"output":127
				},
				{
					"input":113,
					"interpolation":"LINEAR",
					"output":128
				},
				{
					"input":112,
					"interpolation":"STEP",
					"output":129
				},
				{
					"input":112,
					"interpolation":"STEP",
					"output":130
				},
				{
					"input":113,
					"interpolation":"LINEAR",
					"output":131
				},
				{
					"input":112,
					"interpolation":"STEP",
					"output":132
				},
				{
					"input":112,
					"interpolation":"STEP",
					"output":133
				},
				{
					"input":112,
					"interpolation":"STEP",
					"output":134
				},
				{
					"input":112,
					"interpolation":"STEP",
					"output":36
				},
				{
					"input":112,
					"interpolation":"STEP",
					"output":135
				},
				{
					"input":112,
					"interpolation":"STEP",
					"output":136
				},
				{
					"input":112,
					"interpolation":"STEP",
					"output":137
				},
				{
					"input":112,
					"interpolation":"STEP",
					"output":138
				},
				{
					"input":113,
					"interpolation":"LINEAR",
					"output":139
				},
				{
					"input":112,
					"interpolation":"STEP",
					"output":140
				},
				{
					"input":112,
					"interpolation":"STEP",
					"output":141
				},
				{
					"input":113,
					"interpolation":"LINEAR",
					"output":142
				},
				{
					"input":112,
					"interpolation":"STEP",
					"output":143
				},
				{
					"input":112,
					"interpolation":"STEP",
					"output":144
				},
				{
					"input":113,
					"interpolation":"LINEAR",
					"output":145
				},
				{
					"input":112,
					"interpolation":"STEP",
					"output":137
				},
				{
					"input":112,
					"interpolation":"STEP",
					"output":59
				},
				{
					"input":113,
					"interpolation":"LINEAR",
					"output":146
				},
				{
					"input":112,
					"interpolation":"STEP",
					"output":61
				},
				{
					"input":112,
					"interpolation":"STEP",
					"output":62
				},
				{
					"input":113,
					"interpolation":"LINEAR",
					"output":147
				},
				{
					"input":112,
					"interpolation":"STEP",
					"output":51
				},
				{
					"input":112,
					"interpolation":"STEP",
					"output":148
				},
				{
					"input":113,
					"interpolation":"LINEAR",
					"output":149
				},
				{
					"input":112,
					"interpolation":"STEP",
					"output":150
				}
			]
		}
	],
	"materials":[
		{
			"doubleSided":true,
			"name":"\u30de\u30c6\u30ea\u30a2\u30eb",
			"pbrMetallicRoughness":{
				"baseColorTexture":{
					"index":0
				},
				"metallicFactor":0,
				"roughnessFactor":0.5
			}
		}
	],
	"meshes":[
		{
			"name":"\u7acb\u65b9\u4f53.001",
			"primitives":[
				{
					"attributes":{
						"POSITION":0,
						"NORMAL":1,
						"TEXCOORD_0":2,
						"JOINTS_0":3,
						"WEIGHTS_0":4
					},
					"indices":5,
					"material":0
				}
			]
		},
		{
			"name":"\u7403",
			"primitives":[
				{
					"attributes":{
						"POSITION":7,
						"NORMAL":8,
						"TEXCOORD_0":9,
						"JOINTS_0":10,
						"WEIGHTS_0":11
					},
					"indices":12,
					"material":0
				}
			]
		},
		{
			"name":"\u7403.001",
			"primitives":[
				{
					"attributes":{
						"POSITION":13,
						"NORMAL":14,
						"TEXCOORD_0":15,
						"JOINTS_0":16,
						"WEIGHTS_0":17
					},
					"indices":18,
					"material":0
				}
			]
		},
		{
			"name":"\u7acb\u65b9\u4f53.002",
			"primitives":[
				{
					"attributes":{
						"POSITION":19,
						"NORMAL":20,
						"TEXCOORD_0":21,
						"JOINTS_0":22,
						"WEIGHTS_0":23
					},
					"indices":24,
					"material":0
				}
			]
		}
	],
	"textures":[
		{
			"sampler":0,
			"source":0
		}
	],
	"images":[
		{
			"mimeType":"image/png",
			"name":"player",
			"uri":"player.png"
		}
	],
	"skins":[
		{
			"inverseBindMatrices":6,
			"joints":[
				15,
				8,
				2,
				1,
				0,
				6,
				5,
				4,
				3,
				7,
				11,
				10,
				9,
				14,
				13,
				12
			],
			"name":"\u30a2\u30fc\u30de\u30c1\u30e5\u30a2"
		}
	],
	"accessors":[
		{
			"bufferView":0,
			"componentType":5126,
			"count":146,
			"max":[
				1.225050449371338,
				2.548297882080078,
				1.213948369026184
			],
			"min":[
				-1.2215290069580078,
				1.6731237173080444,
				-0.8055689930915833
			],
			"type":"VEC3"
		},
		{
			"bufferView":1,
			"componentType":5126,
			"count":146,
			"type":"VEC3"
		},
		{
			"bufferView":2,
			"componentType":5126,
			"count":146,
			"type":"VEC2"
		},
		{
			"bufferView":3,
			"componentType":5121,
			"count":146,
			"type":"VEC4"
		},
		{
			"bufferView":4,
			"componentType":5126,
			"count":146,
			"type":"VEC4"
		},
		{
			"bufferView":5,
			"componentType":5123,
			"count":708,
			"type":"SCALAR"
		},
		{
			"bufferView":6,
			"componentType":5126,
			"count":16,
			"type":"MAT4"
		},
		{
			"bufferView":7,
			"componentType":5126,
			"count":1358,
			"max":[
				3.287245750427246,
				5.717850208282471,
				1.766744613647461
			],
			"min":[
				-3.4983057975769043,
				-0.23264501988887787,
				-0.7209691405296326
			],
			"type":"VEC3"
		},
		{
			"bufferView":8,
			"componentType":5126,
			"count":1358,
			"type":"VEC3"
		},
		{
			"bufferView":9,
			"componentType":5126,
			"count":1358,
			"type":"VEC2"
		},
		{
			"bufferView":10,
			"componentType":5121,
			"count":1358,
			"type":"VEC4"
		},
		{
			"bufferView":11,
			"componentType":5126,
			"count":1358,
			"type":"VEC4"
		},
		{
			"bufferView":12,
			"componentType":5123,
			"count":6924,
			"type":"SCALAR"
		},
		{
			"bufferView":13,
			"componentType":5126,
			"count":220,
			"max":[
				0.8756057620048523,
				6.080623626708984,
				1.3230105638504028
			],
			"min":[
				-1.0695180892944336,
				4.847877502441406,
				-0.9087873697280884
			],
			"type":"VEC3"
		},
		{
			"bufferView":14,
			"componentType":5126,
			"count":220,
			"type":"VEC3"
		},
		{
			"bufferView":15,
			"componentType":5126,
			"count":220,
			"type":"VEC2"
		},
		{
			"bufferView":16,
			"componentType":5121,
			"count":220,
			"type":"VEC4"
		},
		{
			"bufferView":17,
			"componentType":5126,
			"count":220,
			"type":"VEC4"
		},
		{
			"bufferView":18,
			"componentType":5123,
			"count":1248,
			"type":"SCALAR"
		},
		{
			"bufferView":19,
			"componentType":5126,
			"count":200,
			"max":[
				-1.681334376335144,
				4.113169193267822,
				3.328598737716675
			],
			"min":[
				-4.036967754364014,
				3.1607491970062256,
				-0.9876127243041992
			],
			"type":"VEC3"
		},
		{
			"bufferView":20,
			"componentType":5126,
			"count":200,
			"type":"VEC3"
		},
		{
			"bufferView":21,
			"componentType":5126,
			"count":200,
			"type":"VEC2"
		},
		{
			"bufferView":22,
			"componentType":5121,
			"count":200,
			"type":"VEC4"
		},
		{
			"bufferView":23,
			"componentType":5126,
			"count":200,
			"type":"VEC4"
		},
		{
			"bufferView":24,
			"componentType":5123,
			"count":360,
			"type":"SCALAR"
		},
		{
			"bufferView":25,
			"componentType":5126,
			"count":2,
			"max":[
				0.75
			],
			"min":[
				0.041666666666666664
			],
			"type":"SCALAR"
		},
		{
			"bufferView":26,
			"componentType":5126,
			"count":2,
			"type":"VEC3"
		},
		{
			"bufferView":27,
			"componentType":5126,
			"count":18,
			"max":[
				0.75
			],
			"min":[
				0.041666666666666664
			],
			"type":"SCALAR"
		},
		{
			"bufferView":28,
			"componentType":5126,
			"count":18,
			"type":"VEC4"
		},
		{
			"bufferView":29,
			"componentType":5126,
			"count":2,
			"type":"VEC3"
		},
		{
			"bufferView":30,
			"componentType":5126,
			"count":2,
			"type":"VEC3"
		},
		{
			"bufferView":31,
			"componentType":5126,
			"count":18,
			"type":"VEC4"
		},
		{
			"bufferView":32,
			"componentType":5126,
			"count":2,
			"type":"VEC3"
		},
		{
			"bufferView":33,
			"componentType":5126,
			"count":2,
			"type":"VEC4"
		},
		{
			"bufferView":34,
			"componentType":5126,
			"count":2,
			"type":"VEC3"
		},
		{
			"bufferView":35,
			"componentType":5126,
			"count":18,
			"type":"VEC4"
		},
		{
			"bufferView":36,
			"componentType":5126,
			"count":2,
			"type":"VEC3"
		},
		{
			"bufferView":37,
			"componentType":5126,
			"count":2,
			"type":"VEC3"
		},
		{
			"bufferView":38,
			"componentType":5126,
			"count":2,
			"type":"VEC4"
		},
		{
			"bufferView":39,
			"componentType":5126,
			"count":2,
			"type":"VEC3"
		},
		{
			"bufferView":40,
			"componentType":5126,
			"count":2,
			"type":"VEC4"
		},
		{
			"bufferView":41,
			"componentType":5126,
			"count":2,
			"type":"VEC3"
		},
		{
			"bufferView":42,
			"componentType":5126,
			"count":2,
			"type":"VEC3"
		},
		{
			"bufferView":43,
			"componentType":5126,
			"count":18,
			"type":"VEC4"
		},
		{
			"bufferView":44,
			"componentType":5126,
			"count":2,
			"type":"VEC3"
		},
		{
			"bufferView":45,
			"componentType":5126,
			"count":2,
			"type":"VEC3"
		},
		{
			"bufferView":46,
			"componentType":5126,
			"count":2,
			"type":"VEC4"
		},
		{
			"bufferView":47,
			"componentType":5126,
			"count":2,
			"type":"VEC3"
		},
		{
			"bufferView":48,
			"componentType":5126,
			"count":2,
			"type":"VEC3"
		},
		{
			"bufferView":49,
			"componentType":5126,
			"count":2,
			"type":"VEC4"
		},
		{
			"bufferView":50,
			"componentType":5126,
			"count":18,
			"type":"VEC4"
		},
		{
			"bufferView":51,
			"componentType":5126,
			"count":2,
			"type":"VEC3"
		},
		{
			"bufferView":52,
			"componentType":5126,
			"count":2,
			"type":"VEC3"
		},
		{
			"bufferView":53,
			"componentType":5126,
			"count":18,
			"type":"VEC4"
		},
		{
			"bufferView":54,
			"componentType":5126,
			"count":2,
			"type":"VEC3"
		},
		{
			"bufferView":55,
			"componentType":5126,
			"count":2,
			"type":"VEC3"
		},
		{
			"bufferView":56,
			"componentType":5126,
			"count":18,
			"type":"VEC4"
		},
		{
			"bufferView":57,
			"componentType":5126,
			"count":2,
			"type":"VEC3"
		},
		{
			"bufferView":58,
			"componentType":5126,
			"count":2,
			"type":"VEC4"
		},
		{
			"bufferView":59,
			"componentType":5126,
			"count":2,
			"type":"VEC3"
		},
		{
			"bufferView":60,
			"componentType":5126,
			"count":18,
			"type":"VEC4"
		},
		{
			"bufferView":61,
			"componentType":5126,
			"count":2,
			"type":"VEC3"
		},
		{
			"bufferView":62,
			"componentType":5126,
			"count":2,
			"type":"VEC3"
		},
		{
			"bufferView":63,
			"componentType":5126,
			"count":2,
			"type":"VEC4"
		},
		{
			"bufferView":64,
			"componentType":5126,
			"count":2,
			"type":"VEC3"
		},
		{
			"bufferView":65,
			"componentType":5126,
			"count":2,
			"type":"VEC4"
		},
		{
			"bufferView":66,
			"componentType":5126,
			"count":2,
			"max":[
				2
			],
			"min":[
				0.041666666666666664
			],
			"type":"SCALAR"
		},
		{
			"bufferView":67,
			"componentType":5126,
			"count":2,
			"type":"VEC4"
		},
		{
			"bufferView":68,
			"componentType":5126,
			"count":48,
			"max":[
				2
			],
			"min":[
				0.041666666666666664
			],
			"type":"SCALAR"
		},
		{
			"bufferView":69,
			"componentType":5126,
			"count":48,
			"type":"VEC4"
		},
		{
			"bufferView":70,
			"componentType":5126,
			"count":48,
			"type":"VEC4"
		},
		{
			"bufferView":71,
			"componentType":5126,
			"count":48,
			"type":"VEC4"
		},
		{
			"bufferView":72,
			"componentType":5126,
			"count":2,
			"type":"VEC4"
		},
		{
			"bufferView":73,
			"componentType":5126,
			"count":2,
			"type":"VEC4"
		},
		{
			"bufferView":74,
			"componentType":5126,
			"count":2,
			"type":"VEC4"
		},
		{
			"bufferView":75,
			"componentType":5126,
			"count":2,
			"type":"VEC4"
		},
		{
			"bufferView":76,
			"componentType":5126,
			"count":18,
			"type":"VEC4"
		},
		{
			"bufferView":77,
			"componentType":5126,
			"count":2,
			"type":"VEC3"
		},
		{
			"bufferView":78,
			"componentType":5126,
			"count":2,
			"type":"VEC3"
		},
		{
			"bufferView":79,
			"componentType":5126,
			"count":18,
			"type":"VEC4"
		},
		{
			"bufferView":80,
			"componentType":5126,
			"count":2,
			"type":"VEC3"
		},
		{
			"bufferView":81,
			"componentType":5126,
			"count":18,
			"type":"VEC4"
		},
		{
			"bufferView":82,
			"componentType":5126,
			"count":2,
			"type":"VEC3"
		},
		{
			"bufferView":83,
			"componentType":5126,
			"count":2,
			"type":"VEC4"
		},
		{
			"bufferView":84,
			"componentType":5126,
			"count":2,
			"type":"VEC3"
		},
		{
			"bufferView":85,
			"componentType":5126,
			"count":18,
			"type":"VEC4"
		},
		{
			"bufferView":86,
			"componentType":5126,
			"count":2,
			"type":"VEC3"
		},
		{
			"bufferView":87,
			"componentType":5126,
			"count":18,
			"type":"VEC4"
		},
		{
			"bufferView":88,
			"componentType":5126,
			"count":2,
			"type":"VEC3"
		},
		{
			"bufferView":89,
			"componentType":5126,
			"count":2,
			"type":"VEC3"
		},
		{
			"bufferView":90,
			"componentType":5126,
			"count":2,
			"type":"VEC4"
		},
		{
			"bufferView":91,
			"componentType":5126,
			"count":2,
			"type":"VEC3"
		},
		{
			"bufferView":92,
			"componentType":5126,
			"count":2,
			"type":"VEC4"
		},
		{
			"bufferView":93,
			"componentType":5126,
			"count":2,
			"type":"VEC3"
		},
		{
			"bufferView":94,
			"componentType":5126,
			"count":2,
			"type":"VEC3"
		},
		{
			"bufferView":95,
			"componentType":5126,
			"count":2,
			"type":"VEC4"
		},
		{
			"bufferView":96,
			"componentType":5126,
			"count":2,
			"type":"VEC3"
		},
		{
			"bufferView":97,
			"componentType":5126,
			"count":18,
			"type":"VEC4"
		},
		{
			"bufferView":98,
			"componentType":5126,
			"count":2,
			"type":"VEC3"
		},
		{
			"bufferView":99,
			"componentType":5126,
			"count":18,
			"type":"VEC4"
		},
		{
			"bufferView":100,
			"componentType":5126,
			"count":2,
			"type":"VEC3"
		},
		{
			"bufferView":101,
			"componentType":5126,
			"count":2,
			"type":"VEC3"
		},
		{
			"bufferView":102,
			"componentType":5126,
			"count":18,
			"type":"VEC4"
		},
		{
			"bufferView":103,
			"componentType":5126,
			"count":2,
			"type":"VEC3"
		},
		{
			"bufferView":104,
			"componentType":5126,
			"count":2,
			"type":"VEC3"
		},
		{
			"bufferView":105,
			"componentType":5126,
			"count":18,
			"type":"VEC4"
		},
		{
			"bufferView":106,
			"componentType":5126,
			"count":2,
			"type":"VEC3"
		},
		{
			"bufferView":107,
			"componentType":5126,
			"count":18,
			"type":"VEC4"
		},
		{
			"bufferView":108,
			"componentType":5126,
			"count":2,
			"type":"VEC3"
		},
		{
			"bufferView":109,
			"componentType":5126,
			"count":2,
			"type":"VEC3"
		},
		{
			"bufferView":110,
			"componentType":5126,
			"count":18,
			"type":"VEC4"
		},
		{
			"bufferView":111,
			"componentType":5126,
			"count":2,
			"type":"VEC3"
		},
		{
			"bufferView":112,
			"componentType":5126,
			"count":2,
			"max":[
				0.6666666666666666
			],
			"min":[
				0.041666666666666664
			],
			"type":"SCALAR"
		},
		{
			"bufferView":113,
			"componentType":5126,
			"count":16,
			"max":[
				0.6666666666666666
			],
			"min":[
				0.041666666666666664
			],
			"type":"SCALAR"
		},
		{
			"bufferView":114,
			"componentType":5126,
			"count":16,
			"type":"VEC4"
		},
		{
			"bufferView":115,
			"componentType":5126,
			"count":2,
			"type":"VEC3"
		},
		{
			"bufferView":116,
			"componentType":5126,
			"count":2,
			"type":"VEC3"
		},
		{
			"bufferView":117,
			"componentType":5126,
			"count":2,
			"type":"VEC4"
		},
		{
			"bufferView":118,
			"componentType":5126,
			"count":2,
			"type":"VEC3"
		},
		{
			"bufferView":119,
			"componentType":5126,
			"count":16,
			"type":"VEC4"
		},
		{
			"bufferView":120,
			"componentType":5126,
			"count":2,
			"type":"VEC3"
		},
		{
			"bufferView":121,
			"componentType":5126,
			"count":2,
			"type":"VEC3"
		},
		{
			"bufferView":122,
			"componentType":5126,
			"count":16,
			"type":"VEC4"
		},
		{
			"bufferView":123,
			"componentType":5126,
			"count":2,
			"type":"VEC3"
		},
		{
			"bufferView":124,
			"componentType":5126,
			"count":2,
			"type":"VEC3"
		},
		{
			"bufferView":125,
			"componentType":5126,
			"count":2,
			"type":"VEC4"
		},
		{
			"bufferView":126,
			"componentType":5126,
			"count":2,
			"type":"VEC3"
		},
		{
			"bufferView":127,
			"componentType":5126,
			"count":2,
			"type":"VEC3"
		},
		{
			"bufferView":128,
			"componentType":5126,
			"count":16,
			"type":"VEC4"
		},
		{
			"bufferView":129,
			"componentType":5126,
			"count":2,
			"type":"VEC3"
		},
		{
			"bufferView":130,
			"componentType":5126,
			"count":2,
			"type":"VEC3"
		},
		{
			"bufferView":131,
			"componentType":5126,
			"count":16,
			"type":"VEC4"
		},
		{
			"bufferView":132,
			"componentType":5126,
			"count":2,
			"type":"VEC3"
		},
		{
			"bufferView":133,
			"componentType":5126,
			"count":2,
			"type":"VEC3"
		},
		{
			"bufferView":134,
			"componentType":5126,
			"count":2,
			"type":"VEC4"
		},
		{
			"bufferView":135,
			"componentType":5126,
			"count":2,
			"type":"VEC3"
		},
		{
			"bufferView":136,
			"componentType":5126,
			"count":2,
			"type":"VEC4"
		},
		{
			"bufferView":137,
			"componentType":5126,
			"count":2,
			"type":"VEC3"
		},
		{
			"bufferView":138,
			"componentType":5126,
			"count":2,
			"type":"VEC3"
		},
		{
			"bufferView":139,
			"componentType":5126,
			"count":16,
			"type":"VEC4"
		},
		{
			"bufferView":140,
			"componentType":5126,
			"count":2,
			"type":"VEC3"
		},
		{
			"bufferView":141,
			"componentType":5126,
			"count":2,
			"type":"VEC3"
		},
		{
			"bufferView":142,
			"componentType":5126,
			"count":16,
			"type":"VEC4"
		},
		{
			"bufferView":143,
			"componentType":5126,
			"count":2,
			"type":"VEC3"
		},
		{
			"bufferView":144,
			"componentType":5126,
			"count":2,
			"type":"VEC3"
		},
		{
			"bufferView":145,
			"componentType":5126,
			"count":16,
			"type":"VEC4"
		},
		{
			"bufferView":146,
			"componentType":5126,
			"count":16,
			"type":"VEC4"
		},
		{
			"bufferView":147,
			"componentType":5126,
			"count":16,
			"type":"VEC4"
		},
		{
			"bufferView":148,
			"componentType":5126,
			"count":2,
			"type":"VEC3"
		},
		{
			"bufferView":149,
			"componentType":5126,
			"count":16,
			"type":"VEC4"
		},
		{
			"bufferView":150,
			"componentType":5126,
			"count":2,
			"type":"VEC3"
		}
	],
	"bufferViews":[
		{
			"buffer":0,
			"byteLength":1752,
			"byteOffset":0,
			"target":34962
		},
		{
			"buffer":0,
			"byteLength":1752,
			"byteOffset":1752,
			"target":34962
		},
		{
			"buffer":0,
			"byteLength":1168,
			"byteOffset":3504,
			"target":34962
		},
		{
			"buffer":0,
			"byteLength":584,
			"byteOffset":4672,
			"target":34962
		},
		{
			"buffer":0,
			"byteLength":2336,
			"byteOffset":5256,
			"target":34962
		},
		{
			"buffer":0,
			"byteLength":1416,
			"byteOffset":7592,
			"target":34963
		},
		{
			"buffer":0,
			"byteLength":1024,
			"byteOffset":9008
		},
		{
			"buffer":0,
			"byteLength":16296,
			"byteOffset":10032,
			"target":34962
		},
		{
			"buffer":0,
			"byteLength":16296,
			"byteOffset":26328,
			"target":34962
		},
		{
			"buffer":0,
			"byteLength":10864,
			"byteOffset":42624,
			"target":34962
		},
		{
			"buffer":0,
			"byteLength":5432,
			"byteOffset":53488,
			"target":34962
		},
		{
			"buffer":0,
			"byteLength":21728,
			"byteOffset":58920,
			"target":34962
		},
		{
			"buffer":0,
			"byteLength":13848,
			"byteOffset":80648,
			"target":34963
		},
		{
			"buffer":0,
			"byteLength":2640,
			"byteOffset":94496,
			"target":34962
		},
		{
			"buffer":0,
			"byteLength":2640,
			"byteOffset":97136,
			"target":34962
		},
		{
			"buffer":0,
			"byteLength":1760,
			"byteOffset":99776,
			"target":34962
		},
		{
			"buffer":0,
			"byteLength":880,
			"byteOffset":101536,
			"target":34962
		},
		{
			"buffer":0,
			"byteLength":3520,
			"byteOffset":102416,
			"target":34962
		},
		{
			"buffer":0,
			"byteLength":2496,
			"byteOffset":105936,
			"target":34963
		},
		{
			"buffer":0,
			"byteLength":2400,
			"byteOffset":108432,
			"target":34962
		},
		{
			"buffer":0,
			"byteLength":2400,
			"byteOffset":110832,
			"target":34962
		},
		{
			"buffer":0,
			"byteLength":1600,
			"byteOffset":113232,
			"target":34962
		},
		{
			"buffer":0,
			"byteLength":800,
			"byteOffset":114832,
			"target":34962
		},
		{
			"buffer":0,
			"byteLength":3200,
			"byteOffset":115632,
			"target":34962
		},
		{
			"buffer":0,
			"byteLength":720,
			"byteOffset":118832,
			"target":34963
		},
		{
			"buffer":0,
			"byteLength":8,
			"byteOffset":119552
		},
		{
			"buffer":0,
			"byteLength":24,
			"byteOffset":119560
		},
		{
			"buffer":0,
			"byteLength":72,
			"byteOffset":119584
		},
		{
			"buffer":0,
			"byteLength":288,
			"byteOffset":119656
		},
		{
			"buffer":0,
			"byteLength":24,
			"byteOffset":119944
		},
		{
			"buffer":0,
			"byteLength":24,
			"byteOffset":119968
		},
		{
			"buffer":0,
			"byteLength":288,
			"byteOffset":119992
		},
		{
			"buffer":0,
			"byteLength":24,
			"byteOffset":120280
		},
		{
			"buffer":0,
			"byteLength":32,
			"byteOffset":120304
		},
		{
			"buffer":0,
			"byteLength":24,
			"byteOffset":120336
		},
		{
			"buffer":0,
			"byteLength":288,
			"byteOffset":120360
		},
		{
			"buffer":0,
			"byteLength":24,
			"byteOffset":120648
		},
		{
			"buffer":0,
			"byteLength":24,
			"byteOffset":120672
		},
		{
			"buffer":0,
			"byteLength":32,
			"byteOffset":120696
		},
		{
			"buffer":0,
			"byteLength":24,
			"byteOffset":120728
		},
		{
			"buffer":0,
			"byteLength":32,
			"byteOffset":120752
		},
		{
			"buffer":0,
			"byteLength":24,
			"byteOffset":120784
		},
		{
			"buffer":0,
			"byteLength":24,
			"byteOffset":120808
		},
		{
			"buffer":0,
			"byteLength":288,
			"byteOffset":120832
		},
		{
			"buffer":0,
			"byteLength":24,
			"byteOffset":121120
		},
		{
			"buffer":0,
			"byteLength":24,
			"byteOffset":121144
		},
		{
			"buffer":0,
			"byteLength":32,
			"byteOffset":121168
		},
		{
			"buffer":0,
			"byteLength":24,
			"byteOffset":121200
		},
		{
			"buffer":0,
			"byteLength":24,
			"byteOffset":121224
		},
		{
			"buffer":0,
			"byteLength":32,
			"byteOffset":121248
		},
		{
			"buffer":0,
			"byteLength":288,
			"byteOffset":121280
		},
		{
			"buffer":0,
			"byteLength":24,
			"byteOffset":121568
		},
		{
			"buffer":0,
			"byteLength":24,
			"byteOffset":121592
		},
		{
			"buffer":0,
			"byteLength":288,
			"byteOffset":121616
		},
		{
			"buffer":0,
			"byteLength":24,
			"byteOffset":121904
		},
		{
			"buffer":0,
			"byteLength":24,
			"byteOffset":121928
		},
		{
			"buffer":0,
			"byteLength":288,
			"byteOffset":121952
		},
		{
			"buffer":0,
			"byteLength":24,
			"byteOffset":122240
		},
		{
			"buffer":0,
			"byteLength":32,
			"byteOffset":122264
		},
		{
			"buffer":0,
			"byteLength":24,
			"byteOffset":122296
		},
		{
			"buffer":0,
			"byteLength":288,
			"byteOffset":122320
		},
		{
			"buffer":0,
			"byteLength":24,
			"byteOffset":122608
		},
		{
			"buffer":0,
			"byteLength":24,
			"byteOffset":122632
		},
		{
			"buffer":0,
			"byteLength":32,
			"byteOffset":122656
		},
		{
			"buffer":0,
			"byteLength":24,
			"byteOffset":122688
		},
		{
			"buffer":0,
			"byteLength":32,
			"byteOffset":122712
		},
		{
			"buffer":0,
			"byteLength":8,
			"byteOffset":122744
		},
		{
			"buffer":0,
			"byteLength":32,
			"byteOffset":122752
		},
		{
			"buffer":0,
			"byteLength":192,
			"byteOffset":122784
		},
		{
			"buffer":0,
			"byteLength":768,
			"byteOffset":122976
		},
		{
			"buffer":0,
			"byteLength":768,
			"byteOffset":123744
		},
		{
			"buffer":0,
			"byteLength":768,
			"byteOffset":124512
		},
		{
			"buffer":0,
			"byteLength":32,
			"byteOffset":125280
		},
		{
			"buffer":0,
			"byteLength":32,
			"byteOffset":125312
		},
		{
			"buffer":0,
			"byteLength":32,
			"byteOffset":125344
		},
		{
			"buffer":0,
			"byteLength":32,
			"byteOffset":125376
		},
		{
			"buffer":0,
			"byteLength":288,
			"byteOffset":125408
		},
		{
			"buffer":0,
			"byteLength":24,
			"byteOffset":125696
		},
		{
			"buffer":0,
			"byteLength":24,
			"byteOffset":125720
		},
		{
			"buffer":0,
			"byteLength":288,
			"byteOffset":125744
		},
		{
			"buffer":0,
			"byteLength":24,
			"byteOffset":126032
		},
		{
			"buffer":0,
			"byteLength":288,
			"byteOffset":126056
		},
		{
			"buffer":0,
			"byteLength":24,
			"byteOffset":126344
		},
		{
			"buffer":0,
			"byteLength":32,
			"byteOffset":126368
		},
		{
			"buffer":0,
			"byteLength":24,
			"byteOffset":126400
		},
		{
			"buffer":0,
			"byteLength":288,
			"byteOffset":126424
		},
		{
			"buffer":0,
			"byteLength":24,
			"byteOffset":126712
		},
		{
			"buffer":0,
			"byteLength":288,
			"byteOffset":126736
		},
		{
			"buffer":0,
			"byteLength":24,
			"byteOffset":127024
		},
		{
			"buffer":0,
			"byteLength":24,
			"byteOffset":127048
		},
		{
			"buffer":0,
			"byteLength":32,
			"byteOffset":127072
		},
		{
			"buffer":0,
			"byteLength":24,
			"byteOffset":127104
		},
		{
			"buffer":0,
			"byteLength":32,
			"byteOffset":127128
		},
		{
			"buffer":0,
			"byteLength":24,
			"byteOffset":127160
		},
		{
			"buffer":0,
			"byteLength":24,
			"byteOffset":127184
		},
		{
			"buffer":0,
			"byteLength":32,
			"byteOffset":127208
		},
		{
			"buffer":0,
			"byteLength":24,
			"byteOffset":127240
		},
		{
			"buffer":0,
			"byteLength":288,
			"byteOffset":127264
		},
		{
			"buffer":0,
			"byteLength":24,
			"byteOffset":127552
		},
		{
			"buffer":0,
			"byteLength":288,
			"byteOffset":127576
		},
		{
			"buffer":0,
			"byteLength":24,
			"byteOffset":127864
		},
		{
			"buffer":0,
			"byteLength":24,
			"byteOffset":127888
		},
		{
			"buffer":0,
			"byteLength":288,
			"byteOffset":127912
		},
		{
			"buffer":0,
			"byteLength":24,
			"byteOffset":128200
		},
		{
			"buffer":0,
			"byteLength":24,
			"byteOffset":128224
		},
		{
			"buffer":0,
			"byteLength":288,
			"byteOffset":128248
		},
		{
			"buffer":0,
			"byteLength":24,
			"byteOffset":128536
		},
		{
			"buffer":0,
			"byteLength":288,
			"byteOffset":128560
		},
		{
			"buffer":0,
			"byteLength":24,
			"byteOffset":128848
		},
		{
			"buffer":0,
			"byteLength":24,
			"byteOffset":128872
		},
		{
			"buffer":0,
			"byteLength":288,
			"byteOffset":128896
		},
		{
			"buffer":0,
			"byteLength":24,
			"byteOffset":129184
		},
		{
			"buffer":0,
			"byteLength":8,
			"byteOffset":129208
		},
		{
			"buffer":0,
			"byteLength":64,
			"byteOffset":129216
		},
		{
			"buffer":0,
			"byteLength":256,
			"byteOffset":129280
		},
		{
			"buffer":0,
			"byteLength":24,
			"byteOffset":129536
		},
		{
			"buffer":0,
			"byteLength":24,
			"byteOffset":129560
		},
		{
			"buffer":0,
			"byteLength":32,
			"byteOffset":129584
		},
		{
			"buffer":0,
			"byteLength":24,
			"byteOffset":129616
		},
		{
			"buffer":0,
			"byteLength":256,
			"byteOffset":129640
		},
		{
			"buffer":0,
			"byteLength":24,
			"byteOffset":129896
		},
		{
			"buffer":0,
			"byteLength":24,
			"byteOffset":129920
		},
		{
			"buffer":0,
			"byteLength":256,
			"byteOffset":129944
		},
		{
			"buffer":0,
			"byteLength":24,
			"byteOffset":130200
		},
		{
			"buffer":0,
			"byteLength":24,
			"byteOffset":130224
		},
		{
			"buffer":0,
			"byteLength":32,
			"byteOffset":130248
		},
		{
			"buffer":0,
			"byteLength":24,
			"byteOffset":130280
		},
		{
			"buffer":0,
			"byteLength":24,
			"byteOffset":130304
		},
		{
			"buffer":0,
			"byteLength":256,
			"byteOffset":130328
		},
		{
			"buffer":0,
			"byteLength":24,
			"byteOffset":130584
		},
		{
			"buffer":0,
			"byteLength":24,
			"byteOffset":130608
		},
		{
			"buffer":0,
			"byteLength":256,
			"byteOffset":130632
		},
		{
			"buffer":0,
			"byteLength":24,
			"byteOffset":130888
		},
		{
			"buffer":0,
			"byteLength":24,
			"byteOffset":130912
		},
		{
			"buffer":0,
			"byteLength":32,
			"byteOffset":130936
		},
		{
			"buffer":0,
			"byteLength":24,
			"byteOffset":130968
		},
		{
			"buffer":0,
			"byteLength":32,
			"byteOffset":130992
		},
		{
			"buffer":0,
			"byteLength":24,
			"byteOffset":131024
		},
		{
			"buffer":0,
			"byteLength":24,
			"byteOffset":131048
		},
		{
			"buffer":0,
			"byteLength":256,
			"byteOffset":131072
		},
		{
			"buffer":0,
			"byteLength":24,
			"byteOffset":131328
		},
		{
			"buffer":0,
			"byteLength":24,
			"byteOffset":131352
		},
		{
			"buffer":0,
			"byteLength":256,
			"byteOffset":131376
		},
		{
			"buffer":0,
			"byteLength":24,
			"byteOffset":131632
		},
		{
			"buffer":0,
			"byteLength":24,
			"byteOffset":131656
		},
		{
			"buffer":0,
			"byteLength":256,
			"byteOffset":131680
		},
		{
			"buffer":0,
			"byteLength":256,
			"byteOffset":131936
		},
		{
			"buffer":0,
			"byteLength":256,
			"byteOffset":132192
		},
		{
			"buffer":0,
			"byteLength":24,
			"byteOffset":132448
		},
		{
			"buffer":0,
			"byteLength":256,
			"byteOffset":132472
		},
		{
			"buffer":0,
			"byteLength":24,
			"byteOffset":132728
		}
	],
	"samplers":[
		{
			"magFilter":9729,
			"minFilter":9987
		}
	],
	"buffers":[
		{
			"byteLength":132752,
			"uri":"player.bin"
		}
	]
}
