# Blender 4.4.3
# www.blender.org
mtllib Block.mtl
o Cube
v 0.500000 0.500000 -0.500000
v 0.500000 -0.500000 -0.500000
v 0.500000 0.500000 0.500000
v 0.500000 -0.500000 0.500000
v -0.500000 0.500000 -0.500000
v -0.500000 -0.500000 -0.500000
v -0.500000 0.500000 0.500000
v -0.500000 -0.500000 0.500000
vn -0.0000 1.0000 -0.0000
vn -0.0000 -0.0000 1.0000
vn -1.0000 -0.0000 -0.0000
vn -0.0000 -1.0000 -0.0000
vn 1.0000 -0.0000 -0.0000
vn -0.0000 -0.0000 -1.0000
vt 0.122017 0.500265
vt 0.375637 0.753885
vt 0.122017 0.753885
vt 0.375031 0.500817
vt 0.624491 0.251357
vt 0.624491 0.500817
vt 0.625073 -0.000240
vt 0.374927 0.249906
vt 0.374927 -0.000240
vt 0.625765 0.751203
vt 0.876596 0.500373
vt 0.876596 0.751203
vt 0.374077 0.751285
vt 0.624765 0.500597
vt 0.624765 0.751285
vt 0.372934 1.001002
vt 0.624605 0.749331
vt 0.624605 1.001002
vt 0.375637 0.500265
vt 0.375031 0.251357
vt 0.625073 0.249906
vt 0.625765 0.500373
vt 0.374077 0.500597
vt 0.372934 0.749331
s 1
usemtl Material.001
f 5/1/1 3/2/1 1/3/1
f 3/4/2 8/5/2 4/6/2
f 7/7/3 6/8/3 8/9/3
f 2/10/4 8/11/4 6/12/4
f 1/13/5 4/14/5 2/15/5
f 5/16/6 2/17/6 6/18/6
f 5/1/1 7/19/1 3/2/1
f 3/4/2 7/20/2 8/5/2
f 7/7/3 5/21/3 6/8/3
f 2/10/4 4/22/4 8/11/4
f 1/13/5 3/23/5 4/14/5
f 5/16/6 1/24/6 2/17/6
