{
	"asset":{
		"generator":"Khronos glTF Blender I/O v5.2.40",
		"version":"2.0"
	},
	"scene":0,
	"scenes":[
		{
			"name":"Scene",
			"nodes":[
				41
			]
		}
	],
	"nodes":[
		{
			"name":"\u30dc\u30fc\u30f3.021",
			"rotation":[
				-0.025585360825061798,
				0.006194110494107008,
				0.038412775844335556,
				0.9989151954650879
			],
			"scale":[
				1,
				1.0000001192092896,
				1
			],
			"translation":[
				-2.3748725652694702e-07,
				0.28291401267051697,
				-5.960464477539063e-08
			]
		},
		{
			"children":[
				0
			],
			"name":"\u30dc\u30fc\u30f3.020",
			"rotation":[
				-0.07350268214941025,
				-0.02345365844666958,
				0.0038780963514000177,
				0.997011661529541
			],
			"scale":[
				0.9999999403953552,
				1,
				1.0000001192092896
			],
			"translation":[
				2.1606683731079102e-07,
				0.2464175820350647,
				-7.450580596923828e-08
			]
		},
		{
			"name":"\u30dc\u30fc\u30f3.023",
			"rotation":[
				0.13449501991271973,
				1.5705998634985008e-07,
				-0.08456527441740036,
				0.9872992634773254
			],
			"scale":[
				1,
				1.0000001192092896,
				0.9999999403953552
			],
			"translation":[
				1.1920928955078125e-07,
				0.29017478227615356,
				2.384185791015625e-07
			]
		},
		{
			"children":[
				2
			],
			"name":"\u30dc\u30fc\u30f3.022",
			"rotation":[
				-0.5177487730979919,
				-5.756135834644738e-08,
				-0.5091304183006287,
				0.6875481009483337
			],
			"scale":[
				1,
				0.9999999403953552,
				0.9999999403953552
			],
			"translation":[
				2.123415470123291e-07,
				0.24641790986061096,
				1.043081283569336e-07
			]
		},
		{
			"name":"\u30dc\u30fc\u30f3.025",
			"rotation":[
				0.12715765833854675,
				0.0015559254679828882,
				-0.00793292373418808,
				0.9918496012687683
			],
			"scale":[
				0.9999999403953552,
				1,
				1
			],
			"translation":[
				-2.0489096641540527e-08,
				0.26678770780563354,
				-6.258487701416016e-07
			]
		},
		{
			"children":[
				4
			],
			"name":"\u30dc\u30fc\u30f3.024",
			"rotation":[
				0.6005297303199768,
				-0.0008732657297514379,
				0.014475694857537746,
				0.7994709610939026
			],
			"scale":[
				0.9999998807907104,
				1,
				1
			],
			"translation":[
				2.123415470123291e-07,
				0.2464175522327423,
				4.470348358154297e-08
			]
		},
		{
			"children":[
				1,
				3,
				5
			],
			"name":"\u30dc\u30fc\u30f3.019",
			"rotation":[
				0.07593429088592529,
				0.02203710749745369,
				0.03946247324347496,
				0.996087908744812
			],
			"scale":[
				1,
				0.9999998211860657,
				1
			],
			"translation":[
				6.705522537231445e-08,
				0.2995332181453705,
				-2.9802322387695312e-08
			]
		},
		{
			"children":[
				6
			],
			"name":"\u30dc\u30fc\u30f3.018",
			"rotation":[
				-0.027510708197951317,
				-0.0056534139439463615,
				-0.07792890071868896,
				0.9965632557868958
			],
			"scale":[
				0.9999998807907104,
				1,
				0.9999998807907104
			],
			"translation":[
				2.6635825634002686e-07,
				0.2325923591852188,
				0
			]
		},
		{
			"children":[
				7
			],
			"name":"\u30dc\u30fc\u30f3.017",
			"rotation":[
				0.015101106837391853,
				0.0034995637834072113,
				0.00018728856230154634,
				0.9998798370361328
			],
			"scale":[
				0.9999999403953552,
				0.9999999403953552,
				0.9999998807907104
			],
			"translation":[
				-3.725290298461914e-09,
				0.25527122616767883,
				1.7881393432617188e-07
			]
		},
		{
			"children":[
				8
			],
			"name":"\u30dc\u30fc\u30f3.016",
			"rotation":[
				0.03489041328430176,
				0.007954038679599762,
				3.178822225891054e-05,
				0.9993595480918884
			],
			"scale":[
				1,
				0.9999999403953552,
				1.0000001192092896
			],
			"translation":[
				2.468004822731018e-08,
				0.2825145721435547,
				0
			]
		},
		{
			"children":[
				9
			],
			"name":"\u30dc\u30fc\u30f3.015",
			"rotation":[
				-0.05436401441693306,
				-0.011370955966413021,
				0.06143087148666382,
				0.9965648651123047
			],
			"scale":[
				0.9999998807907104,
				1,
				1
			],
			"translation":[
				-1.5366822481155396e-08,
				0.2408151477575302,
				4.470348358154297e-08
			]
		},
		{
			"children":[
				10
			],
			"name":"\u30dc\u30fc\u30f3.014",
			"rotation":[
				-0.18069495260715485,
				-0.03786778450012207,
				-0.18630604445934296,
				0.9649898409843445
			],
			"scale":[
				1,
				1.0000001192092896,
				1
			],
			"translation":[
				-1.341104507446289e-07,
				1.040422797203064,
				1.0337680578231812e-07
			]
		},
		{
			"children":[
				11
			],
			"name":"\u30dc\u30fc\u30f3.003",
			"rotation":[
				0.729401171207428,
				0.2220226377248764,
				-0.18842138350009918,
				0.6190131306648254
			],
			"translation":[
				-6.2561027469598685e-09,
				0.2813153862953186,
				-1.2212453270876722e-15
			]
		},
		{
			"name":"\u30dc\u30fc\u30f3.033",
			"rotation":[
				0.025301022455096245,
				0.008753085508942604,
				-0.038299914449453354,
				0.9989075660705566
			],
			"scale":[
				1.0000001192092896,
				1.0000001192092896,
				0.9999999403953552
			],
			"translation":[
				2.086162567138672e-07,
				0.21387887001037598,
				2.4586915969848633e-07
			]
		},
		{
			"children":[
				13
			],
			"name":"\u30dc\u30fc\u30f3.032",
			"rotation":[
				-0.010253842920064926,
				0.0002278396423207596,
				-0.024847915396094322,
				0.9996386170387268
			],
			"scale":[
				0.9999999403953552,
				0.9999999403953552,
				0.9999999403953552
			],
			"translation":[
				-4.3958425521850586e-07,
				0.3230758309364319,
				5.587935447692871e-09
			]
		},
		{
			"name":"\u30dc\u30fc\u30f3.036",
			"rotation":[
				0.002455245703458786,
				-0.005229199770838022,
				0.03638750687241554,
				0.9993211030960083
			],
			"scale":[
				0.9999999403953552,
				0.9999999403953552,
				0.9999999403953552
			],
			"translation":[
				-3.427267074584961e-07,
				0.15016601979732513,
				-3.5762786865234375e-07
			]
		},
		{
			"children":[
				15
			],
			"name":"\u30dc\u30fc\u30f3.035",
			"rotation":[
				-0.159469872713089,
				0.014234081842005253,
				0.07763583213090897,
				0.9840424060821533
			],
			"scale":[
				1,
				1,
				1.0000001192092896
			],
			"translation":[
				-6.891787052154541e-08,
				0.18264445662498474,
				4.76837158203125e-07
			]
		},
		{
			"children":[
				16
			],
			"name":"\u30dc\u30fc\u30f3.034",
			"rotation":[
				-0.6483618021011353,
				-1.6798233559711662e-07,
				-0.10535821318626404,
				0.75400710105896
			],
			"scale":[
				0.9999998807907104,
				0.9999999403953552,
				0.9999999403953552
			],
			"translation":[
				-1.862645149230957e-08,
				0.32307565212249756,
				-8.381903171539307e-08
			]
		},
		{
			"name":"\u30dc\u30fc\u30f3.039",
			"rotation":[
				0.009455238468945026,
				0.004141164477914572,
				0.0524047389626503,
				0.998572587966919
			],
			"scale":[
				1,
				0.9999998211860657,
				1
			],
			"translation":[
				1.2665987014770508e-07,
				0.13895723223686218,
				-8.940696716308594e-08
			]
		},
		{
			"children":[
				18
			],
			"name":"\u30dc\u30fc\u30f3.038",
			"rotation":[
				0.007651821710169315,
				0.0035575225483626127,
				0.06687033921480179,
				0.9977260231971741
			],
			"scale":[
				0.9999998807907104,
				1,
				0.9999999403953552
			],
			"translation":[
				4.6566128730773926e-09,
				0.1449272632598877,
				-2.9802322387695312e-08
			]
		},
		{
			"children":[
				19
			],
			"name":"\u30dc\u30fc\u30f3.037",
			"rotation":[
				0.6329772472381592,
				0.1088021844625473,
				-0.037514444440603256,
				0.765568196773529
			],
			"scale":[
				0.9999998807907104,
				0.9999998211860657,
				0.9999998211860657
			],
			"translation":[
				-7.82310962677002e-08,
				0.32307571172714233,
				-1.1362135410308838e-07
			]
		},
		{
			"children":[
				14,
				17,
				20
			],
			"name":"\u30dc\u30fc\u30f3.031",
			"rotation":[
				-0.0032607722096145153,
				-0.0006168328691273928,
				0.015106762759387493,
				0.9998803734779358
			],
			"scale":[
				1.0000001192092896,
				0.9999998807907104,
				0.9999998807907104
			],
			"translation":[
				8.195638656616211e-08,
				0.2827276587486267,
				3.725290298461914e-09
			]
		},
		{
			"children":[
				21
			],
			"name":"\u30dc\u30fc\u30f3.030",
			"rotation":[
				0.056942496448755264,
				0.005021638702601194,
				-0.0335407629609108,
				0.9978012442588806
			],
			"scale":[
				1,
				0.9999998807907104,
				0.9999999403953552
			],
			"translation":[
				8.987262845039368e-08,
				0.31392571330070496,
				1.1920928955078125e-07
			]
		},
		{
			"children":[
				22
			],
			"name":"\u30dc\u30fc\u30f3.029",
			"rotation":[
				-0.038822781294584274,
				-0.0013213125057518482,
				-0.03463185206055641,
				0.9986449480056763
			],
			"scale":[
				0.9999998807907104,
				0.9999998807907104,
				0.9999998807907104
			],
			"translation":[
				3.3527612686157227e-08,
				0.35546496510505676,
				-2.9802322387695312e-08
			]
		},
		{
			"children":[
				23
			],
			"name":"\u30dc\u30fc\u30f3.028",
			"rotation":[
				0.25561609864234924,
				-3.565650530390485e-08,
				-0.026551449671387672,
				0.966413676738739
			],
			"scale":[
				1,
				0.9999998807907104,
				1
			],
			"translation":[
				-1.4156103134155273e-07,
				1.0053519010543823,
				-4.470348358154297e-08
			]
		},
		{
			"children":[
				24
			],
			"name":"\u30dc\u30fc\u30f3.004",
			"rotation":[
				-0.7151315808296204,
				-0.1555970460176468,
				-0.1448792666196823,
				0.6658726334571838
			],
			"scale":[
				0.9999999403953552,
				1,
				1
			],
			"translation":[
				-2.3052623699346424e-17,
				0.2813153862953186,
				-4.21220484944499e-17
			]
		},
		{
			"name":"\u30dc\u30fc\u30f3.010",
			"rotation":[
				0.015314009971916676,
				-0.0016828611260280013,
				0.015416042879223824,
				0.9997624754905701
			],
			"scale":[
				0.9999999403953552,
				1,
				1
			],
			"translation":[
				1.5273690223693848e-07,
				0.21118631958961487,
				-7.450580596923828e-08
			]
		},
		{
			"children":[
				26
			],
			"name":"\u30dc\u30fc\u30f3.009",
			"rotation":[
				-0.03183657303452492,
				-0.00041274208342656493,
				0.004592964891344309,
				0.9994824528694153
			],
			"scale":[
				0.9999998807907104,
				0.9999999403953552,
				0.9999999403953552
			],
			"translation":[
				-3.725290298461914e-09,
				0.23876875638961792,
				-5.960464477539063e-08
			]
		},
		{
			"children":[
				27
			],
			"name":"\u30dc\u30fc\u30f3.008",
			"rotation":[
				0.043557461351156235,
				-0.00637004803866148,
				0.06084505096077919,
				0.9971760511398315
			],
			"scale":[
				1.0000001192092896,
				1.0000001192092896,
				1.0000001192092896
			],
			"translation":[
				2.4586915969848633e-07,
				0.21549585461616516,
				-9.685754776000977e-08
			]
		},
		{
			"children":[
				28
			],
			"name":"\u30dc\u30fc\u30f3.007",
			"rotation":[
				0.14080485701560974,
				-0.018746573477983475,
				0.34849321842193604,
				0.9264853596687317
			],
			"scale":[
				1.0000001192092896,
				1,
				0.9999999403953552
			],
			"translation":[
				-3.3527612686157227e-08,
				0.8700820207595825,
				-4.470348358154297e-08
			]
		},
		{
			"children":[
				29
			],
			"name":"\u30dc\u30fc\u30f3.005",
			"rotation":[
				-0.18918024003505707,
				-0.0010940373176708817,
				-0.612387478351593,
				0.7675879597663879
			],
			"scale":[
				0.9999999403953552,
				1,
				1
			],
			"translation":[
				-3.4382838798308057e-09,
				0.2813152074813843,
				-1.4901161193847656e-08
			]
		},
		{
			"name":"\u30dc\u30fc\u30f3.013",
			"rotation":[
				0.0016989042051136494,
				-1.2159703999259364e-07,
				-0.004178016912192106,
				0.9999898672103882
			],
			"scale":[
				0.9999999403953552,
				1.0000001192092896,
				0.9999999403953552
			],
			"translation":[
				1.4901161193847656e-08,
				0.2575245201587677,
				-8.940696716308594e-08
			]
		},
		{
			"children":[
				31
			],
			"name":"\u30dc\u30fc\u30f3.012",
			"rotation":[
				-0.014427347108721733,
				-2.6189383106611785e-07,
				0.035478509962558746,
				0.9992662668228149
			],
			"scale":[
				0.9999999403953552,
				1,
				0.9999999403953552
			],
			"translation":[
				-2.9802322387695312e-08,
				0.23581886291503906,
				-3.725290298461914e-08
			]
		},
		{
			"children":[
				32
			],
			"name":"\u30dc\u30fc\u30f3.011",
			"rotation":[
				-0.26179593801498413,
				0.0004684943414758891,
				0.08888731151819229,
				0.9610211849212646
			],
			"scale":[
				0.9999998807907104,
				0.9999998807907104,
				0.9999998807907104
			],
			"translation":[
				-8.940696716308594e-08,
				1.0462570190429688,
				1.4901161193847656e-08
			]
		},
		{
			"children":[
				33
			],
			"name":"\u30dc\u30fc\u30f3.006",
			"rotation":[
				0.3022935092449188,
				0.00199474161490798,
				-0.6787368655204773,
				0.6692764759063721
			],
			"scale":[
				1.0000001192092896,
				1,
				1
			],
			"translation":[
				1.2747707778260065e-08,
				0.2813152074813843,
				-1.4901160305669237e-08
			]
		},
		{
			"name":"\u30dc\u30fc\u30f3.027",
			"rotation":[
				0.12858067452907562,
				-1.2762522771936347e-07,
				-0.018640585243701935,
				0.991523802280426
			],
			"translation":[
				0,
				0.5021856427192688,
				3.259629011154175e-08
			]
		},
		{
			"children":[
				35
			],
			"name":"\u30dc\u30fc\u30f3.026",
			"rotation":[
				0.14957565069198608,
				-4.757437821467647e-08,
				0.01752353645861149,
				0.9885950088500977
			],
			"scale":[
				1,
				0.9999999403953552,
				0.9999999403953552
			],
			"translation":[
				2.0547306078810834e-09,
				0.28131526708602905,
				-3.3306690738754696e-16
			]
		},
		{
			"children":[
				12,
				25,
				30,
				34,
				36
			],
			"name":"\u30dc\u30fc\u30f3.002",
			"rotation":[
				7.14031039783042e-17,
				7.369322960477362e-17,
				1.837831949613126e-15,
				1
			],
			"translation":[
				8.718366659883072e-16,
				0.3982223868370056,
				-2.195846888973068e-16
			]
		},
		{
			"children":[
				37
			],
			"name":"\u30dc\u30fc\u30f3.001",
			"rotation":[
				-4.012212959059961e-16,
				7.369322298732872e-17,
				6.577034149650801e-17,
				1
			],
			"translation":[
				3.3306690738754696e-16,
				0.5587688684463501,
				-3.8163916471489756e-17
			]
		},
		{
			"children":[
				38
			],
			"name":"\u30dc\u30fc\u30f3",
			"rotation":[
				-8.477220592162382e-10,
				0.6523604393005371,
				-5.631629829139229e-09,
				0.7579088807106018
			],
			"translation":[
				0,
				-0.5734995007514954,
				0
			]
		},
		{
			"mesh":0,
			"name":"\u5186\u67f1.006",
			"skin":0
		},
		{
			"children":[
				40,
				39
			],
			"name":"\u30a2\u30fc\u30de\u30c1\u30e5\u30a2"
		}
	],
	"animations":[
		{
			"channels":[
				{
					"sampler":0,
					"target":{
						"node":39,
						"path":"translation"
					}
				},
				{
					"sampler":1,
					"target":{
						"node":39,
						"path":"rotation"
					}
				},
				{
					"sampler":2,
					"target":{
						"node":39,
						"path":"scale"
					}
				},
				{
					"sampler":3,
					"target":{
						"node":38,
						"path":"translation"
					}
				},
				{
					"sampler":4,
					"target":{
						"node":38,
						"path":"rotation"
					}
				},
				{
					"sampler":5,
					"target":{
						"node":38,
						"path":"scale"
					}
				},
				{
					"sampler":6,
					"target":{
						"node":37,
						"path":"translation"
					}
				},
				{
					"sampler":7,
					"target":{
						"node":37,
						"path":"rotation"
					}
				},
				{
					"sampler":8,
					"target":{
						"node":37,
						"path":"scale"
					}
				},
				{
					"sampler":9,
					"target":{
						"node":12,
						"path":"translation"
					}
				},
				{
					"sampler":10,
					"target":{
						"node":12,
						"path":"rotation"
					}
				},
				{
					"sampler":11,
					"target":{
						"node":12,
						"path":"scale"
					}
				},
				{
					"sampler":12,
					"target":{
						"node":11,
						"path":"translation"
					}
				},
				{
					"sampler":13,
					"target":{
						"node":11,
						"path":"rotation"
					}
				},
				{
					"sampler":14,
					"target":{
						"node":11,
						"path":"scale"
					}
				},
				{
					"sampler":15,
					"target":{
						"node":10,
						"path":"translation"
					}
				},
				{
					"sampler":16,
					"target":{
						"node":10,
						"path":"rotation"
					}
				},
				{
					"sampler":17,
					"target":{
						"node":10,
						"path":"scale"
					}
				},
				{
					"sampler":18,
					"target":{
						"node":9,
						"path":"translation"
					}
				},
				{
					"sampler":19,
					"target":{
						"node":9,
						"path":"rotation"
					}
				},
				{
					"sampler":20,
					"target":{
						"node":9,
						"path":"scale"
					}
				},
				{
					"sampler":21,
					"target":{
						"node":8,
						"path":"translation"
					}
				},
				{
					"sampler":22,
					"target":{
						"node":8,
						"path":"rotation"
					}
				},
				{
					"sampler":23,
					"target":{
						"node":8,
						"path":"scale"
					}
				},
				{
					"sampler":24,
					"target":{
						"node":7,
						"path":"translation"
					}
				},
				{
					"sampler":25,
					"target":{
						"node":7,
						"path":"rotation"
					}
				},
				{
					"sampler":26,
					"target":{
						"node":7,
						"path":"scale"
					}
				},
				{
					"sampler":27,
					"target":{
						"node":6,
						"path":"translation"
					}
				},
				{
					"sampler":28,
					"target":{
						"node":6,
						"path":"rotation"
					}
				},
				{
					"sampler":29,
					"target":{
						"node":6,
						"path":"scale"
					}
				},
				{
					"sampler":30,
					"target":{
						"node":1,
						"path":"translation"
					}
				},
				{
					"sampler":31,
					"target":{
						"node":1,
						"path":"rotation"
					}
				},
				{
					"sampler":32,
					"target":{
						"node":1,
						"path":"scale"
					}
				},
				{
					"sampler":33,
					"target":{
						"node":0,
						"path":"translation"
					}
				},
				{
					"sampler":34,
					"target":{
						"node":0,
						"path":"rotation"
					}
				},
				{
					"sampler":35,
					"target":{
						"node":0,
						"path":"scale"
					}
				},
				{
					"sampler":36,
					"target":{
						"node":3,
						"path":"translation"
					}
				},
				{
					"sampler":37,
					"target":{
						"node":3,
						"path":"rotation"
					}
				},
				{
					"sampler":38,
					"target":{
						"node":3,
						"path":"scale"
					}
				},
				{
					"sampler":39,
					"target":{
						"node":2,
						"path":"translation"
					}
				},
				{
					"sampler":40,
					"target":{
						"node":2,
						"path":"rotation"
					}
				},
				{
					"sampler":41,
					"target":{
						"node":2,
						"path":"scale"
					}
				},
				{
					"sampler":42,
					"target":{
						"node":5,
						"path":"translation"
					}
				},
				{
					"sampler":43,
					"target":{
						"node":5,
						"path":"rotation"
					}
				},
				{
					"sampler":44,
					"target":{
						"node":5,
						"path":"scale"
					}
				},
				{
					"sampler":45,
					"target":{
						"node":4,
						"path":"translation"
					}
				},
				{
					"sampler":46,
					"target":{
						"node":4,
						"path":"rotation"
					}
				},
				{
					"sampler":47,
					"target":{
						"node":4,
						"path":"scale"
					}
				},
				{
					"sampler":48,
					"target":{
						"node":25,
						"path":"translation"
					}
				},
				{
					"sampler":49,
					"target":{
						"node":25,
						"path":"rotation"
					}
				},
				{
					"sampler":50,
					"target":{
						"node":25,
						"path":"scale"
					}
				},
				{
					"sampler":51,
					"target":{
						"node":24,
						"path":"translation"
					}
				},
				{
					"sampler":52,
					"target":{
						"node":24,
						"path":"rotation"
					}
				},
				{
					"sampler":53,
					"target":{
						"node":24,
						"path":"scale"
					}
				},
				{
					"sampler":54,
					"target":{
						"node":23,
						"path":"translation"
					}
				},
				{
					"sampler":55,
					"target":{
						"node":23,
						"path":"rotation"
					}
				},
				{
					"sampler":56,
					"target":{
						"node":23,
						"path":"scale"
					}
				},
				{
					"sampler":57,
					"target":{
						"node":22,
						"path":"translation"
					}
				},
				{
					"sampler":58,
					"target":{
						"node":22,
						"path":"rotation"
					}
				},
				{
					"sampler":59,
					"target":{
						"node":22,
						"path":"scale"
					}
				},
				{
					"sampler":60,
					"target":{
						"node":21,
						"path":"translation"
					}
				},
				{
					"sampler":61,
					"target":{
						"node":21,
						"path":"rotation"
					}
				},
				{
					"sampler":62,
					"target":{
						"node":21,
						"path":"scale"
					}
				},
				{
					"sampler":63,
					"target":{
						"node":14,
						"path":"translation"
					}
				},
				{
					"sampler":64,
					"target":{
						"node":14,
						"path":"rotation"
					}
				},
				{
					"sampler":65,
					"target":{
						"node":14,
						"path":"scale"
					}
				},
				{
					"sampler":66,
					"target":{
						"node":13,
						"path":"translation"
					}
				},
				{
					"sampler":67,
					"target":{
						"node":13,
						"path":"rotation"
					}
				},
				{
					"sampler":68,
					"target":{
						"node":13,
						"path":"scale"
					}
				},
				{
					"sampler":69,
					"target":{
						"node":17,
						"path":"translation"
					}
				},
				{
					"sampler":70,
					"target":{
						"node":17,
						"path":"rotation"
					}
				},
				{
					"sampler":71,
					"target":{
						"node":17,
						"path":"scale"
					}
				},
				{
					"sampler":72,
					"target":{
						"node":16,
						"path":"translation"
					}
				},
				{
					"sampler":73,
					"target":{
						"node":16,
						"path":"rotation"
					}
				},
				{
					"sampler":74,
					"target":{
						"node":16,
						"path":"scale"
					}
				},
				{
					"sampler":75,
					"target":{
						"node":15,
						"path":"translation"
					}
				},
				{
					"sampler":76,
					"target":{
						"node":15,
						"path":"rotation"
					}
				},
				{
					"sampler":77,
					"target":{
						"node":15,
						"path":"scale"
					}
				},
				{
					"sampler":78,
					"target":{
						"node":20,
						"path":"translation"
					}
				},
				{
					"sampler":79,
					"target":{
						"node":20,
						"path":"rotation"
					}
				},
				{
					"sampler":80,
					"target":{
						"node":20,
						"path":"scale"
					}
				},
				{
					"sampler":81,
					"target":{
						"node":19,
						"path":"translation"
					}
				},
				{
					"sampler":82,
					"target":{
						"node":19,
						"path":"rotation"
					}
				},
				{
					"sampler":83,
					"target":{
						"node":19,
						"path":"scale"
					}
				},
				{
					"sampler":84,
					"target":{
						"node":18,
						"path":"translation"
					}
				},
				{
					"sampler":85,
					"target":{
						"node":18,
						"path":"rotation"
					}
				},
				{
					"sampler":86,
					"target":{
						"node":18,
						"path":"scale"
					}
				},
				{
					"sampler":87,
					"target":{
						"node":30,
						"path":"translation"
					}
				},
				{
					"sampler":88,
					"target":{
						"node":30,
						"path":"rotation"
					}
				},
				{
					"sampler":89,
					"target":{
						"node":30,
						"path":"scale"
					}
				},
				{
					"sampler":90,
					"target":{
						"node":29,
						"path":"translation"
					}
				},
				{
					"sampler":91,
					"target":{
						"node":29,
						"path":"rotation"
					}
				},
				{
					"sampler":92,
					"target":{
						"node":29,
						"path":"scale"
					}
				},
				{
					"sampler":93,
					"target":{
						"node":28,
						"path":"translation"
					}
				},
				{
					"sampler":94,
					"target":{
						"node":28,
						"path":"rotation"
					}
				},
				{
					"sampler":95,
					"target":{
						"node":28,
						"path":"scale"
					}
				},
				{
					"sampler":96,
					"target":{
						"node":27,
						"path":"translation"
					}
				},
				{
					"sampler":97,
					"target":{
						"node":27,
						"path":"rotation"
					}
				},
				{
					"sampler":98,
					"target":{
						"node":27,
						"path":"scale"
					}
				},
				{
					"sampler":99,
					"target":{
						"node":26,
						"path":"translation"
					}
				},
				{
					"sampler":100,
					"target":{
						"node":26,
						"path":"rotation"
					}
				},
				{
					"sampler":101,
					"target":{
						"node":26,
						"path":"scale"
					}
				},
				{
					"sampler":102,
					"target":{
						"node":34,
						"path":"translation"
					}
				},
				{
					"sampler":103,
					"target":{
						"node":34,
						"path":"rotation"
					}
				},
				{
					"sampler":104,
					"target":{
						"node":34,
						"path":"scale"
					}
				},
				{
					"sampler":105,
					"target":{
						"node":33,
						"path":"translation"
					}
				},
				{
					"sampler":106,
					"target":{
						"node":33,
						"path":"rotation"
					}
				},
				{
					"sampler":107,
					"target":{
						"node":33,
						"path":"scale"
					}
				},
				{
					"sampler":108,
					"target":{
						"node":32,
						"path":"translation"
					}
				},
				{
					"sampler":109,
					"target":{
						"node":32,
						"path":"rotation"
					}
				},
				{
					"sampler":110,
					"target":{
						"node":32,
						"path":"scale"
					}
				},
				{
					"sampler":111,
					"target":{
						"node":31,
						"path":"translation"
					}
				},
				{
					"sampler":112,
					"target":{
						"node":31,
						"path":"rotation"
					}
				},
				{
					"sampler":113,
					"target":{
						"node":31,
						"path":"scale"
					}
				},
				{
					"sampler":114,
					"target":{
						"node":36,
						"path":"translation"
					}
				},
				{
					"sampler":115,
					"target":{
						"node":36,
						"path":"rotation"
					}
				},
				{
					"sampler":116,
					"target":{
						"node":36,
						"path":"scale"
					}
				},
				{
					"sampler":117,
					"target":{
						"node":35,
						"path":"translation"
					}
				},
				{
					"sampler":118,
					"target":{
						"node":35,
						"path":"rotation"
					}
				},
				{
					"sampler":119,
					"target":{
						"node":35,
						"path":"scale"
					}
				}
			],
			"name":"clear",
			"samplers":[
				{
					"input":7,
					"interpolation":"LINEAR",
					"output":8
				},
				{
					"input":9,
					"interpolation":"STEP",
					"output":10
				},
				{
					"input":7,
					"interpolation":"LINEAR",
					"output":11
				},
				{
					"input":9,
					"interpolation":"STEP",
					"output":12
				},
				{
					"input":9,
					"interpolation":"STEP",
					"output":13
				},
				{
					"input":9,
					"interpolation":"STEP",
					"output":14
				},
				{
					"input":9,
					"interpolation":"STEP",
					"output":15
				},
				{
					"input":7,
					"interpolation":"LINEAR",
					"output":16
				},
				{
					"input":9,
					"interpolation":"STEP",
					"output":14
				},
				{
					"input":9,
					"interpolation":"STEP",
					"output":17
				},
				{
					"input":9,
					"interpolation":"STEP",
					"output":18
				},
				{
					"input":9,
					"interpolation":"STEP",
					"output":19
				},
				{
					"input":9,
					"interpolation":"STEP",
					"output":20
				},
				{
					"input":7,
					"interpolation":"LINEAR",
					"output":21
				},
				{
					"input":9,
					"interpolation":"STEP",
					"output":22
				},
				{
					"input":9,
					"interpolation":"STEP",
					"output":23
				},
				{
					"input":7,
					"interpolation":"LINEAR",
					"output":24
				},
				{
					"input":9,
					"interpolation":"STEP",
					"output":25
				},
				{
					"input":9,
					"interpolation":"STEP",
					"output":26
				},
				{
					"input":9,
					"interpolation":"STEP",
					"output":27
				},
				{
					"input":9,
					"interpolation":"STEP",
					"output":28
				},
				{
					"input":9,
					"interpolation":"STEP",
					"output":29
				},
				{
					"input":9,
					"interpolation":"STEP",
					"output":30
				},
				{
					"input":9,
					"interpolation":"STEP",
					"output":31
				},
				{
					"input":9,
					"interpolation":"STEP",
					"output":32
				},
				{
					"input":9,
					"interpolation":"STEP",
					"output":33
				},
				{
					"input":9,
					"interpolation":"STEP",
					"output":34
				},
				{
					"input":9,
					"interpolation":"STEP",
					"output":35
				},
				{
					"input":9,
					"interpolation":"STEP",
					"output":36
				},
				{
					"input":9,
					"interpolation":"STEP",
					"output":37
				},
				{
					"input":9,
					"interpolation":"STEP",
					"output":38
				},
				{
					"input":9,
					"interpolation":"STEP",
					"output":39
				},
				{
					"input":9,
					"interpolation":"STEP",
					"output":40
				},
				{
					"input":9,
					"interpolation":"STEP",
					"output":41
				},
				{
					"input":9,
					"interpolation":"STEP",
					"output":42
				},
				{
					"input":9,
					"interpolation":"STEP",
					"output":43
				},
				{
					"input":9,
					"interpolation":"STEP",
					"output":44
				},
				{
					"input":9,
					"interpolation":"STEP",
					"output":45
				},
				{
					"input":9,
					"interpolation":"STEP",
					"output":46
				},
				{
					"input":9,
					"interpolation":"STEP",
					"output":47
				},
				{
					"input":9,
					"interpolation":"STEP",
					"output":48
				},
				{
					"input":9,
					"interpolation":"STEP",
					"output":49
				},
				{
					"input":9,
					"interpolation":"STEP",
					"output":50
				},
				{
					"input":9,
					"interpolation":"STEP",
					"output":51
				},
				{
					"input":9,
					"interpolation":"STEP",
					"output":52
				},
				{
					"input":9,
					"interpolation":"STEP",
					"output":53
				},
				{
					"input":9,
					"interpolation":"STEP",
					"output":54
				},
				{
					"input":9,
					"interpolation":"STEP",
					"output":55
				},
				{
					"input":9,
					"interpolation":"STEP",
					"output":56
				},
				{
					"input":9,
					"interpolation":"STEP",
					"output":57
				},
				{
					"input":9,
					"interpolation":"STEP",
					"output":58
				},
				{
					"input":9,
					"interpolation":"STEP",
					"output":59
				},
				{
					"input":7,
					"interpolation":"LINEAR",
					"output":60
				},
				{
					"input":9,
					"interpolation":"STEP",
					"output":61
				},
				{
					"input":9,
					"interpolation":"STEP",
					"output":62
				},
				{
					"input":9,
					"interpolation":"STEP",
					"output":63
				},
				{
					"input":9,
					"interpolation":"STEP",
					"output":64
				},
				{
					"input":9,
					"interpolation":"STEP",
					"output":65
				},
				{
					"input":7,
					"interpolation":"LINEAR",
					"output":66
				},
				{
					"input":9,
					"interpolation":"STEP",
					"output":67
				},
				{
					"input":9,
					"interpolation":"STEP",
					"output":68
				},
				{
					"input":7,
					"interpolation":"LINEAR",
					"output":69
				},
				{
					"input":9,
					"interpolation":"STEP",
					"output":70
				},
				{
					"input":9,
					"interpolation":"STEP",
					"output":71
				},
				{
					"input":9,
					"interpolation":"STEP",
					"output":72
				},
				{
					"input":9,
					"interpolation":"STEP",
					"output":73
				},
				{
					"input":9,
					"interpolation":"STEP",
					"output":74
				},
				{
					"input":9,
					"interpolation":"STEP",
					"output":75
				},
				{
					"input":9,
					"interpolation":"STEP",
					"output":76
				},
				{
					"input":9,
					"interpolation":"STEP",
					"output":77
				},
				{
					"input":9,
					"interpolation":"STEP",
					"output":78
				},
				{
					"input":9,
					"interpolation":"STEP",
					"output":79
				},
				{
					"input":9,
					"interpolation":"STEP",
					"output":80
				},
				{
					"input":9,
					"interpolation":"STEP",
					"output":81
				},
				{
					"input":9,
					"interpolation":"STEP",
					"output":82
				},
				{
					"input":9,
					"interpolation":"STEP",
					"output":83
				},
				{
					"input":9,
					"interpolation":"STEP",
					"output":84
				},
				{
					"input":9,
					"interpolation":"STEP",
					"output":85
				},
				{
					"input":9,
					"interpolation":"STEP",
					"output":86
				},
				{
					"input":9,
					"interpolation":"STEP",
					"output":87
				},
				{
					"input":9,
					"interpolation":"STEP",
					"output":88
				},
				{
					"input":9,
					"interpolation":"STEP",
					"output":89
				},
				{
					"input":9,
					"interpolation":"STEP",
					"output":90
				},
				{
					"input":9,
					"interpolation":"STEP",
					"output":91
				},
				{
					"input":9,
					"interpolation":"STEP",
					"output":92
				},
				{
					"input":9,
					"interpolation":"STEP",
					"output":93
				},
				{
					"input":9,
					"interpolation":"STEP",
					"output":94
				},
				{
					"input":9,
					"interpolation":"STEP",
					"output":95
				},
				{
					"input":9,
					"interpolation":"STEP",
					"output":96
				},
				{
					"input":9,
					"interpolation":"STEP",
					"output":97
				},
				{
					"input":9,
					"interpolation":"STEP",
					"output":98
				},
				{
					"input":9,
					"interpolation":"STEP",
					"output":99
				},
				{
					"input":9,
					"interpolation":"STEP",
					"output":100
				},
				{
					"input":9,
					"interpolation":"STEP",
					"output":101
				},
				{
					"input":9,
					"interpolation":"STEP",
					"output":102
				},
				{
					"input":9,
					"interpolation":"STEP",
					"output":103
				},
				{
					"input":9,
					"interpolation":"STEP",
					"output":104
				},
				{
					"input":9,
					"interpolation":"STEP",
					"output":105
				},
				{
					"input":9,
					"interpolation":"STEP",
					"output":106
				},
				{
					"input":9,
					"interpolation":"STEP",
					"output":107
				},
				{
					"input":7,
					"interpolation":"LINEAR",
					"output":108
				},
				{
					"input":9,
					"interpolation":"STEP",
					"output":109
				},
				{
					"input":9,
					"interpolation":"STEP",
					"output":110
				},
				{
					"input":9,
					"interpolation":"STEP",
					"output":111
				},
				{
					"input":9,
					"interpolation":"STEP",
					"output":46
				},
				{
					"input":9,
					"interpolation":"STEP",
					"output":112
				},
				{
					"input":9,
					"interpolation":"STEP",
					"output":113
				},
				{
					"input":9,
					"interpolation":"STEP",
					"output":114
				},
				{
					"input":9,
					"interpolation":"STEP",
					"output":115
				},
				{
					"input":9,
					"interpolation":"STEP",
					"output":116
				},
				{
					"input":9,
					"interpolation":"STEP",
					"output":117
				},
				{
					"input":9,
					"interpolation":"STEP",
					"output":118
				},
				{
					"input":7,
					"interpolation":"LINEAR",
					"output":119
				},
				{
					"input":9,
					"interpolation":"STEP",
					"output":120
				},
				{
					"input":9,
					"interpolation":"STEP",
					"output":121
				},
				{
					"input":9,
					"interpolation":"STEP",
					"output":122
				},
				{
					"input":9,
					"interpolation":"STEP",
					"output":123
				},
				{
					"input":9,
					"interpolation":"STEP",
					"output":124
				},
				{
					"input":9,
					"interpolation":"STEP",
					"output":125
				},
				{
					"input":9,
					"interpolation":"STEP",
					"output":126
				}
			]
		}
	],
	"materials":[
		{
			"doubleSided":true,
			"name":"\u30de\u30c6\u30ea\u30a2\u30eb",
			"pbrMetallicRoughness":{
				"baseColorTexture":{
					"index":0
				},
				"roughnessFactor":0.4685039520263672
			}
		}
	],
	"meshes":[
		{
			"name":"\u5186\u67f1.007",
			"primitives":[
				{
					"attributes":{
						"POSITION":0,
						"NORMAL":1,
						"TEXCOORD_0":2,
						"JOINTS_0":3,
						"WEIGHTS_0":4
					},
					"indices":5,
					"material":0
				}
			]
		}
	],
	"textures":[
		{
			"sampler":0,
			"source":0
		}
	],
	"images":[
		{
			"mimeType":"image/png",
			"name":"boss",
			"uri":"boss.png"
		}
	],
	"skins":[
		{
			"inverseBindMatrices":6,
			"joints":[
				39,
				38,
				37,
				12,
				11,
				10,
				9,
				8,
				7,
				6,
				1,
				0,
				3,
				2,
				5,
				4,
				25,
				24,
				23,
				22,
				21,
				14,
				13,
				17,
				16,
				15,
				20,
				19,
				18,
				30,
				29,
				28,
				27,
				26,
				34,
				33,
				32,
				31,
				36,
				35
			],
			"name":"\u30a2\u30fc\u30de\u30c1\u30e5\u30a2"
		}
	],
	"accessors":[
		{
			"bufferView":0,
			"componentType":5126,
			"count":1301,
			"max":[
				2.524895191192627,
				1.7638839483261108,
				1.195298433303833
			],
			"min":[
				-2.0811891555786133,
				-0.5986354947090149,
				-1.9032163619995117
			],
			"type":"VEC3"
		},
		{
			"bufferView":1,
			"componentType":5126,
			"count":1301,
			"type":"VEC3"
		},
		{
			"bufferView":2,
			"componentType":5126,
			"count":1301,
			"type":"VEC2"
		},
		{
			"bufferView":3,
			"componentType":5121,
			"count":1301,
			"type":"VEC4"
		},
		{
			"bufferView":4,
			"componentType":5126,
			"count":1301,
			"type":"VEC4"
		},
		{
			"bufferView":5,
			"componentType":5123,
			"count":6450,
			"type":"SCALAR"
		},
		{
			"bufferView":6,
			"componentType":5126,
			"count":40,
			"type":"MAT4"
		},
		{
			"bufferView":7,
			"componentType":5126,
			"count":12,
			"max":[
				0.5
			],
			"min":[
				0.041666666666666664
			],
			"type":"SCALAR"
		},
		{
			"bufferView":8,
			"componentType":5126,
			"count":12,
			"type":"VEC3"
		},
		{
			"bufferView":9,
			"componentType":5126,
			"count":2,
			"max":[
				0.5
			],
			"min":[
				0.041666666666666664
			],
			"type":"SCALAR"
		},
		{
			"bufferView":10,
			"componentType":5126,
			"count":2,
			"type":"VEC4"
		},
		{
			"bufferView":11,
			"componentType":5126,
			"count":12,
			"type":"VEC3"
		},
		{
			"bufferView":12,
			"componentType":5126,
			"count":2,
			"type":"VEC3"
		},
		{
			"bufferView":13,
			"componentType":5126,
			"count":2,
			"type":"VEC4"
		},
		{
			"bufferView":14,
			"componentType":5126,
			"count":2,
			"type":"VEC3"
		},
		{
			"bufferView":15,
			"componentType":5126,
			"count":2,
			"type":"VEC3"
		},
		{
			"bufferView":16,
			"componentType":5126,
			"count":12,
			"type":"VEC4"
		},
		{
			"bufferView":17,
			"componentType":5126,
			"count":2,
			"type":"VEC3"
		},
		{
			"bufferView":18,
			"componentType":5126,
			"count":2,
			"type":"VEC4"
		},
		{
			"bufferView":19,
			"componentType":5126,
			"count":2,
			"type":"VEC3"
		},
		{
			"bufferView":20,
			"componentType":5126,
			"count":2,
			"type":"VEC3"
		},
		{
			"bufferView":21,
			"componentType":5126,
			"count":12,
			"type":"VEC4"
		},
		{
			"bufferView":22,
			"componentType":5126,
			"count":2,
			"type":"VEC3"
		},
		{
			"bufferView":23,
			"componentType":5126,
			"count":2,
			"type":"VEC3"
		},
		{
			"bufferView":24,
			"componentType":5126,
			"count":12,
			"type":"VEC4"
		},
		{
			"bufferView":25,
			"componentType":5126,
			"count":2,
			"type":"VEC3"
		},
		{
			"bufferView":26,
			"componentType":5126,
			"count":2,
			"type":"VEC3"
		},
		{
			"bufferView":27,
			"componentType":5126,
			"count":2,
			"type":"VEC4"
		},
		{
			"bufferView":28,
			"componentType":5126,
			"count":2,
			"type":"VEC3"
		},
		{
			"bufferView":29,
			"componentType":5126,
			"count":2,
			"type":"VEC3"
		},
		{
			"bufferView":30,
			"componentType":5126,
			"count":2,
			"type":"VEC4"
		},
		{
			"bufferView":31,
			"componentType":5126,
			"count":2,
			"type":"VEC3"
		},
		{
			"bufferView":32,
			"componentType":5126,
			"count":2,
			"type":"VEC3"
		},
		{
			"bufferView":33,
			"componentType":5126,
			"count":2,
			"type":"VEC4"
		},
		{
			"bufferView":34,
			"componentType":5126,
			"count":2,
			"type":"VEC3"
		},
		{
			"bufferView":35,
			"componentType":5126,
			"count":2,
			"type":"VEC3"
		},
		{
			"bufferView":36,
			"componentType":5126,
			"count":2,
			"type":"VEC4"
		},
		{
			"bufferView":37,
			"componentType":5126,
			"count":2,
			"type":"VEC3"
		},
		{
			"bufferView":38,
			"componentType":5126,
			"count":2,
			"type":"VEC3"
		},
		{
			"bufferView":39,
			"componentType":5126,
			"count":2,
			"type":"VEC4"
		},
		{
			"bufferView":40,
			"componentType":5126,
			"count":2,
			"type":"VEC3"
		},
		{
			"bufferView":41,
			"componentType":5126,
			"count":2,
			"type":"VEC3"
		},
		{
			"bufferView":42,
			"componentType":5126,
			"count":2,
			"type":"VEC4"
		},
		{
			"bufferView":43,
			"componentType":5126,
			"count":2,
			"type":"VEC3"
		},
		{
			"bufferView":44,
			"componentType":5126,
			"count":2,
			"type":"VEC3"
		},
		{
			"bufferView":45,
			"componentType":5126,
			"count":2,
			"type":"VEC4"
		},
		{
			"bufferView":46,
			"componentType":5126,
			"count":2,
			"type":"VEC3"
		},
		{
			"bufferView":47,
			"componentType":5126,
			"count":2,
			"type":"VEC3"
		},
		{
			"bufferView":48,
			"componentType":5126,
			"count":2,
			"type":"VEC4"
		},
		{
			"bufferView":49,
			"componentType":5126,
			"count":2,
			"type":"VEC3"
		},
		{
			"bufferView":50,
			"componentType":5126,
			"count":2,
			"type":"VEC3"
		},
		{
			"bufferView":51,
			"componentType":5126,
			"count":2,
			"type":"VEC4"
		},
		{
			"bufferView":52,
			"componentType":5126,
			"count":2,
			"type":"VEC3"
		},
		{
			"bufferView":53,
			"componentType":5126,
			"count":2,
			"type":"VEC3"
		},
		{
			"bufferView":54,
			"componentType":5126,
			"count":2,
			"type":"VEC4"
		},
		{
			"bufferView":55,
			"componentType":5126,
			"count":2,
			"type":"VEC3"
		},
		{
			"bufferView":56,
			"componentType":5126,
			"count":2,
			"type":"VEC3"
		},
		{
			"bufferView":57,
			"componentType":5126,
			"count":2,
			"type":"VEC4"
		},
		{
			"bufferView":58,
			"componentType":5126,
			"count":2,
			"type":"VEC3"
		},
		{
			"bufferView":59,
			"componentType":5126,
			"count":2,
			"type":"VEC3"
		},
		{
			"bufferView":60,
			"componentType":5126,
			"count":12,
			"type":"VEC4"
		},
		{
			"bufferView":61,
			"componentType":5126,
			"count":2,
			"type":"VEC3"
		},
		{
			"bufferView":62,
			"componentType":5126,
			"count":2,
			"type":"VEC3"
		},
		{
			"bufferView":63,
			"componentType":5126,
			"count":2,
			"type":"VEC4"
		},
		{
			"bufferView":64,
			"componentType":5126,
			"count":2,
			"type":"VEC3"
		},
		{
			"bufferView":65,
			"componentType":5126,
			"count":2,
			"type":"VEC3"
		},
		{
			"bufferView":66,
			"componentType":5126,
			"count":12,
			"type":"VEC4"
		},
		{
			"bufferView":67,
			"componentType":5126,
			"count":2,
			"type":"VEC3"
		},
		{
			"bufferView":68,
			"componentType":5126,
			"count":2,
			"type":"VEC3"
		},
		{
			"bufferView":69,
			"componentType":5126,
			"count":12,
			"type":"VEC4"
		},
		{
			"bufferView":70,
			"componentType":5126,
			"count":2,
			"type":"VEC3"
		},
		{
			"bufferView":71,
			"componentType":5126,
			"count":2,
			"type":"VEC3"
		},
		{
			"bufferView":72,
			"componentType":5126,
			"count":2,
			"type":"VEC4"
		},
		{
			"bufferView":73,
			"componentType":5126,
			"count":2,
			"type":"VEC3"
		},
		{
			"bufferView":74,
			"componentType":5126,
			"count":2,
			"type":"VEC3"
		},
		{
			"bufferView":75,
			"componentType":5126,
			"count":2,
			"type":"VEC4"
		},
		{
			"bufferView":76,
			"componentType":5126,
			"count":2,
			"type":"VEC3"
		},
		{
			"bufferView":77,
			"componentType":5126,
			"count":2,
			"type":"VEC3"
		},
		{
			"bufferView":78,
			"componentType":5126,
			"count":2,
			"type":"VEC4"
		},
		{
			"bufferView":79,
			"componentType":5126,
			"count":2,
			"type":"VEC3"
		},
		{
			"bufferView":80,
			"componentType":5126,
			"count":2,
			"type":"VEC3"
		},
		{
			"bufferView":81,
			"componentType":5126,
			"count":2,
			"type":"VEC4"
		},
		{
			"bufferView":82,
			"componentType":5126,
			"count":2,
			"type":"VEC3"
		},
		{
			"bufferView":83,
			"componentType":5126,
			"count":2,
			"type":"VEC3"
		},
		{
			"bufferView":84,
			"componentType":5126,
			"count":2,
			"type":"VEC4"
		},
		{
			"bufferView":85,
			"componentType":5126,
			"count":2,
			"type":"VEC3"
		},
		{
			"bufferView":86,
			"componentType":5126,
			"count":2,
			"type":"VEC3"
		},
		{
			"bufferView":87,
			"componentType":5126,
			"count":2,
			"type":"VEC4"
		},
		{
			"bufferView":88,
			"componentType":5126,
			"count":2,
			"type":"VEC3"
		},
		{
			"bufferView":89,
			"componentType":5126,
			"count":2,
			"type":"VEC3"
		},
		{
			"bufferView":90,
			"componentType":5126,
			"count":2,
			"type":"VEC4"
		},
		{
			"bufferView":91,
			"componentType":5126,
			"count":2,
			"type":"VEC3"
		},
		{
			"bufferView":92,
			"componentType":5126,
			"count":2,
			"type":"VEC3"
		},
		{
			"bufferView":93,
			"componentType":5126,
			"count":2,
			"type":"VEC4"
		},
		{
			"bufferView":94,
			"componentType":5126,
			"count":2,
			"type":"VEC3"
		},
		{
			"bufferView":95,
			"componentType":5126,
			"count":2,
			"type":"VEC3"
		},
		{
			"bufferView":96,
			"componentType":5126,
			"count":2,
			"type":"VEC4"
		},
		{
			"bufferView":97,
			"componentType":5126,
			"count":2,
			"type":"VEC3"
		},
		{
			"bufferView":98,
			"componentType":5126,
			"count":2,
			"type":"VEC3"
		},
		{
			"bufferView":99,
			"componentType":5126,
			"count":2,
			"type":"VEC4"
		},
		{
			"bufferView":100,
			"componentType":5126,
			"count":2,
			"type":"VEC3"
		},
		{
			"bufferView":101,
			"componentType":5126,
			"count":2,
			"type":"VEC3"
		},
		{
			"bufferView":102,
			"componentType":5126,
			"count":2,
			"type":"VEC4"
		},
		{
			"bufferView":103,
			"componentType":5126,
			"count":2,
			"type":"VEC3"
		},
		{
			"bufferView":104,
			"componentType":5126,
			"count":2,
			"type":"VEC3"
		},
		{
			"bufferView":105,
			"componentType":5126,
			"count":2,
			"type":"VEC4"
		},
		{
			"bufferView":106,
			"componentType":5126,
			"count":2,
			"type":"VEC3"
		},
		{
			"bufferView":107,
			"componentType":5126,
			"count":2,
			"type":"VEC3"
		},
		{
			"bufferView":108,
			"componentType":5126,
			"count":12,
			"type":"VEC4"
		},
		{
			"bufferView":109,
			"componentType":5126,
			"count":2,
			"type":"VEC3"
		},
		{
			"bufferView":110,
			"componentType":5126,
			"count":2,
			"type":"VEC3"
		},
		{
			"bufferView":111,
			"componentType":5126,
			"count":2,
			"type":"VEC4"
		},
		{
			"bufferView":112,
			"componentType":5126,
			"count":2,
			"type":"VEC3"
		},
		{
			"bufferView":113,
			"componentType":5126,
			"count":2,
			"type":"VEC4"
		},
		{
			"bufferView":114,
			"componentType":5126,
			"count":2,
			"type":"VEC3"
		},
		{
			"bufferView":115,
			"componentType":5126,
			"count":2,
			"type":"VEC3"
		},
		{
			"bufferView":116,
			"componentType":5126,
			"count":2,
			"type":"VEC4"
		},
		{
			"bufferView":117,
			"componentType":5126,
			"count":2,
			"type":"VEC3"
		},
		{
			"bufferView":118,
			"componentType":5126,
			"count":2,
			"type":"VEC3"
		},
		{
			"bufferView":119,
			"componentType":5126,
			"count":12,
			"type":"VEC4"
		},
		{
			"bufferView":120,
			"componentType":5126,
			"count":2,
			"type":"VEC3"
		},
		{
			"bufferView":121,
			"componentType":5126,
			"count":2,
			"type":"VEC3"
		},
		{
			"bufferView":122,
			"componentType":5126,
			"count":2,
			"type":"VEC4"
		},
		{
			"bufferView":123,
			"componentType":5126,
			"count":2,
			"type":"VEC3"
		},
		{
			"bufferView":124,
			"componentType":5126,
			"count":2,
			"type":"VEC3"
		},
		{
			"bufferView":125,
			"componentType":5126,
			"count":2,
			"type":"VEC4"
		},
		{
			"bufferView":126,
			"componentType":5126,
			"count":2,
			"type":"VEC3"
		}
	],
	"bufferViews":[
		{
			"buffer":0,
			"byteLength":15612,
			"byteOffset":0,
			"target":34962
		},
		{
			"buffer":0,
			"byteLength":15612,
			"byteOffset":15612,
			"target":34962
		},
		{
			"buffer":0,
			"byteLength":10408,
			"byteOffset":31224,
			"target":34962
		},
		{
			"buffer":0,
			"byteLength":5204,
			"byteOffset":41632,
			"target":34962
		},
		{
			"buffer":0,
			"byteLength":20816,
			"byteOffset":46836,
			"target":34962
		},
		{
			"buffer":0,
			"byteLength":12900,
			"byteOffset":67652,
			"target":34963
		},
		{
			"buffer":0,
			"byteLength":2560,
			"byteOffset":80552
		},
		{
			"buffer":0,
			"byteLength":48,
			"byteOffset":83112
		},
		{
			"buffer":0,
			"byteLength":144,
			"byteOffset":83160
		},
		{
			"buffer":0,
			"byteLength":8,
			"byteOffset":83304
		},
		{
			"buffer":0,
			"byteLength":32,
			"byteOffset":83312
		},
		{
			"buffer":0,
			"byteLength":144,
			"byteOffset":83344
		},
		{
			"buffer":0,
			"byteLength":24,
			"byteOffset":83488
		},
		{
			"buffer":0,
			"byteLength":32,
			"byteOffset":83512
		},
		{
			"buffer":0,
			"byteLength":24,
			"byteOffset":83544
		},
		{
			"buffer":0,
			"byteLength":24,
			"byteOffset":83568
		},
		{
			"buffer":0,
			"byteLength":192,
			"byteOffset":83592
		},
		{
			"buffer":0,
			"byteLength":24,
			"byteOffset":83784
		},
		{
			"buffer":0,
			"byteLength":32,
			"byteOffset":83808
		},
		{
			"buffer":0,
			"byteLength":24,
			"byteOffset":83840
		},
		{
			"buffer":0,
			"byteLength":24,
			"byteOffset":83864
		},
		{
			"buffer":0,
			"byteLength":192,
			"byteOffset":83888
		},
		{
			"buffer":0,
			"byteLength":24,
			"byteOffset":84080
		},
		{
			"buffer":0,
			"byteLength":24,
			"byteOffset":84104
		},
		{
			"buffer":0,
			"byteLength":192,
			"byteOffset":84128
		},
		{
			"buffer":0,
			"byteLength":24,
			"byteOffset":84320
		},
		{
			"buffer":0,
			"byteLength":24,
			"byteOffset":84344
		},
		{
			"buffer":0,
			"byteLength":32,
			"byteOffset":84368
		},
		{
			"buffer":0,
			"byteLength":24,
			"byteOffset":84400
		},
		{
			"buffer":0,
			"byteLength":24,
			"byteOffset":84424
		},
		{
			"buffer":0,
			"byteLength":32,
			"byteOffset":84448
		},
		{
			"buffer":0,
			"byteLength":24,
			"byteOffset":84480
		},
		{
			"buffer":0,
			"byteLength":24,
			"byteOffset":84504
		},
		{
			"buffer":0,
			"byteLength":32,
			"byteOffset":84528
		},
		{
			"buffer":0,
			"byteLength":24,
			"byteOffset":84560
		},
		{
			"buffer":0,
			"byteLength":24,
			"byteOffset":84584
		},
		{
			"buffer":0,
			"byteLength":32,
			"byteOffset":84608
		},
		{
			"buffer":0,
			"byteLength":24,
			"byteOffset":84640
		},
		{
			"buffer":0,
			"byteLength":24,
			"byteOffset":84664
		},
		{
			"buffer":0,
			"byteLength":32,
			"byteOffset":84688
		},
		{
			"buffer":0,
			"byteLength":24,
			"byteOffset":84720
		},
		{
			"buffer":0,
			"byteLength":24,
			"byteOffset":84744
		},
		{
			"buffer":0,
			"byteLength":32,
			"byteOffset":84768
		},
		{
			"buffer":0,
			"byteLength":24,
			"byteOffset":84800
		},
		{
			"buffer":0,
			"byteLength":24,
			"byteOffset":84824
		},
		{
			"buffer":0,
			"byteLength":32,
			"byteOffset":84848
		},
		{
			"buffer":0,
			"byteLength":24,
			"byteOffset":84880
		},
		{
			"buffer":0,
			"byteLength":24,
			"byteOffset":84904
		},
		{
			"buffer":0,
			"byteLength":32,
			"byteOffset":84928
		},
		{
			"buffer":0,
			"byteLength":24,
			"byteOffset":84960
		},
		{
			"buffer":0,
			"byteLength":24,
			"byteOffset":84984
		},
		{
			"buffer":0,
			"byteLength":32,
			"byteOffset":85008
		},
		{
			"buffer":0,
			"byteLength":24,
			"byteOffset":85040
		},
		{
			"buffer":0,
			"byteLength":24,
			"byteOffset":85064
		},
		{
			"buffer":0,
			"byteLength":32,
			"byteOffset":85088
		},
		{
			"buffer":0,
			"byteLength":24,
			"byteOffset":85120
		},
		{
			"buffer":0,
			"byteLength":24,
			"byteOffset":85144
		},
		{
			"buffer":0,
			"byteLength":32,
			"byteOffset":85168
		},
		{
			"buffer":0,
			"byteLength":24,
			"byteOffset":85200
		},
		{
			"buffer":0,
			"byteLength":24,
			"byteOffset":85224
		},
		{
			"buffer":0,
			"byteLength":192,
			"byteOffset":85248
		},
		{
			"buffer":0,
			"byteLength":24,
			"byteOffset":85440
		},
		{
			"buffer":0,
			"byteLength":24,
			"byteOffset":85464
		},
		{
			"buffer":0,
			"byteLength":32,
			"byteOffset":85488
		},
		{
			"buffer":0,
			"byteLength":24,
			"byteOffset":85520
		},
		{
			"buffer":0,
			"byteLength":24,
			"byteOffset":85544
		},
		{
			"buffer":0,
			"byteLength":192,
			"byteOffset":85568
		},
		{
			"buffer":0,
			"byteLength":24,
			"byteOffset":85760
		},
		{
			"buffer":0,
			"byteLength":24,
			"byteOffset":85784
		},
		{
			"buffer":0,
			"byteLength":192,
			"byteOffset":85808
		},
		{
			"buffer":0,
			"byteLength":24,
			"byteOffset":86000
		},
		{
			"buffer":0,
			"byteLength":24,
			"byteOffset":86024
		},
		{
			"buffer":0,
			"byteLength":32,
			"byteOffset":86048
		},
		{
			"buffer":0,
			"byteLength":24,
			"byteOffset":86080
		},
		{
			"buffer":0,
			"byteLength":24,
			"byteOffset":86104
		},
		{
			"buffer":0,
			"byteLength":32,
			"byteOffset":86128
		},
		{
			"buffer":0,
			"byteLength":24,
			"byteOffset":86160
		},
		{
			"buffer":0,
			"byteLength":24,
			"byteOffset":86184
		},
		{
			"buffer":0,
			"byteLength":32,
			"byteOffset":86208
		},
		{
			"buffer":0,
			"byteLength":24,
			"byteOffset":86240
		},
		{
			"buffer":0,
			"byteLength":24,
			"byteOffset":86264
		},
		{
			"buffer":0,
			"byteLength":32,
			"byteOffset":86288
		},
		{
			"buffer":0,
			"byteLength":24,
			"byteOffset":86320
		},
		{
			"buffer":0,
			"byteLength":24,
			"byteOffset":86344
		},
		{
			"buffer":0,
			"byteLength":32,
			"byteOffset":86368
		},
		{
			"buffer":0,
			"byteLength":24,
			"byteOffset":86400
		},
		{
			"buffer":0,
			"byteLength":24,
			"byteOffset":86424
		},
		{
			"buffer":0,
			"byteLength":32,
			"byteOffset":86448
		},
		{
			"buffer":0,
			"byteLength":24,
			"byteOffset":86480
		},
		{
			"buffer":0,
			"byteLength":24,
			"byteOffset":86504
		},
		{
			"buffer":0,
			"byteLength":32,
			"byteOffset":86528
		},
		{
			"buffer":0,
			"byteLength":24,
			"byteOffset":86560
		},
		{
			"buffer":0,
			"byteLength":24,
			"byteOffset":86584
		},
		{
			"buffer":0,
			"byteLength":32,
			"byteOffset":86608
		},
		{
			"buffer":0,
			"byteLength":24,
			"byteOffset":86640
		},
		{
			"buffer":0,
			"byteLength":24,
			"byteOffset":86664
		},
		{
			"buffer":0,
			"byteLength":32,
			"byteOffset":86688
		},
		{
			"buffer":0,
			"byteLength":24,
			"byteOffset":86720
		},
		{
			"buffer":0,
			"byteLength":24,
			"byteOffset":86744
		},
		{
			"buffer":0,
			"byteLength":32,
			"byteOffset":86768
		},
		{
			"buffer":0,
			"byteLength":24,
			"byteOffset":86800
		},
		{
			"buffer":0,
			"byteLength":24,
			"byteOffset":86824
		},
		{
			"buffer":0,
			"byteLength":32,
			"byteOffset":86848
		},
		{
			"buffer":0,
			"byteLength":24,
			"byteOffset":86880
		},
		{
			"buffer":0,
			"byteLength":24,
			"byteOffset":86904
		},
		{
			"buffer":0,
			"byteLength":32,
			"byteOffset":86928
		},
		{
			"buffer":0,
			"byteLength":24,
			"byteOffset":86960
		},
		{
			"buffer":0,
			"byteLength":24,
			"byteOffset":86984
		},
		{
			"buffer":0,
			"byteLength":192,
			"byteOffset":87008
		},
		{
			"buffer":0,
			"byteLength":24,
			"byteOffset":87200
		},
		{
			"buffer":0,
			"byteLength":24,
			"byteOffset":87224
		},
		{
			"buffer":0,
			"byteLength":32,
			"byteOffset":87248
		},
		{
			"buffer":0,
			"byteLength":24,
			"byteOffset":87280
		},
		{
			"buffer":0,
			"byteLength":32,
			"byteOffset":87304
		},
		{
			"buffer":0,
			"byteLength":24,
			"byteOffset":87336
		},
		{
			"buffer":0,
			"byteLength":24,
			"byteOffset":87360
		},
		{
			"buffer":0,
			"byteLength":32,
			"byteOffset":87384
		},
		{
			"buffer":0,
			"byteLength":24,
			"byteOffset":87416
		},
		{
			"buffer":0,
			"byteLength":24,
			"byteOffset":87440
		},
		{
			"buffer":0,
			"byteLength":192,
			"byteOffset":87464
		},
		{
			"buffer":0,
			"byteLength":24,
			"byteOffset":87656
		},
		{
			"buffer":0,
			"byteLength":24,
			"byteOffset":87680
		},
		{
			"buffer":0,
			"byteLength":32,
			"byteOffset":87704
		},
		{
			"buffer":0,
			"byteLength":24,
			"byteOffset":87736
		},
		{
			"buffer":0,
			"byteLength":24,
			"byteOffset":87760
		},
		{
			"buffer":0,
			"byteLength":32,
			"byteOffset":87784
		},
		{
			"buffer":0,
			"byteLength":24,
			"byteOffset":87816
		}
	],
	"samplers":[
		{
			"magFilter":9729,
			"minFilter":9987
		}
	],
	"buffers":[
		{
			"byteLength":87840,
			"uri":"bossClear.bin"
		}
	]
}
