# Blender 4.4.3
# www.blender.org
mtllib meteo_broken.mtl
o 立方体
v -0.270845 -0.245637 0.577526
v -0.323538 0.422982 0.545042
v -0.194252 -0.298584 -0.027056
v -0.341565 0.322908 -0.435726
v 0.340281 -0.503682 0.290503
v 0.395245 0.466783 0.402680
v 0.356879 -0.623543 -0.372867
v 0.676046 0.431391 -0.464231
v -0.305902 -0.255302 0.238823
v -0.379941 -0.318127 0.360714
v -0.301498 -0.348173 0.555911
v -0.405978 0.072006 0.577099
v -0.474830 0.193827 0.595129
v -0.444279 0.314476 0.563981
v -0.423990 0.343848 0.242484
v -0.375253 0.228881 0.141228
v -0.340132 0.233741 -0.070370
v -0.424806 0.310022 -0.467534
v -0.571279 0.242353 -0.526217
v -0.450939 0.036626 -0.298325
v 0.179746 -0.640096 -0.522252
v -0.064742 -0.677181 -0.530444
v -0.093126 -0.517593 -0.324274
v -0.028655 0.459769 -0.454373
v 0.237460 0.575959 -0.340201
v 0.373553 0.598246 -0.446259
v 0.647618 0.191081 -0.412698
v 0.483529 -0.009575 -0.341612
v 0.453619 -0.298067 -0.362475
v 0.408615 -0.536422 0.186411
v 0.330577 -0.570922 0.104824
v 0.354127 -0.603182 -0.063889
v 0.867472 0.330738 -0.377103
v 0.870386 0.402994 -0.287560
v 0.654880 0.408837 0.027622
v 0.600635 0.183304 0.273246
v 0.606510 -0.073073 0.285889
v 0.447253 -0.306753 0.297563
v -0.096247 -0.405553 0.637692
v 0.132336 -0.408049 0.624979
v 0.287399 -0.415501 0.478567
v 0.152606 0.449666 0.644019
v 0.099071 0.343140 0.694653
v -0.024701 0.428077 0.567751
v -0.340736 0.047075 0.547777
v -0.439500 0.256182 0.487981
v -0.514608 0.344187 0.340541
v -0.449650 -0.020587 0.387180
v -0.468390 0.249515 0.212223
v -0.386529 0.276254 0.147427
v -0.420743 0.054914 0.114728
v -0.529426 0.276813 -0.210715
v -0.396825 0.225136 -0.103037
v -0.138270 -0.211188 -0.474213
v -0.357789 0.145402 -0.657004
v -0.232552 0.388728 -0.530265
v -0.016103 -0.451899 -0.554946
v -0.025124 0.060003 -0.602888
v 0.129375 0.485316 -0.499448
v 0.174232 -0.430227 -0.480687
v 0.329878 -0.009607 -0.423209
v 0.416629 0.426512 -0.557995
v 0.642396 -0.444102 -0.265423
v 0.770985 -0.149926 -0.329316
v 0.955425 0.149220 -0.337456
v 0.529526 -0.456932 -0.087519
v 0.860465 -0.140877 -0.229318
v 0.965677 0.197335 -0.290318
v 0.595064 -0.327790 0.011747
v 0.762116 -0.084556 0.021060
v 0.800190 0.159978 -0.027815
v 0.222621 -0.363160 0.496812
v 0.396090 -0.048767 0.435337
v 0.239415 0.309562 0.543265
v -0.028385 -0.232327 0.560537
v -0.070027 0.074064 0.469005
v -0.018051 0.332797 0.572848
v -0.324095 -0.011958 0.532058
v -0.431127 0.187840 0.574577
v -0.231438 0.344563 0.517936
v -0.118149 -0.588152 0.122484
v 0.046268 -0.677483 -0.250926
v 0.288926 -0.657336 -0.195961
v -0.222592 -0.558501 0.339260
v 0.030817 -0.703437 0.274102
v 0.189637 -0.616183 0.206434
v -0.116040 -0.613404 0.508073
v 0.193921 -0.562950 0.609466
v 0.270690 -0.571980 0.410625
v 0.479026 0.541273 -0.367480
v 0.152150 0.567614 -0.356394
v -0.162496 0.407770 -0.392094
v 0.552432 0.508267 -0.137299
v 0.047665 0.522523 0.000669
v -0.298795 0.360174 -0.000422
v 0.270752 0.549183 0.368424
v 0.064880 0.468464 0.595222
v -0.214644 0.456542 0.395245
vn -0.8472 0.2462 0.4708
vn -0.8336 -0.5431 0.1005
vn -0.9751 -0.1641 -0.1489
vn 0.3569 0.9341 0.0088
vn -0.5021 -0.0321 0.8642
vn -0.5034 -0.4489 -0.7383
vn -0.9599 0.1899 -0.2060
vn -0.6139 0.7339 0.2908
vn -0.6428 0.4815 -0.5957
vn -0.0343 0.9795 -0.1985
vn -0.2366 0.9421 0.2376
vn -0.4036 0.9138 -0.0463
vn -0.9378 -0.3369 0.0835
vn -0.8546 -0.4318 -0.2886
vn -0.8126 -0.1401 -0.5658
vn -0.9124 -0.2431 0.3293
vn -0.6566 -0.0818 -0.7498
vn 0.2373 0.3499 -0.9062
vn 0.3702 -0.0802 -0.9255
vn 0.3705 -0.3407 -0.8641
vn -0.9613 -0.2217 -0.1637
vn -0.6958 -0.6169 -0.3678
vn -0.0738 0.7397 -0.6688
vn -0.2651 0.9074 0.3261
vn -0.2273 0.9368 -0.2661
vn -0.0628 0.5332 -0.8437
vn 0.3343 -0.2353 -0.9126
vn 0.3850 -0.5715 -0.7247
vn 0.3984 -0.0221 -0.9169
vn 0.6264 0.1672 -0.7613
vn 0.0513 -0.1189 -0.9916
vn -0.9477 0.1756 -0.2664
vn 0.7153 -0.5636 0.4132
vn 0.6886 -0.4402 -0.5763
vn 0.7224 -0.6128 0.3202
vn 0.9233 -0.0682 0.3780
vn 0.5146 -0.8553 0.0609
vn 0.2385 -0.3045 -0.9222
vn -0.0893 -0.2669 -0.9596
vn 0.2018 -0.2281 -0.9525
vn 0.8257 0.2951 -0.4808
vn 0.7754 0.3333 0.5363
vn 0.7938 0.3472 0.4993
vn 0.8622 0.0446 0.5047
vn 0.7400 -0.5243 0.4213
vn 0.7845 -0.2137 0.5822
vn 0.4536 -0.8893 -0.0578
vn 0.6414 -0.7321 0.2295
vn 0.3833 0.3118 0.8694
vn -0.0077 -0.2915 0.9565
vn 0.1328 0.3002 0.9446
vn 0.2784 -0.0076 0.9604
vn 0.5789 0.7887 -0.2070
vn 0.6773 -0.2375 0.6963
vn 0.5823 0.0533 0.8112
vn 0.6161 0.0891 0.7826
vn 0.0436 -0.5653 0.8237
vn -0.2473 0.0345 0.9683
vn 0.2211 -0.0764 0.9723
vn 0.4359 0.1199 0.8920
vn 0.5867 0.1447 0.7968
vn -0.2037 0.1421 0.9687
vn 0.0554 0.3881 0.9200
vn 0.5253 0.6719 0.5221
vn -0.5177 -0.8450 -0.1339
vn 0.0931 -0.9946 -0.0464
vn -0.4911 -0.8707 0.0268
vn 0.3864 -0.9025 0.1902
vn -0.8714 -0.3856 -0.3032
vn -0.7107 -0.6877 -0.1484
vn 0.1517 -0.9865 -0.0613
vn 0.1876 -0.9756 -0.1143
vn 0.3771 -0.9073 0.1858
vn 0.3468 -0.9357 0.0649
vn 0.8924 -0.2565 0.3712
vn 0.6779 0.1986 0.7078
vn -0.1927 -0.5060 0.8408
vn -0.0299 -0.1976 0.9798
vn -0.8027 -0.5467 0.2384
vn -0.6827 -0.3919 -0.6167
vn 0.0614 0.9906 0.1224
vn -0.4511 0.8923 -0.0193
vn 0.0072 0.9970 -0.0767
vn -0.1088 0.9897 0.0931
vn 0.4757 0.8791 -0.0296
vn 0.0863 0.8586 0.5054
vn 0.0981 0.5740 -0.8129
vn -0.4038 0.9083 -0.1094
vn -0.8703 0.4236 -0.2514
vn -0.3887 0.9108 -0.1391
vn -0.0316 0.9800 0.1965
vn -0.4473 0.4778 0.7561
vn 0.0102 0.9391 0.3435
vn 0.4974 0.8406 0.2144
vn 0.4143 0.8700 0.2672
vn -0.0385 0.7783 -0.6268
vn -0.9105 -0.4000 0.1051
vn -0.6326 0.4966 -0.5943
vn -0.9492 -0.2916 0.1182
vn -0.4216 0.8917 -0.1647
vn -0.4639 -0.1985 -0.8634
vn -0.7921 -0.3766 -0.4803
vn -0.8969 -0.3763 0.2323
vn -0.1977 0.9624 -0.1861
vn 0.9519 0.1957 0.2360
vn 0.9642 0.2079 0.1648
vn -0.2738 0.9341 0.2291
vn 0.2047 0.9567 0.2071
vn -0.9192 -0.3592 0.1612
vn -0.8231 -0.5615 0.0850
vn -0.8872 -0.4117 -0.2082
vn -0.8120 -0.0687 0.5796
vn 0.0331 -0.4397 -0.8975
vn 0.0218 0.2288 -0.9732
vn 0.4446 -0.0422 -0.8947
vn -0.1362 0.2806 -0.9501
vn -0.6792 -0.6996 -0.2218
vn -0.5625 -0.7392 -0.3703
vn -0.4579 0.5845 -0.6698
vn -0.3844 0.9042 0.1863
vn -0.2456 0.9047 -0.3483
vn -0.3556 0.8953 -0.2682
vn 0.2693 0.5718 -0.7749
vn 0.2385 -0.3297 -0.9134
vn 0.4690 0.0152 -0.8831
vn 0.4268 -0.0982 -0.8990
vn 0.3378 0.1914 -0.9216
vn -0.8700 -0.3141 -0.3800
vn 0.6922 -0.4287 -0.5806
vn 0.9558 -0.2828 0.0807
vn 0.7441 -0.5268 0.4108
vn 0.8443 -0.1710 0.5079
vn 0.3997 -0.0897 -0.9123
vn 0.0740 0.0643 -0.9952
vn 0.2141 -0.1582 -0.9639
vn 0.4154 0.0026 -0.9096
vn 0.8486 0.3979 -0.3487
vn 0.7756 0.3523 0.5238
vn 0.7939 0.3533 0.4950
vn 0.8327 -0.0190 0.5534
vn 0.7448 -0.4847 0.4586
vn 0.7834 -0.4413 0.4376
vn 0.8066 -0.5584 0.1940
vn 0.6276 -0.6965 0.3479
vn 0.1065 0.1339 0.9853
vn 0.0712 -0.3838 0.9207
vn 0.2611 -0.0651 0.9631
vn -0.2527 -0.3162 0.9144
vn 0.6648 -0.3841 0.6407
vn 0.5243 -0.3179 0.7900
vn 0.6039 0.0241 0.7967
vn 0.7060 -0.0695 0.7048
vn 0.6165 -0.5687 -0.5445
vn -0.7202 -0.0132 0.6936
vn -0.0631 -0.3914 0.9180
vn 0.1965 0.1020 0.9752
vn 0.4355 0.1140 0.8929
vn 0.6701 0.2860 0.6850
vn 0.1684 0.3453 0.9233
vn 0.1984 -0.0945 0.9756
vn -0.5739 -0.8169 -0.0573
vn 0.5393 -0.8139 0.2163
vn 0.0284 -0.9268 0.3745
vn 0.4811 -0.8767 -0.0012
vn -0.9482 -0.3012 -0.1007
vn -0.7825 -0.5399 0.3102
vn 0.1019 -0.9910 -0.0864
vn 0.5640 -0.8237 0.0593
vn 0.4426 -0.8673 0.2276
vn 0.3467 -0.9358 0.0641
vn 0.8442 0.0737 0.5310
vn 0.8990 -0.2517 0.3585
vn 0.0545 -0.0780 0.9955
vn -0.5949 -0.3838 0.7063
vn -0.7591 -0.5830 0.2895
vn -0.8596 -0.3572 -0.3653
vn 0.0845 0.9852 0.1491
vn -0.4239 0.9049 -0.0376
vn -0.2710 0.9579 0.0949
vn -0.4204 0.8981 -0.1293
vn 0.4824 0.8759 -0.0124
vn 0.1098 -0.9917 -0.0675
vn -0.4287 0.8848 -0.1827
vn -0.4602 0.8621 0.2122
vn -0.9146 0.3782 -0.1431
vn -0.8893 0.0252 -0.4566
vn -0.4148 0.9045 -0.0989
vn -0.4722 0.6237 0.6229
vn -0.3210 0.5333 0.7826
vn 0.3996 0.7941 0.4580
vn 0.4913 0.8465 0.2052
vn 0.4759 0.8791 -0.0257
vt 0.437500 0.062500
vt 0.500000 0.125000
vt 0.437500 0.125000
vt 0.562500 0.062500
vt 0.500000 0.062500
vt 0.437500 0.187500
vt 0.562500 0.187500
vt 0.500000 0.187500
vt 0.375000 0.000000
vt 0.375000 0.062500
vt 0.437500 0.000000
vt 0.562500 0.000000
vt 0.500000 0.000000
vt 0.625000 0.000000
vt 0.625000 0.062500
vt 0.562500 0.125000
vt 0.625000 0.187500
vt 0.625000 0.250000
vt 0.562500 0.250000
vt 0.500000 0.250000
vt 0.437500 0.250000
vt 0.375000 0.250000
vt 0.375000 0.187500
vt 0.375000 0.125000
vt 0.437500 0.312500
vt 0.500000 0.375000
vt 0.437500 0.375000
vt 0.562500 0.312500
vt 0.500000 0.312500
vt 0.437500 0.437500
vt 0.562500 0.437500
vt 0.500000 0.437500
vt 0.375000 0.312500
vt 0.625000 0.312500
vt 0.562500 0.375000
vt 0.625000 0.437500
vt 0.625000 0.500000
vt 0.562500 0.500000
vt 0.500000 0.500000
vt 0.437500 0.500000
vt 0.375000 0.500000
vt 0.375000 0.437500
vt 0.375000 0.375000
vt 0.437500 0.562500
vt 0.500000 0.625000
vt 0.437500 0.625000
vt 0.562500 0.562500
vt 0.500000 0.562500
vt 0.437500 0.687500
vt 0.562500 0.687500
vt 0.500000 0.687500
vt 0.375000 0.562500
vt 0.625000 0.562500
vt 0.562500 0.625000
vt 0.625000 0.687500
vt 0.625000 0.750000
vt 0.562500 0.750000
vt 0.500000 0.750000
vt 0.437500 0.750000
vt 0.375000 0.750000
vt 0.375000 0.687500
vt 0.375000 0.625000
vt 0.437500 0.812500
vt 0.500000 0.875000
vt 0.437500 0.875000
vt 0.562500 0.812500
vt 0.500000 0.812500
vt 0.437500 0.937500
vt 0.562500 0.937500
vt 0.500000 0.937500
vt 0.375000 0.812500
vt 0.625000 0.812500
vt 0.562500 0.875000
vt 0.625000 0.937500
vt 0.625000 1.000000
vt 0.562500 1.000000
vt 0.500000 1.000000
vt 0.437500 1.000000
vt 0.375000 1.000000
vt 0.375000 0.937500
vt 0.375000 0.875000
vt 0.187500 0.562500
vt 0.250000 0.625000
vt 0.187500 0.625000
vt 0.312500 0.562500
vt 0.250000 0.562500
vt 0.187500 0.687500
vt 0.312500 0.687500
vt 0.250000 0.687500
vt 0.125000 0.500000
vt 0.125000 0.562500
vt 0.187500 0.500000
vt 0.312500 0.500000
vt 0.250000 0.500000
vt 0.312500 0.625000
vt 0.312500 0.750000
vt 0.250000 0.750000
vt 0.187500 0.750000
vt 0.125000 0.750000
vt 0.125000 0.687500
vt 0.125000 0.625000
vt 0.687500 0.562500
vt 0.750000 0.625000
vt 0.687500 0.625000
vt 0.812500 0.562500
vt 0.750000 0.562500
vt 0.687500 0.687500
vt 0.812500 0.687500
vt 0.750000 0.687500
vt 0.687500 0.500000
vt 0.812500 0.500000
vt 0.750000 0.500000
vt 0.875000 0.500000
vt 0.875000 0.562500
vt 0.812500 0.625000
vt 0.875000 0.687500
vt 0.875000 0.750000
vt 0.812500 0.750000
vt 0.750000 0.750000
vt 0.687500 0.750000
vt 0.625000 0.625000
vt 0.625000 0.125000
vt 0.625000 0.375000
vt 0.625000 0.875000
vt 0.875000 0.625000
s 0
f 45/1/1 49/2/1 48/3/1
f 47/4/2 49/2/2 46/5/2
f 49/2/3 51/6/3 48/3/3
f 49/2/4 53/7/4 52/8/4
f 1/9/5 45/1/5 11/10/5
f 12/11/6 46/5/6 45/1/6
f 14/12/7 46/5/7 13/13/7
f 2/14/8 47/4/8 14/12/8
f 15/15/9 50/16/9 47/4/9
f 50/16/10 17/17/10 53/7/10
f 53/7/11 4/18/11 18/19/11
f 52/8/12 18/19/12 19/20/12
f 52/8/13 20/21/13 51/6/13
f 51/6/14 3/22/14 9/23/14
f 48/3/15 9/23/15 10/24/15
f 11/10/16 48/3/16 10/24/16
f 54/25/17 58/26/17 57/27/17
f 56/28/18 58/26/18 55/29/18
f 58/26/19 60/30/19 57/27/19
f 58/26/20 62/31/20 61/32/20
f 3/22/21 54/25/21 23/33/21
f 20/21/22 55/29/22 54/25/22
f 18/19/23 55/29/23 19/20/23
f 4/18/24 56/28/24 18/19/24
f 24/34/25 59/35/25 56/28/25
f 59/35/26 26/36/26 62/31/26
f 62/31/27 8/37/27 27/38/27
f 61/32/28 27/38/28 28/39/28
f 61/32/29 29/40/29 60/30/29
f 60/30/30 7/41/30 21/42/30
f 57/27/31 21/42/31 22/43/31
f 23/33/32 57/27/32 22/43/32
f 63/44/33 67/45/33 66/46/33
f 65/47/34 67/45/34 64/48/34
f 67/45/35 69/49/35 66/46/35
f 67/45/36 71/50/36 70/51/36
f 7/41/37 63/44/37 32/52/37
f 29/40/38 64/48/38 63/44/38
f 27/38/39 64/48/39 28/39/39
f 8/37/40 65/47/40 27/38/40
f 33/53/41 68/54/41 65/47/41
f 68/54/42 35/55/42 71/50/42
f 71/50/43 6/56/43 36/57/43
f 70/51/44 36/57/44 37/58/44
f 70/51/45 38/59/45 69/49/45
f 69/49/46 5/60/46 30/61/46
f 66/46/47 30/61/47 31/62/47
f 32/52/48 66/46/48 31/62/48
f 72/63/49 76/64/49 75/65/49
f 74/66/50 76/64/50 73/67/50
f 76/64/51 78/68/51 75/65/51
f 76/64/52 80/69/52 79/70/52
f 5/60/53 72/63/53 41/71/53
f 38/59/54 73/67/54 72/63/54
f 36/57/55 73/67/55 37/58/55
f 6/56/56 74/66/56 36/57/56
f 42/72/57 77/73/57 74/66/57
f 77/73/58 44/74/58 80/69/58
f 80/69/59 2/75/59 14/76/59
f 79/70/60 14/76/60 13/77/60
f 79/70/61 12/78/61 78/68/61
f 78/68/62 1/79/62 39/80/62
f 75/65/63 39/80/63 40/81/63
f 41/71/64 75/65/64 40/81/64
f 81/82/65 85/83/65 84/84/65
f 83/85/66 85/83/66 82/86/66
f 85/83/67 87/87/67 84/84/67
f 85/83/68 89/88/68 88/89/68
f 3/90/69 81/82/69 9/91/69
f 23/92/70 82/86/70 81/82/70
f 21/93/71 82/86/71 22/94/71
f 7/41/72 83/85/72 21/93/72
f 32/52/73 86/95/73 83/85/73
f 86/95/74 30/61/74 89/88/74
f 89/88/75 5/60/75 41/96/75
f 88/89/76 41/96/76 40/97/76
f 88/89/77 39/98/77 87/87/77
f 87/87/78 1/99/78 11/100/78
f 84/84/79 11/100/79 10/101/79
f 9/91/80 84/84/80 10/101/80
f 90/102/81 94/103/81 93/104/81
f 92/105/82 94/103/82 91/106/82
f 94/103/83 96/107/83 93/104/83
f 94/103/84 98/108/84 97/109/84
f 8/37/85 90/102/85 33/53/85
f 26/110/86 91/106/86 90/102/86
f 24/111/87 91/106/87 25/112/87
f 4/113/88 92/105/88 24/111/88
f 17/114/89 95/115/89 92/105/89
f 95/115/90 15/116/90 98/108/90
f 98/108/91 2/117/91 44/118/91
f 97/109/92 44/118/92 43/119/92
f 97/109/93 42/120/93 96/107/93
f 96/107/94 6/56/94 35/55/94
f 93/104/95 35/55/95 34/121/95
f 33/53/96 93/104/96 34/121/96
f 45/1/97 46/5/97 49/2/97
f 47/4/98 50/16/98 49/2/98
f 49/2/99 52/8/99 51/6/99
f 49/2/100 50/16/100 53/7/100
f 1/9/101 12/11/101 45/1/101
f 12/11/102 13/13/102 46/5/102
f 14/12/103 47/4/103 46/5/103
f 2/14/104 15/15/104 47/4/104
f 15/15/105 16/122/105 50/16/105
f 50/16/106 16/122/106 17/17/106
f 53/7/107 17/17/107 4/18/107
f 52/8/108 53/7/108 18/19/108
f 52/8/109 19/20/109 20/21/109
f 51/6/110 20/21/110 3/22/110
f 48/3/111 51/6/111 9/23/111
f 11/10/112 45/1/112 48/3/112
f 54/25/113 55/29/113 58/26/113
f 56/28/114 59/35/114 58/26/114
f 58/26/115 61/32/115 60/30/115
f 58/26/116 59/35/116 62/31/116
f 3/22/117 20/21/117 54/25/117
f 20/21/118 19/20/118 55/29/118
f 18/19/119 56/28/119 55/29/119
f 4/18/120 24/34/120 56/28/120
f 24/34/121 25/123/121 59/35/121
f 59/35/122 25/123/122 26/36/122
f 62/31/123 26/36/123 8/37/123
f 61/32/124 62/31/124 27/38/124
f 61/32/125 28/39/125 29/40/125
f 60/30/126 29/40/126 7/41/126
f 57/27/127 60/30/127 21/42/127
f 23/33/128 54/25/128 57/27/128
f 63/44/129 64/48/129 67/45/129
f 65/47/130 68/54/130 67/45/130
f 67/45/131 70/51/131 69/49/131
f 67/45/132 68/54/132 71/50/132
f 7/41/133 29/40/133 63/44/133
f 29/40/134 28/39/134 64/48/134
f 27/38/135 65/47/135 64/48/135
f 8/37/136 33/53/136 65/47/136
f 33/53/137 34/121/137 68/54/137
f 68/54/138 34/121/138 35/55/138
f 71/50/139 35/55/139 6/56/139
f 70/51/140 71/50/140 36/57/140
f 70/51/141 37/58/141 38/59/141
f 69/49/142 38/59/142 5/60/142
f 66/46/143 69/49/143 30/61/143
f 32/52/144 63/44/144 66/46/144
f 72/63/145 73/67/145 76/64/145
f 74/66/146 77/73/146 76/64/146
f 76/64/147 79/70/147 78/68/147
f 76/64/148 77/73/148 80/69/148
f 5/60/149 38/59/149 72/63/149
f 38/59/150 37/58/150 73/67/150
f 36/57/151 74/66/151 73/67/151
f 6/56/152 42/72/152 74/66/152
f 42/72/153 43/124/153 77/73/153
f 77/73/154 43/124/154 44/74/154
f 80/69/155 44/74/155 2/75/155
f 79/70/156 80/69/156 14/76/156
f 79/70/157 13/77/157 12/78/157
f 78/68/158 12/78/158 1/79/158
f 75/65/159 78/68/159 39/80/159
f 41/71/160 72/63/160 75/65/160
f 81/82/161 82/86/161 85/83/161
f 83/85/162 86/95/162 85/83/162
f 85/83/163 88/89/163 87/87/163
f 85/83/164 86/95/164 89/88/164
f 3/90/165 23/92/165 81/82/165
f 23/92/166 22/94/166 82/86/166
f 21/93/167 83/85/167 82/86/167
f 7/41/168 32/52/168 83/85/168
f 32/52/169 31/62/169 86/95/169
f 86/95/170 31/62/170 30/61/170
f 89/88/171 30/61/171 5/60/171
f 88/89/172 89/88/172 41/96/172
f 88/89/173 40/97/173 39/98/173
f 87/87/174 39/98/174 1/99/174
f 84/84/175 87/87/175 11/100/175
f 9/91/176 81/82/176 84/84/176
f 90/102/177 91/106/177 94/103/177
f 92/105/178 95/115/178 94/103/178
f 94/103/179 97/109/179 96/107/179
f 94/103/180 95/115/180 98/108/180
f 8/37/181 26/110/181 90/102/181
f 26/110/182 25/112/182 91/106/182
f 24/111/183 92/105/183 91/106/183
f 4/113/184 17/114/184 92/105/184
f 17/114/185 16/125/185 95/115/185
f 95/115/186 16/125/186 15/116/186
f 98/108/187 15/116/187 2/117/187
f 97/109/188 98/108/188 44/118/188
f 97/109/189 43/119/189 42/120/189
f 96/107/190 42/120/190 6/56/190
f 93/104/191 96/107/191 35/55/191
f 33/53/192 90/102/192 93/104/192
