# Blender 4.4.0
# www.blender.org
mtllib wall.mtl
o wall.001
v 190.084656 50.601837 10.766967
v 190.084656 -50.601841 -42.971737
v 190.084656 50.601841 42.971737
v 190.084656 -50.601833 42.971745
v -190.084656 50.601837 10.766967
v -190.084656 -50.601841 -42.971737
v -190.084656 50.601841 42.971737
v -190.084656 -50.601833 42.971745
v 0.000000 50.601841 42.971737
v 0.000000 -50.601833 42.971745
v -190.084656 -0.000001 -16.102385
v 0.000000 -50.601841 -42.971737
v 52.691441 50.601837 42.971737
v 52.691441 -50.601841 -42.971737
v 52.691441 -50.601833 42.971745
v 52.691441 50.601833 10.766967
v -52.691441 -50.601833 42.971745
v -52.691441 50.601833 10.766967
v -52.691441 50.601837 42.971737
v -52.691441 -50.601841 -42.971737
v 0.000000 50.601837 17.746658
v 52.691441 50.601833 17.705185
v -52.691441 50.601833 17.788132
v -190.084656 0.000003 42.971741
v 190.084656 -0.000001 -16.102385
v -52.691441 -55.599262 -33.560318
v 0.000000 -55.599262 -33.560318
v 52.691441 -55.599262 -33.560318
v 190.084656 0.000003 42.971741
v 0.000000 0.000003 42.971741
v 52.691441 0.000003 42.971741
v 52.691441 -0.000001 -16.102385
v 52.691441 -2.498711 -7.927566
v -52.691441 -0.000001 -16.102385
v -52.691441 0.000003 42.971741
v -52.691441 -2.498710 -7.886093
v 0.000000 -2.498711 -7.906829
v 190.084656 -0.000002 -23.035381
v 190.084656 -50.601841 -49.904736
v 52.691441 -50.601841 -49.904736
v 52.691441 -0.000002 -23.035381
v 52.691441 -55.599262 -40.493317
v 52.691441 -2.498711 -14.860562
v -190.084656 -50.601841 -49.904736
v -52.691441 -50.601841 -49.904736
v -52.691441 -55.599262 -40.493317
v 0.000000 -55.599262 -40.493317
v -190.084656 -0.000002 -23.035381
v -52.691441 -0.000002 -23.035381
v -52.691441 -2.498711 -14.819089
v 0.000000 -2.498711 -14.839826
vn 1.0000 -0.0000 -0.0000
vn -0.0000 -0.0000 1.0000
vn -1.0000 -0.0000 -0.0000
vn -0.0000 -1.0000 -0.0000
vn -0.0000 1.0000 -0.0000
vn -0.0005 0.4349 -0.9005
vn -0.0004 0.4349 -0.9005
vn -0.0006 0.4351 -0.9004
vn -0.0000 0.4690 -0.8832
vn -0.0000 0.8832 0.4690
vn -0.0005 0.4351 -0.9004
vn -0.0007 0.4353 -0.9003
vn -0.0003 0.4351 -0.9004
vn -0.0002 0.4351 -0.9004
vn 0.0001 0.4350 -0.9005
vn -0.0002 0.4349 -0.9005
vn -0.0001 0.4349 -0.9005
vn -0.0004 0.4347 -0.9006
vn -0.0004 0.4350 -0.9005
vt 0.166667 0.229120
vt 0.000000 0.000000
vt 0.000000 0.333333
vt 0.833333 0.000000
vt 0.666667 0.120467
vt 0.833333 0.120467
vt 0.500000 0.131103
vt 0.333333 0.360223
vt 0.500000 0.360223
vt 0.497272 0.406423
vt 0.524161 0.452623
vt 0.524161 0.406423
vt 0.764001 0.453800
vt 0.791138 0.333333
vt 0.666667 0.333333
vt 0.120467 0.387113
vt 0.000000 0.720446
vt 0.120467 0.720446
vt 0.212867 0.387113
vt 0.166667 0.720446
vt 0.212867 0.720446
vt 0.666667 0.546200
vt 0.764162 0.500000
vt 0.666667 0.500000
vt 0.561909 0.583987
vt 0.605525 0.768225
vt 0.592432 0.572096
vt 0.833333 0.166667
vt 0.666667 0.212867
vt 0.833333 0.212867
vt 0.833333 0.333333
vt 0.791138 0.666667
vt 0.791138 0.546200
vt 0.764322 0.546200
vt 0.166667 0.387113
vt 0.848726 0.500000
vt 0.486218 0.400265
vt 0.497272 0.384736
vt 0.486218 0.360223
vt 0.333333 0.387113
vt 0.333333 0.720446
vt 0.666667 0.453800
vt 0.666667 0.166667
vt 0.791138 0.453800
vt 0.881088 0.333333
vt 1.000000 0.120467
vt 1.000000 0.166667
vt 0.848806 0.546200
vt 0.875522 0.500000
vt 0.907884 0.666667
vt 0.881088 0.546200
vt 0.881088 0.666667
vt 0.622810 0.768222
vt 0.666667 0.584105
vt 0.636021 0.572101
vt 0.475165 0.384736
vt 0.561909 0.452623
vt 0.561909 0.406423
vt 0.524161 0.360223
vt 0.561909 0.360223
vt 0.848646 0.453800
vt 1.000000 0.212867
vt 1.000000 0.333333
vt 0.644877 0.568348
vt 0.666667 0.235316
vt 0.666667 0.360223
vt 1.000000 0.000000
vt 0.333333 0.124907
vt 0.166667 0.000000
vt 0.997834 0.546200
vt 0.907884 0.546200
vt 0.907884 0.453800
vt 0.997834 0.333333
vt 0.907884 0.333333
vt 0.960086 0.453800
vt 0.875442 0.453800
vt 0.875602 0.546200
vt 0.960086 0.500000
vt 0.614231 0.556345
vt 0.666667 0.368274
vt 0.627442 0.360223
vt 0.561909 0.368250
vt 0.614231 0.556353
vt 0.601138 0.360223
vt 0.166667 0.256010
vt 0.500000 0.104213
vt 0.333333 0.026890
vt 0.881088 0.453800
vt 0.120467 0.360223
vt 0.000000 0.387113
vt 0.583709 0.568244
vt 0.497272 0.360223
vt 0.666667 0.000000
vt 0.497272 0.452623
vt 0.583709 0.783980
vt 0.666667 0.666667
vt 0.497272 0.424778
vt 0.644877 0.784179
vt 0.475165 0.424778
vt 0.333333 0.000000
vt 0.997834 0.666667
vt 0.997834 0.453800
vt 0.960086 0.546200
vt 0.000000 0.360223
vt 0.212867 0.360223
s 1
usemtl マテリアル.004
f 25/1/1 4/2/1 2/3/1
f 24/4/2 17/5/2 35/6/2
f 11/7/3 8/8/3 24/9/3
f 47/10/4 28/11/4 27/12/4
f 23/13/5 5/14/5 7/15/5
f 14/16/4 4/17/4 15/18/4
f 20/19/4 10/20/4 17/21/4
f 13/22/5 21/23/5 9/24/5
f 33/25/3 16/26/3 32/27/3
f 30/28/2 15/29/2 31/30/2
f 31/30/2 4/15/2 29/31/2
f 1/32/5 16/33/5 22/34/5
f 12/35/4 15/18/4 10/20/4
f 22/34/6 37/36/7 21/23/8
f 20/37/3 46/38/3 26/39/3
f 6/40/4 17/21/4 8/41/4
f 9/24/5 23/13/5 19/42/5
f 35/6/2 10/43/2 30/28/2
f 18/44/9 11/45/9 5/14/9
f 19/46/2 30/28/2 9/47/2
f 33/48/5 51/49/5 37/36/5
f 38/50/5 32/51/5 25/52/5
f 18/53/1 36/54/1 34/55/1
f 42/56/1 14/37/1 28/39/1
f 27/12/10 14/57/10 12/58/10
f 26/59/10 12/58/10 20/60/10
f 21/23/8 36/61/11 23/13/12
f 13/62/2 29/31/2 3/63/2
f 9/47/2 31/30/2 13/62/2
f 50/64/1 34/55/1 36/54/1
f 1/32/9 32/51/9 16/33/9
f 5/65/3 24/9/3 7/66/3
f 7/67/2 35/6/2 19/46/2
f 1/68/1 29/69/1 25/1/1
f 38/50/9 40/70/9 41/71/9
f 49/72/9 44/73/9 48/74/9
f 51/49/13 46/75/14 50/76/15
f 43/77/16 47/78/17 51/49/13
f 49/79/1 46/80/1 45/81/1
f 42/82/3 41/83/3 40/84/3
f 37/36/5 50/76/5 36/61/5
f 2/3/1 38/85/1 25/1/1
f 44/8/4 20/19/4 6/40/4
f 48/86/3 6/87/3 11/7/3
f 49/72/5 11/45/5 34/88/5
f 40/89/4 2/90/4 14/16/4
f 32/27/3 43/91/3 33/25/3
f 46/92/4 27/12/4 26/59/4
f 25/1/1 29/69/1 4/2/1
f 24/4/2 8/93/2 17/5/2
f 11/7/3 6/87/3 8/8/3
f 47/10/4 42/94/4 28/11/4
f 7/15/5 19/42/5 23/13/5
f 23/13/5 18/44/5 5/14/5
f 14/16/4 2/90/4 4/17/4
f 20/19/4 12/35/4 10/20/4
f 13/22/5 22/34/5 21/23/5
f 33/25/3 22/95/3 16/26/3
f 30/28/2 10/43/2 15/29/2
f 31/30/2 15/29/2 4/15/2
f 13/22/5 3/96/5 22/34/5
f 3/96/5 1/32/5 22/34/5
f 12/35/4 14/16/4 15/18/4
f 22/34/6 33/48/18 37/36/7
f 20/37/3 45/97/3 46/38/3
f 6/40/4 20/19/4 17/21/4
f 9/24/5 21/23/5 23/13/5
f 35/6/2 17/5/2 10/43/2
f 18/44/9 34/88/9 11/45/9
f 19/46/2 35/6/2 30/28/2
f 33/48/5 43/77/5 51/49/5
f 38/50/5 41/71/5 32/51/5
f 18/53/1 23/98/1 36/54/1
f 42/56/1 40/99/1 14/37/1
f 27/12/10 28/11/10 14/57/10
f 26/59/10 27/12/10 12/58/10
f 21/23/8 37/36/7 36/61/11
f 13/62/2 31/30/2 29/31/2
f 9/47/2 30/28/2 31/30/2
f 50/64/1 49/79/1 34/55/1
f 1/32/9 25/52/9 32/51/9
f 5/65/3 11/7/3 24/9/3
f 7/67/2 24/4/2 35/6/2
f 1/68/1 3/100/1 29/69/1
f 38/50/9 39/101/9 40/70/9
f 49/72/9 45/102/9 44/73/9
f 51/49/13 47/78/17 46/75/14
f 43/77/16 42/103/19 47/78/17
f 49/79/1 50/64/1 46/80/1
f 42/82/3 43/91/3 41/83/3
f 37/36/5 51/49/5 50/76/5
f 2/3/1 39/104/1 38/85/1
f 44/8/4 45/105/4 20/19/4
f 48/86/3 44/100/3 6/87/3
f 49/72/5 48/74/5 11/45/5
f 40/89/4 39/104/4 2/90/4
f 32/27/3 41/83/3 43/91/3
f 46/92/4 47/10/4 27/12/4
