# Blender 4.4.3
# www.blender.org
mtllib jet.mtl
o Cube.001
v 0.000000 0.182536 -0.101526
v 0.018135 0.182522 -0.099741
v 0.035573 0.182482 -0.094450
v 0.051644 0.182417 -0.085860
v 0.065731 0.182331 -0.074301
v 0.077291 0.182225 -0.060214
v 0.085881 0.182105 -0.044144
v 0.091171 0.181973 -0.026705
v 0.092957 0.181837 -0.008571
v 0.091171 0.181701 0.009563
v 0.085881 0.181570 0.027001
v 0.077291 0.181449 0.043072
v 0.065731 0.181343 0.057158
v 0.051644 0.181256 0.068718
v 0.035573 0.181191 0.077308
v 0.018135 0.181151 0.082597
v 0.000000 0.181138 0.084383
v -0.018135 0.181151 0.082597
v -0.035573 0.181191 0.077308
v -0.051644 0.181256 0.068718
v -0.065731 0.181343 0.057158
v -0.077291 0.181449 0.043072
v -0.085881 0.181570 0.027001
v -0.091171 0.181701 0.009563
v -0.092957 0.181837 -0.008571
v -0.091171 0.181973 -0.026705
v -0.085881 0.182105 -0.044144
v -0.077291 0.182225 -0.060214
v -0.065731 0.182331 -0.074301
v -0.051644 0.182417 -0.085860
v -0.035573 0.182482 -0.094450
v -0.018135 0.182522 -0.099741
v 0.000000 -0.055287 -0.130189
v 0.000000 -0.145447 -0.193965
v 0.023378 -0.055304 -0.127886
v 0.035688 -0.145472 -0.190450
v 0.045858 -0.055355 -0.121067
v 0.070004 -0.145551 -0.180041
v 0.066575 -0.055439 -0.109993
v 0.101630 -0.145678 -0.163137
v 0.084734 -0.055550 -0.095092
v 0.129350 -0.145849 -0.140388
v 0.099636 -0.055687 -0.076933
v 0.152100 -0.146057 -0.112668
v 0.110710 -0.055842 -0.056216
v 0.169004 -0.146295 -0.081043
v 0.117529 -0.056012 -0.033738
v 0.179414 -0.146553 -0.046728
v 0.119832 -0.056187 -0.010360
v 0.182929 -0.146821 -0.011041
v 0.117529 -0.056363 0.013018
v 0.179414 -0.147089 0.024645
v 0.110710 -0.056531 0.035496
v 0.169004 -0.147347 0.058961
v 0.099636 -0.056688 0.056213
v 0.152100 -0.147584 0.090585
v 0.084734 -0.056824 0.074371
v 0.129350 -0.147793 0.118305
v 0.066575 -0.056936 0.089273
v 0.101630 -0.147964 0.141054
v 0.045858 -0.057020 0.100347
v 0.070004 -0.148091 0.157958
v 0.023378 -0.057070 0.107165
v 0.035688 -0.148169 0.168367
v 0.000000 -0.057087 0.109468
v 0.000000 -0.148196 0.171882
v -0.023378 -0.057070 0.107165
v -0.035688 -0.148169 0.168367
v -0.045858 -0.057020 0.100347
v -0.070004 -0.148091 0.157958
v -0.066575 -0.056936 0.089273
v -0.101630 -0.147964 0.141054
v -0.084734 -0.056824 0.074371
v -0.129350 -0.147793 0.118305
v -0.099636 -0.056688 0.056213
v -0.152100 -0.147584 0.090585
v -0.110710 -0.056531 0.035496
v -0.169004 -0.147347 0.058961
v -0.117529 -0.056363 0.013018
v -0.179414 -0.147089 0.024645
v -0.119832 -0.056187 -0.010360
v -0.182929 -0.146821 -0.011041
v -0.117529 -0.056012 -0.033738
v -0.179414 -0.146553 -0.046728
v -0.110710 -0.055842 -0.056216
v -0.169004 -0.146295 -0.081043
v -0.099636 -0.055687 -0.076933
v -0.152100 -0.146057 -0.112668
v -0.084734 -0.055550 -0.095092
v -0.129350 -0.145849 -0.140388
v -0.066575 -0.055439 -0.109993
v -0.101630 -0.145678 -0.163137
v -0.045858 -0.055355 -0.121067
v -0.070004 -0.145551 -0.180041
v -0.023378 -0.055304 -0.127886
v -0.035688 -0.145472 -0.190450
vn -0.0945 0.2701 -0.9582
vn -0.0946 0.2701 -0.9582
vn 0.4548 0.2692 -0.8489
vn 0.6121 0.2684 -0.7438
vn 0.6121 0.2685 -0.7439
vn 0.7458 0.2674 -0.6101
vn 0.8509 0.2663 -0.4528
vn 0.9233 0.2649 -0.2781
vn 0.9602 0.2636 -0.0926
vn 0.9602 0.2621 0.0965
vn 0.9233 0.2607 0.2820
vn 0.9233 0.2607 0.2821
vn 0.8509 0.2594 0.4568
vn 0.7458 0.2582 0.6140
vn 0.7458 0.2582 0.6141
vn 0.6121 0.2572 0.7478
vn 0.4548 0.2564 0.8529
vn 0.4548 0.2564 0.8528
vn 0.2801 0.2559 0.9252
vn 0.0946 0.2556 0.9621
vn -0.0946 0.2556 0.9621
vn -0.2801 0.2559 0.9252
vn -0.4548 0.2564 0.8528
vn -0.4548 0.2564 0.8529
vn -0.6121 0.2572 0.7478
vn -0.7458 0.2582 0.6140
vn -0.7458 0.2582 0.6141
vn -0.8509 0.2594 0.4568
vn -0.9233 0.2607 0.2821
vn -0.9233 0.2607 0.2820
vn -0.9602 0.2621 0.0965
vn -0.9602 0.2636 -0.0926
vn -0.9233 0.2649 -0.2781
vn -0.8509 0.2663 -0.4528
vn -0.7458 0.2674 -0.6101
vn -0.6121 0.2685 -0.7439
vn -0.6121 0.2684 -0.7438
vn -0.4548 0.2692 -0.8489
vn -0.2801 0.2698 -0.9213
vn -0.0000 1.0000 0.0075
vn 0.2801 0.2698 -0.9213
vn 0.0946 0.2701 -0.9582
vn 0.0945 0.2701 -0.9582
vn -0.0806 -0.5756 0.8137
vn -0.2386 -0.5754 0.7823
vn -0.3875 -0.5749 0.7206
vn -0.5215 -0.5742 0.6311
vn -0.6354 -0.5734 0.5172
vn -0.6354 -0.5734 0.5171
vn -0.7249 -0.5724 0.3832
vn -0.7866 -0.5713 0.2343
vn -0.8180 -0.5701 0.0763
vn -0.8180 -0.5689 -0.0849
vn -0.7866 -0.5677 -0.2429
vn -0.7249 -0.5666 -0.3918
vn -0.6354 -0.5656 -0.5257
vn -0.5215 -0.5647 -0.6397
vn -0.3875 -0.5640 -0.7292
vn -0.2386 -0.5636 -0.7909
vn -0.0806 -0.5633 -0.8223
vn 0.0806 -0.5633 -0.8223
vn 0.2386 -0.5636 -0.7909
vn 0.3875 -0.5640 -0.7292
vn 0.5215 -0.5647 -0.6397
vn 0.6354 -0.5656 -0.5257
vn 0.6354 -0.5655 -0.5257
vn 0.7249 -0.5666 -0.3918
vn 0.7866 -0.5677 -0.2429
vn 0.8180 -0.5689 -0.0849
vn 0.8180 -0.5701 0.0763
vn 0.7866 -0.5713 0.2343
vn 0.7249 -0.5724 0.3832
vn 0.6354 -0.5734 0.5172
vn 0.6354 -0.5734 0.5171
vn 0.5215 -0.5742 0.6311
vn 0.5214 -0.5742 0.6311
vn 0.3875 -0.5749 0.7206
vn 0.2386 -0.5754 0.7823
vn 0.0806 -0.5756 0.8137
vn -0.0000 -1.0000 -0.0075
vn -0.0000 1.0000 0.0074
vn -0.0000 1.0000 0.0076
vn -0.0002 1.0000 0.0072
vn -0.0002 1.0000 0.0075
vn -0.0002 1.0000 0.0076
vn -0.0002 1.0000 0.0078
vn -0.0000 1.0000 0.0077
vn -0.0000 1.0000 0.0072
vn 0.0002 1.0000 0.0078
vn 0.0002 1.0000 0.0076
vn 0.0002 1.0000 0.0075
vn 0.0003 1.0000 0.0077
vn 0.0002 1.0000 0.0072
vn -0.5214 -0.5742 0.6311
vn -0.6354 -0.5655 -0.5257
vn -0.0000 -1.0000 -0.0074
vn -0.0001 -1.0000 -0.0076
vn 0.0003 -1.0000 -0.0076
vn 0.0001 -1.0000 -0.0075
vn 0.0003 -1.0000 -0.0074
vn -0.0000 -1.0000 -0.0076
vn -0.0003 -1.0000 -0.0074
vn -0.0001 -1.0000 -0.0075
vn -0.0003 -1.0000 -0.0076
vn 0.0002 -1.0000 -0.0075
vt 0.026147 0.187774
vt 0.322250 0.018544
vt 0.337495 0.050926
vt 0.022260 0.653795
vt 0.359123 0.707075
vt 0.019484 0.689477
vt 0.358653 0.725256
vt 0.018557 0.725256
vt 0.019484 0.761035
vt 0.359124 0.743437
vt 0.022260 0.796718
vt 0.779013 0.088195
vt 0.439732 0.053482
vt 0.446181 0.018278
vt 0.773389 0.124120
vt 0.435114 0.088974
vt 0.771977 0.142253
vt 0.432338 0.124656
vt 0.431411 0.160435
vt 0.771507 0.160434
vt 0.432338 0.196213
vt 0.771978 0.178615
vt 0.435114 0.231896
vt 0.773389 0.196748
vt 0.439733 0.267387
vt 0.779013 0.232673
vt 0.446182 0.302592
vt 0.018400 0.487011
vt 0.337493 0.607407
vt 0.322249 0.639788
vt 0.033031 0.453723
vt 0.351043 0.574280
vt 0.362859 0.540496
vt 0.039037 0.436555
vt 0.372912 0.506147
vt 0.044145 0.419101
vt 0.381174 0.471323
vt 0.048343 0.401404
vt 0.387623 0.436118
vt 0.051620 0.383514
vt 0.392242 0.400627
vt 0.053967 0.365479
vt 0.395018 0.364945
vt 0.055849 0.329166
vt 0.395944 0.329166
vt 0.395018 0.293388
vt 0.055378 0.310984
vt 0.392242 0.257705
vt 0.051620 0.274816
vt 0.387623 0.222214
vt 0.048343 0.256927
vt 0.381175 0.187009
vt 0.372913 0.152185
vt 0.044145 0.239231
vt 0.362860 0.117836
vt 0.039037 0.221775
vt 0.351043 0.084052
vt 0.817767 0.265682
vt 0.948341 0.252822
vt 0.961201 0.383396
vt 0.089649 0.844638
vt 0.428818 0.808856
vt 0.429745 0.844634
vt 0.428819 0.880413
vt 0.860189 0.583969
vt 0.746477 0.576388
vt 0.853207 0.548866
vt 0.861099 0.629004
vt 0.751051 0.599383
vt 0.861099 0.593214
vt 0.853205 0.673349
vt 0.751050 0.622829
vt 0.860188 0.638246
vt 0.836815 0.715298
vt 0.746476 0.645823
vt 0.850510 0.682231
vt 0.812547 0.753254
vt 0.737504 0.667484
vt 0.832432 0.723496
vt 0.781351 0.785736
vt 0.724478 0.686977
vt 0.806659 0.760428
vt 0.744409 0.811514
vt 0.707899 0.703556
vt 0.774167 0.791631
vt 0.703156 0.829586
vt 0.688405 0.716581
vt 0.736223 0.815889
vt 0.694265 0.832283
vt 0.643749 0.730127
vt 0.666744 0.725553
vt 0.614132 0.840175
vt 0.649923 0.840175
vt 0.569782 0.832280
vt 0.620304 0.730126
vt 0.604883 0.839264
vt 0.527832 0.815888
vt 0.597309 0.725552
vt 0.560898 0.829585
vt 0.489882 0.791625
vt 0.575649 0.716580
vt 0.519640 0.811509
vt 0.482703 0.785734
vt 0.539577 0.686976
vt 0.556155 0.703554
vt 0.431620 0.723487
vt 0.451504 0.753246
vt 0.413545 0.682231
vt 0.526552 0.667481
vt 0.427243 0.715297
vt 0.410849 0.673341
vt 0.513006 0.622825
vt 0.517579 0.645820
vt 0.402958 0.628995
vt 0.513006 0.599379
vt 0.403868 0.583962
vt 0.517580 0.576385
vt 0.413548 0.539973
vt 0.526553 0.554724
vt 0.431623 0.498716
vt 0.539578 0.535231
vt 0.482704 0.436473
vt 0.457397 0.461781
vt 0.489888 0.430577
vt 0.575651 0.505627
vt 0.556157 0.518652
vt 0.560901 0.392622
vt 0.527835 0.406318
vt 0.569793 0.389925
vt 0.620307 0.492082
vt 0.597312 0.496655
vt 0.614134 0.382034
vt 0.643752 0.492082
vt 0.659172 0.382945
vt 0.666747 0.496657
vt 0.703155 0.392622
vt 0.688408 0.505628
vt 0.744420 0.410700
vt 0.707901 0.518655
vt 0.781353 0.436474
vt 0.724480 0.535233
vt 0.832436 0.498720
vt 0.812553 0.468961
vt 0.850511 0.539978
vt 0.737505 0.554727
vt 0.836815 0.506912
vt 0.018400 0.171320
vt 0.360535 0.688943
vt 0.360535 0.761570
vt 0.775735 0.106085
vt 0.775735 0.214783
vt 0.026147 0.470557
vt 0.055378 0.347347
vt 0.053968 0.292852
vt 0.033032 0.204608
vt 0.948341 0.396257
vt 0.933218 0.406361
vt 0.916416 0.413321
vt 0.898578 0.416868
vt 0.880390 0.416868
vt 0.862552 0.413321
vt 0.845750 0.406360
vt 0.830628 0.396256
vt 0.817767 0.383395
vt 0.807663 0.368273
vt 0.800703 0.351470
vt 0.797155 0.333632
vt 0.797155 0.315445
vt 0.800703 0.297607
vt 0.807663 0.280804
vt 0.830628 0.252822
vt 0.845750 0.242718
vt 0.862553 0.235758
vt 0.880390 0.232209
vt 0.898578 0.232210
vt 0.916416 0.235758
vt 0.933219 0.242718
vt 0.961201 0.265683
vt 0.971305 0.280805
vt 0.978265 0.297608
vt 0.981813 0.315446
vt 0.981813 0.333633
vt 0.978266 0.351471
vt 0.971305 0.368274
vt 0.089178 0.826457
vt 0.089178 0.862819
vt 0.659162 0.839265
vt 0.457396 0.760426
vt 0.403868 0.638237
vt 0.402958 0.593205
vt 0.410852 0.548859
vt 0.427245 0.506907
vt 0.451508 0.468957
vt 0.519648 0.410694
vt 0.604896 0.382943
vt 0.649923 0.382034
vt 0.694274 0.389928
vt 0.736222 0.406318
vt 0.774178 0.430585
vt 0.806661 0.461782
s 1
usemtl マテリアル
f 32/1/1 34/2/2 96/3/2
f 38/4/3 4/5/3 40/6/3
f 40/6/4 5/7/5 42/8/4
f 5/7/6 44/9/6 42/8/6
f 6/10/7 46/11/7 44/9/7
f 7/12/8 48/13/8 46/14/8
f 48/13/9 9/15/9 50/16/9
f 50/16/10 10/17/10 52/18/10
f 10/17/11 54/19/12 52/18/12
f 11/20/13 56/21/13 54/19/13
f 12/22/14 58/23/15 56/21/15
f 13/24/16 60/25/16 58/23/16
f 60/25/17 15/26/18 62/27/17
f 15/28/19 64/29/19 62/30/19
f 64/29/20 17/31/20 66/32/20
f 17/31/21 68/33/21 66/32/21
f 18/34/22 70/35/22 68/33/22
f 19/36/23 72/37/24 70/35/24
f 20/38/25 74/39/25 72/37/25
f 21/40/26 76/41/27 74/39/27
f 22/42/28 78/43/28 76/41/28
f 78/43/29 24/44/30 80/45/29
f 24/44/31 82/46/31 80/45/31
f 25/47/32 84/48/32 82/46/32
f 84/48/33 27/49/33 86/50/33
f 86/50/34 28/51/34 88/52/34
f 28/51/35 90/53/35 88/52/35
f 29/54/36 92/55/37 90/53/37
f 30/56/38 94/57/38 92/55/38
f 94/57/39 32/1/39 96/3/39
f 19/58/40 11/59/40 3/60/40
f 2/61/41 38/62/41 36/63/41
f 34/64/42 2/61/43 36/63/42
f 36/65/44 33/66/44 34/67/44
f 38/68/45 35/69/45 36/70/45
f 40/71/46 37/72/46 38/73/46
f 42/74/47 39/75/47 40/76/47
f 44/77/48 41/78/49 42/79/48
f 46/80/50 43/81/50 44/82/50
f 48/83/51 45/84/51 46/85/51
f 50/86/52 47/87/52 48/88/52
f 50/89/53 51/90/53 49/91/53
f 54/92/54 51/90/54 52/93/54
f 56/94/55 53/95/55 54/96/55
f 58/97/56 55/98/56 56/99/56
f 60/100/57 57/101/57 58/102/57
f 60/103/58 61/104/58 59/105/58
f 64/106/59 61/104/59 62/107/59
f 66/108/60 63/109/60 64/110/60
f 66/111/61 67/112/61 65/113/61
f 68/114/62 69/115/62 67/112/62
f 70/116/63 71/117/63 69/115/63
f 72/118/64 73/119/64 71/117/64
f 74/120/65 75/121/65 73/119/66
f 78/122/67 75/121/67 76/123/67
f 78/124/68 79/125/68 77/126/68
f 82/127/69 79/125/69 80/128/69
f 82/129/70 83/130/70 81/131/70
f 84/132/71 85/133/71 83/130/71
f 86/134/72 87/135/72 85/133/72
f 88/136/73 89/137/74 87/135/74
f 90/138/75 91/139/75 89/137/76
f 92/140/77 93/141/77 91/139/77
f 96/142/78 93/141/78 94/143/78
f 34/144/79 95/145/79 96/146/79
f 63/109/80 79/125/80 95/145/80
f 32/1/1 1/147/1 34/2/2
f 38/4/3 3/148/3 4/5/3
f 40/6/4 4/5/5 5/7/5
f 5/7/6 6/10/6 44/9/6
f 6/10/7 7/149/7 46/11/7
f 7/12/8 8/150/8 48/13/8
f 48/13/9 8/150/9 9/15/9
f 50/16/10 9/15/10 10/17/10
f 10/17/11 11/20/11 54/19/12
f 11/20/13 12/22/13 56/21/13
f 12/22/14 13/24/14 58/23/15
f 13/24/16 14/151/16 60/25/16
f 60/25/17 14/151/18 15/26/18
f 15/28/19 16/152/19 64/29/19
f 64/29/20 16/152/20 17/31/20
f 17/31/21 18/34/21 68/33/21
f 18/34/22 19/36/22 70/35/22
f 19/36/23 20/38/23 72/37/24
f 20/38/25 21/40/25 74/39/25
f 21/40/26 22/42/26 76/41/27
f 22/42/28 23/153/28 78/43/28
f 78/43/29 23/153/30 24/44/30
f 24/44/31 25/47/31 82/46/31
f 25/47/32 26/154/32 84/48/32
f 84/48/33 26/154/33 27/49/33
f 86/50/34 27/49/34 28/51/34
f 28/51/35 29/54/35 90/53/35
f 29/54/36 30/56/36 92/55/37
f 30/56/38 31/155/38 94/57/38
f 94/57/39 31/155/39 32/1/39
f 3/60/40 2/156/81 1/157/82
f 1/157/82 32/158/81 31/159/40
f 31/159/40 30/160/83 29/161/40
f 29/161/40 28/162/40 27/163/40
f 27/163/40 26/164/84 25/165/40
f 25/165/40 24/166/85 23/167/40
f 23/167/40 22/168/40 21/169/40
f 21/169/40 20/170/86 19/58/40
f 19/58/40 18/171/87 17/172/40
f 17/172/40 16/173/88 15/174/40
f 15/174/40 14/175/89 13/176/40
f 13/176/40 12/177/40 11/59/40
f 11/59/40 10/178/90 9/179/40
f 9/179/40 8/180/91 7/181/40
f 7/181/40 6/182/92 5/183/40
f 5/183/40 4/184/93 3/60/40
f 3/60/40 1/157/82 31/159/40
f 31/159/40 29/161/40 27/163/40
f 27/163/40 25/165/40 23/167/40
f 23/167/40 21/169/40 19/58/40
f 19/58/40 17/172/40 15/174/40
f 15/174/40 13/176/40 11/59/40
f 11/59/40 9/179/40 7/181/40
f 7/181/40 5/183/40 3/60/40
f 3/60/40 31/159/40 27/163/40
f 27/163/40 23/167/40 19/58/40
f 19/58/40 15/174/40 11/59/40
f 11/59/40 7/181/40 3/60/40
f 3/60/40 27/163/40 19/58/40
f 2/61/41 3/185/41 38/62/41
f 34/64/42 1/186/43 2/61/43
f 36/65/44 35/69/44 33/66/44
f 38/68/45 37/72/45 35/69/45
f 40/71/46 39/75/46 37/72/46
f 42/74/47 41/78/94 39/75/47
f 44/77/48 43/81/49 41/78/49
f 46/80/50 45/84/50 43/81/50
f 48/83/51 47/87/51 45/84/51
f 50/86/52 49/91/52 47/87/52
f 50/89/53 52/187/53 51/90/53
f 54/92/54 53/95/54 51/90/54
f 56/94/55 55/98/55 53/95/55
f 58/97/56 57/101/95 55/98/56
f 60/100/57 59/105/57 57/101/57
f 60/103/58 62/188/58 61/104/58
f 64/106/59 63/109/59 61/104/59
f 66/108/60 65/113/60 63/109/60
f 66/111/61 68/189/61 67/112/61
f 68/114/62 70/190/62 69/115/62
f 70/116/63 72/191/63 71/117/63
f 72/118/64 74/192/64 73/119/64
f 74/120/65 76/193/65 75/121/65
f 78/122/67 77/126/67 75/121/67
f 78/124/68 80/194/68 79/125/68
f 82/127/69 81/131/69 79/125/69
f 82/129/70 84/195/70 83/130/70
f 84/132/71 86/196/71 85/133/71
f 86/134/72 88/197/72 87/135/72
f 88/136/73 90/198/73 89/137/74
f 90/138/75 92/199/75 91/139/75
f 92/140/77 94/200/77 93/141/77
f 96/142/78 95/145/78 93/141/78
f 34/144/79 33/66/79 95/145/79
f 95/145/80 33/66/96 35/69/80
f 35/69/80 37/72/80 39/75/80
f 39/75/80 41/78/97 43/81/80
f 43/81/80 45/84/98 47/87/80
f 47/87/80 49/91/99 51/90/80
f 51/90/80 53/95/100 55/98/80
f 55/98/80 57/101/80 59/105/80
f 59/105/80 61/104/101 63/109/80
f 63/109/80 65/113/96 67/112/80
f 67/112/80 69/115/101 71/117/80
f 71/117/80 73/119/80 75/121/80
f 75/121/80 77/126/102 79/125/80
f 79/125/80 81/131/103 83/130/80
f 83/130/80 85/133/104 87/135/80
f 87/135/80 89/137/105 91/139/80
f 91/139/80 93/141/80 95/145/80
f 95/145/80 35/69/80 39/75/80
f 39/75/80 43/81/80 47/87/80
f 47/87/80 51/90/80 55/98/80
f 55/98/80 59/105/80 63/109/80
f 63/109/80 67/112/80 71/117/80
f 71/117/80 75/121/80 79/125/80
f 79/125/80 83/130/80 87/135/80
f 87/135/80 91/139/80 95/145/80
f 95/145/80 39/75/80 47/87/80
f 47/87/80 55/98/80 63/109/80
f 63/109/80 71/117/80 79/125/80
f 79/125/80 87/135/80 95/145/80
f 95/145/80 47/87/80 63/109/80
