# Blender 4.4.0
# www.blender.org
mtllib shoulderMissile.mtl
o shoulderMissile
v 0.379747 0.183834 -0.189125
v 0.379747 -0.183834 -0.189125
v 0.379747 0.183834 0.189125
v 0.379747 -0.183834 0.189125
v -0.374001 0.183834 -0.189125
v -0.374001 -0.183834 -0.189125
v -0.374001 0.183834 0.189125
v -0.374001 -0.183834 0.189125
v 0.379747 0.000000 -0.282232
v -0.374001 0.000000 0.282232
v 0.379747 0.000000 0.282232
v -0.374001 0.000000 -0.282232
v 0.418516 0.000000 -0.233650
v 0.418516 -0.152190 -0.156570
v 0.418516 0.000000 0.233650
v 0.418516 -0.152190 0.156570
v 0.418516 0.152190 -0.156570
v 0.418516 0.152190 0.156570
v -0.415324 -0.152190 -0.156570
v -0.415324 -0.152190 0.156570
v -0.415324 0.000000 0.233650
v -0.415324 0.152190 0.156570
v -0.415324 0.000000 -0.233650
v -0.415324 0.152190 -0.156570
v 0.279971 -0.377304 -0.077407
v 0.279971 -0.327359 -0.155952
v 0.279971 -0.025413 0.146354
v 0.385139 -0.377304 -0.077407
v 0.385139 -0.327359 -0.155952
v 0.385139 -0.025413 0.146354
v 0.385139 0.024532 0.067809
v 0.279971 0.024532 0.067809
v 0.381137 -0.529587 0.220529
v 0.381137 -0.599397 0.158964
v 0.381137 -0.253767 -0.092232
v 0.486305 -0.529587 0.220529
v 0.486305 -0.599397 0.158964
v 0.486305 -0.253767 -0.092232
v 0.486305 -0.323578 -0.153797
v 0.381137 -0.323578 -0.153797
vn -0.0000 1.0000 -0.0000
vn -0.0000 0.4518 0.8921
vn -0.7238 0.3118 0.6156
vn -0.0000 -1.0000 -0.0000
vn 0.7453 0.3012 0.5948
vn -0.0000 0.4518 -0.8921
vn -0.0000 -0.4518 -0.8921
vn 0.6323 0.7747 -0.0000
vn -0.7238 -0.3118 -0.6156
vn -0.0000 -0.4518 0.8921
vn 1.0000 -0.0000 -0.0000
vn 0.7453 0.3012 -0.5948
vn 0.7453 -0.3012 0.5948
vn 0.7453 -0.3012 -0.5948
vn 0.6323 -0.7747 -0.0000
vn -1.0000 -0.0000 -0.0000
vn -0.7238 0.3118 -0.6156
vn -0.7238 -0.3118 0.6156
vn -0.6080 -0.7939 -0.0000
vn -0.6080 0.7939 -0.0000
vn -0.0000 -0.8438 -0.5366
vn -0.0000 -0.5366 0.8438
vn -0.0000 0.8438 0.5366
vn -0.0000 0.5366 -0.8438
vn -0.0000 -0.6614 0.7500
vn -0.0000 0.7500 0.6614
vn -0.0000 0.6614 -0.7500
vn -0.0000 -0.7500 -0.6614
vt 0.000463 0.000463
vt 0.236316 0.470452
vt 0.000463 0.470453
vt 0.731930 0.000463
vt 0.603440 0.470452
vt 0.603440 0.000463
vt 0.830613 0.892174
vt 0.793274 0.777371
vt 0.830613 0.763684
vt 0.237243 0.000463
vt 0.473096 0.470452
vt 0.237243 0.470453
vt 0.206412 0.894408
vt 0.242671 0.779604
vt 0.242671 0.885977
vt 0.732857 0.470452
vt 0.861347 0.000463
vt 0.861347 0.470452
vt 0.474023 0.470452
vt 0.602513 0.000463
vt 0.602513 0.470452
vt 0.729012 0.763684
vt 0.760216 0.979237
vt 0.729012 0.999537
vt 0.831539 0.763684
vt 0.868878 0.878487
vt 0.831539 0.892174
vt 0.128954 0.471379
vt 0.000463 0.941368
vt 0.000463 0.471379
vt 0.790528 0.519441
vt 0.695632 0.762757
vt 0.695632 0.471379
vt 0.862274 0.291841
vt 0.957170 0.048525
vt 0.957170 0.243779
vt 0.317041 0.894408
vt 0.280783 0.779604
vt 0.317041 0.765917
vt 0.354804 0.765917
vt 0.391063 0.880721
vt 0.354804 0.894408
vt 0.279856 0.765917
vt 0.243597 0.880721
vt 0.243597 0.774348
vt 0.792347 0.999537
vt 0.761143 0.783983
vt 0.792347 0.763684
vt 0.982173 0.519441
vt 0.887277 0.762757
vt 0.887277 0.471379
vt 0.791454 0.762757
vt 0.886350 0.519441
vt 0.886350 0.714695
vt 0.129881 0.894408
vt 0.167219 0.779604
vt 0.167220 0.885977
vt 0.205485 0.765917
vt 0.168146 0.880721
vt 0.168146 0.774348
vt 0.695632 0.999537
vt 0.728085 0.783983
vt 0.728085 0.979237
vt 0.958096 0.236316
vt 0.990550 0.020763
vt 0.990550 0.216017
vt 0.562705 0.765917
vt 0.628242 0.839965
vt 0.562705 0.839965
vt 0.628242 0.764991
vt 0.562705 0.471379
vt 0.628242 0.471379
vt 0.278903 0.764991
vt 0.204855 0.471379
vt 0.278903 0.471379
vt 0.495315 0.764991
vt 0.429779 0.471379
vt 0.495315 0.471379
vt 0.429779 0.840892
vt 0.495315 0.914940
vt 0.429779 0.914940
vt 0.203928 0.764991
vt 0.129881 0.471379
vt 0.203928 0.471379
vt 0.561779 0.839965
vt 0.496242 0.765917
vt 0.561779 0.765917
vt 0.694705 0.764991
vt 0.629169 0.471379
vt 0.694705 0.471379
vt 0.279830 0.471379
vt 0.353878 0.764991
vt 0.279830 0.764991
vt 0.496242 0.471379
vt 0.561779 0.764991
vt 0.496242 0.764991
vt 0.495315 0.839965
vt 0.429779 0.765917
vt 0.495315 0.765917
vt 0.428852 0.764991
vt 0.354804 0.471379
vt 0.428852 0.471379
vt 0.236316 0.000463
vt 0.731930 0.470453
vt 0.793274 0.883743
vt 0.473096 0.000463
vt 0.206412 0.765917
vt 0.732857 0.000463
vt 0.474023 0.000463
vt 0.760216 0.783983
vt 0.868878 0.772115
vt 0.128954 0.941368
vt 0.790528 0.714695
vt 0.862274 0.000463
vt 0.280783 0.885977
vt 0.391063 0.774348
vt 0.279856 0.894408
vt 0.761143 0.979237
vt 0.982173 0.714695
vt 0.791454 0.471379
vt 0.129881 0.765917
vt 0.205485 0.894408
vt 0.695632 0.763684
vt 0.958096 0.000463
vt 0.628242 0.765917
vt 0.562705 0.764991
vt 0.204855 0.764991
vt 0.429779 0.764991
vt 0.495315 0.840892
vt 0.129881 0.764991
vt 0.496242 0.839965
vt 0.629169 0.764991
vt 0.353878 0.471379
vt 0.561779 0.471379
vt 0.429779 0.839965
vt 0.354804 0.764991
s 0
usemtl Material
f 5/1/1 3/2/1 1/3/1
f 3/4/2 10/5/2 11/6/2
f 7/7/3 21/8/3 10/9/3
f 2/10/4 8/11/4 6/12/4
f 3/13/5 15/14/5 18/15/5
f 5/16/6 9/17/6 12/18/6
f 12/19/7 2/20/7 6/21/7
f 3/22/8 17/23/8 1/24/8
f 6/25/9 23/26/9 12/27/9
f 11/28/10 8/29/10 4/30/10
f 17/31/11 15/32/11 13/33/11
f 13/34/11 16/35/11 14/36/11
f 1/37/12 13/38/12 9/39/12
f 4/40/13 15/41/13 11/42/13
f 2/43/14 13/44/14 14/45/14
f 2/46/15 16/47/15 4/48/15
f 22/49/16 23/50/16 21/51/16
f 21/52/16 19/53/16 20/54/16
f 5/55/17 23/56/17 24/57/17
f 8/58/18 21/59/18 20/60/18
f 6/61/19 20/62/19 19/63/19
f 7/64/20 24/65/20 22/66/20
f 29/67/21 25/68/21 26/69/21
f 27/70/16 26/71/16 25/72/16
f 30/73/22 25/74/22 28/75/22
f 31/76/11 28/77/11 29/78/11
f 32/79/23 30/80/23 31/81/23
f 32/82/24 29/83/24 26/84/24
f 37/85/25 33/86/25 34/87/25
f 35/88/16 34/89/16 33/90/16
f 38/91/26 33/92/26 36/93/26
f 39/94/11 36/95/11 37/96/11
f 40/97/27 38/98/27 39/99/27
f 40/100/28 37/101/28 34/102/28
f 5/1/1 7/103/1 3/2/1
f 3/4/2 7/104/2 10/5/2
f 7/7/3 22/105/3 21/8/3
f 2/10/4 4/106/4 8/11/4
f 3/13/5 11/107/5 15/14/5
f 5/16/6 1/108/6 9/17/6
f 12/19/7 9/109/7 2/20/7
f 3/22/8 18/110/8 17/23/8
f 6/25/9 19/111/9 23/26/9
f 11/28/10 10/112/10 8/29/10
f 17/31/11 18/113/11 15/32/11
f 13/34/11 15/114/11 16/35/11
f 1/37/12 17/115/12 13/38/12
f 4/40/13 16/116/13 15/41/13
f 2/43/14 9/117/14 13/44/14
f 2/46/15 14/118/15 16/47/15
f 22/49/16 24/119/16 23/50/16
f 21/52/16 23/120/16 19/53/16
f 5/55/17 12/121/17 23/56/17
f 8/58/18 10/122/18 21/59/18
f 6/61/19 8/123/19 20/62/19
f 7/64/20 5/124/20 24/65/20
f 29/67/21 28/125/21 25/68/21
f 27/70/16 32/126/16 26/71/16
f 30/73/22 27/127/22 25/74/22
f 31/76/11 30/128/11 28/77/11
f 32/79/23 27/129/23 30/80/23
f 32/82/24 31/130/24 29/83/24
f 37/85/25 36/131/25 33/86/25
f 35/88/16 40/132/16 34/89/16
f 38/91/26 35/133/26 33/92/26
f 39/94/11 38/134/11 36/95/11
f 40/97/27 35/135/27 38/98/27
f 40/100/28 39/136/28 37/101/28
