# Blender 4.4.0
# www.blender.org
mtllib gun.mtl
o gun
v -0.007887 0.493583 2.335567
v -0.007887 0.440748 2.964640
v 0.012775 0.491548 2.335567
v 0.002467 0.439728 2.964640
v 0.032643 0.485521 2.335567
v 0.012424 0.436708 2.964640
v 0.050953 0.475734 2.335567
v 0.021600 0.431803 2.964640
v 0.067003 0.462563 2.335567
v 0.029642 0.425203 2.964640
v 0.080174 0.446514 2.335567
v 0.036243 0.417160 2.964640
v 0.089961 0.428203 2.335567
v 0.041148 0.407984 2.964640
v 0.095988 0.408335 2.335567
v 0.044168 0.398027 2.964640
v 0.098023 0.387673 2.335567
v 0.045188 0.387673 2.964640
v 0.095988 0.367011 2.335567
v 0.044168 0.377319 2.964640
v 0.089961 0.347143 2.335567
v 0.041148 0.367362 2.964640
v 0.080174 0.328832 2.335567
v 0.036243 0.358186 2.964640
v 0.067003 0.312783 2.335567
v 0.029642 0.350143 2.964640
v 0.050953 0.299612 2.335567
v 0.021600 0.343543 2.964640
v 0.032643 0.289825 2.335567
v 0.012424 0.338638 2.964640
v 0.012775 0.283798 2.335567
v 0.002467 0.335618 2.964640
v -0.007887 0.281763 2.335567
v -0.007887 0.334598 2.964640
v -0.028549 0.283798 2.335567
v -0.018242 0.335618 2.964640
v -0.048417 0.289825 2.335567
v -0.028198 0.338638 2.964640
v -0.066728 0.299612 2.335567
v -0.037374 0.343543 2.964640
v -0.082777 0.312783 2.335567
v -0.045417 0.350143 2.964640
v -0.095948 0.328832 2.335567
v -0.052018 0.358186 2.964640
v -0.105736 0.347143 2.335567
v -0.056922 0.367362 2.964640
v -0.111762 0.367011 2.335567
v -0.059942 0.377319 2.964640
v -0.113797 0.387673 2.335567
v -0.060962 0.387673 2.964640
v -0.111762 0.408335 2.335567
v -0.059942 0.398027 2.964640
v -0.105736 0.428203 2.335567
v -0.056922 0.407984 2.964640
v -0.095948 0.446514 2.335567
v -0.052018 0.417160 2.964640
v -0.082777 0.462563 2.335567
v -0.045417 0.425203 2.964640
v -0.066728 0.475734 2.335567
v -0.037374 0.431803 2.964640
v -0.048417 0.485521 2.335567
v -0.028198 0.436708 2.964640
v -0.028549 0.491548 2.335567
v -0.018242 0.439728 2.964640
v -0.146558 0.261520 1.764660
v -0.146558 0.560601 1.764660
v -0.146558 0.166831 -0.339605
v -0.146558 0.560601 -0.339605
v 0.135947 0.261520 1.764660
v 0.135947 0.560601 1.764660
v 0.135947 0.166831 -0.339605
v 0.135947 0.560601 -0.339605
v -0.146558 -0.307457 -0.115756
v -0.146558 0.108200 0.567617
v 0.135947 -0.307457 -0.115756
v 0.135947 0.108200 0.567617
v -0.146558 0.100615 0.356694
v -0.146558 -0.171399 -0.056845
v -0.146558 0.100615 -0.157227
v 0.135947 0.100615 0.356694
v 0.135947 -0.171399 -0.056845
v 0.135947 0.100615 -0.157227
v -0.146558 0.364568 -0.682991
v -0.146558 0.560601 -0.682991
v 0.135947 0.364568 -0.682991
v 0.135947 0.560601 -0.682991
v -0.007887 0.466672 1.693011
v -0.007887 0.466672 2.503456
v 0.007525 0.465154 1.693011
v 0.007525 0.465154 2.503456
v 0.022344 0.460658 1.693011
v 0.022344 0.460658 2.503456
v 0.036002 0.453358 1.693011
v 0.036002 0.453358 2.503456
v 0.047973 0.443534 1.693011
v 0.047973 0.443534 2.503456
v 0.057798 0.431562 1.693011
v 0.057798 0.431562 2.503456
v 0.065098 0.417904 1.693011
v 0.065098 0.417904 2.503456
v 0.069594 0.403085 1.693011
v 0.069594 0.403085 2.503456
v 0.071112 0.387673 1.693011
v 0.071112 0.387673 2.503456
v 0.069594 0.372261 1.693011
v 0.069594 0.372261 2.503456
v 0.065098 0.357442 1.693011
v 0.065098 0.357442 2.503456
v 0.057798 0.343784 1.693011
v 0.057798 0.343784 2.503456
v 0.047973 0.331813 1.693011
v 0.047973 0.331813 2.503456
v 0.036002 0.321988 1.693011
v 0.036002 0.321988 2.503456
v 0.022344 0.314688 1.693011
v 0.022344 0.314688 2.503456
v 0.007525 0.310192 1.693011
v 0.007525 0.310192 2.503456
v -0.007887 0.308674 1.693011
v -0.007887 0.308674 2.503456
v -0.023299 0.310192 1.693011
v -0.023299 0.310192 2.503456
v -0.038119 0.314688 1.693011
v -0.038119 0.314688 2.503456
v -0.051776 0.321988 1.693011
v -0.051776 0.321988 2.503456
v -0.063748 0.331813 1.693011
v -0.063748 0.331813 2.503456
v -0.073572 0.343784 1.693011
v -0.073572 0.343784 2.503456
v -0.080872 0.357442 1.693011
v -0.080872 0.357442 2.503456
v -0.085368 0.372261 1.693011
v -0.085368 0.372261 2.503456
v -0.086886 0.387673 1.693011
v -0.086886 0.387673 2.503456
v -0.085368 0.403085 1.693011
v -0.085368 0.403085 2.503456
v -0.080872 0.417904 1.693011
v -0.080872 0.417904 2.503456
v -0.073572 0.431562 1.693011
v -0.073572 0.431562 2.503456
v -0.063748 0.443534 1.693011
v -0.063748 0.443534 2.503456
v -0.051776 0.453358 1.693011
v -0.051776 0.453358 2.503456
v -0.038119 0.460658 1.693011
v -0.038119 0.460658 2.503456
v -0.023299 0.465154 1.693011
v -0.023299 0.465154 2.503456
vn 0.0977 0.9917 0.0833
vn 0.2893 0.9536 0.0833
vn 0.4698 0.8789 0.0833
vn 0.6322 0.7703 0.0833
vn 0.7703 0.6322 0.0833
vn 0.8789 0.4698 0.0833
vn 0.9536 0.2893 0.0833
vn 0.9917 0.0977 0.0833
vn 0.9917 -0.0977 0.0833
vn 0.9536 -0.2893 0.0833
vn 0.8789 -0.4698 0.0833
vn 0.7703 -0.6322 0.0833
vn 0.6322 -0.7703 0.0833
vn 0.4698 -0.8789 0.0833
vn 0.2893 -0.9536 0.0833
vn 0.0977 -0.9917 0.0833
vn -0.0977 -0.9917 0.0833
vn -0.2893 -0.9536 0.0833
vn -0.4698 -0.8789 0.0833
vn -0.6322 -0.7703 0.0833
vn -0.7703 -0.6322 0.0833
vn -0.8789 -0.4698 0.0833
vn -0.9536 -0.2893 0.0833
vn -0.9917 -0.0977 0.0833
vn -0.9917 0.0977 0.0833
vn -0.9536 0.2893 0.0833
vn -0.8789 0.4698 0.0833
vn -0.7703 0.6322 0.0833
vn -0.6322 0.7703 0.0833
vn -0.4698 0.8789 0.0833
vn -0.0000 -0.0000 1.0000
vn -0.2893 0.9536 0.0833
vn -0.0977 0.9917 0.0833
vn -0.0000 -0.0000 -1.0000
vn -1.0000 -0.0000 -0.0000
vn -0.0000 -0.8666 -0.4990
vn 1.0000 -0.0000 -0.0000
vn -0.0000 -0.4268 -0.9043
vn -0.0000 1.0000 -0.0000
vn -0.0000 -0.8544 0.5197
vn -0.0000 -0.9919 0.1270
vn -0.0000 0.3462 0.9382
vn -0.0000 0.8355 -0.5495
vn -0.0000 -1.0000 -0.0000
vn 0.0980 0.9952 -0.0000
vn 0.2903 0.9569 -0.0000
vn 0.4714 0.8819 -0.0000
vn 0.6344 0.7730 -0.0000
vn 0.7730 0.6344 -0.0000
vn 0.8819 0.4714 -0.0000
vn 0.9569 0.2903 -0.0000
vn 0.9952 0.0980 -0.0000
vn 0.9952 -0.0980 -0.0000
vn 0.9569 -0.2903 -0.0000
vn 0.8819 -0.4714 -0.0000
vn 0.7730 -0.6344 -0.0000
vn 0.6344 -0.7730 -0.0000
vn 0.4714 -0.8819 -0.0000
vn 0.2903 -0.9569 -0.0000
vn 0.0980 -0.9952 -0.0000
vn -0.0980 -0.9952 -0.0000
vn -0.2903 -0.9569 -0.0000
vn -0.4714 -0.8819 -0.0000
vn -0.6344 -0.7730 -0.0000
vn -0.7730 -0.6344 -0.0000
vn -0.8819 -0.4714 -0.0000
vn -0.9569 -0.2903 -0.0000
vn -0.9952 -0.0980 -0.0000
vn -0.9952 0.0980 -0.0000
vn -0.9569 0.2903 -0.0000
vn -0.8819 0.4714 -0.0000
vn -0.7730 0.6344 -0.0000
vn -0.6344 0.7730 -0.0000
vn -0.4714 0.8819 -0.0000
vn -0.2903 0.9569 -0.0000
vn -0.0980 0.9952 -0.0000
vn -0.0000 0.0002 1.0000
vn -0.0000 -0.0001 1.0000
vn -0.0000 -0.0002 1.0000
vn -0.0000 0.0001 -1.0000
vn -0.0000 -0.0001 -1.0000
vn -0.0000 0.0001 1.0000
vt 0.803962 0.920116
vt 0.913989 0.784640
vt 0.926068 0.795969
vt 0.791593 0.909055
vt 0.901386 0.773896
vt 0.888288 0.763762
vt 0.778232 0.899215
vt 0.874724 0.754261
vt 0.860725 0.745414
vt 0.771217 0.894781
vt 0.846321 0.737241
vt 0.763999 0.890685
vt 0.831547 0.729760
vt 0.756595 0.886937
vt 0.816434 0.722989
vt 0.749021 0.883543
vt 0.801017 0.716941
vt 0.741295 0.880513
vt 0.785330 0.711632
vt 0.733434 0.877852
vt 0.769410 0.707073
vt 0.725456 0.875567
vt 0.753291 0.703274
vt 0.717378 0.873664
vt 0.737009 0.700244
vt 0.700997 0.871015
vt 0.720603 0.697990
vt 0.704108 0.696516
vt 0.692731 0.870277
vt 0.687562 0.695827
vt 0.684439 0.869931
vt 0.671001 0.695923
vt 0.667853 0.870421
vt 0.654464 0.696804
vt 0.659596 0.871255
vt 0.637988 0.698468
vt 0.621608 0.700913
vt 0.651388 0.872480
vt 0.605364 0.704131
vt 0.643247 0.874093
vt 0.589290 0.708116
vt 0.635192 0.876090
vt 0.573423 0.712860
vt 0.627241 0.878467
vt 0.557799 0.718350
vt 0.619411 0.881219
vt 0.542453 0.724575
vt 0.604187 0.887819
vt 0.527419 0.731522
vt 0.512732 0.739173
vt 0.596827 0.891654
vt 0.498425 0.747512
vt 0.582693 0.900347
vt 0.484529 0.756521
vt 0.471076 0.766179
vt 0.298717 0.806885
vt 0.356009 0.789505
vt 0.373389 0.846798
vt 0.569447 0.910341
vt 0.458096 0.776463
vt 0.563194 0.915798
vt 0.445618 0.787352
vt 0.226127 0.817217
vt 0.169809 0.922580
vt 0.064445 0.866262
vt 0.141372 0.353778
vt 0.105992 0.266503
vt 0.178484 0.286611
vt 0.172793 0.206008
vt 0.208003 0.217996
vt 0.150974 0.176752
vt 0.223823 0.157245
vt 0.196006 0.122149
vt 0.274581 0.133605
vt 0.261734 0.320059
vt 0.093778 0.131925
vt 0.288671 0.250807
vt 0.281690 0.143987
vt 0.338674 0.199210
vt 0.183753 0.314017
vt 0.180383 0.320683
vt 0.237074 0.314726
vt 0.221622 0.218027
vt 0.267466 0.237731
vt 0.231687 0.195584
vt 0.229617 0.202479
vt 0.277863 0.423749
vt 0.326186 0.353963
vt 0.326186 0.423749
vt 0.227558 0.353963
vt 0.277678 0.423749
vt 0.227558 0.423749
vt 0.409813 0.299152
vt 0.426856 0.368938
vt 0.409813 0.368938
vt 0.109837 0.253877
vt 0.144863 0.265360
vt 0.086392 0.141288
vt 0.143840 0.186503
vt 0.881875 0.032449
vt 0.777262 0.042703
vt 0.777262 0.032449
vt 0.881875 0.042703
vt 0.777262 0.052957
vt 0.881875 0.052957
vt 0.777262 0.063210
vt 0.881875 0.063210
vt 0.777262 0.073464
vt 0.881875 0.073464
vt 0.777262 0.083718
vt 0.881875 0.083718
vt 0.777262 0.093972
vt 0.881875 0.093972
vt 0.777262 0.104226
vt 0.881875 0.104226
vt 0.777262 0.114480
vt 0.881875 0.114480
vt 0.777262 0.124734
vt 0.881875 0.124734
vt 0.777262 0.134988
vt 0.881875 0.134988
vt 0.777262 0.145242
vt 0.881875 0.145242
vt 0.777262 0.155496
vt 0.881875 0.155496
vt 0.777262 0.165750
vt 0.881875 0.165750
vt 0.777262 0.176004
vt 0.881875 0.176004
vt 0.777262 0.186257
vt 0.881875 0.186257
vt 0.777262 0.196511
vt 0.881875 0.196511
vt 0.777262 0.206765
vt 0.881875 0.206765
vt 0.777262 0.217019
vt 0.881875 0.217019
vt 0.777262 0.227273
vt 0.881875 0.227273
vt 0.777262 0.237527
vt 0.881875 0.237527
vt 0.777262 0.247781
vt 0.881875 0.247781
vt 0.777262 0.258035
vt 0.881875 0.258035
vt 0.777262 0.268289
vt 0.881875 0.268289
vt 0.777262 0.278543
vt 0.881875 0.278543
vt 0.777262 0.288797
vt 0.881875 0.288797
vt 0.777262 0.299050
vt 0.881875 0.299050
vt 0.777262 0.309304
vt 0.881875 0.309304
vt 0.777262 0.319558
vt 0.881875 0.319558
vt 0.777262 0.329812
vt 0.881875 0.329812
vt 0.777262 0.340066
vt 0.841659 0.508099
vt 0.876530 0.573338
vt 0.811292 0.608208
vt 0.881875 0.340066
vt 0.777262 0.350320
vt 0.881875 0.350320
vt 0.777262 0.360574
vt 0.804660 0.459031
vt 0.783186 0.388244
vt 0.853974 0.366771
vt 0.797909 0.914438
vt 0.785029 0.903976
vt 0.709219 0.872145
vt 0.676140 0.869979
vt 0.611721 0.884338
vt 0.589657 0.895833
vt 0.575951 0.905187
vt 0.368778 0.853698
vt 0.362910 0.859566
vt 0.356009 0.864177
vt 0.348342 0.867353
vt 0.340202 0.868972
vt 0.331903 0.868972
vt 0.323764 0.867353
vt 0.316097 0.864177
vt 0.309196 0.859566
vt 0.303328 0.853698
vt 0.298717 0.846798
vt 0.295541 0.839130
vt 0.293922 0.830991
vt 0.293922 0.822692
vt 0.295541 0.814552
vt 0.303328 0.799984
vt 0.309196 0.794116
vt 0.316097 0.789505
vt 0.323764 0.786329
vt 0.331903 0.784710
vt 0.340202 0.784710
vt 0.348342 0.786329
vt 0.362910 0.794116
vt 0.368778 0.799984
vt 0.373389 0.806885
vt 0.376565 0.814552
vt 0.378184 0.822692
vt 0.378184 0.830991
vt 0.376565 0.839130
vt 0.061215 0.850020
vt 0.061215 0.833459
vt 0.064445 0.817217
vt 0.070783 0.801917
vt 0.079983 0.788147
vt 0.091694 0.776437
vt 0.105463 0.767237
vt 0.120763 0.760899
vt 0.137006 0.757668
vt 0.153566 0.757668
vt 0.169809 0.760899
vt 0.185109 0.767237
vt 0.198878 0.776437
vt 0.210588 0.788147
vt 0.219789 0.801917
vt 0.229357 0.833459
vt 0.229357 0.850020
vt 0.226127 0.866262
vt 0.219789 0.881562
vt 0.210589 0.895332
vt 0.198878 0.907042
vt 0.185109 0.916243
vt 0.153566 0.925811
vt 0.137006 0.925811
vt 0.120763 0.922580
vt 0.105463 0.916243
vt 0.091694 0.907042
vt 0.079983 0.895332
vt 0.070783 0.881562
vt 0.086392 0.338890
vt 0.251353 0.091568
vt 0.140004 0.075923
vt 0.188851 0.296506
vt 0.289725 0.173615
vt 0.277863 0.353963
vt 0.277678 0.353963
vt 0.426856 0.299152
vt 0.801818 0.604284
vt 0.793292 0.598587
vt 0.786042 0.591337
vt 0.780345 0.582811
vt 0.776421 0.573338
vt 0.774421 0.563281
vt 0.774421 0.553027
vt 0.776421 0.542970
vt 0.780345 0.533496
vt 0.786042 0.524971
vt 0.793292 0.517720
vt 0.801818 0.512023
vt 0.811292 0.508099
vt 0.821348 0.506099
vt 0.831602 0.506099
vt 0.851133 0.512023
vt 0.859658 0.517720
vt 0.866909 0.524971
vt 0.872606 0.533496
vt 0.876530 0.542970
vt 0.878530 0.553027
vt 0.878530 0.563281
vt 0.872606 0.582811
vt 0.866909 0.591337
vt 0.859658 0.598587
vt 0.851133 0.604284
vt 0.841659 0.608208
vt 0.831602 0.610209
vt 0.821348 0.610209
vt 0.881875 0.360574
vt 0.862500 0.372467
vt 0.869750 0.379718
vt 0.875447 0.388244
vt 0.879371 0.397717
vt 0.881372 0.407774
vt 0.881372 0.418028
vt 0.879371 0.428085
vt 0.875447 0.437558
vt 0.869750 0.446084
vt 0.862500 0.453335
vt 0.853974 0.459031
vt 0.844501 0.462955
vt 0.834444 0.464956
vt 0.824190 0.464956
vt 0.814133 0.462955
vt 0.796134 0.453335
vt 0.788883 0.446084
vt 0.783186 0.437558
vt 0.779262 0.428085
vt 0.777262 0.418028
vt 0.777262 0.407774
vt 0.779262 0.397717
vt 0.788883 0.379718
vt 0.796134 0.372467
vt 0.804660 0.366771
vt 0.814133 0.362846
vt 0.824190 0.360846
vt 0.834444 0.360846
vt 0.844501 0.362847
s 0
usemtl material
f 2/1/1 3/2/1 1/3/1
f 3/2/2 6/4/2 5/5/2
f 6/4/3 7/6/3 5/5/3
f 7/6/4 10/7/4 9/8/4
f 10/7/5 11/9/5 9/8/5
f 12/10/6 13/11/6 11/9/6
f 14/12/7 15/13/7 13/11/7
f 16/14/8 17/15/8 15/13/8
f 18/16/9 19/17/9 17/15/9
f 20/18/10 21/19/10 19/17/10
f 22/20/11 23/21/11 21/19/11
f 24/22/12 25/23/12 23/21/12
f 26/24/13 27/25/13 25/23/13
f 27/25/14 30/26/14 29/27/14
f 30/26/15 31/28/15 29/27/15
f 32/29/16 33/30/16 31/28/16
f 34/31/17 35/32/17 33/30/17
f 35/32/18 38/33/18 37/34/18
f 37/34/19 40/35/19 39/36/19
f 40/35/20 41/37/20 39/36/20
f 42/38/21 43/39/21 41/37/21
f 44/40/22 45/41/22 43/39/22
f 46/42/23 47/43/23 45/41/23
f 48/44/24 49/45/24 47/43/24
f 50/46/25 51/47/25 49/45/25
f 51/47/26 54/48/26 53/49/26
f 54/48/27 55/50/27 53/49/27
f 56/51/28 57/52/28 55/50/28
f 57/52/29 60/53/29 59/54/29
f 60/53/30 61/55/30 59/54/30
f 38/56/31 22/57/31 6/58/31
f 61/55/32 64/59/32 63/60/32
f 63/60/33 2/61/33 1/62/33
f 31/63/34 47/64/34 63/65/34
f 65/66/35 68/67/35 67/68/35
f 67/68/36 85/69/36 71/70/36
f 72/71/37 69/72/37 71/70/37
f 70/73/31 65/74/31 69/72/31
f 71/70/38 73/75/38 67/68/38
f 68/76/39 70/73/39 72/71/39
f 75/77/40 74/78/40 73/79/40
f 67/68/35 77/80/35 74/81/35
f 73/75/35 77/80/35 78/82/35
f 75/77/37 82/83/37 81/84/37
f 71/70/37 76/85/37 80/86/37
f 65/74/41 76/85/41 69/72/41
f 78/87/42 82/88/42 79/89/42
f 80/90/43 78/91/43 77/92/43
f 82/93/44 77/94/44 79/95/44
f 84/96/34 85/69/34 83/97/34
f 72/71/39 84/98/39 68/76/39
f 68/67/35 83/97/35 67/68/35
f 72/71/37 85/69/37 86/99/37
f 88/100/45 89/101/45 87/102/45
f 90/103/46 91/104/46 89/101/46
f 92/105/47 93/106/47 91/104/47
f 94/107/48 95/108/48 93/106/48
f 96/109/49 97/110/49 95/108/49
f 98/111/50 99/112/50 97/110/50
f 100/113/51 101/114/51 99/112/51
f 102/115/52 103/116/52 101/114/52
f 104/117/53 105/118/53 103/116/53
f 106/119/54 107/120/54 105/118/54
f 108/121/55 109/122/55 107/120/55
f 110/123/56 111/124/56 109/122/56
f 112/125/57 113/126/57 111/124/57
f 114/127/58 115/128/58 113/126/58
f 116/129/59 117/130/59 115/128/59
f 118/131/60 119/132/60 117/130/60
f 120/133/61 121/134/61 119/132/61
f 122/135/62 123/136/62 121/134/62
f 124/137/63 125/138/63 123/136/63
f 126/139/64 127/140/64 125/138/64
f 128/141/65 129/142/65 127/140/65
f 130/143/66 131/144/66 129/142/66
f 132/145/67 133/146/67 131/144/67
f 134/147/68 135/148/68 133/146/68
f 136/149/69 137/150/69 135/148/69
f 138/151/70 139/152/70 137/150/70
f 140/153/71 141/154/71 139/152/71
f 142/155/72 143/156/72 141/154/72
f 144/157/73 145/158/73 143/156/73
f 146/159/74 147/160/74 145/158/74
f 124/161/31 108/162/31 92/163/31
f 148/164/75 149/165/75 147/160/75
f 150/166/76 87/167/76 149/165/76
f 117/168/34 133/169/34 149/170/34
f 2/1/1 4/171/1 3/2/1
f 3/2/2 4/171/2 6/4/2
f 6/4/3 8/172/3 7/6/3
f 7/6/4 8/172/4 10/7/4
f 10/7/5 12/10/5 11/9/5
f 12/10/6 14/12/6 13/11/6
f 14/12/7 16/14/7 15/13/7
f 16/14/8 18/16/8 17/15/8
f 18/16/9 20/18/9 19/17/9
f 20/18/10 22/20/10 21/19/10
f 22/20/11 24/22/11 23/21/11
f 24/22/12 26/24/12 25/23/12
f 26/24/13 28/173/13 27/25/13
f 27/25/14 28/173/14 30/26/14
f 30/26/15 32/29/15 31/28/15
f 32/29/16 34/31/16 33/30/16
f 34/31/17 36/174/17 35/32/17
f 35/32/18 36/174/18 38/33/18
f 37/34/19 38/33/19 40/35/19
f 40/35/20 42/38/20 41/37/20
f 42/38/21 44/40/21 43/39/21
f 44/40/22 46/42/22 45/41/22
f 46/42/23 48/44/23 47/43/23
f 48/44/24 50/46/24 49/45/24
f 50/46/25 52/175/25 51/47/25
f 51/47/26 52/175/26 54/48/26
f 54/48/27 56/51/27 55/50/27
f 56/51/28 58/176/28 57/52/28
f 57/52/29 58/176/29 60/53/29
f 60/53/30 62/177/30 61/55/30
f 6/58/77 4/178/77 2/179/77
f 2/179/31 64/180/31 62/181/31
f 62/181/77 60/182/77 58/183/77
f 58/183/78 56/184/78 54/185/78
f 54/185/31 52/186/31 50/187/31
f 50/187/31 48/188/31 46/189/31
f 46/189/77 44/190/77 42/191/77
f 42/191/79 40/192/79 38/56/79
f 38/56/31 36/193/31 34/194/31
f 34/194/79 32/195/79 30/196/79
f 30/196/31 28/197/31 26/198/31
f 26/198/78 24/199/78 22/57/78
f 22/57/31 20/200/31 18/201/31
f 18/201/31 16/202/31 14/203/31
f 14/203/31 12/204/31 10/205/31
f 10/205/31 8/206/31 6/58/31
f 6/58/31 2/179/31 62/181/31
f 62/181/31 58/183/31 54/185/31
f 54/185/31 50/187/31 46/189/31
f 46/189/31 42/191/31 38/56/31
f 38/56/31 34/194/31 30/196/31
f 30/196/31 26/198/31 22/57/31
f 22/57/31 18/201/31 14/203/31
f 14/203/31 10/205/31 6/58/31
f 6/58/31 62/181/31 54/185/31
f 54/185/31 46/189/31 38/56/31
f 38/56/31 30/196/31 22/57/31
f 22/57/31 14/203/31 6/58/31
f 6/58/31 54/185/31 38/56/31
f 61/55/32 62/177/32 64/59/32
f 63/60/33 64/59/33 2/61/33
f 63/65/34 1/207/34 3/208/34
f 3/208/80 5/209/80 7/210/80
f 7/210/34 9/211/34 11/212/34
f 11/212/34 13/213/34 15/214/34
f 15/214/34 17/215/34 19/216/34
f 19/216/34 21/217/34 23/218/34
f 23/218/34 25/219/34 27/220/34
f 27/220/81 29/221/81 31/63/81
f 31/63/34 33/222/34 35/223/34
f 35/223/81 37/224/81 39/225/81
f 39/225/34 41/226/34 43/227/34
f 43/227/34 45/228/34 47/64/34
f 47/64/34 49/229/34 51/230/34
f 51/230/34 53/231/34 55/232/34
f 55/232/34 57/233/34 59/234/34
f 59/234/80 61/235/80 63/65/80
f 63/65/34 3/208/34 7/210/34
f 7/210/34 11/212/34 15/214/34
f 15/214/34 19/216/34 23/218/34
f 23/218/34 27/220/34 31/63/34
f 31/63/34 35/223/34 39/225/34
f 39/225/34 43/227/34 47/64/34
f 47/64/34 51/230/34 55/232/34
f 55/232/34 59/234/34 63/65/34
f 63/65/34 7/210/34 15/214/34
f 15/214/34 23/218/34 31/63/34
f 31/63/34 39/225/34 47/64/34
f 47/64/34 55/232/34 63/65/34
f 63/65/34 15/214/34 31/63/34
f 65/66/35 66/236/35 68/67/35
f 67/68/36 83/97/36 85/69/36
f 72/71/37 70/73/37 69/72/37
f 70/73/31 66/237/31 65/74/31
f 71/70/38 75/77/38 73/75/38
f 68/76/39 66/238/39 70/73/39
f 75/77/40 76/85/40 74/78/40
f 74/81/35 65/66/35 67/68/35
f 67/68/35 79/239/35 77/80/35
f 79/239/35 67/68/35 73/75/35
f 73/75/35 74/81/35 77/80/35
f 78/82/35 79/239/35 73/75/35
f 81/84/37 80/86/37 76/85/37
f 75/77/37 71/70/37 82/83/37
f 81/84/37 76/85/37 75/77/37
f 80/86/37 82/83/37 71/70/37
f 71/70/37 69/72/37 76/85/37
f 65/74/41 74/240/41 76/85/41
f 78/87/42 81/241/42 82/88/42
f 80/90/43 81/242/43 78/91/43
f 82/93/44 80/243/44 77/94/44
f 84/96/34 86/99/34 85/69/34
f 72/71/39 86/99/39 84/98/39
f 68/67/35 84/96/35 83/97/35
f 72/71/37 71/70/37 85/69/37
f 88/100/45 90/103/45 89/101/45
f 90/103/46 92/105/46 91/104/46
f 92/105/47 94/107/47 93/106/47
f 94/107/48 96/109/48 95/108/48
f 96/109/49 98/111/49 97/110/49
f 98/111/50 100/113/50 99/112/50
f 100/113/51 102/115/51 101/114/51
f 102/115/52 104/117/52 103/116/52
f 104/117/53 106/119/53 105/118/53
f 106/119/54 108/121/54 107/120/54
f 108/121/55 110/123/55 109/122/55
f 110/123/56 112/125/56 111/124/56
f 112/125/57 114/127/57 113/126/57
f 114/127/58 116/129/58 115/128/58
f 116/129/59 118/131/59 117/130/59
f 118/131/60 120/133/60 119/132/60
f 120/133/61 122/135/61 121/134/61
f 122/135/62 124/137/62 123/136/62
f 124/137/63 126/139/63 125/138/63
f 126/139/64 128/141/64 127/140/64
f 128/141/65 130/143/65 129/142/65
f 130/143/66 132/145/66 131/144/66
f 132/145/67 134/147/67 133/146/67
f 134/147/68 136/149/68 135/148/68
f 136/149/69 138/151/69 137/150/69
f 138/151/70 140/153/70 139/152/70
f 140/153/71 142/155/71 141/154/71
f 142/155/72 144/157/72 143/156/72
f 144/157/73 146/159/73 145/158/73
f 146/159/74 148/164/74 147/160/74
f 92/163/77 90/244/77 88/245/77
f 88/245/77 150/246/77 148/247/77
f 148/247/79 146/248/79 144/249/79
f 144/249/82 142/250/82 140/251/82
f 140/251/31 138/252/31 136/253/31
f 136/253/31 134/254/31 132/255/31
f 132/255/78 130/256/78 128/257/78
f 128/257/77 126/258/77 124/161/77
f 124/161/79 122/259/79 120/260/79
f 120/260/79 118/261/79 116/262/79
f 116/262/77 114/263/77 112/264/77
f 112/264/78 110/265/78 108/162/78
f 108/162/31 106/266/31 104/267/31
f 104/267/31 102/268/31 100/269/31
f 100/269/82 98/270/82 96/271/82
f 96/271/79 94/272/79 92/163/79
f 92/163/31 88/245/31 148/247/31
f 148/247/31 144/249/31 140/251/31
f 140/251/31 136/253/31 132/255/31
f 132/255/31 128/257/31 124/161/31
f 124/161/31 120/260/31 116/262/31
f 116/262/31 112/264/31 108/162/31
f 108/162/31 104/267/31 100/269/31
f 100/269/31 96/271/31 92/163/31
f 92/163/31 148/247/31 140/251/31
f 140/251/31 132/255/31 124/161/31
f 124/161/31 116/262/31 108/162/31
f 108/162/31 100/269/31 92/163/31
f 92/163/31 140/251/31 124/161/31
f 148/164/75 150/166/75 149/165/75
f 150/166/76 88/273/76 87/167/76
f 149/170/34 87/274/34 89/275/34
f 89/275/34 91/276/34 93/277/34
f 93/277/34 95/278/34 97/279/34
f 97/279/34 99/280/34 101/281/34
f 101/281/34 103/282/34 105/283/34
f 105/283/34 107/284/34 109/285/34
f 109/285/34 111/286/34 113/287/34
f 113/287/34 115/288/34 117/168/34
f 117/168/34 119/289/34 121/290/34
f 121/290/34 123/291/34 125/292/34
f 125/292/34 127/293/34 129/294/34
f 129/294/34 131/295/34 133/169/34
f 133/169/34 135/296/34 137/297/34
f 137/297/34 139/298/34 141/299/34
f 141/299/34 143/300/34 145/301/34
f 145/301/34 147/302/34 149/170/34
f 149/170/34 89/275/34 93/277/34
f 93/277/34 97/279/34 101/281/34
f 101/281/34 105/283/34 109/285/34
f 109/285/34 113/287/34 117/168/34
f 117/168/34 121/290/34 125/292/34
f 125/292/34 129/294/34 133/169/34
f 133/169/34 137/297/34 141/299/34
f 141/299/34 145/301/34 149/170/34
f 149/170/34 93/277/34 101/281/34
f 101/281/34 109/285/34 117/168/34
f 117/168/34 125/292/34 133/169/34
f 133/169/34 141/299/34 149/170/34
f 149/170/34 101/281/34 117/168/34
