# Blender 4.4.1
# www.blender.org
mtllib player.mtl
o Cube
v 0.360000 2.843966 0.360000
v 0.360000 2.123966 0.360000
v -0.360000 2.843966 0.360000
v -0.360000 2.123966 0.360000
v 0.360000 2.843966 -0.360000
v 0.360000 2.123966 -0.360000
v -0.360000 2.843966 -0.360000
v -0.360000 2.123966 -0.360000
v 0.360000 2.061047 0.360000
v 0.360000 0.855462 0.360000
v -0.360000 2.061047 0.360000
v -0.360000 0.855462 0.360000
v 0.360000 2.061047 -0.360000
v 0.360000 0.855462 -0.360000
v -0.360000 2.061047 -0.360000
v -0.360000 0.855462 -0.360000
v 0.656588 2.062072 0.180000
v 1.176294 1.110484 0.180000
v 0.340638 1.889516 0.180000
v 0.860344 0.937929 0.180000
v 0.656588 2.062072 -0.180000
v 1.176294 1.110484 -0.180000
v 0.340638 1.889516 -0.180000
v 0.860344 0.937929 -0.180000
v -0.361938 1.889516 0.180000
v -0.881644 0.937929 0.180000
v -0.677888 2.062072 0.180000
v -1.197594 1.110484 0.180000
v -0.361938 1.889516 -0.180000
v -0.881644 0.937929 -0.180000
v -0.677888 2.062072 -0.180000
v -1.197594 1.110484 -0.180000
v -0.096853 0.798685 0.266414
v -0.230580 -0.277294 0.266414
v -0.454104 0.843085 0.266414
v -0.587831 -0.232894 0.266414
v -0.096853 0.798685 -0.266414
v -0.230580 -0.277294 -0.266414
v -0.454104 0.843085 -0.266414
v -0.587831 -0.232894 -0.266414
v 0.459350 0.842013 0.266414
v 0.582986 -0.235172 0.266414
v 0.101698 0.800963 0.266414
v 0.225334 -0.276222 0.266414
v 0.459350 0.842013 -0.266414
v 0.582986 -0.235172 -0.266414
v 0.101698 0.800963 -0.266414
v 0.225334 -0.276222 -0.266414
v 0.000000 1.832728 -0.404272
v 0.018135 1.831415 -0.403062
v 0.035573 1.827525 -0.399476
v 0.051644 1.821209 -0.393654
v 0.065731 1.812710 -0.385818
v 0.077291 1.802353 -0.376270
v 0.085881 1.790537 -0.365377
v 0.091171 1.777715 -0.353557
v 0.092957 1.764382 -0.341265
v 0.091171 1.751048 -0.328973
v 0.085881 1.738227 -0.317153
v 0.077291 1.726411 -0.306260
v 0.065731 1.716054 -0.296712
v 0.051644 1.707554 -0.288877
v 0.035573 1.701238 -0.283054
v 0.018135 1.697349 -0.279469
v 0.000000 1.696036 -0.278258
v -0.018135 1.697349 -0.279469
v -0.035573 1.701238 -0.283054
v -0.051644 1.707554 -0.288877
v -0.065731 1.716054 -0.296712
v -0.077291 1.726411 -0.306260
v -0.085881 1.738227 -0.317153
v -0.091171 1.751048 -0.328973
v -0.092957 1.764382 -0.341265
v -0.091171 1.777715 -0.353557
v -0.085881 1.790537 -0.365377
v -0.077291 1.802353 -0.376270
v -0.065731 1.812710 -0.385818
v -0.051644 1.821209 -0.393654
v -0.035573 1.827525 -0.399476
v -0.018135 1.831415 -0.403062
v -0.000000 1.691148 -0.597498
v 0.000000 1.676105 -0.706905
v 0.023378 1.689455 -0.595937
v 0.035688 1.673521 -0.704522
v 0.045858 1.684441 -0.591315
v 0.070004 1.665868 -0.697467
v 0.066575 1.676299 -0.583809
v 0.101630 1.653439 -0.686009
v 0.084734 1.665343 -0.573708
v 0.129350 1.636712 -0.670589
v 0.099636 1.651991 -0.561400
v 0.152100 1.616331 -0.651800
v 0.110710 1.636759 -0.547357
v 0.169004 1.593078 -0.630363
v 0.117529 1.620231 -0.532121
v 0.179414 1.567848 -0.607104
v 0.119832 1.603043 -0.516275
v 0.182929 1.541609 -0.582914
v 0.117529 1.585854 -0.500429
v 0.179414 1.515370 -0.558725
v 0.110710 1.569327 -0.485192
v 0.169004 1.490139 -0.535465
v 0.099636 1.554094 -0.471150
v 0.152100 1.466887 -0.514029
v 0.084734 1.540743 -0.458842
v 0.129350 1.446506 -0.495240
v 0.066575 1.529786 -0.448741
v 0.101630 1.429779 -0.479820
v 0.045858 1.521644 -0.441235
v 0.070004 1.417350 -0.468362
v 0.023378 1.516631 -0.436613
v 0.035688 1.409697 -0.461306
v 0.000000 1.514938 -0.435052
v 0.000000 1.407112 -0.458924
v -0.023378 1.516631 -0.436613
v -0.035688 1.409697 -0.461306
v -0.045858 1.521644 -0.441235
v -0.070004 1.417350 -0.468362
v -0.066575 1.529786 -0.448741
v -0.101630 1.429779 -0.479820
v -0.084734 1.540743 -0.458842
v -0.129350 1.446506 -0.495240
v -0.099636 1.554094 -0.471150
v -0.152100 1.466887 -0.514029
v -0.110710 1.569327 -0.485192
v -0.169004 1.490139 -0.535465
v -0.117529 1.585854 -0.500429
v -0.179414 1.515370 -0.558725
v -0.119832 1.603043 -0.516275
v -0.182929 1.541609 -0.582914
v -0.117529 1.620231 -0.532121
v -0.179414 1.567848 -0.607104
v -0.110710 1.636759 -0.547357
v -0.169004 1.593078 -0.630363
v -0.099636 1.651991 -0.561400
v -0.152100 1.616331 -0.651800
v -0.084734 1.665343 -0.573708
v -0.129350 1.636712 -0.670589
v -0.066575 1.676299 -0.583809
v -0.101630 1.653439 -0.686009
v -0.045858 1.684441 -0.591315
v -0.070004 1.665868 -0.697467
v -0.023378 1.689455 -0.595937
v -0.035688 1.673521 -0.704522
vn -0.0000 1.0000 -0.0000
vn -1.0000 -0.0000 -0.0000
vn -0.0000 -0.0000 -1.0000
vn -0.0000 -1.0000 -0.0000
vn -0.0000 -0.0000 1.0000
vn 1.0000 -0.0000 -0.0000
vn -0.4793 0.8776 -0.0000
vn -0.8776 -0.4793 -0.0000
vn 0.4793 -0.8776 -0.0000
vn 0.8776 0.4793 -0.0000
vn 0.4793 0.8776 -0.0000
vn -0.8776 0.4793 -0.0000
vn -0.4793 -0.8776 -0.0000
vn 0.8776 -0.4793 -0.0000
vn 0.1233 0.9924 -0.0000
vn -0.9924 0.1233 -0.0000
vn -0.1233 -0.9924 -0.0000
vn 0.9924 -0.1233 -0.0000
vn -0.1140 0.9935 -0.0000
vn -0.9935 -0.1140 -0.0000
vn 0.1140 -0.9935 -0.0000
vn 0.9935 0.1140 -0.0000
vn -0.0946 0.8841 -0.4576
vn 0.4548 0.8038 -0.3835
vn 0.6121 0.7265 -0.3123
vn 0.7458 0.6282 -0.2216
vn 0.8509 0.5126 -0.1150
vn 0.9233 0.3841 0.0034
vn 0.9602 0.2477 0.1292
vn 0.9602 0.1086 0.2574
vn 0.9233 -0.0278 0.3831
vn 0.8509 -0.1562 0.5015
vn 0.7458 -0.2719 0.6081
vn 0.6121 -0.3702 0.6988
vn 0.4548 -0.4475 0.7700
vn 0.2801 -0.5007 0.8191
vn 0.0946 -0.5278 0.8441
vn -0.0946 -0.5278 0.8441
vn -0.2801 -0.5007 0.8191
vn -0.4548 -0.4475 0.7700
vn -0.6121 -0.3702 0.6988
vn -0.7458 -0.2719 0.6081
vn -0.8509 -0.1562 0.5015
vn -0.9233 -0.0278 0.3831
vn -0.9602 0.1086 0.2574
vn -0.9602 0.2477 0.1292
vn -0.9233 0.3841 0.0034
vn -0.8509 0.5126 -0.1150
vn -0.7458 0.6282 -0.2216
vn -0.6121 0.7265 -0.3123
vn -0.4548 0.8038 -0.3835
vn -0.2801 0.8570 -0.4326
vn -0.0000 0.6778 0.7352
vn 0.2801 0.8570 -0.4326
vn 0.0946 0.8841 -0.4576
vn -0.0806 -0.9875 0.1358
vn -0.2386 -0.9643 0.1145
vn -0.3875 -0.9190 0.0727
vn -0.5215 -0.8532 0.0120
vn -0.6354 -0.7694 -0.0653
vn -0.7249 -0.6709 -0.1561
vn -0.7866 -0.5614 -0.2570
vn -0.8180 -0.4452 -0.3641
vn -0.8180 -0.3268 -0.4733
vn -0.7866 -0.2106 -0.5804
vn -0.7249 -0.1011 -0.6814
vn -0.6354 -0.0026 -0.7722
vn -0.5215 0.0812 -0.8494
vn -0.3875 0.1470 -0.9101
vn -0.2386 0.1923 -0.9519
vn -0.0806 0.2155 -0.9732
vn 0.0806 0.2155 -0.9732
vn 0.2386 0.1923 -0.9519
vn 0.3875 0.1470 -0.9101
vn 0.5215 0.0812 -0.8494
vn 0.6354 -0.0026 -0.7722
vn 0.7249 -0.1011 -0.6813
vn 0.7866 -0.2106 -0.5804
vn 0.8180 -0.3268 -0.4733
vn 0.8180 -0.4452 -0.3641
vn 0.7866 -0.5614 -0.2570
vn 0.7249 -0.6709 -0.1561
vn 0.6354 -0.7694 -0.0653
vn 0.5215 -0.8532 0.0120
vn 0.3875 -0.9190 0.0727
vn 0.2386 -0.9643 0.1145
vn 0.0806 -0.9875 0.1358
vn -0.0000 -0.6778 -0.7352
vn -0.0001 0.6778 0.7352
vn -0.0001 0.6778 0.7353
vn -0.0000 0.6778 0.7353
vn 0.0001 0.6778 0.7352
vn 0.0001 0.6778 0.7353
vn -0.7249 -0.1011 -0.6813
vn 0.7249 -0.1011 -0.6814
vn -0.0000 -0.6778 -0.7353
vn 0.0001 -0.6778 -0.7352
vn -0.0001 -0.6778 -0.7352
vt 0.766727 0.715417
vt 0.829551 0.778242
vt 0.766727 0.778242
vt 0.892375 0.841066
vt 0.829551 0.841066
vt 0.641079 0.778242
vt 0.703903 0.841066
vt 0.641079 0.841066
vt 0.766727 0.841066
vt 0.829551 0.903889
vt 0.766727 0.903889
vt 0.703903 0.778242
vt 0.774403 0.295138
vt 0.837227 0.357961
vt 0.774403 0.357961
vt 0.900051 0.420786
vt 0.837227 0.420786
vt 0.648755 0.357961
vt 0.711579 0.420786
vt 0.648755 0.420786
vt 0.774403 0.420786
vt 0.837227 0.483610
vt 0.774403 0.483610
vt 0.711579 0.357961
vt 0.745565 0.601685
vt 0.682740 0.664509
vt 0.682740 0.601685
vt 0.619917 0.727334
vt 0.619917 0.664509
vt 0.619917 0.476037
vt 0.682740 0.538861
vt 0.619917 0.538861
vt 0.619917 0.601685
vt 0.557093 0.664509
vt 0.557093 0.601685
vt 0.327256 0.779149
vt 0.264432 0.716325
vt 0.327256 0.716325
vt 0.201608 0.653501
vt 0.264432 0.653501
vt 0.452904 0.716325
vt 0.390080 0.653501
vt 0.452904 0.653501
vt 0.327256 0.653501
vt 0.264432 0.590677
vt 0.327256 0.590677
vt 0.390080 0.716325
vt 0.152620 0.955705
vt 0.089795 0.892881
vt 0.152620 0.892881
vt 0.026971 0.830057
vt 0.089795 0.830057
vt 0.278267 0.830057
vt 0.215444 0.892881
vt 0.215444 0.830057
vt 0.152620 0.830057
vt 0.089795 0.767233
vt 0.152620 0.767233
vt 0.213978 0.520124
vt 0.151154 0.582948
vt 0.151154 0.520124
vt 0.088330 0.645772
vt 0.088330 0.582948
vt 0.151154 0.394476
vt 0.088330 0.457300
vt 0.088330 0.394476
vt 0.088330 0.520124
vt 0.025506 0.582948
vt 0.025506 0.520124
vt 0.151154 0.457300
vt 0.829551 0.715417
vt 0.892375 0.778242
vt 0.837227 0.295138
vt 0.900051 0.357961
vt 0.745565 0.664509
vt 0.682740 0.727334
vt 0.682740 0.476037
vt 0.264432 0.779149
vt 0.201608 0.716325
vt 0.089795 0.955705
vt 0.026971 0.892881
vt 0.278267 0.892881
vt 0.213978 0.582948
vt 0.151154 0.645772
vt 0.251880 0.326302
vt 0.025412 0.343996
vt 0.025412 0.326302
vt 0.959543 0.026851
vt 0.941849 0.253319
vt 0.941849 0.026851
vt 0.924155 0.253319
vt 0.924155 0.026851
vt 0.906462 0.026851
vt 0.906462 0.253319
vt 0.888768 0.026851
vt 0.560373 0.833346
vt 0.333905 0.851039
vt 0.333905 0.833346
vt 0.560373 0.868733
vt 0.333905 0.868733
vt 0.560373 0.886427
vt 0.333905 0.886427
vt 0.333905 0.904121
vt 0.560373 0.904121
vt 0.333905 0.921814
vt 0.560373 0.921814
vt 0.333905 0.939508
vt 0.560373 0.939508
vt 0.333905 0.957202
vt 0.560373 0.974896
vt 0.333905 0.974896
vt 0.251880 0.025509
vt 0.025412 0.043202
vt 0.025412 0.025509
vt 0.251880 0.060896
vt 0.025412 0.060896
vt 0.025412 0.078590
vt 0.251880 0.078590
vt 0.025412 0.096284
vt 0.251880 0.096284
vt 0.025412 0.113977
vt 0.251880 0.113977
vt 0.025412 0.131671
vt 0.251880 0.131671
vt 0.025412 0.149365
vt 0.251880 0.149365
vt 0.025412 0.167059
vt 0.251880 0.184752
vt 0.025412 0.184752
vt 0.025412 0.202446
vt 0.251880 0.202446
vt 0.025412 0.220140
vt 0.251880 0.237834
vt 0.025412 0.237834
vt 0.251880 0.255527
vt 0.025412 0.255527
vt 0.025412 0.273221
vt 0.251880 0.273221
vt 0.025412 0.290915
vt 0.251880 0.290915
vt 0.025412 0.308609
vt 0.347569 0.328732
vt 0.538818 0.347569
vt 0.519982 0.538818
vt 0.323904 0.253319
vt 0.306210 0.026851
vt 0.323904 0.026851
vt 0.341597 0.026851
vt 0.600379 0.296214
vt 0.592119 0.237119
vt 0.577113 0.291586
vt 0.626989 0.296499
vt 0.607359 0.240151
vt 0.603268 0.296499
vt 0.653144 0.291586
vt 0.622898 0.240151
vt 0.629879 0.296214
vt 0.677838 0.281666
vt 0.638139 0.237119
vt 0.655923 0.290744
vt 0.700122 0.267118
vt 0.652495 0.231173
vt 0.680399 0.280297
vt 0.719140 0.248503
vt 0.665415 0.222540
vt 0.702367 0.265276
vt 0.734161 0.226535
vt 0.676403 0.211552
vt 0.720982 0.246259
vt 0.744607 0.202059
vt 0.685036 0.198631
vt 0.735530 0.223975
vt 0.745450 0.199281
vt 0.694014 0.169035
vt 0.690983 0.184275
vt 0.750363 0.149405
vt 0.750363 0.173126
vt 0.745450 0.123250
vt 0.694014 0.153496
vt 0.750078 0.146515
vt 0.735530 0.098556
vt 0.690983 0.138255
vt 0.744607 0.120471
vt 0.720982 0.076272
vt 0.685036 0.123899
vt 0.734161 0.095995
vt 0.719140 0.074027
vt 0.665415 0.099991
vt 0.676403 0.110979
vt 0.680399 0.042233
vt 0.700122 0.055412
vt 0.655923 0.031787
vt 0.652495 0.091358
vt 0.677838 0.040864
vt 0.653144 0.030944
vt 0.622899 0.082380
vt 0.638139 0.085411
vt 0.626989 0.026031
vt 0.607359 0.082380
vt 0.600379 0.026316
vt 0.592119 0.085411
vt 0.574335 0.031787
vt 0.577762 0.091358
vt 0.549859 0.042233
vt 0.564842 0.099991
vt 0.511118 0.074027
vt 0.527891 0.057254
vt 0.509276 0.076272
vt 0.545221 0.123899
vt 0.553854 0.110979
vt 0.485650 0.120471
vt 0.494728 0.098556
vt 0.484808 0.123250
vt 0.536243 0.153496
vt 0.539275 0.138255
vt 0.479895 0.149405
vt 0.536243 0.169035
vt 0.480180 0.176015
vt 0.539275 0.184275
vt 0.485650 0.202059
vt 0.545221 0.198631
vt 0.496097 0.226535
vt 0.553854 0.211552
vt 0.511118 0.248503
vt 0.564842 0.222540
vt 0.549859 0.280297
vt 0.530135 0.267118
vt 0.574335 0.290744
vt 0.577763 0.231173
vt 0.552419 0.281666
vt 0.251880 0.343996
vt 0.959543 0.253319
vt 0.888768 0.253319
vt 0.560373 0.851039
vt 0.560373 0.957202
vt 0.251880 0.043202
vt 0.251880 0.167059
vt 0.251880 0.220140
vt 0.251880 0.308609
vt 0.497832 0.553618
vt 0.473222 0.563812
vt 0.447095 0.569009
vt 0.420456 0.569009
vt 0.394329 0.563812
vt 0.369718 0.553618
vt 0.347569 0.538818
vt 0.328732 0.519982
vt 0.313933 0.497832
vt 0.303739 0.473221
vt 0.298542 0.447095
vt 0.298542 0.420456
vt 0.303739 0.394329
vt 0.313933 0.369718
vt 0.328733 0.347569
vt 0.369718 0.313933
vt 0.394329 0.303739
vt 0.420456 0.298542
vt 0.447095 0.298542
vt 0.473222 0.303739
vt 0.497833 0.313933
vt 0.519982 0.328732
vt 0.553618 0.369718
vt 0.563812 0.394329
vt 0.569009 0.420456
vt 0.569009 0.447095
vt 0.563812 0.473221
vt 0.553618 0.497832
vt 0.538818 0.519982
vt 0.306210 0.253319
vt 0.341597 0.253319
vt 0.750078 0.176015
vt 0.702367 0.057254
vt 0.629879 0.026316
vt 0.603268 0.026031
vt 0.577113 0.030944
vt 0.552419 0.040864
vt 0.530135 0.055412
vt 0.496097 0.095995
vt 0.480180 0.146515
vt 0.479895 0.173126
vt 0.484808 0.199281
vt 0.494728 0.223975
vt 0.509276 0.246259
vt 0.527891 0.265276
s 1
usemtl マテリアル
f 5/1/1 3/2/1 1/3/1
f 3/2/2 8/4/2 4/5/2
f 7/6/3 6/7/3 8/8/3
f 2/9/4 8/10/4 6/11/4
f 1/3/5 4/5/5 2/9/5
f 5/12/6 2/9/6 6/7/6
f 13/13/1 11/14/1 9/15/1
f 11/14/2 16/16/2 12/17/2
f 15/18/3 14/19/3 16/20/3
f 10/21/4 16/22/4 14/23/4
f 9/15/5 12/17/5 10/21/5
f 13/24/6 10/21/6 14/19/6
f 21/25/7 19/26/7 17/27/7
f 19/26/8 24/28/8 20/29/8
f 24/30/3 21/31/3 22/32/3
f 18/33/9 24/34/9 22/35/9
f 17/27/5 20/29/5 18/33/5
f 21/31/10 18/33/10 22/32/10
f 29/36/11 27/37/11 25/38/11
f 27/37/12 32/39/12 28/40/12
f 31/41/3 30/42/3 32/43/3
f 26/44/13 32/45/13 30/46/13
f 26/44/5 27/37/5 28/40/5
f 29/47/14 26/44/14 30/42/14
f 37/48/15 35/49/15 33/50/15
f 35/49/16 40/51/16 36/52/16
f 40/53/3 37/54/3 38/55/3
f 34/56/17 40/57/17 38/58/17
f 33/50/5 36/52/5 34/56/5
f 37/54/18 34/56/18 38/55/18
f 45/59/19 43/60/19 41/61/19
f 43/60/20 48/62/20 44/63/20
f 47/64/3 46/65/3 48/66/3
f 42/67/21 48/68/21 46/69/21
f 42/67/5 43/60/5 44/63/5
f 45/70/22 42/67/22 46/65/22
f 5/1/1 7/71/1 3/2/1
f 3/2/2 7/72/2 8/4/2
f 7/6/3 5/12/3 6/7/3
f 2/9/4 4/5/4 8/10/4
f 1/3/5 3/2/5 4/5/5
f 5/12/6 1/3/6 2/9/6
f 13/13/1 15/73/1 11/14/1
f 11/14/2 15/74/2 16/16/2
f 15/18/3 13/24/3 14/19/3
f 10/21/4 12/17/4 16/22/4
f 9/15/5 11/14/5 12/17/5
f 13/24/6 9/15/6 10/21/6
f 21/25/7 23/75/7 19/26/7
f 19/26/8 23/76/8 24/28/8
f 24/30/3 23/77/3 21/31/3
f 18/33/9 20/29/9 24/34/9
f 17/27/5 19/26/5 20/29/5
f 21/31/10 17/27/10 18/33/10
f 29/36/11 31/78/11 27/37/11
f 27/37/12 31/79/12 32/39/12
f 31/41/3 29/47/3 30/42/3
f 26/44/13 28/40/13 32/45/13
f 26/44/5 25/38/5 27/37/5
f 29/47/14 25/38/14 26/44/14
f 37/48/15 39/80/15 35/49/15
f 35/49/16 39/81/16 40/51/16
f 40/53/3 39/82/3 37/54/3
f 34/56/17 36/52/17 40/57/17
f 33/50/5 35/49/5 36/52/5
f 37/54/18 33/50/18 34/56/18
f 45/59/19 47/83/19 43/60/19
f 43/60/20 47/84/20 48/62/20
f 47/64/3 45/70/3 46/65/3
f 42/67/21 44/63/21 48/68/21
f 42/67/5 41/61/5 43/60/5
f 45/70/22 41/61/22 42/67/22
s 0
f 80/85/23 82/86/23 144/87/23
f 86/88/24 52/89/24 88/90/24
f 88/90/25 53/91/25 90/92/25
f 53/91/26 92/93/26 90/92/26
f 54/94/27 94/95/27 92/93/27
f 55/96/28 96/97/28 94/98/28
f 96/97/29 57/99/29 98/100/29
f 98/100/30 58/101/30 100/102/30
f 58/101/31 102/103/31 100/102/31
f 59/104/32 104/105/32 102/103/32
f 60/106/33 106/107/33 104/105/33
f 61/108/34 108/109/34 106/107/34
f 108/109/35 63/110/35 110/111/35
f 63/112/36 112/113/36 110/114/36
f 112/113/37 65/115/37 114/116/37
f 65/115/38 116/117/38 114/116/38
f 66/118/39 118/119/39 116/117/39
f 67/120/40 120/121/40 118/119/40
f 68/122/41 122/123/41 120/121/41
f 69/124/42 124/125/42 122/123/42
f 70/126/43 126/127/43 124/125/43
f 126/127/44 72/128/44 128/129/44
f 72/128/45 130/130/45 128/129/45
f 73/131/46 132/132/46 130/130/46
f 132/132/47 75/133/47 134/134/47
f 134/134/48 76/135/48 136/136/48
f 76/135/49 138/137/49 136/136/49
f 77/138/50 140/139/50 138/137/50
f 78/140/51 142/141/51 140/139/51
f 142/141/52 80/85/52 144/87/52
f 67/142/53 59/143/53 51/144/53
f 50/145/54 86/146/54 84/147/54
f 82/148/55 50/145/55 84/147/55
f 84/149/56 81/150/56 82/151/56
f 86/152/57 83/153/57 84/154/57
f 88/155/58 85/156/58 86/157/58
f 90/158/59 87/159/59 88/160/59
f 92/161/60 89/162/60 90/163/60
f 94/164/61 91/165/61 92/166/61
f 96/167/62 93/168/62 94/169/62
f 98/170/63 95/171/63 96/172/63
f 98/173/64 99/174/64 97/175/64
f 102/176/65 99/174/65 100/177/65
f 104/178/66 101/179/66 102/180/66
f 106/181/67 103/182/67 104/183/67
f 108/184/68 105/185/68 106/186/68
f 108/187/69 109/188/69 107/189/69
f 112/190/70 109/188/70 110/191/70
f 114/192/71 111/193/71 112/194/71
f 114/195/72 115/196/72 113/197/72
f 116/198/73 117/199/73 115/196/73
f 118/200/74 119/201/74 117/199/74
f 120/202/75 121/203/75 119/201/75
f 122/204/76 123/205/76 121/203/76
f 126/206/77 123/205/77 124/207/77
f 126/208/78 127/209/78 125/210/78
f 130/211/79 127/209/79 128/212/79
f 130/213/80 131/214/80 129/215/80
f 132/216/81 133/217/81 131/214/81
f 134/218/82 135/219/82 133/217/82
f 136/220/83 137/221/83 135/219/83
f 138/222/84 139/223/84 137/221/84
f 140/224/85 141/225/85 139/223/85
f 144/226/86 141/225/86 142/227/86
f 82/228/87 143/229/87 144/230/87
f 111/193/88 127/209/88 143/229/88
f 80/85/23 49/231/23 82/86/23
f 86/88/24 51/232/24 52/89/24
f 88/90/25 52/89/25 53/91/25
f 53/91/26 54/94/26 92/93/26
f 54/94/27 55/233/27 94/95/27
f 55/96/28 56/234/28 96/97/28
f 96/97/29 56/234/29 57/99/29
f 98/100/30 57/99/30 58/101/30
f 58/101/31 59/104/31 102/103/31
f 59/104/32 60/106/32 104/105/32
f 60/106/33 61/108/33 106/107/33
f 61/108/34 62/235/34 108/109/34
f 108/109/35 62/235/35 63/110/35
f 63/112/36 64/236/36 112/113/36
f 112/113/37 64/236/37 65/115/37
f 65/115/38 66/118/38 116/117/38
f 66/118/39 67/120/39 118/119/39
f 67/120/40 68/122/40 120/121/40
f 68/122/41 69/124/41 122/123/41
f 69/124/42 70/126/42 124/125/42
f 70/126/43 71/237/43 126/127/43
f 126/127/44 71/237/44 72/128/44
f 72/128/45 73/131/45 130/130/45
f 73/131/46 74/238/46 132/132/46
f 132/132/47 74/238/47 75/133/47
f 134/134/48 75/133/48 76/135/48
f 76/135/49 77/138/49 138/137/49
f 77/138/50 78/140/50 140/139/50
f 78/140/51 79/239/51 142/141/51
f 142/141/52 79/239/52 80/85/52
f 51/144/53 50/240/53 49/241/53
f 49/241/53 80/242/53 79/243/53
f 79/243/89 78/244/89 77/245/89
f 77/245/90 76/246/90 75/247/90
f 75/247/89 74/248/89 73/249/89
f 73/249/89 72/250/89 71/251/89
f 71/251/89 70/252/89 69/253/89
f 69/253/53 68/254/53 67/142/53
f 67/142/91 66/255/91 65/256/91
f 65/256/53 64/257/53 63/258/53
f 63/258/91 62/259/91 61/260/91
f 61/260/92 60/261/92 59/143/92
f 59/143/92 58/262/92 57/263/92
f 57/263/92 56/264/92 55/265/92
f 55/265/93 54/266/93 53/267/93
f 53/267/92 52/268/92 51/144/92
f 51/144/53 49/241/53 79/243/53
f 79/243/53 77/245/53 75/247/53
f 75/247/53 73/249/53 71/251/53
f 71/251/53 69/253/53 67/142/53
f 67/142/53 65/256/53 63/258/53
f 63/258/53 61/260/53 59/143/53
f 59/143/53 57/263/53 55/265/53
f 55/265/53 53/267/53 51/144/53
f 51/144/53 79/243/53 75/247/53
f 75/247/53 71/251/53 67/142/53
f 67/142/53 63/258/53 59/143/53
f 59/143/53 55/265/53 51/144/53
f 51/144/53 75/247/53 67/142/53
f 50/145/54 51/269/54 86/146/54
f 82/148/55 49/270/55 50/145/55
f 84/149/56 83/153/56 81/150/56
f 86/152/57 85/156/57 83/153/57
f 88/155/58 87/159/58 85/156/58
f 90/158/59 89/162/59 87/159/59
f 92/161/60 91/165/60 89/162/60
f 94/164/61 93/168/61 91/165/61
f 96/167/62 95/171/62 93/168/62
f 98/170/63 97/175/63 95/171/63
f 98/173/64 100/271/64 99/174/64
f 102/176/65 101/179/65 99/174/65
f 104/178/94 103/182/94 101/179/94
f 106/181/67 105/185/67 103/182/67
f 108/184/68 107/189/68 105/185/68
f 108/187/69 110/272/69 109/188/69
f 112/190/70 111/193/70 109/188/70
f 114/192/71 113/197/71 111/193/71
f 114/195/72 116/273/72 115/196/72
f 116/198/73 118/274/73 117/199/73
f 118/200/74 120/275/74 119/201/74
f 120/202/75 122/276/75 121/203/75
f 122/204/76 124/277/76 123/205/76
f 126/206/95 125/210/95 123/205/95
f 126/208/78 128/278/78 127/209/78
f 130/211/79 129/215/79 127/209/79
f 130/213/80 132/279/80 131/214/80
f 132/216/81 134/280/81 133/217/81
f 134/218/82 136/281/82 135/219/82
f 136/220/83 138/282/83 137/221/83
f 138/222/84 140/283/84 139/223/84
f 140/224/85 142/284/85 141/225/85
f 144/226/86 143/229/86 141/225/86
f 82/228/87 81/150/87 143/229/87
f 143/229/88 81/150/88 83/153/88
f 83/153/88 85/156/88 87/159/88
f 87/159/96 89/162/96 91/165/96
f 91/165/88 93/168/88 95/171/88
f 95/171/88 97/175/88 99/174/88
f 99/174/96 101/179/96 103/182/96
f 103/182/97 105/185/97 107/189/97
f 107/189/88 109/188/88 111/193/88
f 111/193/88 113/197/88 115/196/88
f 115/196/88 117/199/88 119/201/88
f 119/201/98 121/203/98 123/205/98
f 123/205/88 125/210/88 127/209/88
f 127/209/88 129/215/88 131/214/88
f 131/214/88 133/217/88 135/219/88
f 135/219/96 137/221/96 139/223/96
f 139/223/88 141/225/88 143/229/88
f 143/229/88 83/153/88 87/159/88
f 87/159/88 91/165/88 95/171/88
f 95/171/88 99/174/88 103/182/88
f 103/182/88 107/189/88 111/193/88
f 111/193/88 115/196/88 119/201/88
f 119/201/88 123/205/88 127/209/88
f 127/209/88 131/214/88 135/219/88
f 135/219/88 139/223/88 143/229/88
f 143/229/88 87/159/88 95/171/88
f 95/171/88 103/182/88 111/193/88
f 111/193/88 119/201/88 127/209/88
f 127/209/88 135/219/88 143/229/88
f 143/229/88 95/171/88 111/193/88
